%TF.GenerationSoftware,KiCad,Pcbnew,9.0.2*%
%TF.CreationDate,2025-05-30T13:06:21+02:00*%
%TF.ProjectId,tiliqua-motherboard,74696c69-7175-4612-9d6d-6f7468657262,rev?*%
%TF.SameCoordinates,Original*%
%TF.FileFunction,Soldermask,Bot*%
%TF.FilePolarity,Negative*%
%FSLAX46Y46*%
G04 Gerber Fmt 4.6, Leading zero omitted, Abs format (unit mm)*
G04 Created by KiCad (PCBNEW 9.0.2) date 2025-05-30 13:06:21*
%MOMM*%
%LPD*%
G01*
G04 APERTURE LIST*
G04 Aperture macros list*
%AMRoundRect*
0 Rectangle with rounded corners*
0 $1 Rounding radius*
0 $2 $3 $4 $5 $6 $7 $8 $9 X,Y pos of 4 corners*
0 Add a 4 corners polygon primitive as box body*
4,1,4,$2,$3,$4,$5,$6,$7,$8,$9,$2,$3,0*
0 Add four circle primitives for the rounded corners*
1,1,$1+$1,$2,$3*
1,1,$1+$1,$4,$5*
1,1,$1+$1,$6,$7*
1,1,$1+$1,$8,$9*
0 Add four rect primitives between the rounded corners*
20,1,$1+$1,$2,$3,$4,$5,0*
20,1,$1+$1,$4,$5,$6,$7,0*
20,1,$1+$1,$6,$7,$8,$9,0*
20,1,$1+$1,$8,$9,$2,$3,0*%
%AMRotRect*
0 Rectangle, with rotation*
0 The origin of the aperture is its center*
0 $1 length*
0 $2 width*
0 $3 Rotation angle, in degrees counterclockwise*
0 Add horizontal line*
21,1,$1,$2,0,0,$3*%
G04 Aperture macros list end*
%ADD10C,0.250000*%
%ADD11C,0.010000*%
%ADD12C,0.100000*%
%ADD13C,0.300000*%
%ADD14C,0.000000*%
%ADD15C,0.600000*%
%ADD16O,1.600000X1.000000*%
%ADD17O,2.000000X1.000000*%
%ADD18R,1.700000X1.700000*%
%ADD19O,1.700000X1.700000*%
%ADD20C,1.800000*%
%ADD21C,6.400000*%
%ADD22C,0.700000*%
%ADD23C,4.400000*%
%ADD24C,1.100000*%
%ADD25C,1.600000*%
%ADD26O,1.500000X3.500000*%
%ADD27RoundRect,0.147500X-0.147500X-0.172500X0.147500X-0.172500X0.147500X0.172500X-0.147500X0.172500X0*%
%ADD28RoundRect,0.150000X0.512500X0.150000X-0.512500X0.150000X-0.512500X-0.150000X0.512500X-0.150000X0*%
%ADD29RoundRect,0.135000X0.035355X-0.226274X0.226274X-0.035355X-0.035355X0.226274X-0.226274X0.035355X0*%
%ADD30R,1.400000X1.200000*%
%ADD31RoundRect,0.150000X0.150000X-0.512500X0.150000X0.512500X-0.150000X0.512500X-0.150000X-0.512500X0*%
%ADD32R,1.800000X0.300000*%
%ADD33R,3.200000X2.500000*%
%ADD34R,0.500000X0.400000*%
%ADD35R,0.500000X0.300000*%
%ADD36RoundRect,0.093750X0.156250X0.093750X-0.156250X0.093750X-0.156250X-0.093750X0.156250X-0.093750X0*%
%ADD37RoundRect,0.075000X0.250000X0.075000X-0.250000X0.075000X-0.250000X-0.075000X0.250000X-0.075000X0*%
%ADD38R,1.600000X3.100000*%
%ADD39RoundRect,0.140000X-0.140000X-0.170000X0.140000X-0.170000X0.140000X0.170000X-0.140000X0.170000X0*%
%ADD40RoundRect,0.250000X0.475000X-0.250000X0.475000X0.250000X-0.475000X0.250000X-0.475000X-0.250000X0*%
%ADD41RotRect,0.500000X0.400000X45.000000*%
%ADD42RotRect,0.500000X0.300000X45.000000*%
%ADD43RoundRect,0.087500X0.087500X-0.725000X0.087500X0.725000X-0.087500X0.725000X-0.087500X-0.725000X0*%
%ADD44RoundRect,0.135000X0.185000X-0.135000X0.185000X0.135000X-0.185000X0.135000X-0.185000X-0.135000X0*%
%ADD45RoundRect,0.135000X-0.135000X-0.185000X0.135000X-0.185000X0.135000X0.185000X-0.135000X0.185000X0*%
%ADD46RoundRect,0.140000X-0.170000X0.140000X-0.170000X-0.140000X0.170000X-0.140000X0.170000X0.140000X0*%
G04 APERTURE END LIST*
D10*
X21130785Y-16446718D02*
X21130785Y-14346718D01*
D11*
X375367Y-77386701D02*
X1971480Y-77386701D01*
X1971480Y-96063239D01*
X375367Y-96063239D01*
X375367Y-77386701D01*
G36*
X375367Y-77386701D02*
G01*
X1971480Y-77386701D01*
X1971480Y-96063239D01*
X375367Y-96063239D01*
X375367Y-77386701D01*
G37*
D12*
X12053798Y-41706277D02*
X13783657Y-41706277D01*
X13783657Y-45149999D01*
X12053798Y-45149999D01*
X12053798Y-41706277D01*
G36*
X12053798Y-41706277D02*
G01*
X13783657Y-41706277D01*
X13783657Y-45149999D01*
X12053798Y-45149999D01*
X12053798Y-41706277D01*
G37*
D11*
X337544Y-18773461D02*
X1683657Y-18773461D01*
X1683657Y-30949999D01*
X337544Y-30949999D01*
X337544Y-18773461D01*
G36*
X337544Y-18773461D02*
G01*
X1683657Y-18773461D01*
X1683657Y-30949999D01*
X337544Y-30949999D01*
X337544Y-18773461D01*
G37*
X26947773Y-80161731D02*
X28940000Y-80161731D01*
X28940000Y-81398957D01*
X26947773Y-81398957D01*
X26947773Y-80161731D01*
G36*
X26947773Y-80161731D02*
G01*
X28940000Y-80161731D01*
X28940000Y-81398957D01*
X26947773Y-81398957D01*
X26947773Y-80161731D01*
G37*
X433657Y-449999D02*
X2771926Y-449999D01*
X2771926Y-2046112D01*
X433657Y-2046112D01*
X433657Y-449999D01*
G36*
X433657Y-449999D02*
G01*
X2771926Y-449999D01*
X2771926Y-2046112D01*
X433657Y-2046112D01*
X433657Y-449999D01*
G37*
X19496544Y-55658743D02*
X22688771Y-55658743D01*
X22688771Y-58835281D01*
X19496544Y-58835281D01*
X19496544Y-55658743D01*
G36*
X19496544Y-55658743D02*
G01*
X22688771Y-55658743D01*
X22688771Y-58835281D01*
X19496544Y-58835281D01*
X19496544Y-55658743D01*
G37*
X337544Y-57023461D02*
X1433657Y-57023461D01*
X1433657Y-69199999D01*
X337544Y-69199999D01*
X337544Y-57023461D01*
G36*
X337544Y-57023461D02*
G01*
X1433657Y-57023461D01*
X1433657Y-69199999D01*
X337544Y-69199999D01*
X337544Y-57023461D01*
G37*
D10*
X21130785Y-27646718D02*
X21130785Y-25546718D01*
D11*
X344782Y-35537990D02*
X2690895Y-35537990D01*
X2690895Y-47714528D01*
X344782Y-47714528D01*
X344782Y-35537990D01*
G36*
X344782Y-35537990D02*
G01*
X2690895Y-35537990D01*
X2690895Y-47714528D01*
X344782Y-47714528D01*
X344782Y-35537990D01*
G37*
D13*
G36*
X30991423Y-10756514D02*
G01*
X30985653Y-10707642D01*
X30969029Y-10666060D01*
X30941415Y-10630082D01*
X30905443Y-10602518D01*
X30863861Y-10585921D01*
X30814982Y-10580159D01*
X29227441Y-10580159D01*
X29178507Y-10585925D01*
X29136929Y-10602526D01*
X29101008Y-10630082D01*
X29073394Y-10666060D01*
X29056770Y-10707642D01*
X29051000Y-10756514D01*
X29051000Y-11075972D01*
X29223508Y-11075972D01*
X29223508Y-10829006D01*
X29230105Y-10799498D01*
X29248351Y-10782576D01*
X29282322Y-10776090D01*
X30760101Y-10776090D01*
X30794072Y-10782576D01*
X30812318Y-10799498D01*
X30818915Y-10829006D01*
X30818915Y-11075972D01*
X30991423Y-11075972D01*
X30991423Y-10756514D01*
G37*
G36*
X30306521Y-11202842D02*
G01*
X30361530Y-11218998D01*
X30409356Y-11245147D01*
X30451112Y-11280607D01*
X30485612Y-11323415D01*
X30513220Y-11374485D01*
X30539283Y-11459675D01*
X30548440Y-11559817D01*
X30540578Y-11654143D01*
X30520059Y-11720443D01*
X30487649Y-11775590D01*
X30452441Y-11812596D01*
X30383796Y-11859613D01*
X30383796Y-11889020D01*
X30389695Y-11889020D01*
X30428174Y-11894027D01*
X30459642Y-11908320D01*
X30485780Y-11932104D01*
X30511716Y-11980149D01*
X30521000Y-12043918D01*
X30521000Y-12194799D01*
X30352423Y-12194799D01*
X30352423Y-12112477D01*
X30345723Y-12081682D01*
X30327380Y-12064222D01*
X30293609Y-12057596D01*
X29895762Y-12057596D01*
X29808614Y-12050157D01*
X29735841Y-12029202D01*
X29674730Y-11995825D01*
X29623322Y-11949799D01*
X29582876Y-11893612D01*
X29553006Y-11826993D01*
X29534063Y-11747923D01*
X29527322Y-11653850D01*
X29532074Y-11573565D01*
X29545474Y-11504899D01*
X29566560Y-11446122D01*
X29612753Y-11367222D01*
X29669398Y-11307893D01*
X29736793Y-11263081D01*
X29811474Y-11232495D01*
X29872254Y-11420647D01*
X29822427Y-11436896D01*
X29780366Y-11461009D01*
X29744881Y-11493139D01*
X29718837Y-11532574D01*
X29702001Y-11584294D01*
X29695813Y-11651884D01*
X29702352Y-11720616D01*
X29719918Y-11771428D01*
X29746847Y-11808664D01*
X29783638Y-11836489D01*
X29827969Y-11853576D01*
X29881999Y-11859613D01*
X29944745Y-11859613D01*
X29944745Y-11577427D01*
X30101525Y-11577427D01*
X30101525Y-11859613D01*
X30121186Y-11859613D01*
X30198958Y-11850718D01*
X30261487Y-11825715D01*
X30312245Y-11785155D01*
X30350126Y-11731782D01*
X30373538Y-11667451D01*
X30381830Y-11589138D01*
X30376955Y-11531556D01*
X30363542Y-11485997D01*
X30342678Y-11449969D01*
X30313420Y-11421628D01*
X30278715Y-11404844D01*
X30236762Y-11399020D01*
X30194913Y-11404773D01*
X30162021Y-11421017D01*
X30135890Y-11448003D01*
X30110780Y-11502449D01*
X30101525Y-11577427D01*
X29944745Y-11577427D01*
X29944745Y-11565630D01*
X29953426Y-11463477D01*
X29978084Y-11376452D01*
X30004461Y-11323951D01*
X30037386Y-11280558D01*
X30077076Y-11245147D01*
X30123051Y-11219175D01*
X30177567Y-11202939D01*
X30242660Y-11197190D01*
X30306521Y-11202842D01*
G37*
G36*
X30913034Y-12591535D02*
G01*
X30389695Y-12591535D01*
X30389695Y-12622908D01*
X30427397Y-12649711D01*
X30465178Y-12685569D01*
X30497268Y-12729478D01*
X30524932Y-12789433D01*
X30542072Y-12858259D01*
X30548440Y-12948264D01*
X30541803Y-13027720D01*
X30522225Y-13101814D01*
X30489627Y-13171722D01*
X30445107Y-13234557D01*
X30389041Y-13288596D01*
X30320110Y-13334400D01*
X30243990Y-13367241D01*
X30155598Y-13387893D01*
X30052542Y-13395180D01*
X30023135Y-13395180D01*
X29920137Y-13387777D01*
X29831780Y-13366788D01*
X29755652Y-13333374D01*
X29686570Y-13287059D01*
X29630516Y-13232998D01*
X29586136Y-13170696D01*
X29553568Y-13101443D01*
X29533977Y-13027703D01*
X29527322Y-12948264D01*
X29531495Y-12889451D01*
X29705644Y-12889451D01*
X29715413Y-12973513D01*
X29743479Y-13044713D01*
X29789932Y-13105984D01*
X29834463Y-13142027D01*
X29887866Y-13168517D01*
X29951936Y-13185307D01*
X30029033Y-13191298D01*
X30046643Y-13191298D01*
X30124938Y-13185338D01*
X30189689Y-13168679D01*
X30243348Y-13142493D01*
X30287796Y-13107010D01*
X30334068Y-13046280D01*
X30362169Y-12974805D01*
X30371999Y-12889451D01*
X30362290Y-12806689D01*
X30334299Y-12736074D01*
X30287796Y-12674798D01*
X30243286Y-12638879D01*
X30189603Y-12612409D01*
X30124873Y-12595585D01*
X30046643Y-12589569D01*
X30029033Y-12589569D01*
X29951930Y-12595555D01*
X29887858Y-12612331D01*
X29834457Y-12638794D01*
X29789932Y-12674798D01*
X29743379Y-12736080D01*
X29715361Y-12806695D01*
X29705644Y-12889451D01*
X29531495Y-12889451D01*
X29533931Y-12855115D01*
X29551660Y-12784533D01*
X29578271Y-12731645D01*
X29634088Y-12664375D01*
X29693847Y-12618976D01*
X29693847Y-12587603D01*
X29554677Y-12587603D01*
X29554677Y-12389705D01*
X30913034Y-12389705D01*
X30913034Y-12591535D01*
G37*
G36*
X30521000Y-13784137D02*
G01*
X29725220Y-13784137D01*
X29725220Y-13513662D01*
X29554677Y-13513662D01*
X29554677Y-13784137D01*
X29343016Y-13784137D01*
X29286443Y-13790423D01*
X29240191Y-13808185D01*
X29201966Y-13837052D01*
X29173053Y-13875285D01*
X29155263Y-13921563D01*
X29148965Y-13978187D01*
X29148965Y-14227120D01*
X29319508Y-14227120D01*
X29319508Y-14042900D01*
X29326309Y-14010811D01*
X29344745Y-13992816D01*
X29378322Y-13986052D01*
X29554677Y-13986052D01*
X29554677Y-14264306D01*
X29725220Y-14264306D01*
X29725220Y-13986052D01*
X30521000Y-13986052D01*
X30521000Y-13784137D01*
G37*
G36*
X30548440Y-14467076D02*
G01*
X30543271Y-14423210D01*
X30528317Y-14385477D01*
X30503390Y-14352441D01*
X30470815Y-14327037D01*
X30432804Y-14311704D01*
X30387728Y-14306364D01*
X30342629Y-14311731D01*
X30304989Y-14327081D01*
X30273093Y-14352441D01*
X30248723Y-14385410D01*
X30234060Y-14423146D01*
X30228983Y-14467076D01*
X30234156Y-14510997D01*
X30249113Y-14548726D01*
X30274033Y-14581712D01*
X30306514Y-14607208D01*
X30343907Y-14622495D01*
X30387728Y-14627788D01*
X30432804Y-14622448D01*
X30470815Y-14607116D01*
X30503390Y-14581712D01*
X30528310Y-14548726D01*
X30543267Y-14510997D01*
X30548440Y-14467076D01*
G37*
G36*
X30306521Y-14828774D02*
G01*
X30361530Y-14844930D01*
X30409356Y-14871078D01*
X30451112Y-14906539D01*
X30485612Y-14949346D01*
X30513220Y-15000417D01*
X30539283Y-15085607D01*
X30548440Y-15185749D01*
X30540578Y-15280075D01*
X30520059Y-15346375D01*
X30487649Y-15401522D01*
X30452441Y-15438528D01*
X30383796Y-15485544D01*
X30383796Y-15514951D01*
X30389695Y-15514951D01*
X30428174Y-15519958D01*
X30459642Y-15534251D01*
X30485780Y-15558036D01*
X30511716Y-15606081D01*
X30521000Y-15669850D01*
X30521000Y-15820731D01*
X30352423Y-15820731D01*
X30352423Y-15738409D01*
X30345723Y-15707614D01*
X30327380Y-15690154D01*
X30293609Y-15683528D01*
X29895762Y-15683528D01*
X29808614Y-15676089D01*
X29735841Y-15655134D01*
X29674730Y-15621757D01*
X29623322Y-15575731D01*
X29582876Y-15519543D01*
X29553006Y-15452925D01*
X29534063Y-15373855D01*
X29527322Y-15279782D01*
X29532074Y-15199496D01*
X29545474Y-15130831D01*
X29566560Y-15072053D01*
X29612753Y-14993154D01*
X29669398Y-14933824D01*
X29736793Y-14889013D01*
X29811474Y-14858426D01*
X29872254Y-15046579D01*
X29822427Y-15062827D01*
X29780366Y-15086941D01*
X29744881Y-15119070D01*
X29718837Y-15158505D01*
X29702001Y-15210225D01*
X29695813Y-15277816D01*
X29702352Y-15346547D01*
X29719918Y-15397359D01*
X29746847Y-15434595D01*
X29783638Y-15462420D01*
X29827969Y-15479507D01*
X29881999Y-15485544D01*
X29944745Y-15485544D01*
X29944745Y-15203358D01*
X30101525Y-15203358D01*
X30101525Y-15485544D01*
X30121186Y-15485544D01*
X30198958Y-15476650D01*
X30261487Y-15451647D01*
X30312245Y-15411087D01*
X30350126Y-15357714D01*
X30373538Y-15293383D01*
X30381830Y-15215070D01*
X30376955Y-15157488D01*
X30363542Y-15111929D01*
X30342678Y-15075900D01*
X30313420Y-15047560D01*
X30278715Y-15030776D01*
X30236762Y-15024951D01*
X30194913Y-15030704D01*
X30162021Y-15046948D01*
X30135890Y-15073934D01*
X30110780Y-15128380D01*
X30101525Y-15203358D01*
X29944745Y-15203358D01*
X29944745Y-15191562D01*
X29953426Y-15089408D01*
X29978084Y-15002383D01*
X30004461Y-14949883D01*
X30037386Y-14906490D01*
X30077076Y-14871078D01*
X30123051Y-14845107D01*
X30177567Y-14828871D01*
X30242660Y-14823121D01*
X30306521Y-14828774D01*
G37*
G36*
X30538609Y-16361424D02*
G01*
X30532956Y-16289561D01*
X30516527Y-16224627D01*
X30489627Y-16165407D01*
X30452515Y-16112177D01*
X30406463Y-16067306D01*
X30350542Y-16030169D01*
X30288628Y-16003646D01*
X30217336Y-15987029D01*
X30134864Y-15981186D01*
X29554677Y-15981186D01*
X29554677Y-16183016D01*
X30121186Y-16183016D01*
X30202417Y-16191024D01*
X30262439Y-16212571D01*
X30306432Y-16245762D01*
X30338594Y-16291009D01*
X30358871Y-16348049D01*
X30366186Y-16420237D01*
X30356507Y-16498836D01*
X30328820Y-16564103D01*
X30282924Y-16619161D01*
X30222973Y-16659301D01*
X30144708Y-16685162D01*
X30042796Y-16694644D01*
X29554677Y-16694644D01*
X29554677Y-16896474D01*
X30521000Y-16896474D01*
X30521000Y-16698577D01*
X30375931Y-16698577D01*
X30375931Y-16667204D01*
X30430882Y-16630857D01*
X30486720Y-16569152D01*
X30513783Y-16519329D01*
X30531846Y-16451804D01*
X30538609Y-16361424D01*
G37*
G36*
X30155544Y-17153567D02*
G01*
X30243932Y-17174527D01*
X30320110Y-17207896D01*
X30389077Y-17254305D01*
X30445143Y-17308695D01*
X30489627Y-17371600D01*
X30522295Y-17441483D01*
X30541838Y-17514938D01*
X30548440Y-17593092D01*
X30541829Y-17686242D01*
X30524099Y-17756791D01*
X30497491Y-17809625D01*
X30441995Y-17877131D01*
X30383796Y-17922380D01*
X30383796Y-17953753D01*
X30521000Y-17953753D01*
X30521000Y-18151650D01*
X29148965Y-18151650D01*
X29148965Y-17949820D01*
X29686068Y-17949820D01*
X29686068Y-17918447D01*
X29648555Y-17892798D01*
X29610584Y-17855701D01*
X29578343Y-17810350D01*
X29550830Y-17750811D01*
X29533712Y-17682894D01*
X29531367Y-17649939D01*
X29705644Y-17649939D01*
X29715483Y-17735287D01*
X29743609Y-17806763D01*
X29789932Y-17867498D01*
X29834396Y-17903066D01*
X29887773Y-17929245D01*
X29951866Y-17945856D01*
X30029033Y-17951787D01*
X30046643Y-17951787D01*
X30124867Y-17945765D01*
X30189595Y-17928927D01*
X30243281Y-17902431D01*
X30287796Y-17866473D01*
X30334198Y-17805208D01*
X30362239Y-17734008D01*
X30371999Y-17649939D01*
X30362290Y-17567177D01*
X30334299Y-17496562D01*
X30287796Y-17435286D01*
X30243286Y-17399368D01*
X30189603Y-17372898D01*
X30124873Y-17356074D01*
X30046643Y-17350058D01*
X30029033Y-17350058D01*
X29951930Y-17356044D01*
X29887858Y-17372819D01*
X29834457Y-17399283D01*
X29789932Y-17435286D01*
X29743379Y-17496568D01*
X29715361Y-17567183D01*
X29705644Y-17649939D01*
X29531367Y-17649939D01*
X29527322Y-17593092D01*
X29533960Y-17513636D01*
X29553537Y-17439542D01*
X29586136Y-17369634D01*
X29630659Y-17306870D01*
X29687013Y-17252824D01*
X29756593Y-17206956D01*
X29833295Y-17174023D01*
X29921411Y-17153415D01*
X30023135Y-17146176D01*
X30052542Y-17146176D01*
X30155544Y-17153567D01*
G37*
G36*
X30521000Y-18448882D02*
G01*
X29554677Y-18448882D01*
X29554677Y-18650712D01*
X30521000Y-18650712D01*
X30521000Y-18448882D01*
G37*
G36*
X29423372Y-18550780D02*
G01*
X29413674Y-18496251D01*
X29385160Y-18451788D01*
X29357474Y-18429641D01*
X29324962Y-18416273D01*
X29286169Y-18411610D01*
X29247433Y-18416271D01*
X29214947Y-18429636D01*
X29187263Y-18451788D01*
X29158683Y-18496257D01*
X29148965Y-18550780D01*
X29158795Y-18606750D01*
X29187263Y-18650626D01*
X29214878Y-18672220D01*
X29247365Y-18685295D01*
X29286169Y-18689864D01*
X29325029Y-18685293D01*
X29357543Y-18672216D01*
X29385160Y-18650626D01*
X29413561Y-18606757D01*
X29423372Y-18550780D01*
G37*
G36*
X30152778Y-18910021D02*
G01*
X30240287Y-18931885D01*
X30317203Y-18967092D01*
X30386171Y-19015814D01*
X30442990Y-19074629D01*
X30488686Y-19144473D01*
X30521373Y-19221614D01*
X30541485Y-19306998D01*
X30548440Y-19402210D01*
X30541501Y-19497431D01*
X30521402Y-19583144D01*
X30488686Y-19660888D01*
X30442925Y-19731375D01*
X30386097Y-19790483D01*
X30317203Y-19839210D01*
X30240287Y-19874417D01*
X30152778Y-19896281D01*
X30052542Y-19903922D01*
X30023135Y-19903922D01*
X29922963Y-19896264D01*
X29835847Y-19874386D01*
X29759585Y-19839210D01*
X29691169Y-19790567D01*
X29634314Y-19731463D01*
X29588102Y-19660888D01*
X29554806Y-19583088D01*
X29534373Y-19497380D01*
X29527322Y-19402210D01*
X29707610Y-19402210D01*
X29717643Y-19488744D01*
X29746162Y-19560119D01*
X29792924Y-19619770D01*
X29837740Y-19654620D01*
X29890858Y-19680193D01*
X29953913Y-19696349D01*
X30029033Y-19702092D01*
X30046643Y-19702092D01*
X30121740Y-19696289D01*
X30184816Y-19679953D01*
X30238001Y-19654069D01*
X30282924Y-19618744D01*
X30329765Y-19558568D01*
X30358198Y-19487462D01*
X30368152Y-19402210D01*
X30358250Y-19318268D01*
X30329866Y-19247743D01*
X30282924Y-19187558D01*
X30238006Y-19152272D01*
X30184824Y-19126414D01*
X30121746Y-19110093D01*
X30046643Y-19104295D01*
X30029033Y-19104295D01*
X29953975Y-19110093D01*
X29890942Y-19126414D01*
X29837801Y-19152271D01*
X29792924Y-19187558D01*
X29745931Y-19247749D01*
X29717521Y-19318274D01*
X29707610Y-19402210D01*
X29527322Y-19402210D01*
X29534388Y-19307049D01*
X29554835Y-19221671D01*
X29588102Y-19144473D01*
X29634249Y-19074541D01*
X29691095Y-19015730D01*
X29759585Y-18967092D01*
X29835847Y-18931916D01*
X29922963Y-18910038D01*
X30023135Y-18902380D01*
X30052542Y-18902380D01*
X30152778Y-18910021D01*
G37*
G36*
X30991423Y-20022404D02*
G01*
X30818915Y-20022404D01*
X30818915Y-20271336D01*
X30812318Y-20300844D01*
X30794072Y-20317766D01*
X30760101Y-20324252D01*
X29282322Y-20324252D01*
X29248351Y-20317766D01*
X29230105Y-20300844D01*
X29223508Y-20271336D01*
X29223508Y-20022404D01*
X29051000Y-20022404D01*
X29051000Y-20341862D01*
X29056822Y-20392042D01*
X29073495Y-20434207D01*
X29101008Y-20470175D01*
X29136936Y-20497782D01*
X29178513Y-20514409D01*
X29227441Y-20520183D01*
X30814982Y-20520183D01*
X30863855Y-20514413D01*
X30905437Y-20497789D01*
X30941415Y-20470175D01*
X30968928Y-20434207D01*
X30985601Y-20392042D01*
X30991423Y-20341862D01*
X30991423Y-20022404D01*
G37*
G36*
X21860785Y-17401289D02*
G01*
X21851770Y-17320421D01*
X21826374Y-17254798D01*
X21785191Y-17201010D01*
X21730691Y-17160637D01*
X21664580Y-17135718D01*
X21583569Y-17126882D01*
X20723956Y-17126882D01*
X20723956Y-16746108D01*
X20480324Y-16746108D01*
X20480324Y-17126882D01*
X20023956Y-17126882D01*
X20023956Y-17415333D01*
X20480324Y-17415333D01*
X20480324Y-17826882D01*
X20723956Y-17826882D01*
X20723956Y-17415333D01*
X21533133Y-17415333D01*
X21581377Y-17424799D01*
X21607580Y-17449741D01*
X21617152Y-17493735D01*
X21617152Y-17782064D01*
X21860785Y-17782064D01*
X21860785Y-17401289D01*
G37*
G36*
X21860785Y-18165159D02*
G01*
X20480324Y-18165159D01*
X20480324Y-18453487D01*
X21860785Y-18453487D01*
X21860785Y-18165159D01*
G37*
G36*
X20292745Y-18310727D02*
G01*
X20278891Y-18232829D01*
X20238157Y-18169311D01*
X20198605Y-18137671D01*
X20152159Y-18118575D01*
X20096741Y-18111914D01*
X20041403Y-18118572D01*
X19994996Y-18137665D01*
X19955446Y-18169311D01*
X19914617Y-18232838D01*
X19900736Y-18310727D01*
X19914778Y-18390684D01*
X19955446Y-18453365D01*
X19994897Y-18484213D01*
X20041307Y-18502892D01*
X20096741Y-18509419D01*
X20152256Y-18502889D01*
X20198704Y-18484207D01*
X20238157Y-18453365D01*
X20278730Y-18390694D01*
X20292745Y-18310727D01*
G37*
G36*
X21860785Y-18880302D02*
G01*
X19900736Y-18880302D01*
X19900736Y-19168630D01*
X21860785Y-19168630D01*
X21860785Y-18880302D01*
G37*
G36*
X21860785Y-19595445D02*
G01*
X20480324Y-19595445D01*
X20480324Y-19883773D01*
X21860785Y-19883773D01*
X21860785Y-19595445D01*
G37*
G36*
X20292745Y-19741013D02*
G01*
X20278891Y-19663115D01*
X20238157Y-19599597D01*
X20198605Y-19567958D01*
X20152159Y-19548861D01*
X20096741Y-19542200D01*
X20041403Y-19548858D01*
X19994996Y-19567951D01*
X19955446Y-19599597D01*
X19914617Y-19663124D01*
X19900736Y-19741013D01*
X19914778Y-19820970D01*
X19955446Y-19883651D01*
X19994897Y-19914499D01*
X20041307Y-19933178D01*
X20096741Y-19939705D01*
X20152256Y-19933175D01*
X20198704Y-19914493D01*
X20238157Y-19883651D01*
X20278730Y-19820980D01*
X20292745Y-19741013D01*
G37*
G36*
X21338782Y-20253709D02*
G01*
X21465056Y-20283211D01*
X21573799Y-20330127D01*
X21672273Y-20395562D01*
X21752367Y-20472760D01*
X21815966Y-20562524D01*
X21862536Y-20662393D01*
X21890503Y-20768242D01*
X21899985Y-20881750D01*
X21890857Y-21010039D01*
X21866402Y-21107064D01*
X21827099Y-21192119D01*
X21781039Y-21256907D01*
X21726714Y-21309919D01*
X21673206Y-21346544D01*
X21673206Y-21391362D01*
X22420833Y-21391362D01*
X22420833Y-21679691D01*
X20480324Y-21679691D01*
X20480324Y-21396980D01*
X20679138Y-21396980D01*
X20679138Y-21352161D01*
X20593777Y-21287285D01*
X20514029Y-21191083D01*
X20476018Y-21115606D01*
X20450690Y-21014821D01*
X20447009Y-20962960D01*
X20695990Y-20962960D01*
X20709946Y-21083050D01*
X20750041Y-21184764D01*
X20816402Y-21272294D01*
X20880017Y-21323784D01*
X20956308Y-21361626D01*
X21047837Y-21385613D01*
X21157976Y-21394171D01*
X21183133Y-21394171D01*
X21294983Y-21385656D01*
X21387484Y-21361858D01*
X21464140Y-21324450D01*
X21527637Y-21273759D01*
X21593740Y-21187003D01*
X21633883Y-21084895D01*
X21647927Y-20962960D01*
X21634057Y-20844729D01*
X21594069Y-20743850D01*
X21527637Y-20656314D01*
X21464051Y-20605001D01*
X21387361Y-20567187D01*
X21294890Y-20543153D01*
X21183133Y-20534558D01*
X21157976Y-20534558D01*
X21047829Y-20543110D01*
X20956297Y-20567075D01*
X20880010Y-20604880D01*
X20816402Y-20656314D01*
X20749898Y-20743859D01*
X20709872Y-20844738D01*
X20695990Y-20962960D01*
X20447009Y-20962960D01*
X20441245Y-20881750D01*
X20450677Y-20770102D01*
X20478595Y-20665166D01*
X20525265Y-20565333D01*
X20588747Y-20475482D01*
X20668837Y-20397782D01*
X20767431Y-20331471D01*
X20876178Y-20283805D01*
X21002403Y-20253860D01*
X21149549Y-20243299D01*
X21191559Y-20243299D01*
X21338782Y-20253709D01*
G37*
G36*
X21885942Y-22633459D02*
G01*
X21877866Y-22530798D01*
X21854396Y-22438035D01*
X21815966Y-22353435D01*
X21762949Y-22277393D01*
X21697162Y-22213291D01*
X21617274Y-22160239D01*
X21528826Y-22122349D01*
X21426980Y-22098610D01*
X21309162Y-22090263D01*
X20480324Y-22090263D01*
X20480324Y-22378592D01*
X21289623Y-22378592D01*
X21405667Y-22390031D01*
X21491412Y-22420813D01*
X21554260Y-22468229D01*
X21600205Y-22532867D01*
X21629172Y-22614353D01*
X21639623Y-22717479D01*
X21625796Y-22829762D01*
X21586242Y-22923002D01*
X21520676Y-23001655D01*
X21435032Y-23058998D01*
X21323225Y-23095942D01*
X21177637Y-23109489D01*
X20480324Y-23109489D01*
X20480324Y-23397817D01*
X21860785Y-23397817D01*
X21860785Y-23115106D01*
X21653544Y-23115106D01*
X21653544Y-23070288D01*
X21732046Y-23018365D01*
X21811814Y-22930214D01*
X21850475Y-22859038D01*
X21876279Y-22762574D01*
X21885942Y-22633459D01*
G37*
G36*
X21554387Y-23740261D02*
G01*
X21632971Y-23763341D01*
X21701294Y-23800696D01*
X21760945Y-23851354D01*
X21810231Y-23912507D01*
X21849671Y-23985466D01*
X21886904Y-24107166D01*
X21899985Y-24250225D01*
X21888753Y-24384977D01*
X21859441Y-24479691D01*
X21813141Y-24558472D01*
X21762843Y-24611338D01*
X21664780Y-24678505D01*
X21664780Y-24720515D01*
X21673206Y-24720515D01*
X21728177Y-24727668D01*
X21773132Y-24748086D01*
X21810470Y-24782064D01*
X21847523Y-24850699D01*
X21860785Y-24941799D01*
X21860785Y-25157343D01*
X21619961Y-25157343D01*
X21619961Y-25039740D01*
X21610389Y-24995746D01*
X21584186Y-24970804D01*
X21535942Y-24961338D01*
X20967588Y-24961338D01*
X20843091Y-24950711D01*
X20739130Y-24920775D01*
X20651828Y-24873094D01*
X20578387Y-24807343D01*
X20520609Y-24727075D01*
X20477936Y-24631905D01*
X20450875Y-24518948D01*
X20441245Y-24384558D01*
X20448034Y-24269865D01*
X20467177Y-24171771D01*
X20497299Y-24087803D01*
X20563290Y-23975090D01*
X20644211Y-23890333D01*
X20740489Y-23826317D01*
X20847177Y-23782622D01*
X20934005Y-24051411D01*
X20862824Y-24074623D01*
X20802736Y-24109071D01*
X20752044Y-24154970D01*
X20714838Y-24211306D01*
X20690786Y-24285192D01*
X20681946Y-24381750D01*
X20691288Y-24479937D01*
X20716382Y-24552526D01*
X20754853Y-24605720D01*
X20807411Y-24645470D01*
X20870741Y-24669880D01*
X20947927Y-24678505D01*
X21037564Y-24678505D01*
X21037564Y-24275382D01*
X21261535Y-24275382D01*
X21261535Y-24678505D01*
X21289623Y-24678505D01*
X21400726Y-24665798D01*
X21490053Y-24630080D01*
X21562564Y-24572137D01*
X21616679Y-24495889D01*
X21650125Y-24403988D01*
X21661971Y-24292113D01*
X21655006Y-24209853D01*
X21635845Y-24144768D01*
X21606039Y-24093299D01*
X21564242Y-24052812D01*
X21514663Y-24028835D01*
X21454731Y-24020515D01*
X21394947Y-24028733D01*
X21347958Y-24051939D01*
X21310627Y-24090490D01*
X21274757Y-24168270D01*
X21261535Y-24275382D01*
X21037564Y-24275382D01*
X21037564Y-24258529D01*
X21049966Y-24112596D01*
X21085191Y-23988274D01*
X21122873Y-23913274D01*
X21169908Y-23851284D01*
X21226608Y-23800696D01*
X21292286Y-23763594D01*
X21370166Y-23740400D01*
X21463157Y-23732186D01*
X21554387Y-23740261D01*
G37*
D14*
%TO.C,G\u002A\u002A\u002A*%
G36*
X28156413Y-28053482D02*
G01*
X28229611Y-28109336D01*
X28283164Y-28190224D01*
X28287689Y-28200923D01*
X28306825Y-28292698D01*
X28292052Y-28381799D01*
X28244922Y-28463642D01*
X28166982Y-28533646D01*
X28166909Y-28533696D01*
X28085412Y-28568291D01*
X27995538Y-28568417D01*
X27898292Y-28534071D01*
X27857782Y-28508648D01*
X27797151Y-28443536D01*
X27762803Y-28364916D01*
X27754854Y-28280018D01*
X27773422Y-28196074D01*
X27818624Y-28120316D01*
X27890579Y-28059975D01*
X27890682Y-28059916D01*
X27979773Y-28026391D01*
X28070742Y-28025040D01*
X28156413Y-28053482D01*
G37*
G36*
X28976502Y-26997726D02*
G01*
X29059323Y-27038729D01*
X29125319Y-27107739D01*
X29129612Y-27114367D01*
X29157493Y-27179610D01*
X29165865Y-27261391D01*
X29160606Y-27319042D01*
X29127905Y-27407886D01*
X29069254Y-27477150D01*
X28989272Y-27522157D01*
X28892580Y-27538227D01*
X28829117Y-27531194D01*
X28749971Y-27498098D01*
X28688981Y-27443491D01*
X28647491Y-27373615D01*
X28626843Y-27294709D01*
X28628386Y-27213012D01*
X28653458Y-27134766D01*
X28703407Y-27066211D01*
X28779576Y-27013587D01*
X28791575Y-27008226D01*
X28884653Y-26986849D01*
X28976502Y-26997726D01*
G37*
G36*
X29999009Y-27862758D02*
G01*
X30047556Y-27881929D01*
X30118318Y-27931540D01*
X30172480Y-27996163D01*
X30200598Y-28066261D01*
X30205200Y-28110348D01*
X30193264Y-28207157D01*
X30152362Y-28290402D01*
X30086016Y-28354395D01*
X29997754Y-28393449D01*
X29972003Y-28398774D01*
X29880948Y-28398435D01*
X29801072Y-28370293D01*
X29735592Y-28320012D01*
X29687729Y-28253250D01*
X29660701Y-28175667D01*
X29657728Y-28092924D01*
X29682027Y-28010684D01*
X29736820Y-27934605D01*
X29746549Y-27925424D01*
X29823180Y-27877874D01*
X29911725Y-27855782D01*
X29999009Y-27862758D01*
G37*
G36*
X29110085Y-28893299D02*
G01*
X29199981Y-28923925D01*
X29264187Y-28972460D01*
X29309867Y-29044535D01*
X29336246Y-29120592D01*
X29340318Y-29205376D01*
X29313199Y-29288391D01*
X29307820Y-29298579D01*
X29248504Y-29371061D01*
X29167805Y-29416123D01*
X29069448Y-29431578D01*
X29011068Y-29426631D01*
X28920777Y-29395156D01*
X28851306Y-29337958D01*
X28806656Y-29258911D01*
X28790826Y-29161888D01*
X28791416Y-29142725D01*
X28813848Y-29051701D01*
X28868142Y-28976184D01*
X28953456Y-28917443D01*
X28955814Y-28916275D01*
X29012109Y-28892345D01*
X29057519Y-28885613D01*
X29110085Y-28893299D01*
G37*
G36*
X29576695Y-32001700D02*
G01*
X29576007Y-32056855D01*
X29571987Y-32110644D01*
X29563230Y-32140608D01*
X29548440Y-32153714D01*
X29540359Y-32154945D01*
X29499737Y-32157174D01*
X29429282Y-32159207D01*
X29332856Y-32160990D01*
X29214321Y-32162470D01*
X29077541Y-32163593D01*
X28926377Y-32164306D01*
X28764692Y-32164556D01*
X28735706Y-32164553D01*
X28551723Y-32164333D01*
X28400016Y-32163697D01*
X28277567Y-32162547D01*
X28181359Y-32160785D01*
X28108371Y-32158314D01*
X28055591Y-32155034D01*
X28019997Y-32150849D01*
X27998570Y-32145660D01*
X27988296Y-32139370D01*
X27979997Y-32120292D01*
X27972842Y-32067349D01*
X27972712Y-31992008D01*
X27978030Y-31869830D01*
X28777363Y-31865181D01*
X29576695Y-31860531D01*
X29576695Y-32001700D01*
G37*
G36*
X28991909Y-28320371D02*
G01*
X29013052Y-28346974D01*
X29024634Y-28368665D01*
X29040963Y-28423252D01*
X29046513Y-28480851D01*
X29040705Y-28529304D01*
X29022967Y-28556452D01*
X29004136Y-28564408D01*
X28956844Y-28580952D01*
X28897932Y-28599306D01*
X28896705Y-28599669D01*
X28771016Y-28654421D01*
X28662771Y-28736025D01*
X28575626Y-28839065D01*
X28513237Y-28958122D01*
X28479261Y-29087778D01*
X28477353Y-29222615D01*
X28478391Y-29231244D01*
X28513657Y-29371633D01*
X28580079Y-29498197D01*
X28674339Y-29606025D01*
X28793121Y-29690207D01*
X28898910Y-29731586D01*
X29025564Y-29751991D01*
X29155548Y-29747769D01*
X29276639Y-29718211D01*
X29377335Y-29667960D01*
X29484806Y-29580827D01*
X29570542Y-29470738D01*
X29630559Y-29343036D01*
X29660872Y-29203066D01*
X29662975Y-29182952D01*
X29674147Y-29117355D01*
X29692870Y-29078994D01*
X29724454Y-29061009D01*
X29774203Y-29056539D01*
X29782939Y-29056623D01*
X29859186Y-29065863D01*
X29913129Y-29088653D01*
X29938582Y-29122508D01*
X29942088Y-29151086D01*
X29940783Y-29199436D01*
X29938988Y-29214028D01*
X29932306Y-29267696D01*
X29924583Y-29329105D01*
X29912238Y-29388647D01*
X29873141Y-29494798D01*
X29815560Y-29604710D01*
X29745585Y-29707350D01*
X29669308Y-29791681D01*
X29554904Y-29882911D01*
X29404274Y-29966432D01*
X29247219Y-30018075D01*
X29087546Y-30038520D01*
X28929065Y-30028450D01*
X28775584Y-29988548D01*
X28630913Y-29919495D01*
X28498860Y-29821974D01*
X28383232Y-29696666D01*
X28287841Y-29544255D01*
X28210239Y-29391151D01*
X28210239Y-29164417D01*
X28210239Y-28937684D01*
X28285990Y-28784840D01*
X28306026Y-28746787D01*
X28395669Y-28614637D01*
X28504815Y-28500801D01*
X28627900Y-28409605D01*
X28759359Y-28345376D01*
X28893628Y-28312439D01*
X28924693Y-28309122D01*
X28966589Y-28308948D01*
X28991909Y-28320371D01*
G37*
G36*
X29966312Y-27255620D02*
G01*
X30037495Y-27265487D01*
X30064185Y-27269709D01*
X30236503Y-27315372D01*
X30389270Y-27390476D01*
X30524217Y-27495843D01*
X30564360Y-27536521D01*
X30672531Y-27677682D01*
X30750944Y-27834773D01*
X30796844Y-28002671D01*
X30803842Y-28066957D01*
X30799639Y-28204278D01*
X30773601Y-28346586D01*
X30727705Y-28480217D01*
X30674835Y-28581572D01*
X30573887Y-28716446D01*
X30451793Y-28827122D01*
X30312844Y-28912115D01*
X30161333Y-28969938D01*
X30001553Y-28999104D01*
X29837795Y-28998132D01*
X29674351Y-28965532D01*
X29515514Y-28899820D01*
X29407038Y-28827504D01*
X29296271Y-28722559D01*
X29200449Y-28599173D01*
X29126226Y-28466031D01*
X29080255Y-28331813D01*
X29071621Y-28274751D01*
X29080641Y-28221520D01*
X29116461Y-28184008D01*
X29183543Y-28154561D01*
X29224907Y-28141353D01*
X29262342Y-28133312D01*
X29286155Y-28137480D01*
X29307973Y-28153787D01*
X29314716Y-28161190D01*
X29337339Y-28204083D01*
X29352059Y-28258842D01*
X29354137Y-28271044D01*
X29389465Y-28373808D01*
X29452439Y-28474652D01*
X29536373Y-28566132D01*
X29634583Y-28640803D01*
X29740380Y-28691221D01*
X29789794Y-28704400D01*
X29903500Y-28717793D01*
X30021424Y-28713573D01*
X30125930Y-28691715D01*
X30191203Y-28663622D01*
X30293935Y-28595300D01*
X30385282Y-28506126D01*
X30455004Y-28405023D01*
X30487571Y-28331623D01*
X30519225Y-28196870D01*
X30519627Y-28058932D01*
X30488152Y-27926817D01*
X30442108Y-27831339D01*
X30356084Y-27719791D01*
X30247199Y-27632167D01*
X30120125Y-27571993D01*
X29979532Y-27542798D01*
X29930071Y-27536955D01*
X29878024Y-27526763D01*
X29849093Y-27515831D01*
X29835922Y-27495279D01*
X29826975Y-27446677D01*
X29828523Y-27386857D01*
X29839907Y-27328987D01*
X29860478Y-27286233D01*
X29875659Y-27268755D01*
X29894294Y-27256211D01*
X29921544Y-27252182D01*
X29966312Y-27255620D01*
G37*
G36*
X28051846Y-27441105D02*
G01*
X28141725Y-27442304D01*
X28207721Y-27446313D01*
X28259801Y-27454605D01*
X28307927Y-27468654D01*
X28362067Y-27489934D01*
X28386059Y-27500414D01*
X28538705Y-27588807D01*
X28669475Y-27704305D01*
X28775576Y-27843986D01*
X28854216Y-28004931D01*
X28865540Y-28036405D01*
X28888831Y-28123880D01*
X28888481Y-28188056D01*
X28862531Y-28233190D01*
X28809020Y-28263540D01*
X28725986Y-28283361D01*
X28695067Y-28287052D01*
X28665391Y-28282436D01*
X28643668Y-28261375D01*
X28624428Y-28217782D01*
X28602201Y-28145569D01*
X28600759Y-28140640D01*
X28545113Y-28008871D01*
X28465766Y-27899106D01*
X28367391Y-27812722D01*
X28254661Y-27751091D01*
X28132248Y-27715588D01*
X28004826Y-27707588D01*
X27877068Y-27728465D01*
X27753647Y-27779593D01*
X27639235Y-27862347D01*
X27585993Y-27915720D01*
X27506845Y-28025841D01*
X27460412Y-28145782D01*
X27444836Y-28279536D01*
X27445036Y-28307929D01*
X27456488Y-28425670D01*
X27488132Y-28527763D01*
X27543845Y-28627846D01*
X27614329Y-28715157D01*
X27722992Y-28801016D01*
X27853673Y-28859128D01*
X28007107Y-28889906D01*
X28021713Y-28891552D01*
X28089300Y-28905532D01*
X28127488Y-28931037D01*
X28141456Y-28974111D01*
X28136381Y-29040794D01*
X28123876Y-29094509D01*
X28093911Y-29146279D01*
X28045552Y-29170446D01*
X27973866Y-29170955D01*
X27907848Y-29161238D01*
X27730410Y-29113465D01*
X27573042Y-29037603D01*
X27437698Y-28935341D01*
X27326334Y-28808370D01*
X27240905Y-28658384D01*
X27183367Y-28487071D01*
X27174526Y-28438026D01*
X27167440Y-28324807D01*
X27173018Y-28201009D01*
X27190252Y-28081331D01*
X27218132Y-27980468D01*
X27231970Y-27946592D01*
X27312604Y-27804358D01*
X27421555Y-27677218D01*
X27553659Y-27570397D01*
X27703752Y-27489118D01*
X27714686Y-27484519D01*
X27765843Y-27464975D01*
X27813251Y-27452304D01*
X27866773Y-27445060D01*
X27936273Y-27441799D01*
X28031616Y-27441073D01*
X28051846Y-27441105D01*
G37*
G36*
X29115346Y-26421156D02*
G01*
X29264800Y-26475238D01*
X29402195Y-26555397D01*
X29523702Y-26659825D01*
X29625493Y-26786712D01*
X29703742Y-26934250D01*
X29754618Y-27100632D01*
X29765581Y-27174635D01*
X29765425Y-27331212D01*
X29737052Y-27490153D01*
X29681934Y-27640549D01*
X29606386Y-27765673D01*
X29504961Y-27882772D01*
X29386096Y-27983535D01*
X29257289Y-28061618D01*
X29126041Y-28110681D01*
X29118807Y-28112455D01*
X29042571Y-28124913D01*
X28989848Y-28116725D01*
X28953511Y-28084881D01*
X28926435Y-28026371D01*
X28916933Y-27997640D01*
X28903292Y-27952313D01*
X28897932Y-27928041D01*
X28903572Y-27911158D01*
X28931780Y-27879722D01*
X28971664Y-27853063D01*
X29009571Y-27841737D01*
X29032947Y-27839007D01*
X29095996Y-27818682D01*
X29170056Y-27783139D01*
X29244370Y-27737900D01*
X29308178Y-27688487D01*
X29333467Y-27663342D01*
X29387740Y-27597340D01*
X29430706Y-27530457D01*
X29446771Y-27498454D01*
X29463457Y-27455419D01*
X29473036Y-27408671D01*
X29477399Y-27347548D01*
X29478439Y-27261392D01*
X29477817Y-27185553D01*
X29474428Y-27123971D01*
X29466322Y-27078875D01*
X29451549Y-27040033D01*
X29428163Y-26997214D01*
X29342841Y-26875891D01*
X29244509Y-26784398D01*
X29129229Y-26720837D01*
X28992093Y-26681657D01*
X28899741Y-26672920D01*
X28771833Y-26687827D01*
X28650364Y-26730953D01*
X28540156Y-26798403D01*
X28446038Y-26886280D01*
X28372835Y-26990688D01*
X28325374Y-27107732D01*
X28308481Y-27233514D01*
X28302124Y-27305379D01*
X28279445Y-27351173D01*
X28236501Y-27371014D01*
X28169358Y-27368725D01*
X28165902Y-27368205D01*
X28100238Y-27356552D01*
X28061252Y-27343275D01*
X28040394Y-27323789D01*
X28029116Y-27293508D01*
X28027679Y-27286775D01*
X28025834Y-27225876D01*
X28035795Y-27144309D01*
X28055392Y-27052558D01*
X28082447Y-26961107D01*
X28114786Y-26880442D01*
X28128388Y-26854030D01*
X28196261Y-26752450D01*
X28284360Y-26652072D01*
X28382313Y-26563759D01*
X28479745Y-26498372D01*
X28632905Y-26433451D01*
X28795570Y-26398454D01*
X28957660Y-26394958D01*
X29115346Y-26421156D01*
G37*
G36*
X28546340Y-35041200D02*
G01*
X28596546Y-35048816D01*
X28626428Y-35061799D01*
X28634046Y-35075541D01*
X28643975Y-35119222D01*
X28647862Y-35176512D01*
X28647862Y-35269790D01*
X28982778Y-35275647D01*
X29046816Y-35276848D01*
X29151499Y-35279529D01*
X29229244Y-35283086D01*
X29285915Y-35288138D01*
X29327377Y-35295303D01*
X29359493Y-35305201D01*
X29388129Y-35318454D01*
X29447676Y-35357088D01*
X29506573Y-35423115D01*
X29550042Y-35514745D01*
X29552663Y-35522896D01*
X29564369Y-35581758D01*
X29572583Y-35661160D01*
X29575911Y-35748475D01*
X29575950Y-35759149D01*
X29574926Y-35835802D01*
X29570698Y-35884174D01*
X29562219Y-35910903D01*
X29548440Y-35922631D01*
X29538947Y-35925526D01*
X29492653Y-35931692D01*
X29435663Y-35932647D01*
X29383351Y-35928610D01*
X29351098Y-35919803D01*
X29350096Y-35919001D01*
X29339299Y-35893030D01*
X29329860Y-35842401D01*
X29323724Y-35777236D01*
X29320171Y-35720216D01*
X29313331Y-35670122D01*
X29299039Y-35634189D01*
X29272585Y-35609920D01*
X29229255Y-35594817D01*
X29164344Y-35586381D01*
X29073138Y-35582115D01*
X28950928Y-35579519D01*
X28647862Y-35573877D01*
X28647862Y-35726252D01*
X28647862Y-35727228D01*
X28645536Y-35811407D01*
X28635921Y-35866199D01*
X28614966Y-35897740D01*
X28578618Y-35912166D01*
X28522827Y-35915611D01*
X28467516Y-35912236D01*
X28430884Y-35897878D01*
X28409776Y-35866390D01*
X28400107Y-35811623D01*
X28397792Y-35727430D01*
X28397792Y-35576230D01*
X28204880Y-35576230D01*
X28183319Y-35576154D01*
X28086003Y-35573191D01*
X28021250Y-35566022D01*
X27990534Y-35554795D01*
X27980758Y-35533143D01*
X27972268Y-35482190D01*
X27969100Y-35413809D01*
X27969228Y-35392636D01*
X27972497Y-35332266D01*
X27981348Y-35298277D01*
X27997354Y-35283415D01*
X28013973Y-35280220D01*
X28062307Y-35276275D01*
X28131210Y-35273574D01*
X28211700Y-35272573D01*
X28397792Y-35272573D01*
X28397792Y-35177903D01*
X28399271Y-35141950D01*
X28407036Y-35090905D01*
X28419226Y-35061799D01*
X28428345Y-35055883D01*
X28468651Y-35044773D01*
X28522827Y-35040365D01*
X28546340Y-35041200D01*
G37*
G36*
X28986177Y-32450351D02*
G01*
X29060851Y-32450454D01*
X29194135Y-32451179D01*
X29313521Y-32452521D01*
X29414645Y-32454389D01*
X29493140Y-32456695D01*
X29544643Y-32459348D01*
X29564786Y-32462259D01*
X29567683Y-32467634D01*
X29573425Y-32501572D01*
X29576199Y-32555079D01*
X29576163Y-32617109D01*
X29573472Y-32676615D01*
X29568287Y-32722555D01*
X29560764Y-32743883D01*
X29558618Y-32744623D01*
X29529103Y-32748004D01*
X29470772Y-32751564D01*
X29389216Y-32755054D01*
X29290029Y-32758225D01*
X29178803Y-32760829D01*
X29054939Y-32763639D01*
X28945540Y-32767812D01*
X28862496Y-32774175D01*
X28800853Y-32783876D01*
X28755661Y-32798064D01*
X28721968Y-32817889D01*
X28694819Y-32844499D01*
X28669265Y-32879043D01*
X28643665Y-32924405D01*
X28632932Y-32971748D01*
X28634445Y-33036564D01*
X28642595Y-33095762D01*
X28661928Y-33143969D01*
X28698858Y-33188393D01*
X28755642Y-33245217D01*
X29125978Y-33249834D01*
X29152205Y-33250182D01*
X29264334Y-33252171D01*
X29364954Y-33254727D01*
X29448010Y-33257646D01*
X29507449Y-33260721D01*
X29537219Y-33263750D01*
X29552877Y-33268270D01*
X29566631Y-33279409D01*
X29573394Y-33303296D01*
X29574915Y-33347576D01*
X29572943Y-33419894D01*
X29567763Y-33566736D01*
X29176130Y-33571559D01*
X29120055Y-33572174D01*
X28976250Y-33572518D01*
X28861485Y-33569865D01*
X28770791Y-33563198D01*
X28699203Y-33551500D01*
X28641752Y-33533753D01*
X28593470Y-33508941D01*
X28549391Y-33476047D01*
X28504546Y-33434052D01*
X28453555Y-33376687D01*
X28409896Y-33302434D01*
X28386834Y-33217126D01*
X28380028Y-33109451D01*
X28388493Y-33001028D01*
X28417905Y-32907655D01*
X28472290Y-32820991D01*
X28524510Y-32754007D01*
X28482586Y-32754007D01*
X28452031Y-32750513D01*
X28419844Y-32729140D01*
X28402791Y-32683725D01*
X28397792Y-32608999D01*
X28397215Y-32573396D01*
X28396821Y-32537062D01*
X28400111Y-32508627D01*
X28410646Y-32487131D01*
X28431983Y-32471615D01*
X28467681Y-32461119D01*
X28521302Y-32454684D01*
X28596403Y-32451348D01*
X28696543Y-32450154D01*
X28825281Y-32450142D01*
X28986177Y-32450351D01*
G37*
G36*
X29206518Y-33832150D02*
G01*
X29335094Y-33879788D01*
X29439994Y-33954151D01*
X29521188Y-34055221D01*
X29578646Y-34182981D01*
X29581723Y-34196940D01*
X29586781Y-34247433D01*
X29589501Y-34317799D01*
X29589348Y-34397327D01*
X29588412Y-34432809D01*
X29584059Y-34508573D01*
X29575041Y-34565387D01*
X29558838Y-34615462D01*
X29532934Y-34671010D01*
X29532369Y-34672122D01*
X29486711Y-34746908D01*
X29433767Y-34810620D01*
X29378757Y-34859401D01*
X29326901Y-34889389D01*
X29283419Y-34896728D01*
X29253532Y-34877557D01*
X29244514Y-34846529D01*
X29239316Y-34794281D01*
X29238017Y-34732409D01*
X29240501Y-34672211D01*
X29246652Y-34624980D01*
X29256354Y-34602012D01*
X29265577Y-34594068D01*
X29293622Y-34562339D01*
X29327804Y-34517900D01*
X29329176Y-34515990D01*
X29371213Y-34429868D01*
X29379053Y-34340245D01*
X29352233Y-34252139D01*
X29323624Y-34215748D01*
X29265141Y-34173146D01*
X29194700Y-34142085D01*
X29125675Y-34129786D01*
X29076554Y-34129395D01*
X29076553Y-34521158D01*
X29076675Y-34646996D01*
X29075988Y-34751199D01*
X29072754Y-34827455D01*
X29065228Y-34879784D01*
X29051667Y-34912207D01*
X29030328Y-34928743D01*
X28999469Y-34933412D01*
X28957345Y-34930236D01*
X28902213Y-34923234D01*
X28889475Y-34921597D01*
X28738123Y-34886979D01*
X28611952Y-34828083D01*
X28512005Y-34746009D01*
X28439324Y-34641857D01*
X28394952Y-34516729D01*
X28379929Y-34371724D01*
X28380086Y-34362741D01*
X28594107Y-34362741D01*
X28606537Y-34440205D01*
X28649331Y-34512375D01*
X28703567Y-34558613D01*
X28780716Y-34596845D01*
X28857742Y-34611573D01*
X28863011Y-34609200D01*
X28871028Y-34589134D01*
X28876297Y-34545320D01*
X28879188Y-34473780D01*
X28880070Y-34370533D01*
X28880070Y-34129394D01*
X28834841Y-34129395D01*
X28782671Y-34134877D01*
X28706325Y-34166049D01*
X28647269Y-34218914D01*
X28608774Y-34286728D01*
X28594107Y-34362741D01*
X28380086Y-34362741D01*
X28380498Y-34339210D01*
X28398016Y-34205758D01*
X28441636Y-34091656D01*
X28513546Y-33990658D01*
X28527082Y-33976014D01*
X28608230Y-33905443D01*
X28699809Y-33856695D01*
X28809531Y-33826576D01*
X28834841Y-33823835D01*
X28945104Y-33811892D01*
X29054297Y-33811255D01*
X29206518Y-33832150D01*
G37*
G36*
X29058500Y-30435227D02*
G01*
X29180284Y-30436777D01*
X29293773Y-30439119D01*
X29393484Y-30442220D01*
X29473930Y-30446048D01*
X29529628Y-30450570D01*
X29555091Y-30455755D01*
X29567782Y-30478189D01*
X29573584Y-30527394D01*
X29572953Y-30607584D01*
X29567763Y-30744514D01*
X29183727Y-30753445D01*
X29161892Y-30753955D01*
X29032334Y-30757389D01*
X28932651Y-30761512D01*
X28857751Y-30767411D01*
X28802533Y-30776174D01*
X28761903Y-30788886D01*
X28730765Y-30806634D01*
X28704024Y-30830505D01*
X28676582Y-30861585D01*
X28674130Y-30864566D01*
X28639055Y-30934294D01*
X28630031Y-31015250D01*
X28645200Y-31097003D01*
X28682704Y-31169126D01*
X28740682Y-31221187D01*
X28740960Y-31221343D01*
X28770887Y-31230417D01*
X28826803Y-31237998D01*
X28911138Y-31244264D01*
X29026325Y-31249400D01*
X29174796Y-31253585D01*
X29567763Y-31262517D01*
X29573033Y-31403864D01*
X29573367Y-31413387D01*
X29573581Y-31491025D01*
X29567688Y-31538347D01*
X29555171Y-31559883D01*
X29552197Y-31561204D01*
X29518748Y-31566426D01*
X29457560Y-31570330D01*
X29375161Y-31572938D01*
X29278082Y-31574275D01*
X29172853Y-31574364D01*
X29066004Y-31573230D01*
X28964064Y-31570896D01*
X28873565Y-31567388D01*
X28801036Y-31562729D01*
X28753007Y-31556941D01*
X28742349Y-31554815D01*
X28621779Y-31513211D01*
X28520189Y-31444659D01*
X28442919Y-31352679D01*
X28424321Y-31321435D01*
X28405152Y-31281026D01*
X28394477Y-31238663D01*
X28389858Y-31183099D01*
X28388861Y-31103082D01*
X28389126Y-31056103D01*
X28391955Y-30989747D01*
X28399778Y-30941807D01*
X28414914Y-30901027D01*
X28439679Y-30856152D01*
X28461655Y-30821787D01*
X28489308Y-30785421D01*
X28506662Y-30771307D01*
X28511482Y-30770404D01*
X28522827Y-30751534D01*
X28518460Y-30742653D01*
X28494740Y-30742539D01*
X28472469Y-30745370D01*
X28432222Y-30734890D01*
X28418253Y-30724873D01*
X28405469Y-30701829D01*
X28399357Y-30660691D01*
X28397792Y-30592685D01*
X28398724Y-30534686D01*
X28403625Y-30490049D01*
X28414842Y-30464549D01*
X28434702Y-30449153D01*
X28460777Y-30444362D01*
X28517142Y-30440484D01*
X28598124Y-30437591D01*
X28698234Y-30435651D01*
X28811990Y-30434632D01*
X28933907Y-30434501D01*
X29058500Y-30435227D01*
G37*
%TD*%
D15*
%TO.C,J5*%
X5565000Y-17145000D03*
X6465000Y-17145000D03*
X7365000Y-17145000D03*
X8265000Y-17145000D03*
X9165000Y-17145000D03*
X10515000Y-17145000D03*
X11415000Y-17145000D03*
X5565000Y-17895000D03*
X6465000Y-17895000D03*
X9615000Y-17895000D03*
X8715000Y-17895000D03*
X7815000Y-17895000D03*
X10515000Y-17895000D03*
X11415000Y-17895000D03*
D16*
X5440000Y-18950000D03*
D17*
X11540000Y-18950000D03*
D16*
X5440000Y-16090000D03*
D17*
X11540000Y-16090000D03*
%TD*%
D18*
%TO.C,J6*%
X20230000Y-105980000D03*
D19*
X17690000Y-105980000D03*
X20230000Y-103440000D03*
X17690000Y-103440000D03*
X20230000Y-100900000D03*
X17690000Y-100900000D03*
X20230000Y-98360000D03*
X17690000Y-98360000D03*
X20230000Y-95820000D03*
X17690000Y-95820000D03*
%TD*%
D20*
%TO.C,J10*%
X2065000Y-33600000D03*
X6965000Y-34200000D03*
X6965000Y-48700000D03*
X2065000Y-49300000D03*
%TD*%
D21*
%TO.C,H3*%
X23615000Y-47200000D03*
%TD*%
D15*
%TO.C,J7*%
X5498750Y-26005000D03*
X6398750Y-26005000D03*
X7298750Y-26005000D03*
X8198750Y-26005000D03*
X9098750Y-26005000D03*
X10448750Y-26005000D03*
X11348750Y-26005000D03*
X5498750Y-26755000D03*
X6398750Y-26755000D03*
X9548750Y-26755000D03*
X8648750Y-26755000D03*
X7748750Y-26755000D03*
X10448750Y-26755000D03*
X11348750Y-26755000D03*
D16*
X5373750Y-27810000D03*
D17*
X11473750Y-27810000D03*
D16*
X5373750Y-24950000D03*
D17*
X11473750Y-24950000D03*
%TD*%
D18*
%TO.C,J3*%
X6440000Y-68950000D03*
D19*
X6440000Y-66410000D03*
X6440000Y-63870000D03*
X6440000Y-61330000D03*
X6440000Y-58790000D03*
X6440000Y-56250000D03*
X3900000Y-68950000D03*
X3900000Y-66410000D03*
X3900000Y-63870000D03*
X3900000Y-61330000D03*
X3900000Y-58790000D03*
X3900000Y-56250000D03*
%TD*%
D22*
%TO.C,H1*%
X27082000Y-23758800D03*
X27565274Y-22592074D03*
X27565274Y-24925526D03*
X28732000Y-22108800D03*
D23*
X28732000Y-23758800D03*
D22*
X28732000Y-25408800D03*
X29898726Y-22592074D03*
X29898726Y-24925526D03*
X30382000Y-23758800D03*
%TD*%
D20*
%TO.C,SW3*%
X5340000Y-3450000D03*
X5340000Y-8450000D03*
X5340000Y-5950000D03*
X11590000Y-3450000D03*
X11590000Y-8450000D03*
%TD*%
D18*
%TO.C,J2*%
X6440000Y-91810000D03*
D19*
X6440000Y-89270000D03*
X6440000Y-86730000D03*
X6440000Y-84190000D03*
X6440000Y-81650000D03*
X6440000Y-79110000D03*
X3900000Y-91810000D03*
X3900000Y-89270000D03*
X3900000Y-86730000D03*
X3900000Y-84190000D03*
X3900000Y-81650000D03*
X3900000Y-79110000D03*
%TD*%
D24*
%TO.C,J8*%
X29640000Y-67434400D03*
D25*
X9640000Y-67434400D03*
%TD*%
D22*
%TO.C,H2*%
X27082000Y-88842074D03*
X27565274Y-87675348D03*
X27565274Y-90008800D03*
X28732000Y-87192074D03*
D23*
X28732000Y-88842074D03*
D22*
X28732000Y-90492074D03*
X29898726Y-87675348D03*
X29898726Y-90008800D03*
X30382000Y-88842074D03*
%TD*%
D26*
%TO.C,J4*%
X1090000Y-103507736D03*
X9190000Y-101507736D03*
X7290000Y-103507736D03*
X3590000Y-101507736D03*
X12890000Y-103507736D03*
%TD*%
D27*
%TO.C,D6*%
X1480000Y-2650000D03*
X2450000Y-2650000D03*
%TD*%
D28*
%TO.C,U3*%
X9571157Y-28999999D03*
X9571157Y-29949999D03*
X9571157Y-30899999D03*
X7296157Y-30899999D03*
X7296157Y-29949999D03*
X7296157Y-28999999D03*
%TD*%
D29*
%TO.C,R49*%
X11858960Y-73873543D03*
X12580208Y-73152295D03*
%TD*%
D30*
%TO.C,Y2*%
X11300798Y-87562359D03*
X13500798Y-87562359D03*
X13500798Y-89262359D03*
X11300798Y-89262359D03*
%TD*%
D27*
%TO.C,D16*%
X1500000Y-8340000D03*
X2470000Y-8340000D03*
%TD*%
%TO.C,D14*%
X1480000Y-4550000D03*
X2450000Y-4550000D03*
%TD*%
D31*
%TO.C,U6*%
X14133656Y-67837499D03*
X13183657Y-67837499D03*
X12233658Y-67837499D03*
X12233658Y-65562499D03*
X14133656Y-65562499D03*
%TD*%
D29*
%TO.C,R48*%
X14510724Y-77794791D03*
X15231972Y-77073543D03*
%TD*%
D27*
%TO.C,D10*%
X1487500Y-3600000D03*
X2457500Y-3600000D03*
%TD*%
%TO.C,D8*%
X1495000Y-6440000D03*
X2465000Y-6440000D03*
%TD*%
D32*
%TO.C,J1*%
X8800000Y-50100000D03*
X8800000Y-50600000D03*
X8800000Y-51100000D03*
X8800000Y-51600000D03*
X8800000Y-52100000D03*
X8800000Y-52600000D03*
X8800000Y-53100000D03*
X8800000Y-53600000D03*
X8800000Y-54100000D03*
X8800000Y-54600000D03*
X8800000Y-55100000D03*
X8800000Y-55600000D03*
X8800000Y-56100000D03*
X8800000Y-56600000D03*
D33*
X10700000Y-48150000D03*
X10700000Y-58550000D03*
%TD*%
D34*
%TO.C,RN4*%
X9110000Y-7690000D03*
D35*
X9110000Y-8190000D03*
X9110000Y-8690000D03*
D34*
X9110000Y-9190000D03*
X8110000Y-9190000D03*
D35*
X8110000Y-8690000D03*
X8110000Y-8190000D03*
D34*
X8110000Y-7690000D03*
%TD*%
D36*
%TO.C,U1*%
X9283657Y-14412499D03*
D37*
X9358657Y-14949999D03*
D36*
X9283657Y-15487499D03*
X7583657Y-15487499D03*
D37*
X7508657Y-14949999D03*
D36*
X7583657Y-14412499D03*
%TD*%
D38*
%TO.C,U4*%
X22195000Y-90290000D03*
X19655000Y-90290000D03*
X17115000Y-90290000D03*
X17115000Y-81400000D03*
X19655000Y-81400000D03*
X22195000Y-81400000D03*
%TD*%
D39*
%TO.C,C35*%
X10873657Y-43449999D03*
X11833657Y-43449999D03*
%TD*%
D40*
%TO.C,C44*%
X10633657Y-42199999D03*
X10633657Y-40299999D03*
%TD*%
D27*
%TO.C,D12*%
X1500000Y-7390000D03*
X2470000Y-7390000D03*
%TD*%
D29*
%TO.C,R47*%
X15213992Y-78478524D03*
X15935240Y-77757276D03*
%TD*%
D41*
%TO.C,RN7*%
X9452249Y-80393194D03*
D42*
X9098695Y-80039641D03*
X8745142Y-79686088D03*
D41*
X8391589Y-79332534D03*
X9098695Y-78625428D03*
D42*
X9452249Y-78978981D03*
X9805802Y-79332534D03*
D41*
X10159355Y-79686088D03*
%TD*%
D34*
%TO.C,RN2*%
X9040000Y-2690000D03*
D35*
X9040000Y-3190000D03*
X9040000Y-3690000D03*
D34*
X9040000Y-4190000D03*
X8040000Y-4190000D03*
D35*
X8040000Y-3690000D03*
X8040000Y-3190000D03*
D34*
X8040000Y-2690000D03*
%TD*%
D43*
%TO.C,U11*%
X13204508Y-85438856D03*
X12704508Y-85438856D03*
X12204508Y-85438856D03*
X11704508Y-85438856D03*
X11204508Y-85438856D03*
X11204508Y-81213856D03*
X11704508Y-81213856D03*
X12204508Y-81213856D03*
X12704508Y-81213856D03*
X13204508Y-81213856D03*
%TD*%
D44*
%TO.C,R34*%
X8872338Y-72953827D03*
X8872338Y-71933827D03*
%TD*%
D27*
%TO.C,D20*%
X1500000Y-9290000D03*
X2470000Y-9290000D03*
%TD*%
D44*
%TO.C,R45*%
X12183657Y-70709998D03*
X12183657Y-69690000D03*
%TD*%
%TO.C,R35*%
X7933657Y-72949999D03*
X7933657Y-71929999D03*
%TD*%
D27*
%TO.C,D18*%
X1487500Y-5500000D03*
X2457500Y-5500000D03*
%TD*%
D45*
%TO.C,R46*%
X13683657Y-63949999D03*
X14703655Y-63949999D03*
%TD*%
D46*
%TO.C,C36*%
X14433657Y-84469999D03*
X14433657Y-85429999D03*
%TD*%
M02*
