%TF.GenerationSoftware,KiCad,Pcbnew,9.0.0*%
%TF.CreationDate,2025-04-05T19:06:25+02:00*%
%TF.ProjectId,tiliqua-motherboard,74696c69-7175-4612-9d6d-6f7468657262,rev?*%
%TF.SameCoordinates,Original*%
%TF.FileFunction,Soldermask,Top*%
%TF.FilePolarity,Negative*%
%FSLAX46Y46*%
G04 Gerber Fmt 4.6, Leading zero omitted, Abs format (unit mm)*
G04 Created by KiCad (PCBNEW 9.0.0) date 2025-04-05 19:06:25*
%MOMM*%
%LPD*%
G01*
G04 APERTURE LIST*
G04 Aperture macros list*
%AMRoundRect*
0 Rectangle with rounded corners*
0 $1 Rounding radius*
0 $2 $3 $4 $5 $6 $7 $8 $9 X,Y pos of 4 corners*
0 Add a 4 corners polygon primitive as box body*
4,1,4,$2,$3,$4,$5,$6,$7,$8,$9,$2,$3,0*
0 Add four circle primitives for the rounded corners*
1,1,$1+$1,$2,$3*
1,1,$1+$1,$4,$5*
1,1,$1+$1,$6,$7*
1,1,$1+$1,$8,$9*
0 Add four rect primitives between the rounded corners*
20,1,$1+$1,$2,$3,$4,$5,0*
20,1,$1+$1,$4,$5,$6,$7,0*
20,1,$1+$1,$6,$7,$8,$9,0*
20,1,$1+$1,$8,$9,$2,$3,0*%
%AMRotRect*
0 Rectangle, with rotation*
0 The origin of the aperture is its center*
0 $1 length*
0 $2 width*
0 $3 Rotation angle, in degrees counterclockwise*
0 Add horizontal line*
21,1,$1,$2,0,0,$3*%
G04 Aperture macros list end*
%ADD10C,0.250000*%
%ADD11C,0.100000*%
%ADD12C,0.150000*%
%ADD13C,0.300000*%
%ADD14C,0.000000*%
%ADD15C,0.600000*%
%ADD16O,1.600000X1.000000*%
%ADD17O,2.000000X1.000000*%
%ADD18R,1.700000X1.700000*%
%ADD19O,1.700000X1.700000*%
%ADD20RoundRect,0.147500X-0.147500X-0.172500X0.147500X-0.172500X0.147500X0.172500X-0.147500X0.172500X0*%
%ADD21RoundRect,0.250000X1.500000X0.550000X-1.500000X0.550000X-1.500000X-0.550000X1.500000X-0.550000X0*%
%ADD22R,0.400000X0.500000*%
%ADD23R,0.300000X0.500000*%
%ADD24RoundRect,0.125000X-0.262500X-0.125000X0.262500X-0.125000X0.262500X0.125000X-0.262500X0.125000X0*%
%ADD25R,3.400000X4.000000*%
%ADD26R,1.900000X0.300000*%
%ADD27C,1.800000*%
%ADD28C,6.400000*%
%ADD29RoundRect,0.135000X-0.135000X-0.185000X0.135000X-0.185000X0.135000X0.185000X-0.135000X0.185000X0*%
%ADD30RoundRect,0.243750X0.243750X0.456250X-0.243750X0.456250X-0.243750X-0.456250X0.243750X-0.456250X0*%
%ADD31RoundRect,0.218750X-0.218750X-0.256250X0.218750X-0.256250X0.218750X0.256250X-0.218750X0.256250X0*%
%ADD32RoundRect,0.135000X0.185000X-0.135000X0.185000X0.135000X-0.185000X0.135000X-0.185000X-0.135000X0*%
%ADD33RoundRect,0.250000X-0.550000X1.500000X-0.550000X-1.500000X0.550000X-1.500000X0.550000X1.500000X0*%
%ADD34R,0.500000X0.400000*%
%ADD35R,0.500000X0.300000*%
%ADD36RotRect,0.500000X0.400000X315.000000*%
%ADD37RotRect,0.500000X0.300000X315.000000*%
%ADD38RoundRect,0.140000X0.170000X-0.140000X0.170000X0.140000X-0.170000X0.140000X-0.170000X-0.140000X0*%
%ADD39RoundRect,0.140000X0.140000X0.170000X-0.140000X0.170000X-0.140000X-0.170000X0.140000X-0.170000X0*%
%ADD40RoundRect,0.135000X0.135000X0.185000X-0.135000X0.185000X-0.135000X-0.185000X0.135000X-0.185000X0*%
%ADD41RoundRect,0.135000X-0.185000X0.135000X-0.185000X-0.135000X0.185000X-0.135000X0.185000X0.135000X0*%
%ADD42RoundRect,0.218750X-0.256250X0.218750X-0.256250X-0.218750X0.256250X-0.218750X0.256250X0.218750X0*%
%ADD43RoundRect,0.050000X0.050000X-0.387500X0.050000X0.387500X-0.050000X0.387500X-0.050000X-0.387500X0*%
%ADD44RoundRect,0.050000X0.387500X-0.050000X0.387500X0.050000X-0.387500X0.050000X-0.387500X-0.050000X0*%
%ADD45R,3.200000X3.200000*%
%ADD46RoundRect,0.150000X0.150000X-0.512500X0.150000X0.512500X-0.150000X0.512500X-0.150000X-0.512500X0*%
%ADD47RoundRect,0.140000X-0.140000X-0.170000X0.140000X-0.170000X0.140000X0.170000X-0.140000X0.170000X0*%
%ADD48RoundRect,0.250000X0.650000X-0.325000X0.650000X0.325000X-0.650000X0.325000X-0.650000X-0.325000X0*%
%ADD49RoundRect,0.250000X-0.650000X0.325000X-0.650000X-0.325000X0.650000X-0.325000X0.650000X0.325000X0*%
%ADD50C,0.700000*%
%ADD51C,4.400000*%
%ADD52RoundRect,0.225000X-0.250000X0.225000X-0.250000X-0.225000X0.250000X-0.225000X0.250000X0.225000X0*%
%ADD53RoundRect,0.250000X0.300000X-0.300000X0.300000X0.300000X-0.300000X0.300000X-0.300000X-0.300000X0*%
%ADD54RoundRect,0.250000X0.325000X0.650000X-0.325000X0.650000X-0.325000X-0.650000X0.325000X-0.650000X0*%
%ADD55RoundRect,0.140000X-0.170000X0.140000X-0.170000X-0.140000X0.170000X-0.140000X0.170000X0.140000X0*%
%ADD56RoundRect,0.218750X0.218750X0.256250X-0.218750X0.256250X-0.218750X-0.256250X0.218750X-0.256250X0*%
%ADD57RoundRect,0.218750X0.256250X-0.218750X0.256250X0.218750X-0.256250X0.218750X-0.256250X-0.218750X0*%
%ADD58RoundRect,0.243750X0.456250X-0.243750X0.456250X0.243750X-0.456250X0.243750X-0.456250X-0.243750X0*%
%ADD59R,1.400000X1.200000*%
%ADD60RoundRect,0.062500X0.062500X-0.350000X0.062500X0.350000X-0.062500X0.350000X-0.062500X-0.350000X0*%
%ADD61R,2.000000X1.200000*%
%ADD62RoundRect,0.250000X-0.325000X-0.650000X0.325000X-0.650000X0.325000X0.650000X-0.325000X0.650000X0*%
%ADD63RoundRect,0.225000X0.225000X0.250000X-0.225000X0.250000X-0.225000X-0.250000X0.225000X-0.250000X0*%
%ADD64RoundRect,0.050000X0.325000X0.050000X-0.325000X0.050000X-0.325000X-0.050000X0.325000X-0.050000X0*%
%ADD65RoundRect,0.050000X0.050000X0.325000X-0.050000X0.325000X-0.050000X-0.325000X0.050000X-0.325000X0*%
%ADD66R,1.250000X3.500000*%
%ADD67RoundRect,0.036000X0.114000X0.739000X-0.114000X0.739000X-0.114000X-0.739000X0.114000X-0.739000X0*%
%ADD68RoundRect,0.252000X0.348000X1.123000X-0.348000X1.123000X-0.348000X-1.123000X0.348000X-1.123000X0*%
%ADD69RoundRect,0.150000X-0.512500X-0.150000X0.512500X-0.150000X0.512500X0.150000X-0.512500X0.150000X0*%
%ADD70RoundRect,0.250000X-0.300000X-0.300000X0.300000X-0.300000X0.300000X0.300000X-0.300000X0.300000X0*%
%ADD71R,1.100000X1.800000*%
%ADD72RoundRect,0.250000X0.300000X0.300000X-0.300000X0.300000X-0.300000X-0.300000X0.300000X-0.300000X0*%
%ADD73R,2.790000X1.903000*%
%ADD74RoundRect,0.050000X0.050000X-0.375000X0.050000X0.375000X-0.050000X0.375000X-0.050000X-0.375000X0*%
%ADD75RoundRect,0.050000X0.275000X-0.050000X0.275000X0.050000X-0.275000X0.050000X-0.275000X-0.050000X0*%
%ADD76RoundRect,0.100000X-0.100000X0.637500X-0.100000X-0.637500X0.100000X-0.637500X0.100000X0.637500X0*%
%ADD77RoundRect,0.250000X0.250000X0.475000X-0.250000X0.475000X-0.250000X-0.475000X0.250000X-0.475000X0*%
%ADD78O,1.500000X3.500000*%
%ADD79RotRect,0.500000X0.400000X45.000000*%
%ADD80RotRect,0.500000X0.300000X45.000000*%
%ADD81RoundRect,0.225000X-0.225000X-0.375000X0.225000X-0.375000X0.225000X0.375000X-0.225000X0.375000X0*%
G04 APERTURE END LIST*
D10*
X35683657Y-40199999D02*
X35683657Y-38099999D01*
X35683657Y-28999999D02*
X35683657Y-26899999D01*
D11*
X21850765Y-31986463D02*
G75*
G02*
X21815966Y-32905465I-953965J-424037D01*
G01*
X21850765Y-31986463D02*
X21745246Y-32269063D01*
X21850765Y-31986463D02*
X22128073Y-32117245D01*
D10*
G36*
X29825985Y-43030166D02*
G01*
X29874419Y-43045200D01*
X29913554Y-43068904D01*
X29947138Y-43100801D01*
X29972834Y-43136320D01*
X29991284Y-43175943D01*
X30013632Y-43175943D01*
X30019111Y-43141895D01*
X30031059Y-43113851D01*
X30049353Y-43090580D01*
X30073215Y-43073321D01*
X30104038Y-43062339D01*
X30143875Y-43058340D01*
X30468657Y-43058340D01*
X30468657Y-43210992D01*
X30164879Y-43210992D01*
X30130003Y-43216200D01*
X30104674Y-43230592D01*
X30088446Y-43254559D01*
X30082264Y-43293546D01*
X30082264Y-43591767D01*
X30468657Y-43591767D01*
X30468657Y-43742953D01*
X29488632Y-43742953D01*
X29488632Y-43348195D01*
X29625835Y-43348195D01*
X29625835Y-43591767D01*
X29945061Y-43591767D01*
X29945061Y-43348195D01*
X29939954Y-43295565D01*
X29925888Y-43254402D01*
X29903784Y-43222166D01*
X29873603Y-43197687D01*
X29836696Y-43182670D01*
X29791066Y-43177347D01*
X29779831Y-43177347D01*
X29734151Y-43182605D01*
X29697266Y-43197414D01*
X29667174Y-43221494D01*
X29645121Y-43253312D01*
X29630997Y-43294621D01*
X29625835Y-43348195D01*
X29488632Y-43348195D01*
X29488632Y-43331343D01*
X29492357Y-43271342D01*
X29503031Y-43218241D01*
X29520139Y-43171058D01*
X29544616Y-43127646D01*
X29574623Y-43092021D01*
X29610448Y-43063286D01*
X29651212Y-43042242D01*
X29697473Y-43029274D01*
X29750460Y-43024757D01*
X29765848Y-43024757D01*
X29825985Y-43030166D01*
G37*
G36*
X30268438Y-42277801D02*
G01*
X30468657Y-42277801D01*
X30468657Y-42424835D01*
X30268438Y-42424835D01*
X30268438Y-42920404D01*
X30097652Y-42920404D01*
X29488632Y-42545186D01*
X29488632Y-42447184D01*
X29581078Y-42447184D01*
X30118657Y-42777583D01*
X30138257Y-42777583D01*
X30138257Y-42424835D01*
X29581078Y-42424835D01*
X29581078Y-42447184D01*
X29488632Y-42447184D01*
X29488632Y-42277801D01*
X30138257Y-42277801D01*
X30138257Y-42112632D01*
X30268438Y-42112632D01*
X30268438Y-42277801D01*
G37*
G36*
X30488257Y-41886585D02*
G01*
X30484565Y-41917918D01*
X30473883Y-41944870D01*
X30456078Y-41968468D01*
X30432811Y-41986613D01*
X30405660Y-41997565D01*
X30373463Y-42001379D01*
X30341249Y-41997546D01*
X30314363Y-41986582D01*
X30291580Y-41968468D01*
X30274173Y-41944918D01*
X30263699Y-41917964D01*
X30260073Y-41886585D01*
X30263768Y-41855213D01*
X30274452Y-41828264D01*
X30292252Y-41804703D01*
X30315453Y-41786491D01*
X30342162Y-41775572D01*
X30373463Y-41771791D01*
X30405660Y-41775605D01*
X30432811Y-41786557D01*
X30456078Y-41804703D01*
X30473878Y-41828264D01*
X30484562Y-41855213D01*
X30488257Y-41886585D01*
G37*
G36*
X30468657Y-41398588D02*
G01*
X29592252Y-41398588D01*
X29592252Y-41420936D01*
X29922652Y-41581953D01*
X29922652Y-41737353D01*
X29488632Y-41520343D01*
X29488632Y-41251554D01*
X30468657Y-41251554D01*
X30468657Y-41398588D01*
G37*
G36*
X30748681Y-41160879D02*
G01*
X29488632Y-40749329D01*
X29488632Y-40605104D01*
X30748681Y-41016714D01*
X30748681Y-41160879D01*
G37*
G36*
X30177946Y-39797946D02*
G01*
X30245649Y-39811302D01*
X30302696Y-39832180D01*
X30350721Y-39860002D01*
X30390987Y-39894724D01*
X30432444Y-39948103D01*
X30462641Y-40010289D01*
X30481573Y-40082979D01*
X30488257Y-40168398D01*
X30481594Y-40253051D01*
X30462697Y-40325298D01*
X30432506Y-40387307D01*
X30390987Y-40440729D01*
X30350724Y-40475427D01*
X30302701Y-40503232D01*
X30245655Y-40524098D01*
X30177950Y-40537448D01*
X30097652Y-40542211D01*
X29859637Y-40542211D01*
X29781379Y-40537513D01*
X29714734Y-40524284D01*
X29657955Y-40503494D01*
X29609569Y-40475643D01*
X29568438Y-40440729D01*
X29525923Y-40387173D01*
X29495085Y-40325116D01*
X29475818Y-40252918D01*
X29469032Y-40168398D01*
X29600678Y-40168398D01*
X29605280Y-40222380D01*
X29618225Y-40267318D01*
X29638814Y-40304925D01*
X29667174Y-40336437D01*
X29701792Y-40361136D01*
X29743088Y-40379440D01*
X29792368Y-40391084D01*
X29851272Y-40395238D01*
X30103269Y-40395238D01*
X30165436Y-40391119D01*
X30216286Y-40379703D01*
X30257799Y-40362017D01*
X30291580Y-40338513D01*
X30319024Y-40308093D01*
X30339198Y-40270683D01*
X30352051Y-40224795D01*
X30356671Y-40168398D01*
X30351914Y-40110542D01*
X30338734Y-40063937D01*
X30318130Y-40026366D01*
X30290176Y-39996207D01*
X30255769Y-39972887D01*
X30214159Y-39955430D01*
X30163913Y-39944232D01*
X30103269Y-39940214D01*
X29851272Y-39940214D01*
X29790871Y-39944513D01*
X29740990Y-39956498D01*
X29699778Y-39975235D01*
X29665769Y-40000420D01*
X29637960Y-40032516D01*
X29617795Y-40070374D01*
X29605155Y-40115143D01*
X29600678Y-40168398D01*
X29469032Y-40168398D01*
X29475840Y-40083114D01*
X29495142Y-40010472D01*
X29525985Y-39948238D01*
X29568438Y-39894724D01*
X29609572Y-39859786D01*
X29657961Y-39831918D01*
X29714740Y-39811117D01*
X29781383Y-39797880D01*
X29859637Y-39793180D01*
X30097652Y-39793180D01*
X30177946Y-39797946D01*
G37*
G36*
X30268438Y-39033279D02*
G01*
X30468657Y-39033279D01*
X30468657Y-39180313D01*
X30268438Y-39180313D01*
X30268438Y-39675882D01*
X30097652Y-39675882D01*
X29488632Y-39300664D01*
X29488632Y-39202662D01*
X29581078Y-39202662D01*
X30118657Y-39533061D01*
X30138257Y-39533061D01*
X30138257Y-39180313D01*
X29581078Y-39180313D01*
X29581078Y-39202662D01*
X29488632Y-39202662D01*
X29488632Y-39033279D01*
X30138257Y-39033279D01*
X30138257Y-38868110D01*
X30268438Y-38868110D01*
X30268438Y-39033279D01*
G37*
G36*
X30488257Y-38642063D02*
G01*
X30484565Y-38673396D01*
X30473883Y-38700348D01*
X30456078Y-38723946D01*
X30432811Y-38742091D01*
X30405660Y-38753043D01*
X30373463Y-38756857D01*
X30341249Y-38753024D01*
X30314363Y-38742060D01*
X30291580Y-38723946D01*
X30274173Y-38700396D01*
X30263699Y-38673442D01*
X30260073Y-38642063D01*
X30263768Y-38610691D01*
X30274452Y-38583742D01*
X30292252Y-38560181D01*
X30315453Y-38541969D01*
X30342162Y-38531050D01*
X30373463Y-38527269D01*
X30405660Y-38531083D01*
X30432811Y-38542035D01*
X30456078Y-38560181D01*
X30473878Y-38583742D01*
X30484562Y-38610691D01*
X30488257Y-38642063D01*
G37*
G36*
X30468657Y-38382128D02*
G01*
X30358076Y-38382128D01*
X30290576Y-38377785D01*
X30235289Y-38365755D01*
X30190098Y-38347140D01*
X30149060Y-38320562D01*
X30113503Y-38287400D01*
X30082997Y-38247061D01*
X30046000Y-38177436D01*
X30013632Y-38089586D01*
X29987071Y-38004162D01*
X29966178Y-37949503D01*
X29942252Y-37905488D01*
X29912021Y-37868599D01*
X29875757Y-37841740D01*
X29833424Y-37825148D01*
X29782639Y-37819331D01*
X29777083Y-37819331D01*
X29724624Y-37825922D01*
X29682248Y-37844600D01*
X29647573Y-37875385D01*
X29622215Y-37915115D01*
X29606338Y-37963365D01*
X29600678Y-38022358D01*
X29606718Y-38083033D01*
X29623725Y-38132919D01*
X29651054Y-38174277D01*
X29678099Y-38198892D01*
X29710959Y-38216879D01*
X29750846Y-38228270D01*
X29799431Y-38232346D01*
X29821840Y-38232346D01*
X29821840Y-38377976D01*
X29800835Y-38377976D01*
X29731215Y-38372451D01*
X29671858Y-38356786D01*
X29620951Y-38331753D01*
X29575888Y-38297183D01*
X29538482Y-38255014D01*
X29508233Y-38204380D01*
X29486742Y-38149024D01*
X29473565Y-38088655D01*
X29469032Y-38022358D01*
X29473450Y-37956011D01*
X29486217Y-37896383D01*
X29506889Y-37842473D01*
X29535928Y-37792861D01*
X29571268Y-37751617D01*
X29613257Y-37717848D01*
X29660796Y-37692906D01*
X29714027Y-37677643D01*
X29774274Y-37672358D01*
X29786853Y-37672358D01*
X29849373Y-37676961D01*
X29901499Y-37689857D01*
X29945061Y-37710155D01*
X29984304Y-37738305D01*
X30018746Y-37772862D01*
X30048681Y-37814446D01*
X30085437Y-37884488D01*
X30117252Y-37967770D01*
X30142470Y-38050385D01*
X30164062Y-38112443D01*
X30185152Y-38156081D01*
X30211255Y-38191491D01*
X30240473Y-38214882D01*
X30275608Y-38228660D01*
X30323027Y-38233750D01*
X30337071Y-38233750D01*
X30337071Y-37680784D01*
X30468657Y-37680784D01*
X30468657Y-38382128D01*
G37*
G36*
X30488257Y-37190284D02*
G01*
X30483423Y-37263096D01*
X30469646Y-37326551D01*
X30447652Y-37382075D01*
X30416457Y-37432612D01*
X30378357Y-37474061D01*
X30332857Y-37507372D01*
X30281762Y-37531501D01*
X30224780Y-37546324D01*
X30160666Y-37551458D01*
X30145279Y-37551458D01*
X30145279Y-37401676D01*
X30159262Y-37401676D01*
X30216654Y-37395141D01*
X30263711Y-37376630D01*
X30302755Y-37346416D01*
X30331786Y-37306410D01*
X30350072Y-37255846D01*
X30356671Y-37191688D01*
X30349807Y-37125778D01*
X30330816Y-37074115D01*
X30300678Y-37033480D01*
X30260188Y-37003027D01*
X30210636Y-36984188D01*
X30149431Y-36977487D01*
X30136853Y-36977487D01*
X30078505Y-36984048D01*
X30030773Y-37002601D01*
X29991284Y-37032808D01*
X29961180Y-37072541D01*
X29942976Y-37118795D01*
X29936635Y-37173492D01*
X29940619Y-37218644D01*
X29951350Y-37252566D01*
X29968107Y-37281586D01*
X29987071Y-37303002D01*
X30027676Y-37334448D01*
X30027676Y-37520683D01*
X29488632Y-37520683D01*
X29488632Y-36864097D01*
X29621683Y-36864097D01*
X29621683Y-37373649D01*
X29910073Y-37373649D01*
X29910073Y-37351240D01*
X29887375Y-37334787D01*
X29864583Y-37311367D01*
X29845409Y-37282625D01*
X29828862Y-37243468D01*
X29818639Y-37199121D01*
X29814879Y-37142656D01*
X29819135Y-37085743D01*
X29831569Y-37033522D01*
X29852004Y-36985181D01*
X29880463Y-36941413D01*
X29916591Y-36904008D01*
X29961181Y-36872463D01*
X30010841Y-36849718D01*
X30068396Y-36835471D01*
X30135448Y-36830453D01*
X30150835Y-36830453D01*
X30217827Y-36835561D01*
X30276641Y-36850214D01*
X30328644Y-36873867D01*
X30375142Y-36906791D01*
X30414164Y-36947811D01*
X30446247Y-36997820D01*
X30468962Y-37052968D01*
X30483232Y-37116593D01*
X30488257Y-37190284D01*
G37*
D12*
G36*
X22605805Y-32817091D02*
G01*
X22625709Y-32839110D01*
X22643653Y-32864364D01*
X22657205Y-32890448D01*
X22660414Y-32898435D01*
X22668530Y-32927674D01*
X22670709Y-32959152D01*
X22667772Y-32982474D01*
X22657756Y-33012443D01*
X22642174Y-33038226D01*
X22624871Y-33058119D01*
X22618239Y-33064751D01*
X22595961Y-33084062D01*
X22570630Y-33099136D01*
X22542064Y-33107957D01*
X22536791Y-33108687D01*
X22506069Y-33109158D01*
X22477007Y-33103422D01*
X22458556Y-33096149D01*
X22449022Y-33105682D01*
X22464929Y-33130448D01*
X22469954Y-33157079D01*
X22462423Y-33185956D01*
X22443634Y-33210756D01*
X22305815Y-33348575D01*
X22241154Y-33283914D01*
X22370061Y-33155007D01*
X22385702Y-33129923D01*
X22387159Y-33121122D01*
X22377085Y-33092893D01*
X22369958Y-33084854D01*
X22243433Y-32958329D01*
X22079501Y-33122262D01*
X22015358Y-33058119D01*
X22173384Y-32900093D01*
X22301670Y-32900093D01*
X22405086Y-33003509D01*
X22428983Y-33023267D01*
X22455611Y-33035940D01*
X22475964Y-33039363D01*
X22506761Y-33034634D01*
X22533192Y-33019338D01*
X22542802Y-33010659D01*
X22547568Y-33005892D01*
X22565832Y-32982354D01*
X22575942Y-32952756D01*
X22576583Y-32939366D01*
X22570131Y-32910104D01*
X22554219Y-32883456D01*
X22540522Y-32868073D01*
X22437106Y-32764657D01*
X22301670Y-32900093D01*
X22173384Y-32900093D01*
X22431096Y-32642381D01*
X22605805Y-32817091D01*
G37*
G36*
X22971388Y-33182674D02*
G01*
X22990944Y-33204623D01*
X23008366Y-33230319D01*
X23021254Y-33257390D01*
X23024236Y-33265780D01*
X23031458Y-33296768D01*
X23032607Y-33327609D01*
X23028381Y-33355518D01*
X23017737Y-33385395D01*
X23002323Y-33411365D01*
X22981445Y-33436203D01*
X22979056Y-33438624D01*
X22971388Y-33446292D01*
X22949114Y-33465796D01*
X22923115Y-33482218D01*
X22895801Y-33493115D01*
X22887350Y-33495306D01*
X22856232Y-33499455D01*
X22825285Y-33497653D01*
X22797301Y-33490850D01*
X22770205Y-33479383D01*
X22744485Y-33463503D01*
X22720142Y-33443212D01*
X22715438Y-33438624D01*
X22614405Y-33337591D01*
X22454618Y-33497379D01*
X22390475Y-33433236D01*
X22544356Y-33279355D01*
X22672642Y-33279355D01*
X22767146Y-33373859D01*
X22790920Y-33393421D01*
X22817944Y-33406242D01*
X22838957Y-33410024D01*
X22868677Y-33406471D01*
X22896036Y-33391938D01*
X22907867Y-33381528D01*
X22913774Y-33375621D01*
X22932635Y-33351077D01*
X22942313Y-33322415D01*
X22942892Y-33306090D01*
X22935823Y-33275942D01*
X22920039Y-33249297D01*
X22906727Y-33234279D01*
X22812223Y-33139774D01*
X22672642Y-33279355D01*
X22544356Y-33279355D01*
X22806212Y-33017498D01*
X22971388Y-33182674D01*
G37*
G36*
X22733780Y-33776540D02*
G01*
X22780721Y-33729599D01*
X22805036Y-33707628D01*
X22829253Y-33690444D01*
X22856046Y-33676965D01*
X22866729Y-33673228D01*
X22896480Y-33666982D01*
X22926745Y-33666197D01*
X22954705Y-33670223D01*
X22983519Y-33678239D01*
X23013487Y-33689595D01*
X23041444Y-33702671D01*
X23050971Y-33707631D01*
X23098534Y-33732604D01*
X23125937Y-33745199D01*
X23153932Y-33754247D01*
X23159361Y-33755505D01*
X23189267Y-33758250D01*
X23214489Y-33754261D01*
X23241563Y-33742064D01*
X23263606Y-33724210D01*
X23265990Y-33721827D01*
X23285478Y-33696731D01*
X23296263Y-33667036D01*
X23297180Y-33643177D01*
X23290430Y-33613772D01*
X23275452Y-33585543D01*
X23254695Y-33560900D01*
X23231812Y-33541411D01*
X23205214Y-33526543D01*
X23174530Y-33518440D01*
X23168791Y-33517896D01*
X23137686Y-33520918D01*
X23110323Y-33532867D01*
X23086441Y-33551114D01*
X23081229Y-33556133D01*
X23071696Y-33565666D01*
X23009936Y-33503907D01*
X23018848Y-33494995D01*
X23041787Y-33474504D01*
X23068431Y-33456467D01*
X23095959Y-33443742D01*
X23114803Y-33438210D01*
X23146613Y-33433885D01*
X23178443Y-33435287D01*
X23207107Y-33441446D01*
X23216665Y-33444531D01*
X23244787Y-33456523D01*
X23271565Y-33472451D01*
X23296999Y-33492312D01*
X23310548Y-33505047D01*
X23330366Y-33526872D01*
X23348883Y-33552448D01*
X23363401Y-33579106D01*
X23370857Y-33597479D01*
X23379130Y-33628380D01*
X23382061Y-33659038D01*
X23379649Y-33689453D01*
X23378525Y-33695507D01*
X23369508Y-33724851D01*
X23354764Y-33752394D01*
X23336598Y-33775643D01*
X23329511Y-33783068D01*
X23324123Y-33788457D01*
X23301252Y-33808787D01*
X23275378Y-33825876D01*
X23246356Y-33837990D01*
X23241017Y-33839440D01*
X23211322Y-33844277D01*
X23180942Y-33843972D01*
X23152729Y-33839232D01*
X23124049Y-33831001D01*
X23094741Y-33820038D01*
X23067827Y-33807835D01*
X23058743Y-33803275D01*
X23013045Y-33778924D01*
X22985066Y-33765063D01*
X22956693Y-33754170D01*
X22949835Y-33752189D01*
X22919963Y-33748228D01*
X22901546Y-33750738D01*
X22874596Y-33763974D01*
X22858542Y-33777784D01*
X22852636Y-33783690D01*
X23087239Y-34018294D01*
X23031386Y-34074147D01*
X22733780Y-33776540D01*
G37*
G36*
X23549638Y-33799821D02*
G01*
X23580275Y-33807723D01*
X23610015Y-33820659D01*
X23638859Y-33838630D01*
X23662212Y-33857452D01*
X23675924Y-33870423D01*
X23696990Y-33893549D01*
X23714530Y-33917266D01*
X23730922Y-33946509D01*
X23742236Y-33976604D01*
X23748472Y-34007551D01*
X23749808Y-34028656D01*
X23747261Y-34060502D01*
X23738922Y-34092078D01*
X23724791Y-34123385D01*
X23708590Y-34149268D01*
X23688367Y-34174964D01*
X23669292Y-34195386D01*
X23568363Y-34296315D01*
X23542332Y-34320241D01*
X23516246Y-34340013D01*
X23490104Y-34355631D01*
X23458659Y-34368889D01*
X23427135Y-34376166D01*
X23400804Y-34377660D01*
X23369605Y-34374493D01*
X23339193Y-34366313D01*
X23309568Y-34353121D01*
X23280730Y-34334915D01*
X23257300Y-34315915D01*
X23243503Y-34302844D01*
X23222561Y-34279888D01*
X23205070Y-34256355D01*
X23188635Y-34227354D01*
X23177169Y-34197523D01*
X23170672Y-34166861D01*
X23169195Y-34147201D01*
X23254695Y-34147201D01*
X23257542Y-34179120D01*
X23268740Y-34207276D01*
X23285561Y-34231849D01*
X23299357Y-34246991D01*
X23324135Y-34268246D01*
X23352414Y-34284139D01*
X23381119Y-34291540D01*
X23400493Y-34291756D01*
X23429680Y-34285611D01*
X23458719Y-34272073D01*
X23484408Y-34253832D01*
X23503598Y-34236318D01*
X23610538Y-34129378D01*
X23630538Y-34106929D01*
X23647639Y-34081029D01*
X23659539Y-34051583D01*
X23663593Y-34025133D01*
X23661030Y-33995821D01*
X23650893Y-33967690D01*
X23633183Y-33940739D01*
X23620071Y-33926276D01*
X23596477Y-33906218D01*
X23568897Y-33891070D01*
X23540218Y-33883774D01*
X23520489Y-33883272D01*
X23490849Y-33888768D01*
X23461734Y-33901640D01*
X23436295Y-33919276D01*
X23417487Y-33936328D01*
X23310548Y-34043267D01*
X23290024Y-34066091D01*
X23272264Y-34092115D01*
X23259546Y-34121315D01*
X23254695Y-34147201D01*
X23169195Y-34147201D01*
X23169102Y-34145958D01*
X23171428Y-34114402D01*
X23179730Y-34082919D01*
X23194005Y-34051509D01*
X23210466Y-34025390D01*
X23231075Y-33999321D01*
X23250550Y-33978502D01*
X23351479Y-33877573D01*
X23377023Y-33854129D01*
X23402748Y-33834703D01*
X23428656Y-33819294D01*
X23459986Y-33806106D01*
X23491578Y-33798704D01*
X23518106Y-33796954D01*
X23549638Y-33799821D01*
G37*
G36*
X24149069Y-34360355D02*
G01*
X23873534Y-34635890D01*
X23943687Y-34706043D01*
X23888456Y-34761274D01*
X23818303Y-34691121D01*
X23733332Y-34776092D01*
X23670950Y-34713711D01*
X23755921Y-34628740D01*
X23551057Y-34423876D01*
X23661521Y-34423876D01*
X23811153Y-34573508D01*
X24047518Y-34337143D01*
X24038088Y-34327713D01*
X23669810Y-34415586D01*
X23661521Y-34423876D01*
X23551057Y-34423876D01*
X23545669Y-34418488D01*
X23618102Y-34346055D01*
X24035601Y-34246887D01*
X24149069Y-34360355D01*
G37*
G36*
X24306504Y-34556687D02*
G01*
X24337141Y-34564589D01*
X24366881Y-34577525D01*
X24395725Y-34595496D01*
X24419077Y-34614318D01*
X24432790Y-34627289D01*
X24453856Y-34650414D01*
X24471396Y-34674132D01*
X24487788Y-34703374D01*
X24499102Y-34733469D01*
X24505338Y-34764417D01*
X24506673Y-34785522D01*
X24504127Y-34817368D01*
X24495788Y-34848944D01*
X24481657Y-34880251D01*
X24465456Y-34906134D01*
X24445233Y-34931830D01*
X24426158Y-34952252D01*
X24325229Y-35053181D01*
X24299198Y-35077107D01*
X24273111Y-35096879D01*
X24246969Y-35112497D01*
X24215525Y-35125755D01*
X24184001Y-35133032D01*
X24157670Y-35134526D01*
X24126471Y-35131359D01*
X24096059Y-35123179D01*
X24066434Y-35109986D01*
X24037596Y-35091781D01*
X24014165Y-35072781D01*
X24000369Y-35059710D01*
X23979427Y-35036754D01*
X23961935Y-35013221D01*
X23945501Y-34984220D01*
X23934035Y-34954388D01*
X23927538Y-34923726D01*
X23926061Y-34904067D01*
X24011561Y-34904067D01*
X24014408Y-34935986D01*
X24025606Y-34964142D01*
X24042427Y-34988715D01*
X24056222Y-35003857D01*
X24081001Y-35025112D01*
X24109280Y-35041005D01*
X24137985Y-35048406D01*
X24157359Y-35048622D01*
X24186546Y-35042477D01*
X24215585Y-35028939D01*
X24241274Y-35010698D01*
X24260464Y-34993183D01*
X24367404Y-34886244D01*
X24387403Y-34863794D01*
X24404505Y-34837895D01*
X24416405Y-34808449D01*
X24420459Y-34781999D01*
X24417896Y-34752687D01*
X24407759Y-34724556D01*
X24390049Y-34697605D01*
X24376937Y-34683142D01*
X24353343Y-34663084D01*
X24325763Y-34647936D01*
X24297084Y-34640640D01*
X24277355Y-34640138D01*
X24247715Y-34645634D01*
X24218600Y-34658506D01*
X24193161Y-34676142D01*
X24174353Y-34693193D01*
X24067414Y-34800133D01*
X24046890Y-34822957D01*
X24029130Y-34848981D01*
X24016411Y-34878181D01*
X24011561Y-34904067D01*
X23926061Y-34904067D01*
X23925968Y-34902824D01*
X23928294Y-34871268D01*
X23936595Y-34839785D01*
X23950871Y-34808375D01*
X23967332Y-34782255D01*
X23987941Y-34756187D01*
X24007416Y-34735368D01*
X24108345Y-34634439D01*
X24133888Y-34610995D01*
X24159614Y-34591569D01*
X24185522Y-34576160D01*
X24216852Y-34562972D01*
X24248444Y-34555569D01*
X24274971Y-34553820D01*
X24306504Y-34556687D01*
G37*
G36*
X21761647Y-33398460D02*
G01*
X21782851Y-33422153D01*
X21799704Y-33446475D01*
X21813216Y-33473953D01*
X21814184Y-33476488D01*
X21822373Y-33506827D01*
X21824093Y-33536758D01*
X21821645Y-33556485D01*
X21812469Y-33584857D01*
X21796445Y-33611218D01*
X21781957Y-33627675D01*
X21775947Y-33633685D01*
X21752691Y-33653418D01*
X21725602Y-33667686D01*
X21718332Y-33669953D01*
X21688528Y-33674503D01*
X21663930Y-33672544D01*
X21635328Y-33664456D01*
X21620926Y-33657933D01*
X21611393Y-33667466D01*
X21623054Y-33695379D01*
X21626832Y-33710884D01*
X21628829Y-33741311D01*
X21624760Y-33766427D01*
X21612944Y-33794010D01*
X21594748Y-33818063D01*
X21587663Y-33825492D01*
X21581756Y-33831399D01*
X21557335Y-33852024D01*
X21531518Y-33866454D01*
X21506836Y-33874195D01*
X21476459Y-33877168D01*
X21445789Y-33873496D01*
X21425181Y-33867356D01*
X21397354Y-33854396D01*
X21370579Y-33836317D01*
X21347153Y-33815441D01*
X21197417Y-33665705D01*
X21313890Y-33665705D01*
X21397617Y-33749432D01*
X21421943Y-33769416D01*
X21448822Y-33781789D01*
X21463522Y-33784457D01*
X21493832Y-33780626D01*
X21519491Y-33765053D01*
X21524660Y-33760209D01*
X21530048Y-33754821D01*
X21548233Y-33729694D01*
X21554952Y-33700131D01*
X21554710Y-33693890D01*
X21546621Y-33664691D01*
X21530563Y-33639948D01*
X21519375Y-33627675D01*
X21435647Y-33543947D01*
X21313890Y-33665705D01*
X21197417Y-33665705D01*
X21135035Y-33603323D01*
X21192028Y-33546330D01*
X21247881Y-33602183D01*
X21364871Y-33485193D01*
X21494402Y-33485193D01*
X21578129Y-33568920D01*
X21601338Y-33587874D01*
X21629519Y-33600335D01*
X21641961Y-33602494D01*
X21671872Y-33599062D01*
X21698459Y-33582743D01*
X21701752Y-33579594D01*
X21707659Y-33573687D01*
X21724934Y-33549469D01*
X21731074Y-33520485D01*
X21730767Y-33514311D01*
X21722873Y-33485591D01*
X21705952Y-33459775D01*
X21696986Y-33450064D01*
X21613258Y-33366336D01*
X21494402Y-33485193D01*
X21364871Y-33485193D01*
X21549633Y-33300432D01*
X21493780Y-33244579D01*
X21550773Y-33187586D01*
X21761647Y-33398460D01*
G37*
G36*
X21992471Y-33669412D02*
G01*
X22024343Y-33678047D01*
X22055393Y-33691921D01*
X22080638Y-33707484D01*
X22105312Y-33726685D01*
X22124640Y-33744666D01*
X22146756Y-33768887D01*
X22165245Y-33793691D01*
X22180106Y-33819076D01*
X22193150Y-33850306D01*
X22200971Y-33882374D01*
X22203497Y-33909738D01*
X22201479Y-33942676D01*
X22193559Y-33975118D01*
X22179737Y-34007065D01*
X22163711Y-34033308D01*
X22143586Y-34059208D01*
X22124536Y-34079680D01*
X22027130Y-34177086D01*
X22001533Y-34200462D01*
X21975581Y-34219750D01*
X21949276Y-34234950D01*
X21917241Y-34247792D01*
X21884697Y-34254748D01*
X21857187Y-34256047D01*
X21824456Y-34252545D01*
X21792555Y-34243826D01*
X21761485Y-34229891D01*
X21736228Y-34214292D01*
X21711548Y-34195072D01*
X21692219Y-34177086D01*
X21670105Y-34152873D01*
X21651624Y-34128092D01*
X21636775Y-34102745D01*
X21623753Y-34071580D01*
X21615961Y-34039599D01*
X21613731Y-34015227D01*
X21703203Y-34015227D01*
X21706305Y-34046179D01*
X21717243Y-34075854D01*
X21733544Y-34101157D01*
X21749833Y-34119472D01*
X21774884Y-34140922D01*
X21800713Y-34155947D01*
X21830698Y-34165171D01*
X21854700Y-34166724D01*
X21885492Y-34161780D01*
X21915382Y-34149278D01*
X21941194Y-34131820D01*
X21960085Y-34114809D01*
X22062258Y-34012636D01*
X22081819Y-33990517D01*
X22098564Y-33964582D01*
X22110249Y-33934569D01*
X22114277Y-33907147D01*
X22111377Y-33876397D01*
X22100346Y-33846630D01*
X22083715Y-33820996D01*
X22067025Y-33802280D01*
X22042479Y-33781335D01*
X22016923Y-33766582D01*
X21986965Y-33757385D01*
X21962780Y-33755650D01*
X21931679Y-33760302D01*
X21901563Y-33772626D01*
X21875618Y-33790022D01*
X21856669Y-33807047D01*
X21754497Y-33909220D01*
X21735006Y-33931328D01*
X21718402Y-33957336D01*
X21706953Y-33987540D01*
X21703203Y-34015227D01*
X21613731Y-34015227D01*
X21613465Y-34012325D01*
X21615620Y-33979461D01*
X21623641Y-33947086D01*
X21637527Y-33915199D01*
X21653579Y-33888999D01*
X21673704Y-33863138D01*
X21692737Y-33842693D01*
X21790143Y-33745287D01*
X21815760Y-33721877D01*
X21841706Y-33702549D01*
X21867981Y-33687304D01*
X21899944Y-33674401D01*
X21932382Y-33667377D01*
X21959775Y-33666015D01*
X21992471Y-33669412D01*
G37*
G36*
X22392043Y-34068984D02*
G01*
X22423915Y-34077619D01*
X22454965Y-34091493D01*
X22480210Y-34107056D01*
X22504884Y-34126257D01*
X22524212Y-34144238D01*
X22546328Y-34168459D01*
X22564817Y-34193263D01*
X22579678Y-34218648D01*
X22592722Y-34249878D01*
X22600543Y-34281946D01*
X22603069Y-34309310D01*
X22601051Y-34342248D01*
X22593131Y-34374690D01*
X22579309Y-34406637D01*
X22563283Y-34432881D01*
X22543159Y-34458780D01*
X22524108Y-34479252D01*
X22426702Y-34576658D01*
X22401105Y-34600034D01*
X22375153Y-34619322D01*
X22348848Y-34634522D01*
X22316814Y-34647364D01*
X22284269Y-34654320D01*
X22256759Y-34655620D01*
X22224028Y-34652117D01*
X22192128Y-34643398D01*
X22161058Y-34629463D01*
X22135800Y-34613865D01*
X22111120Y-34594644D01*
X22091791Y-34576658D01*
X22069677Y-34552445D01*
X22051196Y-34527664D01*
X22036347Y-34502317D01*
X22023325Y-34471152D01*
X22015534Y-34439171D01*
X22013303Y-34414799D01*
X22102775Y-34414799D01*
X22105877Y-34445751D01*
X22116815Y-34475426D01*
X22133116Y-34500729D01*
X22149406Y-34519044D01*
X22174457Y-34540494D01*
X22200285Y-34555519D01*
X22230270Y-34564743D01*
X22254273Y-34566296D01*
X22285064Y-34561352D01*
X22314954Y-34548850D01*
X22340766Y-34531392D01*
X22359658Y-34514381D01*
X22461830Y-34412208D01*
X22481391Y-34390089D01*
X22498136Y-34364154D01*
X22509821Y-34334141D01*
X22513849Y-34306719D01*
X22510949Y-34275969D01*
X22499918Y-34246202D01*
X22483287Y-34220568D01*
X22466597Y-34201852D01*
X22442051Y-34180908D01*
X22416495Y-34166154D01*
X22386537Y-34156957D01*
X22362352Y-34155222D01*
X22331251Y-34159874D01*
X22301135Y-34172198D01*
X22275190Y-34189594D01*
X22256241Y-34206619D01*
X22154069Y-34308792D01*
X22134578Y-34330901D01*
X22117974Y-34356908D01*
X22106525Y-34387112D01*
X22102775Y-34414799D01*
X22013303Y-34414799D01*
X22013037Y-34411897D01*
X22015193Y-34379034D01*
X22023213Y-34346658D01*
X22037099Y-34314771D01*
X22053151Y-34288571D01*
X22073276Y-34262710D01*
X22092309Y-34242266D01*
X22189715Y-34144860D01*
X22215332Y-34121449D01*
X22241278Y-34102121D01*
X22267553Y-34086876D01*
X22299516Y-34073973D01*
X22331954Y-34066949D01*
X22359347Y-34065588D01*
X22392043Y-34068984D01*
G37*
G36*
X22425666Y-34893954D02*
G01*
X22783270Y-34536349D01*
X22655503Y-34408581D01*
X22713635Y-34350448D01*
X23033210Y-34670023D01*
X22975077Y-34728156D01*
X22847413Y-34600492D01*
X22489809Y-34958096D01*
X22425666Y-34893954D01*
G37*
G36*
X22799850Y-35284718D02*
G01*
X22778083Y-35260878D01*
X22759722Y-35236300D01*
X22744768Y-35210983D01*
X22733220Y-35184928D01*
X22724737Y-35155201D01*
X22721205Y-35125474D01*
X22722624Y-35095747D01*
X22725552Y-35079232D01*
X22734976Y-35049972D01*
X22749844Y-35021760D01*
X22767628Y-34997564D01*
X22783788Y-34979961D01*
X22798607Y-34965143D01*
X22862128Y-35028664D01*
X22847310Y-35043482D01*
X22826373Y-35068599D01*
X22812109Y-35097314D01*
X22807316Y-35126879D01*
X22807725Y-35135914D01*
X22814376Y-35165734D01*
X22828758Y-35194704D01*
X22848312Y-35220051D01*
X22856221Y-35228346D01*
X22878287Y-35248080D01*
X22905267Y-35265589D01*
X22934174Y-35275662D01*
X22941918Y-35276739D01*
X22971295Y-35274893D01*
X22999437Y-35262237D01*
X23013004Y-35250833D01*
X23029977Y-35226334D01*
X23034350Y-35208140D01*
X23031176Y-35177668D01*
X23023988Y-35157986D01*
X23010709Y-35131128D01*
X22996106Y-35105420D01*
X22991035Y-35097056D01*
X22974456Y-35069699D01*
X22958599Y-35042429D01*
X22945071Y-35016110D01*
X22932770Y-34987982D01*
X22928654Y-34977060D01*
X22920696Y-34947712D01*
X22918076Y-34916841D01*
X22920261Y-34894472D01*
X22929781Y-34865502D01*
X22945677Y-34839664D01*
X22963782Y-34819034D01*
X22987492Y-34798845D01*
X23015233Y-34783113D01*
X23044712Y-34774165D01*
X23075424Y-34771669D01*
X23106576Y-34775296D01*
X23135279Y-34783905D01*
X23164000Y-34797544D01*
X23189347Y-34814094D01*
X23214219Y-34834692D01*
X23225121Y-34845147D01*
X23245269Y-34867160D01*
X23264328Y-34892777D01*
X23279568Y-34919296D01*
X23287606Y-34937475D01*
X23296893Y-34968079D01*
X23300534Y-34998621D01*
X23298529Y-35029103D01*
X23297450Y-35035192D01*
X23288187Y-35065221D01*
X23274087Y-35091433D01*
X23254529Y-35116875D01*
X23244084Y-35127935D01*
X23222737Y-35149282D01*
X23159113Y-35085657D01*
X23180459Y-35064310D01*
X23199806Y-35040759D01*
X23212008Y-35013454D01*
X23212790Y-35010012D01*
X23213627Y-34979017D01*
X23206572Y-34955091D01*
X23191184Y-34928046D01*
X23171854Y-34904891D01*
X23168646Y-34901622D01*
X23144989Y-34881041D01*
X23119223Y-34865765D01*
X23093726Y-34858203D01*
X23063244Y-34859926D01*
X23036173Y-34874343D01*
X23029065Y-34880793D01*
X23011506Y-34905558D01*
X23006993Y-34921310D01*
X23008764Y-34951157D01*
X23014143Y-34968252D01*
X23026967Y-34995530D01*
X23042565Y-35022332D01*
X23045127Y-35026384D01*
X23061810Y-35053637D01*
X23078324Y-35080980D01*
X23092543Y-35107634D01*
X23105649Y-35136442D01*
X23110099Y-35147727D01*
X23119076Y-35178242D01*
X23122642Y-35207948D01*
X23121186Y-35234253D01*
X23112312Y-35264849D01*
X23096368Y-35291898D01*
X23077768Y-35313318D01*
X23053487Y-35333935D01*
X23027406Y-35349027D01*
X22999522Y-35358594D01*
X22993730Y-35359845D01*
X22964231Y-35362822D01*
X22934025Y-35360355D01*
X22903110Y-35352443D01*
X22896842Y-35350208D01*
X22868892Y-35337486D01*
X22841468Y-35320306D01*
X22817531Y-35301291D01*
X22799850Y-35284718D01*
G37*
G36*
X23028133Y-35496420D02*
G01*
X23443870Y-35080683D01*
X23705830Y-35342643D01*
X23647697Y-35400776D01*
X23449880Y-35202959D01*
X23330506Y-35322333D01*
X23511743Y-35503570D01*
X23453507Y-35561807D01*
X23272269Y-35380569D01*
X23150512Y-35502327D01*
X23351334Y-35703149D01*
X23293098Y-35761386D01*
X23028133Y-35496420D01*
G37*
G36*
X23360142Y-35828430D02*
G01*
X23775879Y-35412693D01*
X23840022Y-35476836D01*
X23482521Y-35834336D01*
X23682722Y-36034537D01*
X23624486Y-36092773D01*
X23360142Y-35828430D01*
G37*
D13*
G36*
X18383657Y-35995427D02*
G01*
X18369164Y-36095792D01*
X18321472Y-36181329D01*
X18307941Y-36195706D01*
X18226010Y-36249001D01*
X18129786Y-36269303D01*
X18106685Y-36269956D01*
X17246950Y-36269956D01*
X17246950Y-36650486D01*
X17003196Y-36650486D01*
X17003196Y-36269956D01*
X16546950Y-36269956D01*
X16546950Y-35981261D01*
X17003196Y-35981261D01*
X17003196Y-35569956D01*
X17246950Y-35569956D01*
X17246950Y-35981261D01*
X18055883Y-35981261D01*
X18137851Y-35925619D01*
X18139902Y-35903103D01*
X18139902Y-35614408D01*
X18383657Y-35614408D01*
X18383657Y-35995427D01*
G37*
G36*
X18383657Y-35231435D02*
G01*
X17003196Y-35231435D01*
X17003196Y-34943229D01*
X18383657Y-34943229D01*
X18383657Y-35231435D01*
G37*
G36*
X16815617Y-35086355D02*
G01*
X16792266Y-35185271D01*
X16761396Y-35228016D01*
X16675703Y-35278415D01*
X16619735Y-35285169D01*
X16523831Y-35262843D01*
X16478562Y-35228016D01*
X16430317Y-35141001D01*
X16423852Y-35086355D01*
X16445223Y-34989879D01*
X16478562Y-34943717D01*
X16563824Y-34894179D01*
X16619735Y-34887541D01*
X16715829Y-34909485D01*
X16761396Y-34943717D01*
X16809210Y-35030271D01*
X16815617Y-35086355D01*
G37*
G36*
X18383657Y-34516292D02*
G01*
X16423852Y-34516292D01*
X16423852Y-34228086D01*
X18383657Y-34228086D01*
X18383657Y-34516292D01*
G37*
G36*
X18383657Y-33801149D02*
G01*
X17003196Y-33801149D01*
X17003196Y-33512943D01*
X18383657Y-33512943D01*
X18383657Y-33801149D01*
G37*
G36*
X16815617Y-33656069D02*
G01*
X16792266Y-33754984D01*
X16761396Y-33797730D01*
X16675703Y-33848129D01*
X16619735Y-33854883D01*
X16523831Y-33832557D01*
X16478562Y-33797730D01*
X16430317Y-33710715D01*
X16423852Y-33656069D01*
X16445223Y-33559593D01*
X16478562Y-33513431D01*
X16563824Y-33463893D01*
X16619735Y-33457255D01*
X16715829Y-33479199D01*
X16761396Y-33513431D01*
X16809210Y-33599985D01*
X16815617Y-33656069D01*
G37*
G36*
X18943461Y-32005476D02*
G01*
X18196078Y-32005476D01*
X18196078Y-32050416D01*
X18274560Y-32109039D01*
X18304033Y-32139809D01*
X18358977Y-32220957D01*
X18389030Y-32289774D01*
X18413223Y-32384507D01*
X18422209Y-32482062D01*
X18422735Y-32514966D01*
X18414530Y-32620678D01*
X18389915Y-32721046D01*
X18348890Y-32816072D01*
X18338716Y-32834436D01*
X18279000Y-32919692D01*
X18204878Y-32993499D01*
X18116350Y-33055857D01*
X18096915Y-33066955D01*
X18002672Y-33108751D01*
X17897997Y-33136868D01*
X17796193Y-33150377D01*
X17714431Y-33153417D01*
X17672421Y-33153417D01*
X17564649Y-33147922D01*
X17465059Y-33131435D01*
X17362801Y-33099750D01*
X17290426Y-33065490D01*
X17207272Y-33011235D01*
X17128657Y-32940347D01*
X17064543Y-32858297D01*
X17048137Y-32831505D01*
X17003829Y-32738044D01*
X16975932Y-32639622D01*
X16964445Y-32536238D01*
X16964117Y-32514966D01*
X16968520Y-32433878D01*
X17218618Y-32433878D01*
X17228162Y-32532796D01*
X17261154Y-32631104D01*
X17317712Y-32717199D01*
X17339274Y-32740647D01*
X17424253Y-32804789D01*
X17517620Y-32842205D01*
X17614043Y-32859310D01*
X17680726Y-32862280D01*
X17706127Y-32862280D01*
X17811548Y-32854678D01*
X17914747Y-32827952D01*
X18001640Y-32781983D01*
X18050509Y-32740647D01*
X18113879Y-32658215D01*
X18153778Y-32563571D01*
X18170207Y-32456714D01*
X18170677Y-32433878D01*
X18161171Y-32332280D01*
X18128313Y-32232446D01*
X18071984Y-32146350D01*
X18050509Y-32123201D01*
X17965034Y-32059574D01*
X17870894Y-32022458D01*
X17773525Y-32005491D01*
X17706127Y-32002545D01*
X17680726Y-32002545D01*
X17576403Y-32010177D01*
X17474149Y-32037011D01*
X17387892Y-32083164D01*
X17339274Y-32124666D01*
X17275647Y-32207127D01*
X17235585Y-32302467D01*
X17219679Y-32399286D01*
X17218618Y-32433878D01*
X16968520Y-32433878D01*
X16969874Y-32408943D01*
X16989776Y-32308631D01*
X17032423Y-32212564D01*
X17036901Y-32205755D01*
X17099264Y-32127071D01*
X17173635Y-32062529D01*
X17202010Y-32044555D01*
X17202010Y-31999614D01*
X17003196Y-31999614D01*
X17003196Y-31716781D01*
X18943461Y-31716781D01*
X18943461Y-32005476D01*
G37*
G36*
X18409058Y-30763257D02*
G01*
X18400804Y-30867077D01*
X18376041Y-30962931D01*
X18339204Y-31043159D01*
X18278273Y-31128064D01*
X18200993Y-31198131D01*
X18140391Y-31236599D01*
X18045785Y-31276369D01*
X17949462Y-31298199D01*
X17843312Y-31306385D01*
X17832156Y-31306453D01*
X17003196Y-31306453D01*
X17003196Y-31018246D01*
X17812617Y-31018246D01*
X17915504Y-31009516D01*
X18014789Y-30975994D01*
X18077376Y-30928853D01*
X18132408Y-30844296D01*
X18158305Y-30745778D01*
X18162372Y-30679237D01*
X18150780Y-30575749D01*
X18111252Y-30477449D01*
X18043670Y-30395427D01*
X17958920Y-30338497D01*
X17865107Y-30305288D01*
X17767768Y-30290107D01*
X17700265Y-30287472D01*
X17003196Y-30287472D01*
X17003196Y-29998777D01*
X18383657Y-29998777D01*
X18383657Y-30281610D01*
X18176539Y-30281610D01*
X18176539Y-30326550D01*
X18258116Y-30381139D01*
X18325489Y-30454349D01*
X18334808Y-30466746D01*
X18380054Y-30555612D01*
X18403184Y-30660607D01*
X18409058Y-30763257D01*
G37*
G36*
X18383657Y-28455162D02*
G01*
X18367737Y-28553634D01*
X18333342Y-28614408D01*
X18251527Y-28668684D01*
X18196078Y-28675957D01*
X18187774Y-28675957D01*
X18187774Y-28717967D01*
X18272137Y-28774494D01*
X18285959Y-28785378D01*
X18352527Y-28862455D01*
X18382191Y-28917269D01*
X18411293Y-29010671D01*
X18422102Y-29111587D01*
X18422735Y-29146369D01*
X18416790Y-29244653D01*
X18396743Y-29343182D01*
X18372421Y-29411128D01*
X18323721Y-29497769D01*
X18253784Y-29573584D01*
X18224410Y-29596264D01*
X18130457Y-29643014D01*
X18028815Y-29662983D01*
X17986029Y-29664652D01*
X17885920Y-29655035D01*
X17792972Y-29622912D01*
X17749602Y-29596264D01*
X17676419Y-29526460D01*
X17621001Y-29437583D01*
X17608430Y-29408686D01*
X17579258Y-29314759D01*
X17563550Y-29211765D01*
X17560558Y-29138065D01*
X17560558Y-29121456D01*
X17784285Y-29121456D01*
X17795125Y-29219201D01*
X17833622Y-29306104D01*
X17912810Y-29366134D01*
X17977725Y-29375957D01*
X18077063Y-29350298D01*
X18129155Y-29303173D01*
X18172607Y-29210812D01*
X18184788Y-29112184D01*
X18184843Y-29104359D01*
X18175159Y-29002512D01*
X18142137Y-28905577D01*
X18085680Y-28824457D01*
X18008454Y-28763828D01*
X17913796Y-28728366D01*
X17812617Y-28717967D01*
X17784285Y-28717967D01*
X17784285Y-29121456D01*
X17560558Y-29121456D01*
X17560558Y-28717967D01*
X17470677Y-28717967D01*
X17368431Y-28733960D01*
X17282320Y-28786273D01*
X17277725Y-28790751D01*
X17225482Y-28876267D01*
X17206078Y-28978338D01*
X17204941Y-29014966D01*
X17214764Y-29116518D01*
X17251055Y-29210164D01*
X17274794Y-29242112D01*
X17355272Y-29306959D01*
X17450019Y-29343574D01*
X17456999Y-29345183D01*
X17370049Y-29614338D01*
X17276189Y-29577086D01*
X17190370Y-29524312D01*
X17167327Y-29506383D01*
X17094224Y-29432064D01*
X17038566Y-29346310D01*
X17020293Y-29309035D01*
X16986061Y-29209567D01*
X16968561Y-29105836D01*
X16964117Y-29012035D01*
X16970685Y-28899987D01*
X16990390Y-28798924D01*
X17028996Y-28696876D01*
X17084760Y-28609178D01*
X17101382Y-28589495D01*
X17177158Y-28521962D01*
X17267222Y-28473724D01*
X17371575Y-28444781D01*
X17474605Y-28435285D01*
X17490216Y-28435134D01*
X18058814Y-28435134D01*
X18140782Y-28379492D01*
X18142833Y-28356976D01*
X18142833Y-28239251D01*
X18383657Y-28239251D01*
X18383657Y-28455162D01*
G37*
G36*
X31079068Y-20415644D02*
G01*
X31066502Y-20485570D01*
X31028803Y-20542161D01*
X30968328Y-20581115D01*
X30902627Y-20592085D01*
X29315000Y-20592085D01*
X29245073Y-20579604D01*
X29188482Y-20542161D01*
X29149528Y-20481591D01*
X29138559Y-20415644D01*
X29138559Y-20096272D01*
X29310896Y-20096272D01*
X29310896Y-20343152D01*
X29355925Y-20395325D01*
X29369710Y-20396153D01*
X30847575Y-20396153D01*
X30904952Y-20358421D01*
X30906388Y-20343152D01*
X30906388Y-20096272D01*
X31079068Y-20096272D01*
X31079068Y-20415644D01*
G37*
G36*
X30608559Y-19128582D02*
G01*
X30597415Y-19197512D01*
X30573339Y-19240054D01*
X30516068Y-19278047D01*
X30477254Y-19283138D01*
X30471441Y-19283138D01*
X30471441Y-19312545D01*
X30530495Y-19352114D01*
X30540171Y-19359733D01*
X30586768Y-19413687D01*
X30607533Y-19452057D01*
X30627904Y-19517438D01*
X30635470Y-19588079D01*
X30635914Y-19612427D01*
X30631752Y-19681225D01*
X30617719Y-19750196D01*
X30600694Y-19797758D01*
X30566604Y-19858407D01*
X30517648Y-19911477D01*
X30497086Y-19927353D01*
X30431319Y-19960078D01*
X30360169Y-19974056D01*
X30330219Y-19975225D01*
X30260143Y-19968493D01*
X30195080Y-19946006D01*
X30164720Y-19927353D01*
X30113492Y-19878491D01*
X30074699Y-19816276D01*
X30065900Y-19796048D01*
X30045480Y-19730300D01*
X30034484Y-19658204D01*
X30032390Y-19606614D01*
X30032390Y-19594988D01*
X30188998Y-19594988D01*
X30196587Y-19663409D01*
X30223534Y-19724241D01*
X30278966Y-19766262D01*
X30324406Y-19773138D01*
X30393943Y-19755177D01*
X30430408Y-19722189D01*
X30460824Y-19657537D01*
X30469351Y-19588497D01*
X30469389Y-19583020D01*
X30462610Y-19511727D01*
X30439495Y-19443872D01*
X30399975Y-19387088D01*
X30345917Y-19344648D01*
X30279656Y-19319825D01*
X30208831Y-19312545D01*
X30188998Y-19312545D01*
X30188998Y-19594988D01*
X30032390Y-19594988D01*
X30032390Y-19312545D01*
X29969473Y-19312545D01*
X29897901Y-19323740D01*
X29837623Y-19360360D01*
X29834406Y-19363494D01*
X29797836Y-19423355D01*
X29784253Y-19494805D01*
X29783457Y-19520445D01*
X29790334Y-19591531D01*
X29815737Y-19657083D01*
X29832355Y-19679447D01*
X29888689Y-19724839D01*
X29955012Y-19750470D01*
X29959898Y-19751596D01*
X29899033Y-19940005D01*
X29833331Y-19913928D01*
X29773258Y-19876987D01*
X29757128Y-19864436D01*
X29705956Y-19812413D01*
X29666995Y-19752386D01*
X29654204Y-19726293D01*
X29630241Y-19656665D01*
X29617991Y-19584054D01*
X29614881Y-19518393D01*
X29619479Y-19439959D01*
X29633272Y-19369215D01*
X29660296Y-19297782D01*
X29699331Y-19236393D01*
X29710966Y-19222615D01*
X29764009Y-19175342D01*
X29827055Y-19141575D01*
X29900102Y-19121315D01*
X29972222Y-19114668D01*
X29983150Y-19114562D01*
X30381168Y-19114562D01*
X30438546Y-19075613D01*
X30439982Y-19059852D01*
X30439982Y-18977444D01*
X30608559Y-18977444D01*
X30608559Y-19128582D01*
G37*
G36*
X30215691Y-17781039D02*
G01*
X30285511Y-17792451D01*
X30357161Y-17814384D01*
X30407840Y-17838100D01*
X30465882Y-17875417D01*
X30520792Y-17924558D01*
X30565619Y-17981779D01*
X30577100Y-18000522D01*
X30608115Y-18066145D01*
X30627643Y-18135641D01*
X30635684Y-18209011D01*
X30635914Y-18224150D01*
X30632020Y-18295699D01*
X30617850Y-18366194D01*
X30612320Y-18382810D01*
X30582050Y-18447509D01*
X30552822Y-18486760D01*
X30501530Y-18533086D01*
X30477254Y-18549335D01*
X30477254Y-18580794D01*
X31000422Y-18580794D01*
X31000422Y-18782538D01*
X29642236Y-18782538D01*
X29642236Y-18584555D01*
X29781406Y-18584555D01*
X29781406Y-18553438D01*
X29723824Y-18510082D01*
X29675503Y-18454431D01*
X29665830Y-18440598D01*
X29634783Y-18374737D01*
X29619856Y-18305822D01*
X29618312Y-18282964D01*
X29793032Y-18282964D01*
X29799712Y-18352207D01*
X29822807Y-18421022D01*
X29862397Y-18481289D01*
X29877491Y-18497702D01*
X29936976Y-18542602D01*
X30002333Y-18568793D01*
X30069829Y-18580767D01*
X30116507Y-18582845D01*
X30134288Y-18582845D01*
X30208083Y-18577524D01*
X30280322Y-18558816D01*
X30341147Y-18526638D01*
X30375355Y-18497702D01*
X30419714Y-18440000D01*
X30447644Y-18373749D01*
X30459144Y-18298950D01*
X30459473Y-18282964D01*
X30452819Y-18211846D01*
X30429818Y-18141962D01*
X30390388Y-18081695D01*
X30375355Y-18065490D01*
X30315523Y-18020951D01*
X30249625Y-17994970D01*
X30181466Y-17983093D01*
X30134288Y-17981031D01*
X30116507Y-17981031D01*
X30043481Y-17986374D01*
X29971903Y-18005157D01*
X29911523Y-18037464D01*
X29877491Y-18066516D01*
X29832952Y-18124238D01*
X29804909Y-18190977D01*
X29793774Y-18258750D01*
X29793032Y-18282964D01*
X29618312Y-18282964D01*
X29614931Y-18232891D01*
X29614881Y-18224150D01*
X29620624Y-18150106D01*
X29637855Y-18080135D01*
X29666573Y-18014238D01*
X29673695Y-18001547D01*
X29715529Y-17942342D01*
X29767514Y-17890818D01*
X29829651Y-17846973D01*
X29843297Y-17839126D01*
X29909240Y-17809208D01*
X29982432Y-17789081D01*
X30053577Y-17779411D01*
X30110694Y-17777235D01*
X30140101Y-17777235D01*
X30215691Y-17781039D01*
G37*
G36*
X30608559Y-17388107D02*
G01*
X29812864Y-17388107D01*
X29812864Y-17658582D01*
X29642236Y-17658582D01*
X29642236Y-17388107D01*
X29430575Y-17388107D01*
X29360189Y-17378028D01*
X29299882Y-17344859D01*
X29289696Y-17335448D01*
X29251653Y-17278021D01*
X29237161Y-17210459D01*
X29236695Y-17194227D01*
X29236695Y-16945295D01*
X29406981Y-16945295D01*
X29406981Y-17129600D01*
X29448852Y-17184977D01*
X29465795Y-17186362D01*
X29642236Y-17186362D01*
X29642236Y-16908023D01*
X29812864Y-16908023D01*
X29812864Y-17186362D01*
X30608559Y-17186362D01*
X30608559Y-17388107D01*
G37*
G36*
X30635914Y-16705253D02*
G01*
X30621741Y-16775433D01*
X30591120Y-16820145D01*
X30532227Y-16857194D01*
X30475202Y-16865965D01*
X30407791Y-16853033D01*
X30360652Y-16820145D01*
X30324985Y-16761072D01*
X30316542Y-16705253D01*
X30330823Y-16635181D01*
X30361678Y-16590703D01*
X30419813Y-16553377D01*
X30475202Y-16544541D01*
X30543169Y-16557569D01*
X30591120Y-16590703D01*
X30627340Y-16649499D01*
X30635914Y-16705253D01*
G37*
G36*
X30608559Y-15502650D02*
G01*
X30597415Y-15571580D01*
X30573339Y-15614122D01*
X30516068Y-15652116D01*
X30477254Y-15657207D01*
X30471441Y-15657207D01*
X30471441Y-15686614D01*
X30530495Y-15726182D01*
X30540171Y-15733801D01*
X30586768Y-15787755D01*
X30607533Y-15826125D01*
X30627904Y-15891506D01*
X30635470Y-15962148D01*
X30635914Y-15986495D01*
X30631752Y-16055294D01*
X30617719Y-16124264D01*
X30600694Y-16171826D01*
X30566604Y-16232475D01*
X30517648Y-16285545D01*
X30497086Y-16301422D01*
X30431319Y-16334146D01*
X30360169Y-16348125D01*
X30330219Y-16349293D01*
X30260143Y-16342561D01*
X30195080Y-16320075D01*
X30164720Y-16301422D01*
X30113492Y-16252559D01*
X30074699Y-16190345D01*
X30065900Y-16170117D01*
X30045480Y-16104368D01*
X30034484Y-16032272D01*
X30032390Y-15980682D01*
X30032390Y-15969056D01*
X30188998Y-15969056D01*
X30196587Y-16037477D01*
X30223534Y-16098309D01*
X30278966Y-16140331D01*
X30324406Y-16147207D01*
X30393943Y-16129245D01*
X30430408Y-16096258D01*
X30460824Y-16031605D01*
X30469351Y-15962566D01*
X30469389Y-15957088D01*
X30462610Y-15885795D01*
X30439495Y-15817940D01*
X30399975Y-15761157D01*
X30345917Y-15718717D01*
X30279656Y-15693893D01*
X30208831Y-15686614D01*
X30188998Y-15686614D01*
X30188998Y-15969056D01*
X30032390Y-15969056D01*
X30032390Y-15686614D01*
X29969473Y-15686614D01*
X29897901Y-15697808D01*
X29837623Y-15734428D01*
X29834406Y-15737563D01*
X29797836Y-15797424D01*
X29784253Y-15868873D01*
X29783457Y-15894513D01*
X29790334Y-15965599D01*
X29815737Y-16031152D01*
X29832355Y-16053515D01*
X29888689Y-16098908D01*
X29955012Y-16124538D01*
X29959898Y-16125665D01*
X29899033Y-16314074D01*
X29833331Y-16287997D01*
X29773258Y-16251055D01*
X29757128Y-16238505D01*
X29705956Y-16186482D01*
X29666995Y-16126454D01*
X29654204Y-16100361D01*
X29630241Y-16030733D01*
X29617991Y-15958122D01*
X29614881Y-15892461D01*
X29619479Y-15814027D01*
X29633272Y-15743284D01*
X29660296Y-15671850D01*
X29699331Y-15610461D01*
X29710966Y-15596683D01*
X29764009Y-15549410D01*
X29827055Y-15515644D01*
X29900102Y-15495384D01*
X29972222Y-15488736D01*
X29983150Y-15488630D01*
X30381168Y-15488630D01*
X30438546Y-15449681D01*
X30439982Y-15433920D01*
X30439982Y-15351512D01*
X30608559Y-15351512D01*
X30608559Y-15502650D01*
G37*
G36*
X30626339Y-14810905D02*
G01*
X30620561Y-14883579D01*
X30603228Y-14950677D01*
X30577442Y-15006837D01*
X30534790Y-15066270D01*
X30480694Y-15115317D01*
X30438272Y-15142245D01*
X30372049Y-15170084D01*
X30304622Y-15185365D01*
X30230317Y-15191095D01*
X30222508Y-15191143D01*
X29642236Y-15191143D01*
X29642236Y-14989398D01*
X30208831Y-14989398D01*
X30280852Y-14983287D01*
X30350351Y-14959822D01*
X30394162Y-14926823D01*
X30432684Y-14867633D01*
X30450813Y-14798671D01*
X30453660Y-14752092D01*
X30445545Y-14679650D01*
X30417875Y-14610840D01*
X30370568Y-14553425D01*
X30311243Y-14513574D01*
X30245574Y-14490328D01*
X30177437Y-14479701D01*
X30130184Y-14477856D01*
X29642236Y-14477856D01*
X29642236Y-14275769D01*
X30608559Y-14275769D01*
X30608559Y-14473752D01*
X30463576Y-14473752D01*
X30463576Y-14505211D01*
X30520680Y-14543423D01*
X30567841Y-14594670D01*
X30574365Y-14603348D01*
X30606037Y-14665554D01*
X30622228Y-14739051D01*
X30626339Y-14810905D01*
G37*
G36*
X30608559Y-13218491D02*
G01*
X30471441Y-13218491D01*
X30471441Y-13249949D01*
X30527550Y-13293306D01*
X30575310Y-13348957D01*
X30584965Y-13362789D01*
X30616012Y-13428490D01*
X30630938Y-13497419D01*
X30635864Y-13570476D01*
X30635914Y-13579237D01*
X30630170Y-13652300D01*
X30612940Y-13721891D01*
X30584222Y-13788008D01*
X30577100Y-13800815D01*
X30535299Y-13860594D01*
X30483414Y-13912560D01*
X30421444Y-13956711D01*
X30407840Y-13964604D01*
X30341870Y-13994357D01*
X30268597Y-14014372D01*
X30197334Y-14023989D01*
X30140101Y-14026153D01*
X30110694Y-14026153D01*
X30035959Y-14022370D01*
X29966652Y-14011022D01*
X29895170Y-13989213D01*
X29844323Y-13965630D01*
X29785619Y-13928147D01*
X29730228Y-13878886D01*
X29685188Y-13821612D01*
X29673695Y-13802866D01*
X29642680Y-13737096D01*
X29623152Y-13667586D01*
X29615111Y-13594336D01*
X29614881Y-13579237D01*
X29617978Y-13522475D01*
X29793032Y-13522475D01*
X29799712Y-13591718D01*
X29822807Y-13660534D01*
X29862397Y-13720801D01*
X29877491Y-13737214D01*
X29936976Y-13782113D01*
X30002333Y-13808305D01*
X30069829Y-13820278D01*
X30116507Y-13822357D01*
X30134288Y-13822357D01*
X30208083Y-13817035D01*
X30280322Y-13798327D01*
X30341147Y-13766149D01*
X30375355Y-13737214D01*
X30419714Y-13679511D01*
X30447644Y-13613261D01*
X30459144Y-13538461D01*
X30459473Y-13522475D01*
X30452819Y-13452268D01*
X30429818Y-13382825D01*
X30390388Y-13322397D01*
X30375355Y-13306027D01*
X30315523Y-13260947D01*
X30249625Y-13234651D01*
X30181466Y-13222629D01*
X30134288Y-13220542D01*
X30116507Y-13220542D01*
X30043481Y-13225821D01*
X29971903Y-13244379D01*
X29905506Y-13280670D01*
X29877491Y-13305002D01*
X29832952Y-13362383D01*
X29804909Y-13429382D01*
X29793774Y-13497904D01*
X29793032Y-13522475D01*
X29617978Y-13522475D01*
X29618775Y-13507858D01*
X29632945Y-13437979D01*
X29638475Y-13421603D01*
X29668853Y-13356916D01*
X29698314Y-13316628D01*
X29749445Y-13269420D01*
X29773541Y-13254053D01*
X29773541Y-13222594D01*
X29236695Y-13222594D01*
X29236695Y-13020508D01*
X30608559Y-13020508D01*
X30608559Y-13218491D01*
G37*
G36*
X30608559Y-12723362D02*
G01*
X29642236Y-12723362D01*
X29642236Y-12521617D01*
X30608559Y-12521617D01*
X30608559Y-12723362D01*
G37*
G36*
X29510931Y-12621806D02*
G01*
X29494585Y-12691046D01*
X29472976Y-12720968D01*
X29412991Y-12756248D01*
X29373813Y-12760975D01*
X29306681Y-12745347D01*
X29274993Y-12720968D01*
X29241221Y-12660058D01*
X29236695Y-12621806D01*
X29251655Y-12554272D01*
X29274993Y-12521959D01*
X29334675Y-12487283D01*
X29373813Y-12482636D01*
X29441079Y-12497997D01*
X29472976Y-12521959D01*
X29506446Y-12582547D01*
X29510931Y-12621806D01*
G37*
G36*
X30213960Y-11272446D02*
G01*
X30282690Y-11284564D01*
X30353880Y-11307852D01*
X30404762Y-11333034D01*
X30463547Y-11373281D01*
X30514108Y-11421318D01*
X30556447Y-11477145D01*
X30576416Y-11511526D01*
X30605177Y-11577872D01*
X30624525Y-11649195D01*
X30634461Y-11725494D01*
X30635914Y-11770033D01*
X30632195Y-11840515D01*
X30619122Y-11915006D01*
X30596636Y-11984411D01*
X30576416Y-12027856D01*
X30538645Y-12087515D01*
X30492652Y-12139546D01*
X30438435Y-12183950D01*
X30404762Y-12205323D01*
X30338621Y-12236563D01*
X30265988Y-12257579D01*
X30195976Y-12267677D01*
X30140101Y-12269949D01*
X30110694Y-12269949D01*
X30036899Y-12265910D01*
X29968361Y-12253793D01*
X29897541Y-12230504D01*
X29847058Y-12205323D01*
X29788716Y-12165156D01*
X29738325Y-12117363D01*
X29695887Y-12061941D01*
X29675746Y-12027856D01*
X29646324Y-11961841D01*
X29626531Y-11890741D01*
X29616367Y-11814555D01*
X29614881Y-11770033D01*
X29795083Y-11770033D01*
X29801845Y-11840105D01*
X29825220Y-11909081D01*
X29865291Y-11968707D01*
X29880568Y-11984771D01*
X29940194Y-12028769D01*
X30004821Y-12054435D01*
X30079834Y-12066901D01*
X30116507Y-12068205D01*
X30134288Y-12068205D01*
X30205604Y-12062990D01*
X30276076Y-12044658D01*
X30342260Y-12008807D01*
X30370568Y-11984771D01*
X30415468Y-11927951D01*
X30443738Y-11861780D01*
X30454963Y-11794232D01*
X30455711Y-11770033D01*
X30448976Y-11699134D01*
X30425695Y-11629557D01*
X30385784Y-11569665D01*
X30370568Y-11553585D01*
X30310762Y-11509587D01*
X30246030Y-11483921D01*
X30170966Y-11471455D01*
X30134288Y-11470152D01*
X30116507Y-11470152D01*
X30045212Y-11475302D01*
X29974815Y-11493409D01*
X29908778Y-11528819D01*
X29880568Y-11552559D01*
X29835488Y-11609206D01*
X29807105Y-11676138D01*
X29795835Y-11745171D01*
X29795083Y-11770033D01*
X29614881Y-11770033D01*
X29618685Y-11699508D01*
X29632059Y-11624867D01*
X29655062Y-11555204D01*
X29675746Y-11511526D01*
X29713767Y-11451372D01*
X29759739Y-11399007D01*
X29813664Y-11354432D01*
X29847058Y-11333034D01*
X29912704Y-11301793D01*
X29985003Y-11280777D01*
X30054855Y-11270679D01*
X30110694Y-11268407D01*
X30140101Y-11268407D01*
X30213960Y-11272446D01*
G37*
G36*
X31079068Y-11150096D02*
G01*
X30906388Y-11150096D01*
X30906388Y-10901164D01*
X30861359Y-10848991D01*
X30847575Y-10848163D01*
X29369710Y-10848163D01*
X29312332Y-10885895D01*
X29310896Y-10901164D01*
X29310896Y-11150096D01*
X29138559Y-11150096D01*
X29138559Y-10830382D01*
X29151039Y-10759173D01*
X29188482Y-10702154D01*
X29249053Y-10663201D01*
X29315000Y-10652231D01*
X30902627Y-10652231D01*
X30972297Y-10664712D01*
X31028803Y-10702154D01*
X31068023Y-10763208D01*
X31079068Y-10830382D01*
X31079068Y-11150096D01*
G37*
D14*
%TO.C,G\u002A\u002A\u002A*%
G36*
X28605045Y-30288750D02*
G01*
X28605045Y-30422500D01*
X28137499Y-30422500D01*
X27669953Y-30422500D01*
X27669953Y-30786249D01*
X27669954Y-31150000D01*
X28137499Y-31149999D01*
X28605045Y-31149999D01*
X28605045Y-31283750D01*
X28605045Y-31417501D01*
X27622428Y-31417500D01*
X26639808Y-31417500D01*
X26640455Y-31284375D01*
X26641102Y-31151250D01*
X27044267Y-31150618D01*
X27447432Y-31149985D01*
X27447432Y-30786249D01*
X27447432Y-30422517D01*
X27044267Y-30421883D01*
X26641102Y-30421250D01*
X26640455Y-30288125D01*
X26639808Y-30155000D01*
X27622427Y-30155000D01*
X28605045Y-30155000D01*
X28605045Y-30288750D01*
G37*
G36*
X31062787Y-33908757D02*
G01*
X31062787Y-34272511D01*
X30462103Y-34271881D01*
X29861419Y-34271250D01*
X29860786Y-33915625D01*
X29860152Y-33560000D01*
X29928917Y-33560000D01*
X29997683Y-33560000D01*
X29997683Y-33835000D01*
X29997683Y-34110000D01*
X30176451Y-34110000D01*
X30355218Y-34110000D01*
X30355218Y-33847500D01*
X30355218Y-33585000D01*
X30422725Y-33585000D01*
X30490231Y-33585000D01*
X30490231Y-33847500D01*
X30490231Y-34110000D01*
X30707752Y-34110000D01*
X30925274Y-34110000D01*
X30925275Y-33827500D01*
X30925274Y-33545000D01*
X30994031Y-33545000D01*
X31062787Y-33545000D01*
X31062787Y-33908757D01*
G37*
G36*
X30481770Y-32838258D02*
G01*
X30502330Y-32845013D01*
X30521617Y-32856148D01*
X30535419Y-32867922D01*
X30549370Y-32885312D01*
X30559106Y-32905211D01*
X30564516Y-32927268D01*
X30565487Y-32951132D01*
X30564784Y-32959610D01*
X30560215Y-32979401D01*
X30551497Y-32998065D01*
X30539301Y-33014776D01*
X30524297Y-33028707D01*
X30507156Y-33039032D01*
X30497317Y-33042796D01*
X30473930Y-33047640D01*
X30450771Y-33047935D01*
X30428502Y-33043831D01*
X30407784Y-33035477D01*
X30389279Y-33023022D01*
X30382645Y-33016925D01*
X30368010Y-32998997D01*
X30357888Y-32979470D01*
X30352283Y-32958906D01*
X30351198Y-32937867D01*
X30354635Y-32916914D01*
X30362598Y-32896608D01*
X30375091Y-32877510D01*
X30381804Y-32869865D01*
X30399330Y-32854851D01*
X30418717Y-32844176D01*
X30439337Y-32837847D01*
X30460564Y-32835872D01*
X30481770Y-32838258D01*
G37*
G36*
X30481446Y-31845877D02*
G01*
X30501953Y-31852424D01*
X30521126Y-31863278D01*
X30535116Y-31875120D01*
X30549254Y-31892677D01*
X30559089Y-31912648D01*
X30564530Y-31934748D01*
X30565486Y-31958695D01*
X30564784Y-31967110D01*
X30560238Y-31986817D01*
X30551573Y-32005422D01*
X30539459Y-32022096D01*
X30524573Y-32036009D01*
X30507584Y-32046331D01*
X30497317Y-32050260D01*
X30473477Y-32055192D01*
X30450156Y-32055548D01*
X30427911Y-32051453D01*
X30407302Y-32043033D01*
X30388884Y-32030414D01*
X30382363Y-32024329D01*
X30367787Y-32006250D01*
X30357739Y-31986607D01*
X30352222Y-31965958D01*
X30351239Y-31944863D01*
X30354791Y-31923881D01*
X30362879Y-31903572D01*
X30375508Y-31884496D01*
X30381804Y-31877365D01*
X30399164Y-31862535D01*
X30418464Y-31851962D01*
X30439047Y-31845655D01*
X30460258Y-31843623D01*
X30481446Y-31845877D01*
G37*
G36*
X30476737Y-30852682D02*
G01*
X30497978Y-30858464D01*
X30517748Y-30868553D01*
X30535116Y-30882620D01*
X30549254Y-30900177D01*
X30559089Y-30920148D01*
X30564530Y-30942249D01*
X30565486Y-30966195D01*
X30564784Y-30974610D01*
X30560021Y-30995419D01*
X30550959Y-31014385D01*
X30538121Y-31030989D01*
X30522029Y-31044710D01*
X30503207Y-31055029D01*
X30482177Y-31061426D01*
X30476480Y-31062373D01*
X30453415Y-31063358D01*
X30431812Y-31060049D01*
X30412024Y-31052904D01*
X30394408Y-31042381D01*
X30379316Y-31028938D01*
X30367105Y-31013035D01*
X30358129Y-30995128D01*
X30352742Y-30975676D01*
X30351299Y-30955136D01*
X30354155Y-30933969D01*
X30361251Y-30913523D01*
X30369558Y-30899592D01*
X30381207Y-30885667D01*
X30394759Y-30873219D01*
X30408775Y-30863715D01*
X30411383Y-30862359D01*
X30432719Y-30854512D01*
X30454744Y-30851326D01*
X30476737Y-30852682D01*
G37*
G36*
X31062787Y-29911210D02*
G01*
X31062787Y-30242500D01*
X30994031Y-30242500D01*
X30925275Y-30242500D01*
X30925274Y-30116250D01*
X30925274Y-29990000D01*
X30466479Y-29990000D01*
X30418979Y-29990010D01*
X30372837Y-29990037D01*
X30328300Y-29990081D01*
X30285616Y-29990141D01*
X30245032Y-29990216D01*
X30206795Y-29990306D01*
X30171151Y-29990408D01*
X30138348Y-29990522D01*
X30108633Y-29990649D01*
X30082254Y-29990786D01*
X30059457Y-29990932D01*
X30040489Y-29991087D01*
X30025598Y-29991250D01*
X30015030Y-29991419D01*
X30009033Y-29991594D01*
X30007684Y-29991727D01*
X30008219Y-29994422D01*
X30009754Y-30001546D01*
X30012191Y-30012648D01*
X30015431Y-30027279D01*
X30019373Y-30044989D01*
X30023916Y-30065330D01*
X30028962Y-30087851D01*
X30034410Y-30112104D01*
X30037686Y-30126663D01*
X30043319Y-30151692D01*
X30048606Y-30175237D01*
X30053450Y-30196848D01*
X30057749Y-30216078D01*
X30061405Y-30232480D01*
X30064316Y-30245606D01*
X30066384Y-30255009D01*
X30067509Y-30260240D01*
X30067689Y-30261187D01*
X30065292Y-30261520D01*
X30058513Y-30261821D01*
X30047971Y-30262081D01*
X30034283Y-30262288D01*
X30018069Y-30262430D01*
X29999948Y-30262497D01*
X29994460Y-30262500D01*
X29921231Y-30262500D01*
X29890623Y-30124375D01*
X29860014Y-29986250D01*
X29860717Y-29908750D01*
X29861419Y-29831250D01*
X30393323Y-29830619D01*
X30925227Y-29829989D01*
X30925876Y-29705620D01*
X30926524Y-29581250D01*
X30994657Y-29580585D01*
X31062787Y-29579920D01*
X31062787Y-29911210D01*
G37*
G36*
X30775259Y-28635000D02*
G01*
X30775259Y-28714999D01*
X30919023Y-28715000D01*
X31062787Y-28714999D01*
X31062787Y-28796250D01*
X31062787Y-28877500D01*
X30919023Y-28877500D01*
X30775259Y-28877500D01*
X30775259Y-29131250D01*
X30775259Y-29385000D01*
X30698053Y-29385000D01*
X30643063Y-29385000D01*
X30620848Y-29385000D01*
X30241133Y-29144339D01*
X29861419Y-28903677D01*
X29861419Y-28879879D01*
X30012685Y-28879879D01*
X30015232Y-28881400D01*
X30021832Y-28885339D01*
X30032240Y-28891553D01*
X30046215Y-28899896D01*
X30063515Y-28910226D01*
X30083897Y-28922397D01*
X30107119Y-28936263D01*
X30132941Y-28951681D01*
X30161118Y-28968507D01*
X30191409Y-28986595D01*
X30223573Y-29005801D01*
X30257366Y-29025980D01*
X30292546Y-29046990D01*
X30328658Y-29068553D01*
X30364941Y-29090211D01*
X30400058Y-29111156D01*
X30433769Y-29131245D01*
X30465834Y-29150336D01*
X30496013Y-29168287D01*
X30524064Y-29184954D01*
X30549748Y-29200196D01*
X30572825Y-29213870D01*
X30593054Y-29225834D01*
X30610194Y-29235944D01*
X30624005Y-29244058D01*
X30634247Y-29250034D01*
X30640680Y-29253729D01*
X30643063Y-29255000D01*
X30643064Y-29255000D01*
X30643424Y-29252561D01*
X30643763Y-29245485D01*
X30644077Y-29234134D01*
X30644363Y-29218873D01*
X30644617Y-29200064D01*
X30644833Y-29178069D01*
X30645009Y-29153255D01*
X30645139Y-29125981D01*
X30645219Y-29096611D01*
X30645246Y-29066250D01*
X30645246Y-28877500D01*
X30327090Y-28877577D01*
X30283519Y-28877604D01*
X30242370Y-28877664D01*
X30203868Y-28877756D01*
X30168234Y-28877876D01*
X30135692Y-28878025D01*
X30106463Y-28878199D01*
X30080773Y-28878399D01*
X30058841Y-28878621D01*
X30040893Y-28878864D01*
X30027151Y-28879127D01*
X30017838Y-28879408D01*
X30013177Y-28879705D01*
X30012685Y-28879879D01*
X29861419Y-28879879D01*
X29861419Y-28809965D01*
X29861419Y-28716250D01*
X30253333Y-28715618D01*
X30645246Y-28714985D01*
X30645246Y-28634993D01*
X30645246Y-28554999D01*
X30710253Y-28555000D01*
X30775259Y-28554999D01*
X30775259Y-28635000D01*
G37*
G36*
X29495133Y-31451250D02*
G01*
X29495133Y-35595000D01*
X27583695Y-35595001D01*
X25672257Y-35595000D01*
X25672257Y-32187500D01*
X25672257Y-28780000D01*
X25841023Y-28780000D01*
X26009790Y-28780000D01*
X26009790Y-32018750D01*
X26009790Y-35257500D01*
X27584945Y-35257500D01*
X29160101Y-35257500D01*
X29160101Y-31450000D01*
X29160101Y-27642500D01*
X28990707Y-27642438D01*
X28981827Y-27642432D01*
X28968310Y-27642412D01*
X28950317Y-27642383D01*
X28928007Y-27642345D01*
X28901537Y-27642296D01*
X28871067Y-27642238D01*
X28836755Y-27642171D01*
X28798759Y-27642096D01*
X28757238Y-27642013D01*
X28712353Y-27641921D01*
X28664260Y-27641822D01*
X28613115Y-27641716D01*
X28559082Y-27641603D01*
X28502317Y-27641484D01*
X28442978Y-27641359D01*
X28381224Y-27641227D01*
X28317214Y-27641091D01*
X28251107Y-27640949D01*
X28183061Y-27640803D01*
X28113234Y-27640652D01*
X28041786Y-27640497D01*
X27968875Y-27640339D01*
X27894658Y-27640178D01*
X27819295Y-27640013D01*
X27742945Y-27639846D01*
X27665766Y-27639676D01*
X27587916Y-27639505D01*
X27509555Y-27639332D01*
X27430841Y-27639158D01*
X27351932Y-27638984D01*
X27272987Y-27638808D01*
X27194163Y-27638633D01*
X27115622Y-27638458D01*
X27037520Y-27638283D01*
X26960017Y-27638110D01*
X26883270Y-27637937D01*
X26807438Y-27637767D01*
X26732681Y-27637598D01*
X26659156Y-27637432D01*
X26587022Y-27637268D01*
X26516438Y-27637107D01*
X26447562Y-27636950D01*
X26380554Y-27636797D01*
X26315570Y-27636647D01*
X26252771Y-27636503D01*
X26192314Y-27636362D01*
X26134358Y-27636228D01*
X26079062Y-27636098D01*
X26026585Y-27635975D01*
X25977084Y-27635857D01*
X25930719Y-27635747D01*
X25887648Y-27635643D01*
X25848029Y-27635547D01*
X25812021Y-27635458D01*
X25779785Y-27635377D01*
X25751476Y-27635304D01*
X25727253Y-27635240D01*
X25707277Y-27635186D01*
X25691704Y-27635140D01*
X25680695Y-27635105D01*
X25674406Y-27635079D01*
X25672882Y-27635067D01*
X25672775Y-27632624D01*
X25672673Y-27625595D01*
X25672579Y-27614394D01*
X25672494Y-27599434D01*
X25672419Y-27581129D01*
X25672357Y-27559893D01*
X25672308Y-27536140D01*
X25672275Y-27510282D01*
X25672257Y-27482737D01*
X25672257Y-27471250D01*
X25672257Y-27307500D01*
X27583695Y-27307500D01*
X29495133Y-27307500D01*
X29495133Y-31451250D01*
G37*
G36*
X30775259Y-27642499D02*
G01*
X30775259Y-27722500D01*
X30919023Y-27722499D01*
X31062787Y-27722500D01*
X31062787Y-27803749D01*
X31062787Y-27885000D01*
X30919023Y-27885000D01*
X30775259Y-27885000D01*
X30775259Y-28140000D01*
X30775259Y-28395000D01*
X30699954Y-28395000D01*
X30643034Y-28395000D01*
X30624648Y-28395000D01*
X30253035Y-28159584D01*
X30213568Y-28134580D01*
X30175147Y-28110232D01*
X30137991Y-28086681D01*
X30102322Y-28064067D01*
X30068362Y-28042532D01*
X30036332Y-28022216D01*
X30006454Y-28003258D01*
X29978948Y-27985801D01*
X29954036Y-27969983D01*
X29931942Y-27955947D01*
X29912884Y-27943832D01*
X29897085Y-27933779D01*
X29884765Y-27925929D01*
X29876148Y-27920421D01*
X29871454Y-27917398D01*
X29870765Y-27916943D01*
X29860108Y-27909719D01*
X29860276Y-27885958D01*
X30010392Y-27885958D01*
X30012824Y-27887512D01*
X30019250Y-27891434D01*
X30029378Y-27897554D01*
X30042920Y-27905697D01*
X30059584Y-27915692D01*
X30079081Y-27927366D01*
X30101121Y-27940546D01*
X30125413Y-27955058D01*
X30151669Y-27970731D01*
X30179597Y-27987393D01*
X30208907Y-28004870D01*
X30239310Y-28022990D01*
X30270515Y-28041581D01*
X30302234Y-28060468D01*
X30334173Y-28079480D01*
X30366045Y-28098445D01*
X30397560Y-28117189D01*
X30428427Y-28135541D01*
X30458355Y-28153327D01*
X30487056Y-28170374D01*
X30514239Y-28186511D01*
X30539613Y-28201563D01*
X30562890Y-28215360D01*
X30583778Y-28227729D01*
X30601988Y-28238494D01*
X30617229Y-28247486D01*
X30629213Y-28254531D01*
X30637648Y-28259457D01*
X30642244Y-28262091D01*
X30643034Y-28262500D01*
X30643408Y-28260057D01*
X30643759Y-28252952D01*
X30644082Y-28241529D01*
X30644374Y-28226123D01*
X30644631Y-28207075D01*
X30644848Y-28184727D01*
X30645022Y-28159414D01*
X30645149Y-28131479D01*
X30645226Y-28101261D01*
X30645246Y-28073750D01*
X30645246Y-27885000D01*
X30327298Y-27885000D01*
X30287886Y-27885008D01*
X30249896Y-27885029D01*
X30213625Y-27885064D01*
X30179366Y-27885111D01*
X30147417Y-27885170D01*
X30118071Y-27885239D01*
X30091626Y-27885318D01*
X30068377Y-27885406D01*
X30048619Y-27885501D01*
X30032647Y-27885604D01*
X30020758Y-27885713D01*
X30013245Y-27885827D01*
X30010407Y-27885945D01*
X30010392Y-27885958D01*
X29860276Y-27885958D01*
X29860764Y-27816735D01*
X29861419Y-27723749D01*
X30253334Y-27723118D01*
X30645246Y-27722484D01*
X30645245Y-27642493D01*
X30645246Y-27562500D01*
X30710253Y-27562500D01*
X30775259Y-27562500D01*
X30775259Y-27642499D01*
G37*
G36*
X30529642Y-34535419D02*
G01*
X30580257Y-34539090D01*
X30628922Y-34544921D01*
X30667748Y-34551518D01*
X30720148Y-34563671D01*
X30768594Y-34578870D01*
X30813139Y-34597165D01*
X30853835Y-34618609D01*
X30890734Y-34643253D01*
X30923888Y-34671150D01*
X30953349Y-34702351D01*
X30979170Y-34736907D01*
X31001402Y-34774871D01*
X31020098Y-34816294D01*
X31035309Y-34861228D01*
X31047087Y-34909726D01*
X31051272Y-34932662D01*
X31053660Y-34947974D01*
X31055710Y-34963147D01*
X31057442Y-34978691D01*
X31058883Y-34995118D01*
X31060055Y-35012937D01*
X31060984Y-35032660D01*
X31061691Y-35054796D01*
X31062202Y-35079857D01*
X31062538Y-35108353D01*
X31062726Y-35140794D01*
X31062787Y-35177691D01*
X31062787Y-35180200D01*
X31062787Y-35312499D01*
X30462728Y-35312500D01*
X30461478Y-35312500D01*
X29860169Y-35312500D01*
X29860224Y-35196875D01*
X29860350Y-35153099D01*
X29860708Y-35113885D01*
X29861147Y-35089015D01*
X29995182Y-35089015D01*
X29995182Y-35150000D01*
X30462728Y-35150000D01*
X30930274Y-35150000D01*
X30930274Y-35100500D01*
X30930127Y-35082280D01*
X30929721Y-35062983D01*
X30929106Y-35044223D01*
X30928331Y-35027614D01*
X30927664Y-35017375D01*
X30923508Y-34978472D01*
X30917294Y-34943424D01*
X30908827Y-34911449D01*
X30897913Y-34881762D01*
X30889629Y-34863750D01*
X30875182Y-34838221D01*
X30858424Y-34815396D01*
X30839068Y-34795115D01*
X30816832Y-34777224D01*
X30791429Y-34761566D01*
X30762577Y-34747986D01*
X30729992Y-34736324D01*
X30693388Y-34726426D01*
X30652483Y-34718135D01*
X30614833Y-34712330D01*
X30598722Y-34710566D01*
X30578500Y-34709018D01*
X30555051Y-34707703D01*
X30529259Y-34706639D01*
X30502010Y-34705844D01*
X30474188Y-34705336D01*
X30446678Y-34705131D01*
X30420365Y-34705249D01*
X30396133Y-34705706D01*
X30374868Y-34706521D01*
X30362718Y-34707276D01*
X30311524Y-34712279D01*
X30264837Y-34719279D01*
X30222564Y-34728305D01*
X30184613Y-34739390D01*
X30150895Y-34752566D01*
X30121315Y-34767865D01*
X30095783Y-34785319D01*
X30074205Y-34804958D01*
X30071370Y-34808021D01*
X30051081Y-34833962D01*
X30033986Y-34863453D01*
X30020025Y-34896630D01*
X30009134Y-34933629D01*
X30005365Y-34950824D01*
X30002089Y-34968921D01*
X29999539Y-34986991D01*
X29997644Y-35005968D01*
X29996336Y-35026784D01*
X29995547Y-35050373D01*
X29995208Y-35077667D01*
X29995182Y-35089015D01*
X29861147Y-35089015D01*
X29861327Y-35078798D01*
X29862238Y-35047408D01*
X29863471Y-35019278D01*
X29865059Y-34993977D01*
X29867032Y-34971069D01*
X29869420Y-34950121D01*
X29872256Y-34930701D01*
X29875568Y-34912371D01*
X29879389Y-34894702D01*
X29882703Y-34881250D01*
X29895363Y-34838498D01*
X29910303Y-34799761D01*
X29927845Y-34764454D01*
X29948305Y-34731991D01*
X29972008Y-34701789D01*
X29993630Y-34678750D01*
X30024139Y-34651321D01*
X30056992Y-34627258D01*
X30092692Y-34606280D01*
X30131743Y-34588097D01*
X30174648Y-34572427D01*
X30189574Y-34567807D01*
X30230886Y-34557152D01*
X30275988Y-34548459D01*
X30324061Y-34541758D01*
X30374283Y-34537075D01*
X30425834Y-34534439D01*
X30477894Y-34533877D01*
X30529642Y-34535419D01*
G37*
G36*
X30508553Y-32554525D02*
G01*
X30565827Y-32557032D01*
X30621162Y-32561492D01*
X30673478Y-32567903D01*
X30696501Y-32571553D01*
X30751398Y-32582651D01*
X30802217Y-32596434D01*
X30848924Y-32612887D01*
X30891485Y-32631996D01*
X30929867Y-32653745D01*
X30964036Y-32678120D01*
X30985750Y-32697041D01*
X31012157Y-32724924D01*
X31034176Y-32754471D01*
X31052106Y-32786218D01*
X31066244Y-32820701D01*
X31076886Y-32858458D01*
X31077949Y-32863265D01*
X31080101Y-32876371D01*
X31081869Y-32893182D01*
X31083206Y-32912409D01*
X31084065Y-32932769D01*
X31084394Y-32952978D01*
X31084149Y-32971749D01*
X31083282Y-32987797D01*
X31082771Y-32992985D01*
X31076845Y-33027023D01*
X31067141Y-33061070D01*
X31054117Y-33093970D01*
X31038229Y-33124565D01*
X31020065Y-33151533D01*
X31010585Y-33162682D01*
X30998205Y-33175601D01*
X30984114Y-33189180D01*
X30969495Y-33202307D01*
X30955541Y-33213874D01*
X30945014Y-33221699D01*
X30908165Y-33244341D01*
X30867168Y-33264353D01*
X30822003Y-33281735D01*
X30772651Y-33296497D01*
X30719094Y-33308643D01*
X30661313Y-33318178D01*
X30599287Y-33325106D01*
X30565390Y-33327680D01*
X30546484Y-33328604D01*
X30523899Y-33329222D01*
X30498537Y-33329549D01*
X30477263Y-33329587D01*
X30471299Y-33329598D01*
X30443085Y-33329381D01*
X30414800Y-33328914D01*
X30387343Y-33328206D01*
X30361617Y-33327276D01*
X30338523Y-33326135D01*
X30318963Y-33324794D01*
X30308963Y-33323866D01*
X30248543Y-33316025D01*
X30192475Y-33305790D01*
X30140705Y-33293137D01*
X30093180Y-33278033D01*
X30049846Y-33260451D01*
X30010647Y-33240364D01*
X29975533Y-33217743D01*
X29944447Y-33192559D01*
X29917337Y-33164783D01*
X29894148Y-33134391D01*
X29874826Y-33101349D01*
X29871074Y-33093693D01*
X29858713Y-33062474D01*
X29849525Y-33028247D01*
X29843550Y-32991898D01*
X29840825Y-32954312D01*
X29840971Y-32944471D01*
X29968077Y-32944471D01*
X29970103Y-32968388D01*
X29976463Y-32995883D01*
X29986852Y-33021220D01*
X30001331Y-33044432D01*
X30019961Y-33065555D01*
X30042803Y-33084624D01*
X30069916Y-33101674D01*
X30101362Y-33116740D01*
X30137200Y-33129858D01*
X30177492Y-33141062D01*
X30222297Y-33150387D01*
X30271676Y-33157869D01*
X30302713Y-33161406D01*
X30319652Y-33162803D01*
X30340715Y-33164025D01*
X30365026Y-33165061D01*
X30391712Y-33165897D01*
X30419896Y-33166523D01*
X30448704Y-33166925D01*
X30477263Y-33167091D01*
X30504696Y-33167010D01*
X30530129Y-33166669D01*
X30552689Y-33166055D01*
X30571489Y-33165158D01*
X30626630Y-33160696D01*
X30677190Y-33154501D01*
X30723289Y-33146548D01*
X30765048Y-33136810D01*
X30802585Y-33125262D01*
X30836019Y-33111880D01*
X30848540Y-33105872D01*
X30875196Y-33090146D01*
X30898701Y-33071695D01*
X30918708Y-33050951D01*
X30934864Y-33028350D01*
X30946817Y-33004325D01*
X30954219Y-32979312D01*
X30955197Y-32973750D01*
X30956242Y-32962366D01*
X30956562Y-32947905D01*
X30956214Y-32932120D01*
X30955259Y-32916764D01*
X30953756Y-32903591D01*
X30952624Y-32897501D01*
X30945864Y-32877399D01*
X30935057Y-32856764D01*
X30920917Y-32836588D01*
X30904157Y-32817865D01*
X30885494Y-32801587D01*
X30881454Y-32798611D01*
X30857907Y-32783972D01*
X30830022Y-32770423D01*
X30798379Y-32758170D01*
X30763563Y-32747421D01*
X30726155Y-32738384D01*
X30696501Y-32732812D01*
X30668998Y-32728547D01*
X30642313Y-32725053D01*
X30615581Y-32722273D01*
X30587940Y-32720148D01*
X30558525Y-32718620D01*
X30526472Y-32717630D01*
X30490918Y-32717118D01*
X30462728Y-32717017D01*
X30402561Y-32717779D01*
X30346973Y-32720095D01*
X30295775Y-32724000D01*
X30248783Y-32729531D01*
X30205810Y-32736723D01*
X30166668Y-32745614D01*
X30131171Y-32756239D01*
X30099134Y-32768634D01*
X30070368Y-32782836D01*
X30046255Y-32797789D01*
X30022677Y-32816880D01*
X30003092Y-32838621D01*
X29987670Y-32862631D01*
X29976579Y-32888530D01*
X29969992Y-32915937D01*
X29968077Y-32944471D01*
X29840971Y-32944471D01*
X29841389Y-32916374D01*
X29845281Y-32878970D01*
X29852537Y-32842987D01*
X29859338Y-32820000D01*
X29873868Y-32784775D01*
X29892773Y-32751901D01*
X29915996Y-32721416D01*
X29943480Y-32693360D01*
X29975165Y-32667772D01*
X30010995Y-32644687D01*
X30050911Y-32624149D01*
X30094855Y-32606193D01*
X30142770Y-32590860D01*
X30194598Y-32578187D01*
X30230973Y-32571291D01*
X30281713Y-32564029D01*
X30335922Y-32558722D01*
X30392519Y-32555368D01*
X30450424Y-32553971D01*
X30508553Y-32554525D01*
G37*
G36*
X30512904Y-31562538D02*
G01*
X30521933Y-31562801D01*
X30586483Y-31566107D01*
X30646812Y-31571892D01*
X30703054Y-31580184D01*
X30755344Y-31591011D01*
X30803817Y-31604397D01*
X30848611Y-31620372D01*
X30884162Y-31636139D01*
X30923689Y-31657701D01*
X30958841Y-31681676D01*
X30989638Y-31708089D01*
X31016100Y-31736968D01*
X31038246Y-31768340D01*
X31056098Y-31802230D01*
X31069674Y-31838667D01*
X31078995Y-31877676D01*
X31082630Y-31903027D01*
X31084299Y-31925347D01*
X31084870Y-31950310D01*
X31084344Y-31975681D01*
X31082726Y-31999225D01*
X31082524Y-32001204D01*
X31077048Y-32033915D01*
X31067701Y-32067143D01*
X31054982Y-32099617D01*
X31039396Y-32130068D01*
X31021445Y-32157226D01*
X31020065Y-32159034D01*
X31010586Y-32170182D01*
X30998205Y-32183101D01*
X30984113Y-32196680D01*
X30969495Y-32209807D01*
X30955541Y-32221374D01*
X30945014Y-32229198D01*
X30908237Y-32251796D01*
X30867297Y-32271782D01*
X30822172Y-32289165D01*
X30772843Y-32303946D01*
X30719293Y-32316134D01*
X30661502Y-32325732D01*
X30599452Y-32332747D01*
X30572271Y-32334913D01*
X30554915Y-32335860D01*
X30533609Y-32336582D01*
X30509399Y-32337080D01*
X30483328Y-32337353D01*
X30461027Y-32337394D01*
X30456444Y-32337402D01*
X30429790Y-32337225D01*
X30404413Y-32336823D01*
X30381355Y-32336197D01*
X30361665Y-32335345D01*
X30354791Y-32334930D01*
X30291852Y-32329260D01*
X30232796Y-32320962D01*
X30177693Y-32310055D01*
X30126612Y-32296559D01*
X30079619Y-32280492D01*
X30036783Y-32261875D01*
X29998176Y-32240727D01*
X29980461Y-32229198D01*
X29963441Y-32216263D01*
X29945330Y-32200441D01*
X29927599Y-32183145D01*
X29911715Y-32165783D01*
X29902462Y-32154319D01*
X29883125Y-32124656D01*
X29867215Y-32091795D01*
X29854861Y-32056296D01*
X29846190Y-32018715D01*
X29841330Y-31979614D01*
X29840914Y-31961552D01*
X29968679Y-31961552D01*
X29969739Y-31972227D01*
X29975568Y-31999990D01*
X29985412Y-32025604D01*
X29999327Y-32049098D01*
X30017368Y-32070502D01*
X30039591Y-32089844D01*
X30066054Y-32107156D01*
X30096809Y-32122466D01*
X30131916Y-32135804D01*
X30171430Y-32147199D01*
X30215406Y-32156682D01*
X30263900Y-32164283D01*
X30316970Y-32170027D01*
X30348967Y-32172463D01*
X30365491Y-32173307D01*
X30385924Y-32173967D01*
X30409299Y-32174445D01*
X30434656Y-32174740D01*
X30461026Y-32174853D01*
X30487450Y-32174783D01*
X30512961Y-32174530D01*
X30536595Y-32174095D01*
X30557388Y-32173477D01*
X30574377Y-32172677D01*
X30577740Y-32172460D01*
X30632703Y-32167681D01*
X30683046Y-32161192D01*
X30728865Y-32152950D01*
X30770253Y-32142918D01*
X30807305Y-32131053D01*
X30840113Y-32117318D01*
X30868773Y-32101670D01*
X30893378Y-32084070D01*
X30914023Y-32064476D01*
X30930802Y-32042851D01*
X30943808Y-32019152D01*
X30945596Y-32015043D01*
X30949712Y-32003646D01*
X30953242Y-31991092D01*
X30955029Y-31982365D01*
X30956154Y-31970407D01*
X30956526Y-31955492D01*
X30956200Y-31939372D01*
X30955230Y-31923796D01*
X30953671Y-31910516D01*
X30952624Y-31905000D01*
X30947013Y-31887882D01*
X30938152Y-31869574D01*
X30926934Y-31851682D01*
X30914255Y-31835812D01*
X30913746Y-31835259D01*
X30893107Y-31815861D01*
X30868869Y-31798432D01*
X30840891Y-31782926D01*
X30809032Y-31769296D01*
X30773151Y-31757498D01*
X30733106Y-31747484D01*
X30688757Y-31739210D01*
X30639961Y-31732628D01*
X30586578Y-31727692D01*
X30582740Y-31727414D01*
X30566049Y-31726483D01*
X30545320Y-31725750D01*
X30521511Y-31725217D01*
X30495580Y-31724880D01*
X30468487Y-31724742D01*
X30441188Y-31724801D01*
X30414643Y-31725057D01*
X30389809Y-31725511D01*
X30367646Y-31726163D01*
X30349110Y-31727012D01*
X30342717Y-31727422D01*
X30288367Y-31732318D01*
X30238624Y-31738934D01*
X30193384Y-31747308D01*
X30152540Y-31757480D01*
X30115991Y-31769490D01*
X30083634Y-31783376D01*
X30055361Y-31799177D01*
X30031073Y-31816933D01*
X30010664Y-31836682D01*
X29994029Y-31858465D01*
X29993578Y-31859165D01*
X29981696Y-31882045D01*
X29973428Y-31907487D01*
X29969009Y-31934365D01*
X29968679Y-31961552D01*
X29840914Y-31961552D01*
X29840408Y-31939550D01*
X29843553Y-31899082D01*
X29843767Y-31897445D01*
X29850893Y-31858053D01*
X29861451Y-31822024D01*
X29875688Y-31788865D01*
X29893850Y-31758088D01*
X29916182Y-31729200D01*
X29940861Y-31703646D01*
X29972209Y-31677456D01*
X30007772Y-31653918D01*
X30047522Y-31633039D01*
X30091432Y-31614825D01*
X30139472Y-31599284D01*
X30191617Y-31586422D01*
X30247837Y-31576246D01*
X30308103Y-31568763D01*
X30372388Y-31563980D01*
X30440664Y-31561902D01*
X30512904Y-31562538D01*
G37*
G36*
X30520448Y-30570574D02*
G01*
X30543031Y-30571044D01*
X30562298Y-30571774D01*
X30571872Y-30572337D01*
X30635861Y-30578256D01*
X30695598Y-30586802D01*
X30751081Y-30597975D01*
X30802312Y-30611774D01*
X30849289Y-30628200D01*
X30892012Y-30647253D01*
X30930482Y-30668932D01*
X30964697Y-30693237D01*
X30994658Y-30720168D01*
X31020365Y-30749725D01*
X31041816Y-30781907D01*
X31059012Y-30816715D01*
X31071953Y-30854148D01*
X31074802Y-30865054D01*
X31080463Y-30894763D01*
X31083881Y-30927486D01*
X31084976Y-30961727D01*
X31083666Y-30995993D01*
X31082524Y-31008704D01*
X31077112Y-31041112D01*
X31067882Y-31074074D01*
X31055343Y-31106317D01*
X31039994Y-31136564D01*
X31022341Y-31163541D01*
X31020273Y-31166263D01*
X31008730Y-31179802D01*
X30994141Y-31194761D01*
X30977754Y-31209997D01*
X30960817Y-31224371D01*
X30944580Y-31236742D01*
X30939025Y-31240563D01*
X30906951Y-31260008D01*
X30872345Y-31277308D01*
X30834878Y-31292558D01*
X30794224Y-31305858D01*
X30750052Y-31317306D01*
X30702035Y-31326998D01*
X30649844Y-31335032D01*
X30602742Y-31340550D01*
X30589113Y-31341600D01*
X30571243Y-31342447D01*
X30549890Y-31343095D01*
X30525808Y-31343546D01*
X30499755Y-31343806D01*
X30472487Y-31343877D01*
X30457796Y-31343816D01*
X30444758Y-31343761D01*
X30417326Y-31343466D01*
X30390947Y-31342991D01*
X30366377Y-31342341D01*
X30344371Y-31341520D01*
X30325688Y-31340532D01*
X30311080Y-31339380D01*
X30309172Y-31339180D01*
X30250056Y-31331428D01*
X30195356Y-31321542D01*
X30144947Y-31309473D01*
X30098701Y-31295177D01*
X30056490Y-31278604D01*
X30018189Y-31259710D01*
X29983671Y-31238447D01*
X29952808Y-31214768D01*
X29939707Y-31202960D01*
X29912456Y-31173884D01*
X29889630Y-31142595D01*
X29871296Y-31109206D01*
X29857520Y-31073826D01*
X29852828Y-31057295D01*
X29844605Y-31016097D01*
X29840624Y-30974924D01*
X29840661Y-30966475D01*
X29968457Y-30966475D01*
X29969926Y-30981472D01*
X29975896Y-31008968D01*
X29985852Y-31034332D01*
X29999853Y-31057596D01*
X30017958Y-31078790D01*
X30040227Y-31097945D01*
X30066720Y-31115092D01*
X30097495Y-31130263D01*
X30132612Y-31143487D01*
X30172130Y-31154796D01*
X30216110Y-31164221D01*
X30264609Y-31171792D01*
X30317689Y-31177541D01*
X30352526Y-31180178D01*
X30367576Y-31180911D01*
X30386404Y-31181450D01*
X30408234Y-31181805D01*
X30432289Y-31181982D01*
X30457796Y-31181990D01*
X30483977Y-31181835D01*
X30510058Y-31181526D01*
X30535262Y-31181069D01*
X30558814Y-31180473D01*
X30579937Y-31179747D01*
X30597858Y-31178894D01*
X30611799Y-31177925D01*
X30615243Y-31177597D01*
X30666117Y-31171362D01*
X30712349Y-31163710D01*
X30754110Y-31154575D01*
X30791574Y-31143889D01*
X30824913Y-31131586D01*
X30854299Y-31117599D01*
X30879903Y-31101862D01*
X30901899Y-31084306D01*
X30920460Y-31064867D01*
X30926648Y-31056972D01*
X30936930Y-31040574D01*
X30945789Y-31021659D01*
X30952329Y-31002349D01*
X30955038Y-30989793D01*
X30956158Y-30977873D01*
X30956527Y-30962986D01*
X30956201Y-30946887D01*
X30955232Y-30931324D01*
X30953678Y-30918050D01*
X30952624Y-30912501D01*
X30947183Y-30895847D01*
X30938609Y-30877927D01*
X30927820Y-30860404D01*
X30915738Y-30844937D01*
X30914335Y-30843394D01*
X30893184Y-30823568D01*
X30868270Y-30805770D01*
X30839475Y-30789960D01*
X30806681Y-30776101D01*
X30769774Y-30764155D01*
X30728635Y-30754083D01*
X30683147Y-30745848D01*
X30633193Y-30739411D01*
X30581490Y-30734927D01*
X30565523Y-30734074D01*
X30545596Y-30733398D01*
X30522638Y-30732900D01*
X30497574Y-30732577D01*
X30471332Y-30732431D01*
X30444841Y-30732462D01*
X30419026Y-30732670D01*
X30394814Y-30733054D01*
X30373133Y-30733614D01*
X30354909Y-30734352D01*
X30345217Y-30734935D01*
X30292420Y-30739614D01*
X30244239Y-30745746D01*
X30200488Y-30753390D01*
X30160980Y-30762603D01*
X30125533Y-30773443D01*
X30093957Y-30785968D01*
X30066068Y-30800234D01*
X30041680Y-30816299D01*
X30020608Y-30834222D01*
X30018634Y-30836159D01*
X29999627Y-30858474D01*
X29984968Y-30883075D01*
X29974794Y-30909550D01*
X29969245Y-30937488D01*
X29968457Y-30966475D01*
X29840661Y-30966475D01*
X29840802Y-30934250D01*
X29845064Y-30894547D01*
X29853330Y-30856286D01*
X29865522Y-30819941D01*
X29881561Y-30785985D01*
X29901368Y-30754889D01*
X29903743Y-30751703D01*
X29927305Y-30724379D01*
X29955242Y-30698681D01*
X29987106Y-30674917D01*
X30022446Y-30653396D01*
X30060815Y-30634428D01*
X30093253Y-30621348D01*
X30124070Y-30611211D01*
X30158950Y-30601739D01*
X30196973Y-30593127D01*
X30237224Y-30585572D01*
X30278783Y-30579269D01*
X30305213Y-30576032D01*
X30320218Y-30574701D01*
X30339391Y-30573525D01*
X30361900Y-30572514D01*
X30386912Y-30571680D01*
X30413599Y-30571036D01*
X30441127Y-30570590D01*
X30468665Y-30570358D01*
X30495383Y-30570348D01*
X30520448Y-30570574D01*
G37*
G36*
X27708236Y-33373873D02*
G01*
X27784250Y-33377228D01*
X27858635Y-33382722D01*
X27930620Y-33390358D01*
X27999436Y-33400139D01*
X28042453Y-33407714D01*
X28110848Y-33422496D01*
X28175181Y-33439951D01*
X28235416Y-33460064D01*
X28291518Y-33482821D01*
X28343450Y-33508205D01*
X28391177Y-33536203D01*
X28434663Y-33566800D01*
X28440029Y-33570989D01*
X28452545Y-33581542D01*
X28466944Y-33594768D01*
X28482310Y-33609724D01*
X28497722Y-33625468D01*
X28512264Y-33641055D01*
X28525017Y-33655544D01*
X28535063Y-33667991D01*
X28536915Y-33670496D01*
X28542264Y-33678176D01*
X28548750Y-33687925D01*
X28555851Y-33698906D01*
X28563045Y-33710277D01*
X28569808Y-33721201D01*
X28575618Y-33730837D01*
X28579951Y-33738346D01*
X28582285Y-33742889D01*
X28582543Y-33743731D01*
X28583509Y-33746225D01*
X28586078Y-33752124D01*
X28589750Y-33760295D01*
X28590939Y-33762902D01*
X28608331Y-33806309D01*
X28622374Y-33852958D01*
X28632979Y-33902300D01*
X28640055Y-33953786D01*
X28643511Y-34006866D01*
X28643257Y-34060987D01*
X28642498Y-34076442D01*
X28637090Y-34133097D01*
X28627705Y-34186749D01*
X28614305Y-34237475D01*
X28596854Y-34285353D01*
X28575314Y-34330460D01*
X28549647Y-34372871D01*
X28519815Y-34412666D01*
X28485782Y-34449921D01*
X28447509Y-34484713D01*
X28441459Y-34489677D01*
X28403861Y-34517394D01*
X28361832Y-34543314D01*
X28315653Y-34567318D01*
X28265604Y-34589285D01*
X28211966Y-34609096D01*
X28155018Y-34626630D01*
X28095041Y-34641769D01*
X28076081Y-34645913D01*
X28012863Y-34657785D01*
X27945780Y-34667649D01*
X27875549Y-34675502D01*
X27802885Y-34681335D01*
X27728506Y-34685145D01*
X27653129Y-34686926D01*
X27626095Y-34686836D01*
X27577471Y-34686672D01*
X27502247Y-34684381D01*
X27428175Y-34680044D01*
X27355972Y-34673657D01*
X27286355Y-34665213D01*
X27220039Y-34654710D01*
X27207407Y-34652394D01*
X27138718Y-34637776D01*
X27074260Y-34620501D01*
X27014017Y-34600560D01*
X26957975Y-34577938D01*
X26906121Y-34552623D01*
X26858439Y-34524604D01*
X26814917Y-34493869D01*
X26775539Y-34460405D01*
X26740291Y-34424201D01*
X26709160Y-34385244D01*
X26682130Y-34343522D01*
X26659188Y-34299024D01*
X26640320Y-34251737D01*
X26625511Y-34201650D01*
X26614973Y-34150144D01*
X26608808Y-34101091D01*
X26605981Y-34050797D01*
X26606204Y-34025124D01*
X26821544Y-34025124D01*
X26821782Y-34047804D01*
X26822857Y-34069330D01*
X26824770Y-34088183D01*
X26825835Y-34094999D01*
X26834975Y-34133200D01*
X26848314Y-34168731D01*
X26865865Y-34201606D01*
X26887637Y-34231837D01*
X26913639Y-34259433D01*
X26943884Y-34284405D01*
X26978380Y-34306764D01*
X27017139Y-34326521D01*
X27060170Y-34343687D01*
X27063518Y-34344852D01*
X27107689Y-34358476D01*
X27156556Y-34370514D01*
X27210071Y-34380962D01*
X27268188Y-34389814D01*
X27330856Y-34397065D01*
X27398029Y-34402708D01*
X27469658Y-34406739D01*
X27545697Y-34409152D01*
X27626095Y-34409941D01*
X27626199Y-34409941D01*
X27707536Y-34409086D01*
X27784276Y-34406574D01*
X27856405Y-34402408D01*
X27923911Y-34396592D01*
X27986778Y-34389125D01*
X28044995Y-34380010D01*
X28098544Y-34369249D01*
X28147416Y-34356844D01*
X28191595Y-34342797D01*
X28231067Y-34327110D01*
X28243760Y-34321236D01*
X28280728Y-34301049D01*
X28313870Y-34277982D01*
X28343054Y-34252161D01*
X28368146Y-34223716D01*
X28389011Y-34192776D01*
X28400447Y-34170956D01*
X28408515Y-34150954D01*
X28415732Y-34127750D01*
X28421643Y-34103124D01*
X28425801Y-34078859D01*
X28427282Y-34065000D01*
X28428158Y-34053738D01*
X28428908Y-34044115D01*
X28429434Y-34037369D01*
X28429620Y-34035000D01*
X28429547Y-34031156D01*
X28429133Y-34023440D01*
X28428445Y-34012963D01*
X28427549Y-34000836D01*
X28427527Y-34000547D01*
X28422497Y-33961165D01*
X28413699Y-33924478D01*
X28401060Y-33890422D01*
X28384506Y-33858932D01*
X28363968Y-33829944D01*
X28339372Y-33803394D01*
X28310646Y-33779218D01*
X28277719Y-33757352D01*
X28240517Y-33737732D01*
X28198969Y-33720293D01*
X28153004Y-33704972D01*
X28102546Y-33691705D01*
X28072493Y-33685187D01*
X28035220Y-33678146D01*
X27997439Y-33672020D01*
X27958599Y-33666763D01*
X27918147Y-33662328D01*
X27875530Y-33658669D01*
X27830197Y-33655736D01*
X27781596Y-33653485D01*
X27729173Y-33651868D01*
X27672375Y-33650838D01*
X27667453Y-33650778D01*
X27587762Y-33650530D01*
X27512732Y-33651743D01*
X27442239Y-33654430D01*
X27376159Y-33658603D01*
X27314367Y-33664277D01*
X27256738Y-33671462D01*
X27203149Y-33680173D01*
X27153474Y-33690421D01*
X27107589Y-33702220D01*
X27077595Y-33711430D01*
X27033099Y-33727854D01*
X26993100Y-33746348D01*
X26957503Y-33767011D01*
X26926209Y-33789939D01*
X26899123Y-33815230D01*
X26876147Y-33842984D01*
X26857184Y-33873297D01*
X26842137Y-33906267D01*
X26830909Y-33941991D01*
X26825859Y-33965373D01*
X26823584Y-33982387D01*
X26822145Y-34002812D01*
X26821544Y-34025124D01*
X26606204Y-34025124D01*
X26606421Y-34000106D01*
X26610061Y-33949864D01*
X26616830Y-33900914D01*
X26626660Y-33854101D01*
X26639482Y-33810269D01*
X26643766Y-33798195D01*
X26663635Y-33751514D01*
X26687679Y-33707566D01*
X26715898Y-33666347D01*
X26748296Y-33627856D01*
X26784874Y-33592092D01*
X26825635Y-33559054D01*
X26870582Y-33528738D01*
X26919716Y-33501144D01*
X26973040Y-33476271D01*
X27030557Y-33454115D01*
X27092269Y-33434677D01*
X27158177Y-33417953D01*
X27195155Y-33410122D01*
X27261026Y-33398559D01*
X27330656Y-33389121D01*
X27403274Y-33381809D01*
X27478111Y-33376627D01*
X27554396Y-33373574D01*
X27631361Y-33372657D01*
X27708236Y-33373873D01*
G37*
G36*
X28101095Y-31776613D02*
G01*
X28126912Y-31777296D01*
X28149648Y-31778519D01*
X28170255Y-31780379D01*
X28189687Y-31782972D01*
X28208898Y-31786396D01*
X28228841Y-31790746D01*
X28240210Y-31793504D01*
X28273205Y-31803009D01*
X28306747Y-31815025D01*
X28339523Y-31828985D01*
X28370216Y-31844316D01*
X28397513Y-31860449D01*
X28402914Y-31864038D01*
X28440968Y-31892918D01*
X28475891Y-31925658D01*
X28507632Y-31962177D01*
X28536140Y-32002396D01*
X28561360Y-32046235D01*
X28583245Y-32093614D01*
X28601742Y-32144452D01*
X28615916Y-32195000D01*
X28621942Y-32222205D01*
X28627675Y-32252805D01*
X28632832Y-32285196D01*
X28636391Y-32311605D01*
X28637531Y-32322539D01*
X28638734Y-32336979D01*
X28639947Y-32353967D01*
X28641120Y-32372553D01*
X28642203Y-32391784D01*
X28643144Y-32410709D01*
X28643892Y-32428373D01*
X28644398Y-32443826D01*
X28644610Y-32456114D01*
X28644504Y-32463750D01*
X28644190Y-32471220D01*
X28643795Y-32481571D01*
X28643396Y-32492687D01*
X28643361Y-32493750D01*
X28638979Y-32562703D01*
X28630563Y-32633607D01*
X28618278Y-32705701D01*
X28602286Y-32778220D01*
X28582750Y-32850400D01*
X28559835Y-32921476D01*
X28541076Y-32972197D01*
X28526300Y-33010000D01*
X28385367Y-33010000D01*
X28244435Y-33010000D01*
X28248063Y-33004375D01*
X28269661Y-32969308D01*
X28291468Y-32930939D01*
X28312827Y-32890572D01*
X28333082Y-32849511D01*
X28351576Y-32809060D01*
X28367649Y-32770523D01*
X28373136Y-32756250D01*
X28390584Y-32704494D01*
X28404793Y-32651456D01*
X28415729Y-32597689D01*
X28423361Y-32543751D01*
X28427655Y-32490195D01*
X28428579Y-32437577D01*
X28426105Y-32386452D01*
X28420193Y-32337374D01*
X28410816Y-32290900D01*
X28402103Y-32260000D01*
X28387605Y-32221542D01*
X28369558Y-32185600D01*
X28348261Y-32152602D01*
X28324013Y-32122974D01*
X28297112Y-32097143D01*
X28277513Y-32082004D01*
X28246640Y-32063350D01*
X28212739Y-32048567D01*
X28176005Y-32037708D01*
X28136634Y-32030820D01*
X28094822Y-32027955D01*
X28067493Y-32028231D01*
X28025427Y-32031568D01*
X27986977Y-32038265D01*
X27951921Y-32048478D01*
X27920041Y-32062357D01*
X27891116Y-32080053D01*
X27864926Y-32101720D01*
X27841252Y-32127509D01*
X27819874Y-32157574D01*
X27800572Y-32192066D01*
X27786525Y-32222836D01*
X27781697Y-32234558D01*
X27777255Y-32245823D01*
X27773077Y-32257067D01*
X27769043Y-32268728D01*
X27765030Y-32281243D01*
X27760921Y-32295050D01*
X27756591Y-32310584D01*
X27751920Y-32328285D01*
X27746788Y-32348586D01*
X27741073Y-32371927D01*
X27734654Y-32398745D01*
X27727410Y-32429476D01*
X27719220Y-32464558D01*
X27717372Y-32472500D01*
X27708003Y-32512093D01*
X27699285Y-32547361D01*
X27691046Y-32578909D01*
X27683111Y-32607348D01*
X27675308Y-32633280D01*
X27667463Y-32657313D01*
X27659401Y-32680054D01*
X27653742Y-32695000D01*
X27646919Y-32711761D01*
X27638762Y-32730494D01*
X27629853Y-32749968D01*
X27620773Y-32768951D01*
X27612103Y-32786210D01*
X27604426Y-32800515D01*
X27601842Y-32805000D01*
X27575157Y-32846419D01*
X27546764Y-32883254D01*
X27516422Y-32915703D01*
X27483890Y-32943963D01*
X27448927Y-32968231D01*
X27411292Y-32988705D01*
X27370743Y-33005582D01*
X27346831Y-33013487D01*
X27322624Y-33020230D01*
X27299172Y-33025444D01*
X27275241Y-33029306D01*
X27249597Y-33031992D01*
X27221007Y-33033676D01*
X27201157Y-33034299D01*
X27156657Y-33034269D01*
X27115530Y-33031934D01*
X27076633Y-33027135D01*
X27038823Y-33019712D01*
X27000956Y-33009505D01*
X26983345Y-33003879D01*
X26936651Y-32985716D01*
X26892552Y-32963288D01*
X26850990Y-32936559D01*
X26811910Y-32905494D01*
X26788964Y-32884102D01*
X26752940Y-32845013D01*
X26720834Y-32802896D01*
X26692657Y-32757842D01*
X26668416Y-32709940D01*
X26648121Y-32659279D01*
X26631779Y-32605948D01*
X26619399Y-32550036D01*
X26610990Y-32491633D01*
X26606561Y-32430828D01*
X26606119Y-32367710D01*
X26609674Y-32302368D01*
X26617234Y-32234891D01*
X26628807Y-32165369D01*
X26644403Y-32093891D01*
X26664030Y-32020545D01*
X26687695Y-31945422D01*
X26696402Y-31920232D01*
X26707960Y-31887500D01*
X26841422Y-31887500D01*
X26866732Y-31887524D01*
X26890471Y-31887589D01*
X26912183Y-31887696D01*
X26931410Y-31887836D01*
X26947693Y-31888007D01*
X26960573Y-31888204D01*
X26969594Y-31888422D01*
X26974296Y-31888657D01*
X26974885Y-31888777D01*
X26973663Y-31891313D01*
X26970364Y-31897144D01*
X26965542Y-31905310D01*
X26961556Y-31911902D01*
X26930604Y-31965822D01*
X26903777Y-32019548D01*
X26880437Y-32074414D01*
X26868179Y-32107477D01*
X26852240Y-32156566D01*
X26839863Y-32203539D01*
X26830838Y-32249568D01*
X26824964Y-32295826D01*
X26822033Y-32343488D01*
X26821603Y-32373749D01*
X26822640Y-32417361D01*
X26825649Y-32457051D01*
X26830773Y-32493552D01*
X26838150Y-32527595D01*
X26847921Y-32559914D01*
X26860224Y-32591236D01*
X26865259Y-32602322D01*
X26883853Y-32636839D01*
X26905677Y-32668408D01*
X26930369Y-32696678D01*
X26957571Y-32721292D01*
X26986922Y-32741897D01*
X27018064Y-32758138D01*
X27027390Y-32761986D01*
X27057473Y-32771483D01*
X27090446Y-32778001D01*
X27125167Y-32781514D01*
X27160494Y-32781994D01*
X27195281Y-32779417D01*
X27228385Y-32773754D01*
X27252341Y-32767167D01*
X27280133Y-32756247D01*
X27305223Y-32742518D01*
X27327927Y-32725649D01*
X27348560Y-32705309D01*
X27367436Y-32681168D01*
X27384868Y-32652893D01*
X27401172Y-32620155D01*
X27408796Y-32602500D01*
X27416469Y-32583321D01*
X27423636Y-32563986D01*
X27430474Y-32543893D01*
X27437153Y-32522443D01*
X27443846Y-32499035D01*
X27450725Y-32473068D01*
X27457962Y-32443940D01*
X27465729Y-32411051D01*
X27473650Y-32376250D01*
X27481438Y-32341970D01*
X27488486Y-32311900D01*
X27494981Y-32285337D01*
X27501107Y-32261578D01*
X27507047Y-32239918D01*
X27512984Y-32219656D01*
X27519107Y-32200086D01*
X27522406Y-32190000D01*
X27542635Y-32134071D01*
X27564737Y-32082682D01*
X27588799Y-32035705D01*
X27614911Y-31993009D01*
X27643162Y-31954463D01*
X27673640Y-31919939D01*
X27706437Y-31889306D01*
X27741639Y-31862433D01*
X27750668Y-31856391D01*
X27784975Y-31836437D01*
X27822774Y-31818826D01*
X27862928Y-31804008D01*
X27904301Y-31792438D01*
X27920360Y-31788935D01*
X27938461Y-31785393D01*
X27954233Y-31782574D01*
X27968626Y-31780396D01*
X27982589Y-31778781D01*
X27997074Y-31777651D01*
X28013030Y-31776925D01*
X28031409Y-31776526D01*
X28053158Y-31776373D01*
X28071243Y-31776371D01*
X28101095Y-31776613D01*
G37*
G36*
X25187834Y-27905696D02*
G01*
X25190637Y-27906284D01*
X25198142Y-27907891D01*
X25210162Y-27910477D01*
X25226513Y-27914002D01*
X25247007Y-27918426D01*
X25271462Y-27923708D01*
X25299686Y-27929809D01*
X25331501Y-27936687D01*
X25366717Y-27944304D01*
X25405149Y-27952618D01*
X25446612Y-27961589D01*
X25490920Y-27971177D01*
X25537887Y-27981342D01*
X25587328Y-27992044D01*
X25639056Y-28003243D01*
X25692888Y-28014897D01*
X25748636Y-28026968D01*
X25806116Y-28039414D01*
X25865141Y-28052197D01*
X25925524Y-28065274D01*
X25987083Y-28078607D01*
X26049631Y-28092154D01*
X26112981Y-28105877D01*
X26176949Y-28119734D01*
X26241348Y-28133685D01*
X26305994Y-28147690D01*
X26370700Y-28161709D01*
X26435281Y-28175702D01*
X26499551Y-28189628D01*
X26563325Y-28203447D01*
X26626416Y-28217120D01*
X26688640Y-28230604D01*
X26749811Y-28243863D01*
X26809742Y-28256854D01*
X26868249Y-28269535D01*
X26925146Y-28281870D01*
X26980247Y-28293815D01*
X27033367Y-28305332D01*
X27084318Y-28316380D01*
X27132918Y-28326919D01*
X27178979Y-28336909D01*
X27222315Y-28346311D01*
X27262743Y-28355082D01*
X27300075Y-28363184D01*
X27334125Y-28370575D01*
X27364710Y-28377216D01*
X27391642Y-28383067D01*
X27414735Y-28388087D01*
X27433807Y-28392236D01*
X27448669Y-28395474D01*
X27459136Y-28397762D01*
X27463683Y-28398759D01*
X27468079Y-28399724D01*
X27475050Y-28401246D01*
X27484700Y-28403348D01*
X27497133Y-28406052D01*
X27512455Y-28409382D01*
X27530769Y-28413360D01*
X27552180Y-28418007D01*
X27576793Y-28423350D01*
X27604712Y-28429408D01*
X27636043Y-28436204D01*
X27670888Y-28443762D01*
X27709354Y-28452104D01*
X27751544Y-28461252D01*
X27797563Y-28471230D01*
X27847516Y-28482060D01*
X27901506Y-28493765D01*
X27959640Y-28506367D01*
X28022020Y-28519889D01*
X28088753Y-28534354D01*
X28159941Y-28549784D01*
X28235691Y-28566202D01*
X28316106Y-28583631D01*
X28401291Y-28602094D01*
X28411894Y-28604392D01*
X28605030Y-28646249D01*
X28605038Y-28771671D01*
X28605045Y-28897092D01*
X28588169Y-28900918D01*
X28545297Y-28910646D01*
X28500590Y-28920810D01*
X28454279Y-28931357D01*
X28406593Y-28942233D01*
X28357768Y-28953385D01*
X28308033Y-28964759D01*
X28257619Y-28976302D01*
X28206758Y-28987959D01*
X28155682Y-28999679D01*
X28104622Y-29011407D01*
X28053809Y-29023090D01*
X28003475Y-29034674D01*
X27953851Y-29046106D01*
X27905170Y-29057333D01*
X27857661Y-29068301D01*
X27811557Y-29078956D01*
X27767089Y-29089246D01*
X27724488Y-29099116D01*
X27683988Y-29108513D01*
X27645818Y-29117384D01*
X27610209Y-29125676D01*
X27577394Y-29133334D01*
X27547604Y-29140305D01*
X27521069Y-29146536D01*
X27498024Y-29151974D01*
X27478697Y-29156564D01*
X27463321Y-29160255D01*
X27452127Y-29162991D01*
X27445346Y-29164719D01*
X27443208Y-29165386D01*
X27445953Y-29166125D01*
X27453313Y-29167910D01*
X27465029Y-29170684D01*
X27480840Y-29174383D01*
X27500485Y-29178951D01*
X27523705Y-29184325D01*
X27550239Y-29190445D01*
X27579826Y-29197253D01*
X27612205Y-29204688D01*
X27647117Y-29212690D01*
X27684301Y-29221200D01*
X27723497Y-29230158D01*
X27764444Y-29239502D01*
X27806882Y-29249174D01*
X27837541Y-29256154D01*
X27882230Y-29266326D01*
X27926437Y-29276386D01*
X27969833Y-29286265D01*
X28012090Y-29295885D01*
X28052881Y-29305173D01*
X28091879Y-29314054D01*
X28128753Y-29322453D01*
X28163177Y-29330295D01*
X28194825Y-29337506D01*
X28223366Y-29344011D01*
X28248474Y-29349736D01*
X28269823Y-29354605D01*
X28287083Y-29358544D01*
X28299925Y-29361480D01*
X28303766Y-29362358D01*
X28322969Y-29366751D01*
X28346037Y-29372022D01*
X28371956Y-29377938D01*
X28399716Y-29384270D01*
X28428304Y-29390784D01*
X28456707Y-29397253D01*
X28483914Y-29403443D01*
X28491909Y-29405263D01*
X28605045Y-29430989D01*
X28605045Y-29556406D01*
X28605045Y-29681821D01*
X28594419Y-29683293D01*
X28590571Y-29683853D01*
X28582021Y-29685117D01*
X28568974Y-29687051D01*
X28551637Y-29689628D01*
X28530210Y-29692816D01*
X28504903Y-29696585D01*
X28475918Y-29700903D01*
X28443460Y-29705742D01*
X28407734Y-29711070D01*
X28368945Y-29716855D01*
X28327298Y-29723068D01*
X28282997Y-29729678D01*
X28236246Y-29736655D01*
X28187252Y-29743968D01*
X28136218Y-29751586D01*
X28083349Y-29759478D01*
X28028851Y-29767615D01*
X27972927Y-29775966D01*
X27915784Y-29784499D01*
X27857623Y-29793185D01*
X27798652Y-29801992D01*
X27739075Y-29810891D01*
X27679096Y-29819850D01*
X27618921Y-29828840D01*
X27558754Y-29837829D01*
X27498799Y-29846786D01*
X27439261Y-29855682D01*
X27380348Y-29864486D01*
X27322260Y-29873167D01*
X27265205Y-29881694D01*
X27209386Y-29890037D01*
X27155008Y-29898166D01*
X27102276Y-29906049D01*
X27051396Y-29913656D01*
X27002571Y-29920957D01*
X26956006Y-29927921D01*
X26911906Y-29934517D01*
X26870476Y-29940715D01*
X26831921Y-29946484D01*
X26796445Y-29951794D01*
X26764253Y-29956615D01*
X26735549Y-29960913D01*
X26710541Y-29964661D01*
X26689431Y-29967827D01*
X26672422Y-29970381D01*
X26659722Y-29972293D01*
X26651535Y-29973530D01*
X26648065Y-29974064D01*
X26647979Y-29974078D01*
X26639852Y-29975557D01*
X26639852Y-29846576D01*
X26639852Y-29717596D01*
X26645478Y-29716383D01*
X26648378Y-29715997D01*
X26656057Y-29715052D01*
X26668325Y-29713568D01*
X26684994Y-29711567D01*
X26705874Y-29709072D01*
X26730781Y-29706104D01*
X26759522Y-29702688D01*
X26791910Y-29698844D01*
X26827758Y-29694595D01*
X26866875Y-29689963D01*
X26909074Y-29684971D01*
X26954166Y-29679641D01*
X27001964Y-29673995D01*
X27052277Y-29668055D01*
X27104919Y-29661845D01*
X27159700Y-29655385D01*
X27216432Y-29648699D01*
X27274927Y-29641808D01*
X27334996Y-29634736D01*
X27396451Y-29627504D01*
X27438681Y-29622536D01*
X27500943Y-29615211D01*
X27561936Y-29608034D01*
X27621473Y-29601026D01*
X27679364Y-29594209D01*
X27735424Y-29587606D01*
X27789462Y-29581238D01*
X27841293Y-29575128D01*
X27890727Y-29569299D01*
X27937578Y-29563771D01*
X27981656Y-29558569D01*
X28022775Y-29553711D01*
X28060746Y-29549225D01*
X28095382Y-29545129D01*
X28126495Y-29541446D01*
X28153896Y-29538198D01*
X28177399Y-29535408D01*
X28196814Y-29533096D01*
X28211954Y-29531289D01*
X28222633Y-29530004D01*
X28228661Y-29529266D01*
X28230009Y-29529088D01*
X28232507Y-29528174D01*
X28230273Y-29526808D01*
X28230009Y-29526696D01*
X28227235Y-29526032D01*
X28219795Y-29524385D01*
X28207918Y-29521799D01*
X28191826Y-29518324D01*
X28171750Y-29514009D01*
X28147916Y-29508902D01*
X28120550Y-29503050D01*
X28089879Y-29496504D01*
X28056130Y-29489309D01*
X28019530Y-29481516D01*
X27980304Y-29473173D01*
X27938680Y-29464327D01*
X27894886Y-29455028D01*
X27849148Y-29445323D01*
X27801692Y-29435260D01*
X27752745Y-29424889D01*
X27706207Y-29415034D01*
X27656090Y-29404424D01*
X27607259Y-29394081D01*
X27559940Y-29384054D01*
X27514359Y-29374391D01*
X27470744Y-29365140D01*
X27429320Y-29356350D01*
X27390312Y-29348068D01*
X27353949Y-29340343D01*
X27320457Y-29333221D01*
X27290061Y-29326753D01*
X27262988Y-29320986D01*
X27239466Y-29315968D01*
X27219719Y-29311747D01*
X27203975Y-29308372D01*
X27192460Y-29305890D01*
X27185399Y-29304350D01*
X27183031Y-29303805D01*
X27182325Y-29302534D01*
X27181727Y-29299065D01*
X27181228Y-29293072D01*
X27180821Y-29284234D01*
X27180499Y-29272225D01*
X27180255Y-29256722D01*
X27180081Y-29237401D01*
X27179970Y-29213938D01*
X27179915Y-29186010D01*
X27179905Y-29165346D01*
X27179929Y-29134344D01*
X27180002Y-29108017D01*
X27180135Y-29086042D01*
X27180332Y-29068096D01*
X27180603Y-29053854D01*
X27180954Y-29042992D01*
X27181393Y-29035187D01*
X27181925Y-29030115D01*
X27182562Y-29027452D01*
X27183031Y-29026860D01*
X27185741Y-29026232D01*
X27193117Y-29024607D01*
X27204933Y-29022035D01*
X27220962Y-29018564D01*
X27240980Y-29014241D01*
X27264762Y-29009116D01*
X27292083Y-29003237D01*
X27322716Y-28996652D01*
X27356437Y-28989409D01*
X27393021Y-28981558D01*
X27432242Y-28973146D01*
X27473875Y-28964221D01*
X27517694Y-28954833D01*
X27563475Y-28945029D01*
X27610992Y-28934859D01*
X27660019Y-28924369D01*
X27710332Y-28913609D01*
X27710582Y-28913556D01*
X27760856Y-28902800D01*
X27809819Y-28892312D01*
X27857247Y-28882141D01*
X27902919Y-28872333D01*
X27946609Y-28862940D01*
X27988095Y-28854005D01*
X28027153Y-28845581D01*
X28063559Y-28837716D01*
X28097090Y-28830456D01*
X28127523Y-28823853D01*
X28154633Y-28817951D01*
X28178197Y-28812802D01*
X28197992Y-28808452D01*
X28213795Y-28804951D01*
X28225380Y-28802347D01*
X28232526Y-28800688D01*
X28235008Y-28800022D01*
X28235009Y-28800020D01*
X28232588Y-28799465D01*
X28225432Y-28797923D01*
X28213702Y-28795427D01*
X28197557Y-28792011D01*
X28177157Y-28787708D01*
X28152663Y-28782550D01*
X28124236Y-28776572D01*
X28092034Y-28769808D01*
X28056219Y-28762290D01*
X28016950Y-28754053D01*
X27974388Y-28745129D01*
X27928693Y-28735552D01*
X27880025Y-28725356D01*
X27828544Y-28714575D01*
X27774411Y-28703240D01*
X27717785Y-28691387D01*
X27658827Y-28679048D01*
X27597696Y-28666257D01*
X27534556Y-28653047D01*
X27469563Y-28639452D01*
X27402878Y-28625506D01*
X27334662Y-28611241D01*
X27265075Y-28596690D01*
X27194277Y-28581891D01*
X27122429Y-28566872D01*
X27049690Y-28551669D01*
X26976220Y-28536315D01*
X26902181Y-28520844D01*
X26827732Y-28505288D01*
X26753032Y-28489683D01*
X26678243Y-28474059D01*
X26603525Y-28458453D01*
X26529038Y-28442896D01*
X26454942Y-28427423D01*
X26381397Y-28412066D01*
X26308562Y-28396860D01*
X26236600Y-28381838D01*
X26165669Y-28367032D01*
X26095931Y-28352478D01*
X26027544Y-28338207D01*
X25960670Y-28324254D01*
X25895468Y-28310652D01*
X25832099Y-28297434D01*
X25770723Y-28284635D01*
X25711499Y-28272287D01*
X25654589Y-28260424D01*
X25600152Y-28249079D01*
X25548349Y-28238286D01*
X25499340Y-28228079D01*
X25453284Y-28218489D01*
X25410343Y-28209553D01*
X25370676Y-28201302D01*
X25334443Y-28193771D01*
X25301805Y-28186991D01*
X25272922Y-28180998D01*
X25247954Y-28175825D01*
X25227061Y-28171504D01*
X25210404Y-28168070D01*
X25198142Y-28165556D01*
X25191585Y-28164225D01*
X25179708Y-28161838D01*
X25179708Y-28033092D01*
X25179707Y-27904346D01*
X25187834Y-27905696D01*
G37*
G36*
X14085412Y-21581707D02*
G01*
X14166909Y-21616302D01*
X14166982Y-21616352D01*
X14244922Y-21686356D01*
X14292052Y-21768199D01*
X14306825Y-21857300D01*
X14287689Y-21949075D01*
X14283164Y-21959774D01*
X14229611Y-22040662D01*
X14156413Y-22096516D01*
X14070742Y-22124958D01*
X13979773Y-22123607D01*
X13890682Y-22090082D01*
X13890579Y-22090023D01*
X13818624Y-22029682D01*
X13773422Y-21953924D01*
X13754854Y-21869980D01*
X13762803Y-21785082D01*
X13797151Y-21706462D01*
X13857782Y-21641350D01*
X13898292Y-21615927D01*
X13995538Y-21581581D01*
X14085412Y-21581707D01*
G37*
G36*
X14989272Y-22627841D02*
G01*
X15069254Y-22672848D01*
X15127905Y-22742112D01*
X15160606Y-22830956D01*
X15165865Y-22888607D01*
X15157493Y-22970388D01*
X15129612Y-23035631D01*
X15125319Y-23042259D01*
X15059323Y-23111269D01*
X14976502Y-23152272D01*
X14884653Y-23163149D01*
X14791575Y-23141772D01*
X14779576Y-23136411D01*
X14703407Y-23083787D01*
X14653458Y-23015232D01*
X14628386Y-22936986D01*
X14626843Y-22855289D01*
X14647491Y-22776383D01*
X14688981Y-22706507D01*
X14749971Y-22651900D01*
X14829117Y-22618804D01*
X14892580Y-22611771D01*
X14989272Y-22627841D01*
G37*
G36*
X15997754Y-21756549D02*
G01*
X16086016Y-21795603D01*
X16152362Y-21859596D01*
X16193264Y-21942841D01*
X16205200Y-22039650D01*
X16200598Y-22083737D01*
X16172480Y-22153835D01*
X16118318Y-22218458D01*
X16047556Y-22268069D01*
X15999009Y-22287240D01*
X15911725Y-22294216D01*
X15823180Y-22272124D01*
X15746549Y-22224574D01*
X15736820Y-22215393D01*
X15682027Y-22139314D01*
X15657728Y-22057074D01*
X15660701Y-21974331D01*
X15687729Y-21896748D01*
X15735592Y-21829986D01*
X15801072Y-21779705D01*
X15880948Y-21751563D01*
X15972003Y-21751224D01*
X15997754Y-21756549D01*
G37*
G36*
X15167805Y-20733875D02*
G01*
X15248504Y-20778937D01*
X15307820Y-20851419D01*
X15313199Y-20861607D01*
X15340318Y-20944622D01*
X15336246Y-21029406D01*
X15309867Y-21105463D01*
X15264187Y-21177538D01*
X15199981Y-21226073D01*
X15110085Y-21256699D01*
X15057519Y-21264385D01*
X15012109Y-21257653D01*
X14955814Y-21233723D01*
X14953456Y-21232555D01*
X14868142Y-21173814D01*
X14813848Y-21098297D01*
X14791416Y-21007273D01*
X14790826Y-20988110D01*
X14806656Y-20891087D01*
X14851306Y-20812040D01*
X14920777Y-20754842D01*
X15011068Y-20723367D01*
X15069448Y-20718420D01*
X15167805Y-20733875D01*
G37*
G36*
X14926377Y-17985692D02*
G01*
X15077541Y-17986405D01*
X15214321Y-17987528D01*
X15332856Y-17989008D01*
X15429282Y-17990791D01*
X15499737Y-17992824D01*
X15540359Y-17995053D01*
X15548440Y-17996284D01*
X15563230Y-18009390D01*
X15571987Y-18039354D01*
X15576007Y-18093143D01*
X15576695Y-18148298D01*
X15576695Y-18289467D01*
X14777363Y-18284817D01*
X13978030Y-18280168D01*
X13972712Y-18157990D01*
X13972842Y-18082649D01*
X13979997Y-18029706D01*
X13988296Y-18010628D01*
X13998570Y-18004338D01*
X14019997Y-17999149D01*
X14055591Y-17994964D01*
X14108371Y-17991684D01*
X14181359Y-17989213D01*
X14277567Y-17987451D01*
X14400016Y-17986301D01*
X14551723Y-17985665D01*
X14735706Y-17985445D01*
X14764692Y-17985442D01*
X14926377Y-17985692D01*
G37*
G36*
X15247219Y-20131923D02*
G01*
X15404274Y-20183566D01*
X15554904Y-20267087D01*
X15669308Y-20358317D01*
X15745585Y-20442648D01*
X15815560Y-20545288D01*
X15873141Y-20655200D01*
X15912238Y-20761351D01*
X15924583Y-20820893D01*
X15932306Y-20882302D01*
X15938988Y-20935970D01*
X15940783Y-20950562D01*
X15942088Y-20998912D01*
X15938582Y-21027490D01*
X15913129Y-21061345D01*
X15859186Y-21084135D01*
X15782939Y-21093375D01*
X15774203Y-21093459D01*
X15724454Y-21088989D01*
X15692870Y-21071004D01*
X15674147Y-21032643D01*
X15662975Y-20967046D01*
X15660872Y-20946932D01*
X15630559Y-20806962D01*
X15570542Y-20679260D01*
X15484806Y-20569171D01*
X15377335Y-20482038D01*
X15276639Y-20431787D01*
X15155548Y-20402229D01*
X15025564Y-20398007D01*
X14898910Y-20418412D01*
X14793121Y-20459791D01*
X14674339Y-20543973D01*
X14580079Y-20651801D01*
X14513657Y-20778365D01*
X14478391Y-20918754D01*
X14477353Y-20927383D01*
X14479261Y-21062220D01*
X14513237Y-21191876D01*
X14575626Y-21310933D01*
X14662771Y-21413973D01*
X14771016Y-21495577D01*
X14896705Y-21550329D01*
X14897932Y-21550692D01*
X14956844Y-21569046D01*
X15004136Y-21585590D01*
X15022967Y-21593546D01*
X15040705Y-21620694D01*
X15046513Y-21669147D01*
X15040963Y-21726746D01*
X15024634Y-21781333D01*
X15013052Y-21803024D01*
X14991909Y-21829627D01*
X14966589Y-21841050D01*
X14924693Y-21840876D01*
X14893628Y-21837559D01*
X14759359Y-21804622D01*
X14627900Y-21740393D01*
X14504815Y-21649197D01*
X14395669Y-21535361D01*
X14306026Y-21403211D01*
X14285990Y-21365158D01*
X14210239Y-21212314D01*
X14210239Y-20985581D01*
X14210239Y-20758847D01*
X14287841Y-20605743D01*
X14383232Y-20453332D01*
X14498860Y-20328024D01*
X14630913Y-20230503D01*
X14775584Y-20161450D01*
X14929065Y-20121548D01*
X15087546Y-20111478D01*
X15247219Y-20131923D01*
G37*
G36*
X16161333Y-21180060D02*
G01*
X16312844Y-21237883D01*
X16451793Y-21322876D01*
X16573887Y-21433552D01*
X16674835Y-21568426D01*
X16727705Y-21669781D01*
X16773601Y-21803412D01*
X16799639Y-21945720D01*
X16803842Y-22083041D01*
X16796844Y-22147327D01*
X16750944Y-22315225D01*
X16672531Y-22472316D01*
X16564360Y-22613477D01*
X16524217Y-22654155D01*
X16389270Y-22759522D01*
X16236503Y-22834626D01*
X16064185Y-22880289D01*
X16037495Y-22884511D01*
X15966312Y-22894378D01*
X15921544Y-22897816D01*
X15894294Y-22893787D01*
X15875659Y-22881243D01*
X15860478Y-22863765D01*
X15839907Y-22821011D01*
X15828523Y-22763141D01*
X15826975Y-22703321D01*
X15835922Y-22654719D01*
X15849093Y-22634167D01*
X15878024Y-22623235D01*
X15930071Y-22613043D01*
X15979532Y-22607200D01*
X16120125Y-22578005D01*
X16247199Y-22517831D01*
X16356084Y-22430207D01*
X16442108Y-22318659D01*
X16488152Y-22223181D01*
X16519627Y-22091066D01*
X16519225Y-21953128D01*
X16487571Y-21818375D01*
X16455004Y-21744975D01*
X16385282Y-21643872D01*
X16293935Y-21554698D01*
X16191203Y-21486376D01*
X16125930Y-21458283D01*
X16021424Y-21436425D01*
X15903500Y-21432205D01*
X15789794Y-21445598D01*
X15740380Y-21458777D01*
X15634583Y-21509195D01*
X15536373Y-21583866D01*
X15452439Y-21675346D01*
X15389465Y-21776190D01*
X15354137Y-21878954D01*
X15352059Y-21891156D01*
X15337339Y-21945915D01*
X15314716Y-21988808D01*
X15307973Y-21996211D01*
X15286155Y-22012518D01*
X15262342Y-22016686D01*
X15224907Y-22008645D01*
X15183543Y-21995437D01*
X15116461Y-21965990D01*
X15080641Y-21928478D01*
X15071621Y-21875247D01*
X15080255Y-21818185D01*
X15126226Y-21683967D01*
X15200449Y-21550825D01*
X15296271Y-21427439D01*
X15407038Y-21322494D01*
X15515514Y-21250178D01*
X15674351Y-21184466D01*
X15837795Y-21151866D01*
X16001553Y-21150894D01*
X16161333Y-21180060D01*
G37*
G36*
X14045552Y-20979552D02*
G01*
X14093911Y-21003719D01*
X14123876Y-21055489D01*
X14136381Y-21109204D01*
X14141456Y-21175887D01*
X14127488Y-21218961D01*
X14089300Y-21244466D01*
X14021713Y-21258446D01*
X14007107Y-21260092D01*
X13853673Y-21290870D01*
X13722992Y-21348982D01*
X13614329Y-21434841D01*
X13543845Y-21522152D01*
X13488132Y-21622235D01*
X13456488Y-21724328D01*
X13445036Y-21842069D01*
X13444836Y-21870462D01*
X13460412Y-22004216D01*
X13506845Y-22124157D01*
X13585993Y-22234278D01*
X13639235Y-22287651D01*
X13753647Y-22370405D01*
X13877068Y-22421533D01*
X14004826Y-22442410D01*
X14132248Y-22434410D01*
X14254661Y-22398907D01*
X14367391Y-22337276D01*
X14465766Y-22250892D01*
X14545113Y-22141127D01*
X14600759Y-22009358D01*
X14602201Y-22004429D01*
X14624428Y-21932216D01*
X14643668Y-21888623D01*
X14665391Y-21867562D01*
X14695067Y-21862946D01*
X14725986Y-21866637D01*
X14809020Y-21886458D01*
X14862531Y-21916808D01*
X14888481Y-21961942D01*
X14888831Y-22026118D01*
X14865540Y-22113593D01*
X14854216Y-22145067D01*
X14775576Y-22306012D01*
X14669475Y-22445693D01*
X14538705Y-22561191D01*
X14386059Y-22649584D01*
X14362067Y-22660064D01*
X14307927Y-22681344D01*
X14259801Y-22695393D01*
X14207721Y-22703685D01*
X14141725Y-22707694D01*
X14051846Y-22708893D01*
X14031616Y-22708925D01*
X13936273Y-22708199D01*
X13866773Y-22704938D01*
X13813251Y-22697694D01*
X13765843Y-22685023D01*
X13714686Y-22665479D01*
X13703752Y-22660880D01*
X13553659Y-22579601D01*
X13421555Y-22472780D01*
X13312604Y-22345640D01*
X13231970Y-22203406D01*
X13218132Y-22169530D01*
X13190252Y-22068667D01*
X13173018Y-21948989D01*
X13167440Y-21825191D01*
X13174526Y-21711972D01*
X13183367Y-21662927D01*
X13240905Y-21491614D01*
X13326334Y-21341628D01*
X13437698Y-21214657D01*
X13573042Y-21112395D01*
X13730410Y-21036533D01*
X13907848Y-20988760D01*
X13973866Y-20979043D01*
X14045552Y-20979552D01*
G37*
G36*
X15118807Y-22037543D02*
G01*
X15126041Y-22039317D01*
X15257289Y-22088380D01*
X15386096Y-22166463D01*
X15504961Y-22267226D01*
X15606386Y-22384325D01*
X15681934Y-22509449D01*
X15737052Y-22659845D01*
X15765425Y-22818786D01*
X15765581Y-22975363D01*
X15754618Y-23049366D01*
X15703742Y-23215748D01*
X15625493Y-23363286D01*
X15523702Y-23490173D01*
X15402195Y-23594601D01*
X15264800Y-23674760D01*
X15115346Y-23728842D01*
X14957660Y-23755040D01*
X14795570Y-23751544D01*
X14632905Y-23716547D01*
X14479745Y-23651626D01*
X14382313Y-23586239D01*
X14284360Y-23497926D01*
X14196261Y-23397548D01*
X14128388Y-23295968D01*
X14114786Y-23269556D01*
X14082447Y-23188891D01*
X14055392Y-23097440D01*
X14035795Y-23005689D01*
X14025834Y-22924122D01*
X14027679Y-22863223D01*
X14029116Y-22856490D01*
X14040394Y-22826209D01*
X14061252Y-22806723D01*
X14100238Y-22793446D01*
X14165902Y-22781793D01*
X14169358Y-22781273D01*
X14236501Y-22778984D01*
X14279445Y-22798825D01*
X14302124Y-22844619D01*
X14308481Y-22916484D01*
X14325374Y-23042266D01*
X14372835Y-23159310D01*
X14446038Y-23263718D01*
X14540156Y-23351595D01*
X14650364Y-23419045D01*
X14771833Y-23462171D01*
X14899741Y-23477078D01*
X14992093Y-23468341D01*
X15129229Y-23429161D01*
X15244509Y-23365600D01*
X15342841Y-23274107D01*
X15428163Y-23152784D01*
X15451549Y-23109965D01*
X15466322Y-23071123D01*
X15474428Y-23026027D01*
X15477817Y-22964445D01*
X15478439Y-22888606D01*
X15477399Y-22802450D01*
X15473036Y-22741327D01*
X15463457Y-22694579D01*
X15446771Y-22651544D01*
X15430706Y-22619541D01*
X15387740Y-22552658D01*
X15333467Y-22486656D01*
X15308178Y-22461511D01*
X15244370Y-22412098D01*
X15170056Y-22366859D01*
X15095996Y-22331316D01*
X15032947Y-22310991D01*
X15009571Y-22308261D01*
X14971664Y-22296935D01*
X14931780Y-22270276D01*
X14903572Y-22238840D01*
X14897932Y-22221957D01*
X14903292Y-22197685D01*
X14916933Y-22152358D01*
X14926435Y-22123627D01*
X14953511Y-22065117D01*
X14989848Y-22033273D01*
X15042571Y-22025085D01*
X15118807Y-22037543D01*
G37*
G36*
X15492653Y-14218306D02*
G01*
X15538947Y-14224472D01*
X15548440Y-14227367D01*
X15562219Y-14239095D01*
X15570698Y-14265824D01*
X15574926Y-14314196D01*
X15575950Y-14390849D01*
X15575911Y-14401523D01*
X15572583Y-14488838D01*
X15564369Y-14568240D01*
X15552663Y-14627102D01*
X15550042Y-14635253D01*
X15506573Y-14726883D01*
X15447676Y-14792910D01*
X15388129Y-14831544D01*
X15359493Y-14844797D01*
X15327377Y-14854695D01*
X15285915Y-14861860D01*
X15229244Y-14866912D01*
X15151499Y-14870469D01*
X15046816Y-14873150D01*
X14982778Y-14874351D01*
X14647862Y-14880208D01*
X14647862Y-14973486D01*
X14643975Y-15030776D01*
X14634046Y-15074457D01*
X14626428Y-15088199D01*
X14596546Y-15101182D01*
X14546340Y-15108798D01*
X14522827Y-15109633D01*
X14468651Y-15105225D01*
X14428345Y-15094115D01*
X14419226Y-15088199D01*
X14407036Y-15059093D01*
X14399271Y-15008048D01*
X14397792Y-14972095D01*
X14397792Y-14877425D01*
X14211700Y-14877425D01*
X14131210Y-14876424D01*
X14062307Y-14873723D01*
X14013973Y-14869778D01*
X13997354Y-14866583D01*
X13981348Y-14851721D01*
X13972497Y-14817732D01*
X13969228Y-14757362D01*
X13969100Y-14736189D01*
X13972268Y-14667808D01*
X13980758Y-14616855D01*
X13990534Y-14595203D01*
X14021250Y-14583976D01*
X14086003Y-14576807D01*
X14183319Y-14573844D01*
X14204880Y-14573768D01*
X14397792Y-14573768D01*
X14397792Y-14422568D01*
X14400107Y-14338375D01*
X14409776Y-14283608D01*
X14430884Y-14252120D01*
X14467516Y-14237762D01*
X14522827Y-14234387D01*
X14578618Y-14237832D01*
X14614966Y-14252258D01*
X14635921Y-14283799D01*
X14645536Y-14338591D01*
X14647862Y-14422770D01*
X14647862Y-14423746D01*
X14647862Y-14576121D01*
X14950928Y-14570479D01*
X15073138Y-14567883D01*
X15164344Y-14563617D01*
X15229255Y-14555181D01*
X15272585Y-14540078D01*
X15299039Y-14515809D01*
X15313331Y-14479876D01*
X15320171Y-14429782D01*
X15323724Y-14372762D01*
X15329860Y-14307597D01*
X15339299Y-14256968D01*
X15350096Y-14230997D01*
X15351098Y-14230195D01*
X15383351Y-14221388D01*
X15435663Y-14217351D01*
X15492653Y-14218306D01*
G37*
G36*
X15120055Y-16577824D02*
G01*
X15176130Y-16578439D01*
X15567763Y-16583262D01*
X15572943Y-16730104D01*
X15574915Y-16802422D01*
X15573394Y-16846702D01*
X15566631Y-16870589D01*
X15552877Y-16881728D01*
X15537219Y-16886248D01*
X15507449Y-16889277D01*
X15448010Y-16892352D01*
X15364954Y-16895271D01*
X15264334Y-16897827D01*
X15152205Y-16899816D01*
X15125978Y-16900164D01*
X14755642Y-16904781D01*
X14698858Y-16961605D01*
X14661928Y-17006029D01*
X14642595Y-17054236D01*
X14634445Y-17113434D01*
X14632932Y-17178250D01*
X14643665Y-17225593D01*
X14669265Y-17270955D01*
X14694819Y-17305499D01*
X14721968Y-17332109D01*
X14755661Y-17351934D01*
X14800853Y-17366122D01*
X14862496Y-17375823D01*
X14945540Y-17382186D01*
X15054939Y-17386359D01*
X15178803Y-17389169D01*
X15290029Y-17391773D01*
X15389216Y-17394944D01*
X15470772Y-17398434D01*
X15529103Y-17401994D01*
X15558618Y-17405375D01*
X15560764Y-17406115D01*
X15568287Y-17427443D01*
X15573472Y-17473383D01*
X15576163Y-17532889D01*
X15576199Y-17594919D01*
X15573425Y-17648426D01*
X15567683Y-17682364D01*
X15564786Y-17687739D01*
X15544643Y-17690650D01*
X15493140Y-17693303D01*
X15414645Y-17695609D01*
X15313521Y-17697477D01*
X15194135Y-17698819D01*
X15060851Y-17699544D01*
X14986177Y-17699647D01*
X14825281Y-17699856D01*
X14696543Y-17699844D01*
X14596403Y-17698650D01*
X14521302Y-17695314D01*
X14467681Y-17688879D01*
X14431983Y-17678383D01*
X14410646Y-17662867D01*
X14400111Y-17641371D01*
X14396821Y-17612936D01*
X14397215Y-17576602D01*
X14397792Y-17540999D01*
X14402791Y-17466273D01*
X14419844Y-17420858D01*
X14452031Y-17399485D01*
X14482586Y-17395991D01*
X14524510Y-17395991D01*
X14472290Y-17329007D01*
X14417905Y-17242343D01*
X14388493Y-17148970D01*
X14380028Y-17040547D01*
X14386834Y-16932872D01*
X14409896Y-16847564D01*
X14453555Y-16773311D01*
X14504546Y-16715946D01*
X14549391Y-16673951D01*
X14593470Y-16641057D01*
X14641752Y-16616245D01*
X14699203Y-16598498D01*
X14770791Y-16586800D01*
X14861485Y-16580133D01*
X14976250Y-16577480D01*
X15120055Y-16577824D01*
G37*
G36*
X15030328Y-15221255D02*
G01*
X15051667Y-15237791D01*
X15065228Y-15270214D01*
X15072754Y-15322543D01*
X15075988Y-15398799D01*
X15076675Y-15503002D01*
X15076553Y-15628840D01*
X15076554Y-16020603D01*
X15125675Y-16020212D01*
X15194700Y-16007913D01*
X15265141Y-15976852D01*
X15323624Y-15934250D01*
X15352233Y-15897859D01*
X15379053Y-15809753D01*
X15371213Y-15720130D01*
X15329176Y-15634008D01*
X15327804Y-15632098D01*
X15293622Y-15587659D01*
X15265577Y-15555930D01*
X15256354Y-15547986D01*
X15246652Y-15525018D01*
X15240501Y-15477787D01*
X15238017Y-15417589D01*
X15239316Y-15355717D01*
X15244514Y-15303469D01*
X15253532Y-15272441D01*
X15283419Y-15253270D01*
X15326901Y-15260609D01*
X15378757Y-15290597D01*
X15433767Y-15339378D01*
X15486711Y-15403090D01*
X15532369Y-15477876D01*
X15532934Y-15478988D01*
X15558838Y-15534536D01*
X15575041Y-15584611D01*
X15584059Y-15641425D01*
X15588412Y-15717189D01*
X15589348Y-15752671D01*
X15589501Y-15832199D01*
X15586781Y-15902565D01*
X15581723Y-15953058D01*
X15578646Y-15967017D01*
X15521188Y-16094777D01*
X15439994Y-16195847D01*
X15335094Y-16270210D01*
X15206518Y-16317848D01*
X15054297Y-16338743D01*
X14945104Y-16338106D01*
X14834841Y-16326163D01*
X14809531Y-16323422D01*
X14699809Y-16293303D01*
X14608230Y-16244555D01*
X14527082Y-16173984D01*
X14513546Y-16159340D01*
X14441636Y-16058342D01*
X14398016Y-15944240D01*
X14380498Y-15810788D01*
X14380086Y-15787257D01*
X14594107Y-15787257D01*
X14608774Y-15863270D01*
X14647269Y-15931084D01*
X14706325Y-15983949D01*
X14782671Y-16015121D01*
X14834841Y-16020603D01*
X14880070Y-16020604D01*
X14880070Y-15779465D01*
X14879188Y-15676218D01*
X14876297Y-15604678D01*
X14871028Y-15560864D01*
X14863011Y-15540798D01*
X14857742Y-15538425D01*
X14780716Y-15553153D01*
X14703567Y-15591385D01*
X14649331Y-15637623D01*
X14606537Y-15709793D01*
X14594107Y-15787257D01*
X14380086Y-15787257D01*
X14379929Y-15778274D01*
X14394952Y-15633269D01*
X14439324Y-15508141D01*
X14512005Y-15403989D01*
X14611952Y-15321915D01*
X14738123Y-15263019D01*
X14889475Y-15228401D01*
X14902213Y-15226764D01*
X14957345Y-15219762D01*
X14999469Y-15216586D01*
X15030328Y-15221255D01*
G37*
G36*
X15278082Y-18575723D02*
G01*
X15375161Y-18577060D01*
X15457560Y-18579668D01*
X15518748Y-18583572D01*
X15552197Y-18588794D01*
X15555171Y-18590115D01*
X15567688Y-18611651D01*
X15573581Y-18658973D01*
X15573367Y-18736611D01*
X15573033Y-18746134D01*
X15567763Y-18887481D01*
X15174796Y-18896413D01*
X15026325Y-18900598D01*
X14911138Y-18905734D01*
X14826803Y-18912000D01*
X14770887Y-18919581D01*
X14740960Y-18928655D01*
X14740682Y-18928811D01*
X14682704Y-18980872D01*
X14645200Y-19052995D01*
X14630031Y-19134748D01*
X14639055Y-19215704D01*
X14674130Y-19285432D01*
X14676582Y-19288413D01*
X14704024Y-19319493D01*
X14730765Y-19343364D01*
X14761903Y-19361112D01*
X14802533Y-19373824D01*
X14857751Y-19382587D01*
X14932651Y-19388486D01*
X15032334Y-19392609D01*
X15161892Y-19396043D01*
X15183727Y-19396553D01*
X15567763Y-19405484D01*
X15572953Y-19542414D01*
X15573584Y-19622604D01*
X15567782Y-19671809D01*
X15555091Y-19694243D01*
X15529628Y-19699428D01*
X15473930Y-19703950D01*
X15393484Y-19707778D01*
X15293773Y-19710879D01*
X15180284Y-19713221D01*
X15058500Y-19714771D01*
X14933907Y-19715497D01*
X14811990Y-19715366D01*
X14698234Y-19714347D01*
X14598124Y-19712407D01*
X14517142Y-19709514D01*
X14460777Y-19705636D01*
X14434702Y-19700845D01*
X14414842Y-19685449D01*
X14403625Y-19659949D01*
X14398724Y-19615312D01*
X14397792Y-19557313D01*
X14399357Y-19489307D01*
X14405469Y-19448169D01*
X14418253Y-19425125D01*
X14432222Y-19415108D01*
X14472469Y-19404628D01*
X14494740Y-19407459D01*
X14518460Y-19407345D01*
X14522827Y-19398464D01*
X14511482Y-19379594D01*
X14506662Y-19378691D01*
X14489308Y-19364577D01*
X14461655Y-19328211D01*
X14439679Y-19293846D01*
X14414914Y-19248971D01*
X14399778Y-19208191D01*
X14391955Y-19160251D01*
X14389126Y-19093895D01*
X14388861Y-19046916D01*
X14389858Y-18966899D01*
X14394477Y-18911335D01*
X14405152Y-18868972D01*
X14424321Y-18828563D01*
X14442919Y-18797319D01*
X14520189Y-18705339D01*
X14621779Y-18636787D01*
X14742349Y-18595183D01*
X14753007Y-18593057D01*
X14801036Y-18587269D01*
X14873565Y-18582610D01*
X14964064Y-18579102D01*
X15066004Y-18576768D01*
X15172853Y-18575634D01*
X15278082Y-18575723D01*
G37*
%TD*%
D15*
%TO.C,J5*%
X5565000Y-17145000D03*
X6465000Y-17145000D03*
X7365000Y-17145000D03*
X8265000Y-17145000D03*
X9165000Y-17145000D03*
X10515000Y-17145000D03*
X11415000Y-17145000D03*
X5565000Y-17895000D03*
X6465000Y-17895000D03*
X9615000Y-17895000D03*
X8715000Y-17895000D03*
X7815000Y-17895000D03*
X10515000Y-17895000D03*
X11415000Y-17895000D03*
D16*
X5440000Y-18950000D03*
D17*
X11540000Y-18950000D03*
D16*
X5440000Y-16090000D03*
D17*
X11540000Y-16090000D03*
%TD*%
D18*
%TO.C,J6*%
X20230000Y-105980000D03*
D19*
X17690000Y-105980000D03*
X20230000Y-103440000D03*
X17690000Y-103440000D03*
X20230000Y-100900000D03*
X17690000Y-100900000D03*
X20230000Y-98360000D03*
X17690000Y-98360000D03*
X20230000Y-95820000D03*
X17690000Y-95820000D03*
%TD*%
D20*
%TO.C,D11*%
X1500000Y-108090000D03*
X2470000Y-108090000D03*
%TD*%
D21*
%TO.C,C33*%
X24790000Y-16650000D03*
X19190000Y-16650000D03*
%TD*%
D22*
%TO.C,RN3*%
X3750000Y-109130000D03*
D23*
X4250000Y-109130000D03*
X4750000Y-109130000D03*
D22*
X5250000Y-109130000D03*
X5250000Y-108130000D03*
D23*
X4750000Y-108130000D03*
X4250000Y-108130000D03*
D22*
X3750000Y-108130000D03*
%TD*%
D24*
%TO.C,U12*%
X21421157Y-37294999D03*
X21421157Y-38564999D03*
X21421157Y-39834999D03*
X21421157Y-41104999D03*
X26746157Y-41104999D03*
X26746157Y-39834999D03*
X26746157Y-38564999D03*
X26746157Y-37294999D03*
D25*
X24083657Y-39199999D03*
%TD*%
D26*
%TO.C,J10*%
X7965000Y-46200000D03*
X7965000Y-45700000D03*
X7965000Y-45200000D03*
X7965000Y-44700000D03*
X7965000Y-44200000D03*
X7965000Y-43700000D03*
X7965000Y-43200000D03*
X7965000Y-42700000D03*
X7965000Y-42200000D03*
X7965000Y-41700000D03*
X7965000Y-41200000D03*
X7965000Y-40700000D03*
X7965000Y-40200000D03*
X7965000Y-39700000D03*
X7965000Y-39200000D03*
X7965000Y-38700000D03*
X7965000Y-38200000D03*
X7965000Y-37700000D03*
X7965000Y-37200000D03*
D27*
X2065000Y-33600000D03*
X6965000Y-34200000D03*
X6965000Y-48700000D03*
X2065000Y-49300000D03*
%TD*%
D28*
%TO.C,H3*%
X23615000Y-47200000D03*
%TD*%
D29*
%TO.C,R24*%
X5420000Y-13798293D03*
X6440000Y-13798293D03*
%TD*%
D30*
%TO.C,F1*%
X22377500Y-92950000D03*
X20502500Y-92950000D03*
%TD*%
D31*
%TO.C,L2*%
X14215000Y-96950000D03*
X15790000Y-96950000D03*
%TD*%
D32*
%TO.C,R42*%
X28962497Y-84280595D03*
X28962497Y-83260595D03*
%TD*%
D33*
%TO.C,C21*%
X12640000Y-83450000D03*
X12640000Y-89050000D03*
%TD*%
D34*
%TO.C,RN1*%
X4430000Y-13570000D03*
D35*
X4430000Y-13070000D03*
X4430000Y-12570000D03*
D34*
X4430000Y-12070000D03*
X3430000Y-12070000D03*
D35*
X3430000Y-12570000D03*
X3430000Y-13070000D03*
D34*
X3430000Y-13570000D03*
%TD*%
D36*
%TO.C,RN5*%
X15400434Y-61256116D03*
D37*
X15046880Y-61609669D03*
X14693327Y-61963222D03*
D36*
X14339774Y-62316776D03*
X15046880Y-63023882D03*
D37*
X15400434Y-62670329D03*
X15753987Y-62316776D03*
D36*
X16107540Y-61963222D03*
%TD*%
D38*
%TO.C,C7*%
X17933657Y-52679999D03*
X17933657Y-51719999D03*
%TD*%
D39*
%TO.C,C28*%
X26027843Y-78345623D03*
X25067843Y-78345623D03*
%TD*%
D40*
%TO.C,R10*%
X9015000Y-97900000D03*
X7995000Y-97900000D03*
%TD*%
D29*
%TO.C,R43*%
X26914093Y-83288014D03*
X27934093Y-83288014D03*
%TD*%
D15*
%TO.C,J7*%
X5498750Y-26005000D03*
X6398750Y-26005000D03*
X7298750Y-26005000D03*
X8198750Y-26005000D03*
X9098750Y-26005000D03*
X10448750Y-26005000D03*
X11348750Y-26005000D03*
X5498750Y-26755000D03*
X6398750Y-26755000D03*
X9548750Y-26755000D03*
X8648750Y-26755000D03*
X7748750Y-26755000D03*
X10448750Y-26755000D03*
X11348750Y-26755000D03*
D16*
X5373750Y-27810000D03*
D17*
X11473750Y-27810000D03*
D16*
X5373750Y-24950000D03*
D17*
X11473750Y-24950000D03*
%TD*%
D40*
%TO.C,R20*%
X11740000Y-23500000D03*
X10720000Y-23500000D03*
%TD*%
D36*
%TO.C,RN6*%
X16673701Y-43842893D03*
D37*
X16320147Y-44196446D03*
X15966594Y-44549999D03*
D36*
X15613041Y-44903553D03*
X16320147Y-45610659D03*
D37*
X16673701Y-45257106D03*
X17027254Y-44903553D03*
D36*
X17380807Y-44549999D03*
%TD*%
D41*
%TO.C,R25*%
X12798673Y-36914319D03*
X12798673Y-37934317D03*
%TD*%
D42*
%TO.C,L1*%
X21404249Y-87165967D03*
X21404249Y-88740967D03*
%TD*%
D43*
%TO.C,U2*%
X18490000Y-60687500D03*
X18890000Y-60687500D03*
X19290000Y-60687500D03*
X19690000Y-60687500D03*
X20090000Y-60687500D03*
X20490000Y-60687500D03*
X20890000Y-60687500D03*
X21290000Y-60687500D03*
X21690000Y-60687500D03*
X22090000Y-60687500D03*
X22490000Y-60687500D03*
X22890000Y-60687500D03*
X23290000Y-60687500D03*
X23690000Y-60687500D03*
D44*
X24527500Y-59850000D03*
X24527500Y-59450000D03*
X24527500Y-59050000D03*
X24527500Y-58650000D03*
X24527500Y-58250000D03*
X24527500Y-57850000D03*
X24527500Y-57450000D03*
X24527500Y-57050000D03*
X24527500Y-56650000D03*
X24527500Y-56250000D03*
X24527500Y-55850000D03*
X24527500Y-55450000D03*
X24527500Y-55050000D03*
X24527500Y-54650000D03*
D43*
X23690000Y-53812500D03*
X23290000Y-53812500D03*
X22890000Y-53812500D03*
X22490000Y-53812500D03*
X22090000Y-53812500D03*
X21690000Y-53812500D03*
X21290000Y-53812500D03*
X20890000Y-53812500D03*
X20490000Y-53812500D03*
X20090000Y-53812500D03*
X19690000Y-53812500D03*
X19290000Y-53812500D03*
X18890000Y-53812500D03*
X18490000Y-53812500D03*
D44*
X17652500Y-54650000D03*
X17652500Y-55050000D03*
X17652500Y-55450000D03*
X17652500Y-55850000D03*
X17652500Y-56250000D03*
X17652500Y-56650000D03*
X17652500Y-57050000D03*
X17652500Y-57450000D03*
X17652500Y-57850000D03*
X17652500Y-58250000D03*
X17652500Y-58650000D03*
X17652500Y-59050000D03*
X17652500Y-59450000D03*
X17652500Y-59850000D03*
D45*
X21090000Y-57250000D03*
%TD*%
D40*
%TO.C,R41*%
X13233657Y-48939999D03*
X12213657Y-48939999D03*
%TD*%
D20*
%TO.C,D17*%
X1495000Y-11485000D03*
X2465000Y-11485000D03*
%TD*%
D41*
%TO.C,R29*%
X14690000Y-1200000D03*
X14690000Y-2220000D03*
%TD*%
D18*
%TO.C,J3*%
X6440000Y-68950000D03*
D19*
X6440000Y-66410000D03*
X6440000Y-63870000D03*
X6440000Y-61330000D03*
X6440000Y-58790000D03*
X6440000Y-56250000D03*
X3900000Y-68950000D03*
X3900000Y-66410000D03*
X3900000Y-63870000D03*
X3900000Y-61330000D03*
X3900000Y-58790000D03*
X3900000Y-56250000D03*
%TD*%
D46*
%TO.C,U5*%
X19505000Y-85550000D03*
X20455000Y-85550000D03*
X21405000Y-85550000D03*
X21405000Y-83275000D03*
X20455000Y-83275000D03*
X19505000Y-83275000D03*
%TD*%
D47*
%TO.C,C2*%
X26959999Y-53267266D03*
X27919999Y-53267266D03*
%TD*%
D48*
%TO.C,C22*%
X2790000Y-74700000D03*
X2790000Y-71750000D03*
%TD*%
D22*
%TO.C,RN8*%
X19174281Y-62902219D03*
D23*
X19674281Y-62902219D03*
X20174281Y-62902219D03*
D22*
X20674281Y-62902219D03*
X20674281Y-61902219D03*
D23*
X20174281Y-61902219D03*
X19674281Y-61902219D03*
D22*
X19174281Y-61902219D03*
%TD*%
D49*
%TO.C,C38*%
X22960694Y-78532234D03*
X22960694Y-81482234D03*
%TD*%
D50*
%TO.C,H1*%
X27082000Y-23758800D03*
X27565274Y-22592074D03*
X27565274Y-24925526D03*
X28732000Y-22108800D03*
D51*
X28732000Y-23758800D03*
D50*
X28732000Y-25408800D03*
X29898726Y-22592074D03*
X29898726Y-24925526D03*
X30382000Y-23758800D03*
%TD*%
D41*
%TO.C,R26*%
X11858407Y-36914319D03*
X11858407Y-37934317D03*
%TD*%
D40*
%TO.C,R8*%
X20335000Y-37275000D03*
X19315000Y-37275000D03*
%TD*%
D52*
%TO.C,C43*%
X30240000Y-5650000D03*
X30240000Y-7200000D03*
%TD*%
D29*
%TO.C,R38*%
X6757529Y-71188270D03*
X7777529Y-71188270D03*
%TD*%
D41*
%TO.C,R17*%
X18281236Y-86101412D03*
X18281236Y-87121412D03*
%TD*%
D53*
%TO.C,D3*%
X15662500Y-101600000D03*
X15662500Y-98800000D03*
%TD*%
D41*
%TO.C,R22*%
X14690000Y-5700000D03*
X14690000Y-6720000D03*
%TD*%
D54*
%TO.C,C19*%
X14440000Y-93450000D03*
X11490000Y-93450000D03*
%TD*%
D55*
%TO.C,C39*%
X14690000Y-8200000D03*
X14690000Y-9160000D03*
%TD*%
%TO.C,C37*%
X14173657Y-47509999D03*
X14173657Y-48469999D03*
%TD*%
D56*
%TO.C,L5*%
X25662906Y-75579751D03*
X24087906Y-75579751D03*
%TD*%
D39*
%TO.C,C11*%
X15670000Y-52700000D03*
X14710000Y-52700000D03*
%TD*%
D20*
%TO.C,D9*%
X1495000Y-13385000D03*
X2465000Y-13385000D03*
%TD*%
D38*
%TO.C,C30*%
X16770439Y-82701286D03*
X16770439Y-81741286D03*
%TD*%
D39*
%TO.C,C3*%
X18200000Y-62110000D03*
X17240000Y-62110000D03*
%TD*%
D57*
%TO.C,L6*%
X19926156Y-88753655D03*
X19926156Y-87178655D03*
%TD*%
D39*
%TO.C,C18*%
X27912567Y-84406989D03*
X26952567Y-84406989D03*
%TD*%
D32*
%TO.C,R39*%
X8822488Y-62372128D03*
X8822488Y-61352128D03*
%TD*%
D58*
%TO.C,F3*%
X9443657Y-35437499D03*
X9443657Y-33562499D03*
%TD*%
D32*
%TO.C,R11*%
X8440000Y-14818293D03*
X8440000Y-13798293D03*
%TD*%
D38*
%TO.C,C10*%
X16927314Y-52679999D03*
X16927314Y-51719999D03*
%TD*%
D59*
%TO.C,Y1*%
X27456811Y-60510800D03*
X29656811Y-60510800D03*
X29656811Y-58810800D03*
X27456811Y-58810800D03*
%TD*%
D47*
%TO.C,C5*%
X26943353Y-56400000D03*
X27903353Y-56400000D03*
%TD*%
D56*
%TO.C,L4*%
X25662906Y-77089751D03*
X24087906Y-77089751D03*
%TD*%
D41*
%TO.C,R33*%
X18190000Y-25823593D03*
X18190000Y-26843593D03*
%TD*%
D32*
%TO.C,R32*%
X26215000Y-12760000D03*
X26215000Y-11740000D03*
%TD*%
D60*
%TO.C,U10*%
X26940000Y-82012500D03*
X27440000Y-82012500D03*
X27940000Y-82012500D03*
X28440000Y-82012500D03*
X28940000Y-82012500D03*
X28940000Y-79587500D03*
X28440000Y-79587500D03*
X27940000Y-79587500D03*
X27440000Y-79587500D03*
X26940000Y-79587500D03*
D61*
X27940000Y-80800000D03*
%TD*%
D32*
%TO.C,R13*%
X14690000Y-11460000D03*
X14690000Y-10440000D03*
%TD*%
D47*
%TO.C,C1*%
X24695000Y-42705000D03*
X25655000Y-42705000D03*
%TD*%
D40*
%TO.C,R14*%
X6400000Y-11700000D03*
X5380000Y-11700000D03*
%TD*%
D54*
%TO.C,C20*%
X22915000Y-90620474D03*
X19965000Y-90620474D03*
%TD*%
D62*
%TO.C,C26*%
X7305000Y-29870000D03*
X10255000Y-29870000D03*
%TD*%
D39*
%TO.C,C9*%
X15670000Y-56300000D03*
X14710000Y-56300000D03*
%TD*%
D63*
%TO.C,C27*%
X5465000Y-29950000D03*
X3915000Y-29950000D03*
%TD*%
D27*
%TO.C,SW3*%
X5340000Y-3450000D03*
X5340000Y-8450000D03*
X5340000Y-5950000D03*
X11590000Y-3450000D03*
X11590000Y-8450000D03*
%TD*%
D48*
%TO.C,C24*%
X5115000Y-74700000D03*
X5115000Y-71750000D03*
%TD*%
D58*
%TO.C,F2*%
X15662500Y-106000000D03*
X15662500Y-104125000D03*
%TD*%
D49*
%TO.C,C42*%
X28340000Y-5750000D03*
X28340000Y-8700000D03*
%TD*%
D18*
%TO.C,J2*%
X6440000Y-91810000D03*
D19*
X6440000Y-89270000D03*
X6440000Y-86730000D03*
X6440000Y-84190000D03*
X6440000Y-81650000D03*
X6440000Y-79110000D03*
X3900000Y-91810000D03*
X3900000Y-89270000D03*
X3900000Y-86730000D03*
X3900000Y-84190000D03*
X3900000Y-81650000D03*
X3900000Y-79110000D03*
%TD*%
D64*
%TO.C,U13*%
X14433657Y-45449999D03*
X14433657Y-45049999D03*
X14433657Y-44649999D03*
X14433657Y-44249999D03*
X14433657Y-43849999D03*
X14433657Y-43449999D03*
X14433657Y-43049999D03*
X14433657Y-42649999D03*
X14433657Y-42249999D03*
X14433657Y-41849999D03*
X14433657Y-41449999D03*
D65*
X13733657Y-40449999D03*
X13333657Y-40449999D03*
X12933657Y-40449999D03*
X12533657Y-40449999D03*
X12133657Y-40449999D03*
D64*
X11433657Y-41449999D03*
X11433657Y-41849999D03*
X11433657Y-42249999D03*
X11433657Y-42649999D03*
X11433657Y-43049999D03*
X11433657Y-43449999D03*
X11433657Y-43849999D03*
X11433657Y-44249999D03*
X11433657Y-44649999D03*
X11433657Y-45049999D03*
X11433657Y-45449999D03*
D65*
X12133657Y-46449999D03*
X12533657Y-46449999D03*
X12933657Y-46449999D03*
X13333657Y-46449999D03*
X13733657Y-46449999D03*
D66*
X12933657Y-43449999D03*
%TD*%
D48*
%TO.C,C32*%
X25280137Y-82706662D03*
X25280137Y-79756662D03*
%TD*%
D29*
%TO.C,R7*%
X12830000Y-55475000D03*
X13850000Y-55475000D03*
%TD*%
%TO.C,R6*%
X12830000Y-54475000D03*
X13850000Y-54475000D03*
%TD*%
D41*
%TO.C,R18*%
X18280038Y-84205632D03*
X18280038Y-85225632D03*
%TD*%
D32*
%TO.C,R16*%
X29540000Y-63300000D03*
X29540000Y-62280000D03*
%TD*%
%TO.C,R31*%
X9923657Y-37929999D03*
X9923657Y-36909999D03*
%TD*%
D40*
%TO.C,R40*%
X13243657Y-49879999D03*
X12223657Y-49879999D03*
%TD*%
D39*
%TO.C,C12*%
X15670000Y-53700000D03*
X14710000Y-53700000D03*
%TD*%
D67*
%TO.C,J8*%
X28890000Y-72709400D03*
X28640000Y-65159400D03*
X28390000Y-72709400D03*
X28140000Y-65159400D03*
X27890000Y-72709400D03*
X27640000Y-65159400D03*
X27390000Y-72709400D03*
X27140000Y-65159400D03*
X26890000Y-72709400D03*
X26640000Y-65159400D03*
X26390000Y-72709400D03*
X26140000Y-65159400D03*
X25890000Y-72709400D03*
X25640000Y-65159400D03*
X25390000Y-72709400D03*
X25140000Y-65159400D03*
X24890000Y-72709400D03*
X24640000Y-65159400D03*
X24390000Y-72709400D03*
X24140000Y-65159400D03*
X23890000Y-72709400D03*
X23640000Y-65159400D03*
X23390000Y-72709400D03*
X21140000Y-65159400D03*
X20890000Y-72709400D03*
X20640000Y-65159400D03*
X20390000Y-72709400D03*
X20140000Y-65159400D03*
X19890000Y-72709400D03*
X19640000Y-65159400D03*
X19390000Y-72709400D03*
X19140000Y-65159400D03*
X18890000Y-72709400D03*
X18640000Y-65159400D03*
X18390000Y-72709400D03*
X18140000Y-65159400D03*
X17890000Y-72709400D03*
X17640000Y-65159400D03*
X17390000Y-72709400D03*
X17140000Y-65159400D03*
X16890000Y-72709400D03*
X16640000Y-65159400D03*
X16390000Y-72709400D03*
X16140000Y-65159400D03*
X15890000Y-72709400D03*
X15640000Y-65159400D03*
X15390000Y-72709400D03*
X15140000Y-65159400D03*
X14890000Y-72709400D03*
X14640000Y-65159400D03*
X14390000Y-72709400D03*
X14140000Y-65159400D03*
X13890000Y-72709400D03*
X13640000Y-65159400D03*
X13390000Y-72709400D03*
X13140000Y-65159400D03*
X12890000Y-72709400D03*
X12640000Y-65159400D03*
X12390000Y-72709400D03*
X12140000Y-65159400D03*
X11890000Y-72709400D03*
X11640000Y-65159400D03*
X11390000Y-72709400D03*
X11140000Y-65159400D03*
X10890000Y-72709400D03*
X10640000Y-65159400D03*
X10390000Y-72709400D03*
D68*
X29990000Y-71934400D03*
X9290000Y-71934400D03*
%TD*%
D47*
%TO.C,C13*%
X26960000Y-55125000D03*
X27920000Y-55125000D03*
%TD*%
D40*
%TO.C,R19*%
X6650000Y-21450000D03*
X5630000Y-21450000D03*
%TD*%
D41*
%TO.C,R15*%
X30515000Y-62290000D03*
X30515000Y-63310000D03*
%TD*%
D47*
%TO.C,C16*%
X27046309Y-62651682D03*
X28006309Y-62651682D03*
%TD*%
D69*
%TO.C,U9*%
X14415000Y-25433593D03*
X14415000Y-26383593D03*
X14415000Y-27333593D03*
X16690000Y-27333593D03*
X16690000Y-25433593D03*
%TD*%
D40*
%TO.C,R50*%
X13233657Y-47999999D03*
X12213657Y-47999999D03*
%TD*%
D41*
%TO.C,R9*%
X13733657Y-36914319D03*
X13733657Y-37934317D03*
%TD*%
%TO.C,R44*%
X16133657Y-37559999D03*
X16133657Y-38579999D03*
%TD*%
D20*
%TO.C,D5*%
X1500000Y-14325000D03*
X2470000Y-14325000D03*
%TD*%
%TO.C,D7*%
X1500000Y-109080000D03*
X2470000Y-109080000D03*
%TD*%
D40*
%TO.C,R27*%
X15440000Y-28833593D03*
X14420000Y-28833593D03*
%TD*%
D62*
%TO.C,C29*%
X27240374Y-75949999D03*
X30190374Y-75949999D03*
%TD*%
D70*
%TO.C,D2*%
X16140000Y-92950000D03*
X18940000Y-92950000D03*
%TD*%
D32*
%TO.C,R28*%
X10883657Y-37933587D03*
X10883657Y-36913587D03*
%TD*%
D40*
%TO.C,R3*%
X28135000Y-42675000D03*
X27115000Y-42675000D03*
%TD*%
D71*
%TO.C,SW2*%
X23790001Y-24650000D03*
X23790001Y-30850000D03*
X20089999Y-24650000D03*
X20089999Y-30850000D03*
%TD*%
D47*
%TO.C,C25*%
X23940000Y-88450000D03*
X24900000Y-88450000D03*
%TD*%
%TO.C,C17*%
X27960000Y-78450000D03*
X28920000Y-78450000D03*
%TD*%
D41*
%TO.C,R1*%
X15165000Y-74215000D03*
X15165000Y-75235000D03*
%TD*%
D72*
%TO.C,D1*%
X6390000Y-97825000D03*
X3590000Y-97825000D03*
%TD*%
D55*
%TO.C,C41*%
X14690000Y-3470000D03*
X14690000Y-4430000D03*
%TD*%
D20*
%TO.C,D13*%
X1505000Y-12435000D03*
X2475000Y-12435000D03*
%TD*%
D38*
%TO.C,C15*%
X28960274Y-57385395D03*
X28960274Y-56425395D03*
%TD*%
D32*
%TO.C,R12*%
X9430000Y-14818293D03*
X9430000Y-13798293D03*
%TD*%
D48*
%TO.C,C23*%
X23330380Y-87309233D03*
X23330380Y-84359233D03*
%TD*%
D47*
%TO.C,C40*%
X12230000Y-11700000D03*
X13190000Y-11700000D03*
%TD*%
D55*
%TO.C,C4*%
X22290940Y-62469999D03*
X22290940Y-63429999D03*
%TD*%
D40*
%TO.C,R5*%
X27940000Y-57350000D03*
X26920000Y-57350000D03*
%TD*%
D52*
%TO.C,C34*%
X15447765Y-76442234D03*
X15447765Y-77992234D03*
%TD*%
D41*
%TO.C,R2*%
X16215000Y-74215000D03*
X16215000Y-75235000D03*
%TD*%
D73*
%TO.C,L3*%
X19005905Y-80823882D03*
X19005905Y-75970882D03*
%TD*%
D50*
%TO.C,H2*%
X27082000Y-88842074D03*
X27565274Y-87675348D03*
X27565274Y-90008800D03*
X28732000Y-87192074D03*
D51*
X28732000Y-88842074D03*
D50*
X28732000Y-90492074D03*
X29898726Y-87675348D03*
X29898726Y-90008800D03*
X30382000Y-88842074D03*
%TD*%
D29*
%TO.C,R30*%
X9940000Y-11700000D03*
X10960000Y-11700000D03*
%TD*%
D55*
%TO.C,C31*%
X17327542Y-86140624D03*
X17327542Y-87100624D03*
%TD*%
D74*
%TO.C,U8*%
X8269220Y-23656686D03*
X8669220Y-23656686D03*
D75*
X9294220Y-23531686D03*
X9294220Y-23131686D03*
X9294220Y-22731686D03*
X9294220Y-22331686D03*
D74*
X8669220Y-22206686D03*
X8269220Y-22206686D03*
D75*
X7644220Y-22331686D03*
X7644220Y-22731686D03*
X7644220Y-23131686D03*
X7644220Y-23531686D03*
%TD*%
D39*
%TO.C,C14*%
X15070000Y-58760000D03*
X14110000Y-58760000D03*
%TD*%
D40*
%TO.C,R4*%
X27945642Y-54200000D03*
X26925642Y-54200000D03*
%TD*%
D76*
%TO.C,U7*%
X26190000Y-4450000D03*
X25540000Y-4450000D03*
X24890000Y-4450000D03*
X24240000Y-4450000D03*
X23590000Y-4450000D03*
X22940000Y-4450000D03*
X22290000Y-4450000D03*
X21640000Y-4450000D03*
X20990000Y-4450000D03*
X20340000Y-4450000D03*
X19690000Y-4450000D03*
X19040000Y-4450000D03*
X18390000Y-4450000D03*
X17740000Y-4450000D03*
X17740000Y-10175000D03*
X18390000Y-10175000D03*
X19040000Y-10175000D03*
X19690000Y-10175000D03*
X20340000Y-10175000D03*
X20990000Y-10175000D03*
X21640000Y-10175000D03*
X22290000Y-10175000D03*
X22940000Y-10175000D03*
X23590000Y-10175000D03*
X24240000Y-10175000D03*
X24890000Y-10175000D03*
X25540000Y-10175000D03*
X26190000Y-10175000D03*
%TD*%
D77*
%TO.C,C45*%
X17383657Y-47849999D03*
X15483657Y-47849999D03*
%TD*%
D39*
%TO.C,C6*%
X22103870Y-52204428D03*
X21143870Y-52204428D03*
%TD*%
D78*
%TO.C,J4*%
X1090000Y-103507736D03*
X9190000Y-101507736D03*
X7290000Y-103507736D03*
X3590000Y-101507736D03*
X12890000Y-103507736D03*
%TD*%
D39*
%TO.C,C8*%
X15670000Y-57300000D03*
X14710000Y-57300000D03*
%TD*%
D79*
%TO.C,RN7*%
X15622997Y-41469194D03*
D80*
X15976550Y-41822748D03*
X16330103Y-42176301D03*
D79*
X16683657Y-42529854D03*
X17390763Y-41822748D03*
D80*
X17037210Y-41469194D03*
X16683657Y-41115641D03*
D79*
X16330103Y-40762088D03*
%TD*%
D81*
%TO.C,D4*%
X11173657Y-32369999D03*
X14473657Y-32369999D03*
%TD*%
D41*
%TO.C,R23*%
X7430000Y-13778293D03*
X7430000Y-14798293D03*
%TD*%
D29*
%TO.C,R21*%
X7420000Y-11700000D03*
X8440000Y-11700000D03*
%TD*%
D56*
%TO.C,L7*%
X15790000Y-95450000D03*
X14215000Y-95450000D03*
%TD*%
M02*
