%TF.GenerationSoftware,KiCad,Pcbnew,9.0.2*%
%TF.CreationDate,2025-06-25T16:41:34+02:00*%
%TF.ProjectId,tiliqua-motherboard,74696c69-7175-4612-9d6d-6f7468657262,rev?*%
%TF.SameCoordinates,Original*%
%TF.FileFunction,Soldermask,Top*%
%TF.FilePolarity,Negative*%
%FSLAX46Y46*%
G04 Gerber Fmt 4.6, Leading zero omitted, Abs format (unit mm)*
G04 Created by KiCad (PCBNEW 9.0.2) date 2025-06-25 16:41:34*
%MOMM*%
%LPD*%
G01*
G04 APERTURE LIST*
G04 Aperture macros list*
%AMRoundRect*
0 Rectangle with rounded corners*
0 $1 Rounding radius*
0 $2 $3 $4 $5 $6 $7 $8 $9 X,Y pos of 4 corners*
0 Add a 4 corners polygon primitive as box body*
4,1,4,$2,$3,$4,$5,$6,$7,$8,$9,$2,$3,0*
0 Add four circle primitives for the rounded corners*
1,1,$1+$1,$2,$3*
1,1,$1+$1,$4,$5*
1,1,$1+$1,$6,$7*
1,1,$1+$1,$8,$9*
0 Add four rect primitives between the rounded corners*
20,1,$1+$1,$2,$3,$4,$5,0*
20,1,$1+$1,$4,$5,$6,$7,0*
20,1,$1+$1,$6,$7,$8,$9,0*
20,1,$1+$1,$8,$9,$2,$3,0*%
%AMRotRect*
0 Rectangle, with rotation*
0 The origin of the aperture is its center*
0 $1 length*
0 $2 width*
0 $3 Rotation angle, in degrees counterclockwise*
0 Add horizontal line*
21,1,$1,$2,0,0,$3*%
G04 Aperture macros list end*
%ADD10C,0.100000*%
%ADD11C,0.250000*%
%ADD12C,0.150000*%
%ADD13C,0.300000*%
%ADD14C,0.000000*%
%ADD15C,0.600000*%
%ADD16O,1.600000X1.000000*%
%ADD17O,2.000000X1.000000*%
%ADD18R,1.700000X1.700000*%
%ADD19O,1.700000X1.700000*%
%ADD20RoundRect,0.147500X-0.147500X-0.172500X0.147500X-0.172500X0.147500X0.172500X-0.147500X0.172500X0*%
%ADD21RoundRect,0.250000X1.500000X0.550000X-1.500000X0.550000X-1.500000X-0.550000X1.500000X-0.550000X0*%
%ADD22R,0.400000X0.500000*%
%ADD23R,0.300000X0.500000*%
%ADD24RoundRect,0.125000X-0.262500X-0.125000X0.262500X-0.125000X0.262500X0.125000X-0.262500X0.125000X0*%
%ADD25R,3.400000X4.000000*%
%ADD26RoundRect,0.140000X0.140000X0.170000X-0.140000X0.170000X-0.140000X-0.170000X0.140000X-0.170000X0*%
%ADD27R,1.900000X0.300000*%
%ADD28C,1.800000*%
%ADD29C,6.400000*%
%ADD30RoundRect,0.135000X-0.135000X-0.185000X0.135000X-0.185000X0.135000X0.185000X-0.135000X0.185000X0*%
%ADD31RoundRect,0.243750X0.243750X0.456250X-0.243750X0.456250X-0.243750X-0.456250X0.243750X-0.456250X0*%
%ADD32RoundRect,0.218750X-0.218750X-0.256250X0.218750X-0.256250X0.218750X0.256250X-0.218750X0.256250X0*%
%ADD33RoundRect,0.250000X-0.550000X1.500000X-0.550000X-1.500000X0.550000X-1.500000X0.550000X1.500000X0*%
%ADD34R,0.500000X0.400000*%
%ADD35R,0.500000X0.300000*%
%ADD36RotRect,0.500000X0.400000X315.000000*%
%ADD37RotRect,0.500000X0.300000X315.000000*%
%ADD38RoundRect,0.100000X0.021213X0.162635X-0.162635X-0.021213X-0.021213X-0.162635X0.162635X0.021213X0*%
%ADD39RoundRect,0.140000X0.170000X-0.140000X0.170000X0.140000X-0.170000X0.140000X-0.170000X-0.140000X0*%
%ADD40RoundRect,0.100000X0.162635X-0.021213X-0.021213X0.162635X-0.162635X0.021213X0.021213X-0.162635X0*%
%ADD41RoundRect,0.135000X0.135000X0.185000X-0.135000X0.185000X-0.135000X-0.185000X0.135000X-0.185000X0*%
%ADD42RoundRect,0.135000X-0.185000X0.135000X-0.185000X-0.135000X0.185000X-0.135000X0.185000X0.135000X0*%
%ADD43RoundRect,0.218750X-0.256250X0.218750X-0.256250X-0.218750X0.256250X-0.218750X0.256250X0.218750X0*%
%ADD44RoundRect,0.050000X0.050000X-0.387500X0.050000X0.387500X-0.050000X0.387500X-0.050000X-0.387500X0*%
%ADD45RoundRect,0.050000X0.387500X-0.050000X0.387500X0.050000X-0.387500X0.050000X-0.387500X-0.050000X0*%
%ADD46R,3.200000X3.200000*%
%ADD47RoundRect,0.150000X0.150000X-0.512500X0.150000X0.512500X-0.150000X0.512500X-0.150000X-0.512500X0*%
%ADD48RoundRect,0.140000X-0.140000X-0.170000X0.140000X-0.170000X0.140000X0.170000X-0.140000X0.170000X0*%
%ADD49RoundRect,0.250000X0.650000X-0.325000X0.650000X0.325000X-0.650000X0.325000X-0.650000X-0.325000X0*%
%ADD50R,0.300000X1.600000*%
%ADD51RoundRect,0.250000X-0.650000X0.325000X-0.650000X-0.325000X0.650000X-0.325000X0.650000X0.325000X0*%
%ADD52C,0.700000*%
%ADD53C,4.400000*%
%ADD54RoundRect,0.225000X-0.250000X0.225000X-0.250000X-0.225000X0.250000X-0.225000X0.250000X0.225000X0*%
%ADD55RoundRect,0.250000X0.300000X-0.300000X0.300000X0.300000X-0.300000X0.300000X-0.300000X-0.300000X0*%
%ADD56RoundRect,0.250000X0.325000X0.650000X-0.325000X0.650000X-0.325000X-0.650000X0.325000X-0.650000X0*%
%ADD57RoundRect,0.140000X-0.170000X0.140000X-0.170000X-0.140000X0.170000X-0.140000X0.170000X0.140000X0*%
%ADD58RoundRect,0.218750X0.218750X0.256250X-0.218750X0.256250X-0.218750X-0.256250X0.218750X-0.256250X0*%
%ADD59RoundRect,0.218750X0.256250X-0.218750X0.256250X0.218750X-0.256250X0.218750X-0.256250X-0.218750X0*%
%ADD60RoundRect,0.243750X0.456250X-0.243750X0.456250X0.243750X-0.456250X0.243750X-0.456250X-0.243750X0*%
%ADD61RoundRect,0.135000X0.185000X-0.135000X0.185000X0.135000X-0.185000X0.135000X-0.185000X-0.135000X0*%
%ADD62R,1.400000X1.200000*%
%ADD63RoundRect,0.250000X-0.325000X-0.650000X0.325000X-0.650000X0.325000X0.650000X-0.325000X0.650000X0*%
%ADD64RoundRect,0.243750X-0.456250X0.243750X-0.456250X-0.243750X0.456250X-0.243750X0.456250X0.243750X0*%
%ADD65RoundRect,0.225000X0.225000X0.250000X-0.225000X0.250000X-0.225000X-0.250000X0.225000X-0.250000X0*%
%ADD66RoundRect,0.050000X0.325000X0.050000X-0.325000X0.050000X-0.325000X-0.050000X0.325000X-0.050000X0*%
%ADD67RoundRect,0.050000X0.050000X0.325000X-0.050000X0.325000X-0.050000X-0.325000X0.050000X-0.325000X0*%
%ADD68R,1.250000X3.500000*%
%ADD69RoundRect,0.085000X-0.085000X0.265000X-0.085000X-0.265000X0.085000X-0.265000X0.085000X0.265000X0*%
%ADD70RoundRect,0.036000X0.114000X0.739000X-0.114000X0.739000X-0.114000X-0.739000X0.114000X-0.739000X0*%
%ADD71RoundRect,0.252000X0.348000X1.123000X-0.348000X1.123000X-0.348000X-1.123000X0.348000X-1.123000X0*%
%ADD72RoundRect,0.150000X-0.512500X-0.150000X0.512500X-0.150000X0.512500X0.150000X-0.512500X0.150000X0*%
%ADD73RoundRect,0.250000X-0.300000X-0.300000X0.300000X-0.300000X0.300000X0.300000X-0.300000X0.300000X0*%
%ADD74R,1.100000X1.800000*%
%ADD75RoundRect,0.250000X0.300000X0.300000X-0.300000X0.300000X-0.300000X-0.300000X0.300000X-0.300000X0*%
%ADD76R,2.790000X1.903000*%
%ADD77RoundRect,0.050000X0.050000X-0.375000X0.050000X0.375000X-0.050000X0.375000X-0.050000X-0.375000X0*%
%ADD78RoundRect,0.050000X0.275000X-0.050000X0.275000X0.050000X-0.275000X0.050000X-0.275000X-0.050000X0*%
%ADD79RoundRect,0.100000X-0.100000X0.637500X-0.100000X-0.637500X0.100000X-0.637500X0.100000X0.637500X0*%
%ADD80RoundRect,0.250000X0.250000X0.475000X-0.250000X0.475000X-0.250000X-0.475000X0.250000X-0.475000X0*%
%ADD81O,1.500000X3.500000*%
%ADD82RoundRect,0.225000X-0.225000X-0.375000X0.225000X-0.375000X0.225000X0.375000X-0.225000X0.375000X0*%
%ADD83RotRect,0.500000X0.400000X225.000000*%
%ADD84RotRect,0.500000X0.300000X225.000000*%
G04 APERTURE END LIST*
D10*
X21850765Y-31986463D02*
G75*
G02*
X21815963Y-32905463I-953865J-424037D01*
G01*
X21850765Y-31986463D02*
X21745246Y-32269063D01*
X21850765Y-31986463D02*
X22128073Y-32117245D01*
D11*
G36*
X29825985Y-42997438D02*
G01*
X29874419Y-43012472D01*
X29913554Y-43036176D01*
X29947138Y-43068073D01*
X29972834Y-43103592D01*
X29991284Y-43143215D01*
X30013632Y-43143215D01*
X30019111Y-43109167D01*
X30031059Y-43081123D01*
X30049353Y-43057852D01*
X30073215Y-43040593D01*
X30104038Y-43029611D01*
X30143875Y-43025612D01*
X30468657Y-43025612D01*
X30468657Y-43178264D01*
X30164879Y-43178264D01*
X30130003Y-43183472D01*
X30104674Y-43197864D01*
X30088446Y-43221831D01*
X30082264Y-43260818D01*
X30082264Y-43559039D01*
X30468657Y-43559039D01*
X30468657Y-43710225D01*
X29488632Y-43710225D01*
X29488632Y-43315467D01*
X29625835Y-43315467D01*
X29625835Y-43559039D01*
X29945061Y-43559039D01*
X29945061Y-43315467D01*
X29939954Y-43262837D01*
X29925888Y-43221674D01*
X29903784Y-43189438D01*
X29873603Y-43164959D01*
X29836696Y-43149942D01*
X29791066Y-43144619D01*
X29779831Y-43144619D01*
X29734151Y-43149877D01*
X29697266Y-43164686D01*
X29667174Y-43188766D01*
X29645121Y-43220584D01*
X29630997Y-43261893D01*
X29625835Y-43315467D01*
X29488632Y-43315467D01*
X29488632Y-43298615D01*
X29492357Y-43238614D01*
X29503031Y-43185513D01*
X29520139Y-43138330D01*
X29544616Y-43094918D01*
X29574623Y-43059293D01*
X29610448Y-43030558D01*
X29651212Y-43009514D01*
X29697473Y-42996546D01*
X29750460Y-42992029D01*
X29765848Y-42992029D01*
X29825985Y-42997438D01*
G37*
G36*
X30488257Y-42505497D02*
G01*
X30483423Y-42578310D01*
X30469646Y-42641764D01*
X30447652Y-42697289D01*
X30416457Y-42747825D01*
X30378357Y-42789274D01*
X30332857Y-42822585D01*
X30281762Y-42846714D01*
X30224780Y-42861537D01*
X30160666Y-42866671D01*
X30145279Y-42866671D01*
X30145279Y-42716889D01*
X30159262Y-42716889D01*
X30216654Y-42710354D01*
X30263711Y-42691843D01*
X30302755Y-42661629D01*
X30331786Y-42621623D01*
X30350072Y-42571060D01*
X30356671Y-42506901D01*
X30349807Y-42440991D01*
X30330816Y-42389329D01*
X30300678Y-42348693D01*
X30260188Y-42318241D01*
X30210636Y-42299401D01*
X30149431Y-42292700D01*
X30136853Y-42292700D01*
X30078505Y-42299261D01*
X30030773Y-42317814D01*
X29991284Y-42348021D01*
X29961180Y-42387754D01*
X29942976Y-42434008D01*
X29936635Y-42488705D01*
X29940619Y-42533857D01*
X29951350Y-42567779D01*
X29968107Y-42596800D01*
X29987071Y-42618215D01*
X30027676Y-42649661D01*
X30027676Y-42835897D01*
X29488632Y-42835897D01*
X29488632Y-42179311D01*
X29621683Y-42179311D01*
X29621683Y-42688862D01*
X29910073Y-42688862D01*
X29910073Y-42666453D01*
X29887375Y-42650000D01*
X29864583Y-42626580D01*
X29845409Y-42597839D01*
X29828862Y-42558681D01*
X29818639Y-42514335D01*
X29814879Y-42457870D01*
X29819135Y-42400956D01*
X29831569Y-42348735D01*
X29852004Y-42300394D01*
X29880463Y-42256626D01*
X29916591Y-42219221D01*
X29961181Y-42187676D01*
X30010841Y-42164932D01*
X30068396Y-42150684D01*
X30135448Y-42145666D01*
X30150835Y-42145666D01*
X30217827Y-42150775D01*
X30276641Y-42165427D01*
X30328644Y-42189080D01*
X30375142Y-42222004D01*
X30414164Y-42263024D01*
X30446247Y-42313034D01*
X30468962Y-42368181D01*
X30483232Y-42431807D01*
X30488257Y-42505497D01*
G37*
G36*
X30488257Y-41896844D02*
G01*
X30484565Y-41928177D01*
X30473883Y-41955129D01*
X30456078Y-41978726D01*
X30432811Y-41996872D01*
X30405660Y-42007824D01*
X30373463Y-42011638D01*
X30341249Y-42007805D01*
X30314363Y-41996841D01*
X30291580Y-41978726D01*
X30274173Y-41955177D01*
X30263699Y-41928223D01*
X30260073Y-41896844D01*
X30263768Y-41865472D01*
X30274452Y-41838522D01*
X30292252Y-41814961D01*
X30315453Y-41796750D01*
X30342162Y-41785830D01*
X30373463Y-41782050D01*
X30405660Y-41785864D01*
X30432811Y-41796816D01*
X30456078Y-41814961D01*
X30473878Y-41838522D01*
X30484562Y-41865472D01*
X30488257Y-41896844D01*
G37*
G36*
X30468657Y-41408847D02*
G01*
X29592252Y-41408847D01*
X29592252Y-41431195D01*
X29922652Y-41592212D01*
X29922652Y-41747611D01*
X29488632Y-41530602D01*
X29488632Y-41261812D01*
X30468657Y-41261812D01*
X30468657Y-41408847D01*
G37*
G36*
X30748681Y-41171137D02*
G01*
X29488632Y-40759588D01*
X29488632Y-40615363D01*
X30748681Y-41026973D01*
X30748681Y-41171137D01*
G37*
G36*
X30177946Y-39808204D02*
G01*
X30245649Y-39821561D01*
X30302696Y-39842439D01*
X30350721Y-39870261D01*
X30390987Y-39904982D01*
X30432444Y-39958362D01*
X30462641Y-40020548D01*
X30481573Y-40093237D01*
X30488257Y-40178656D01*
X30481594Y-40263310D01*
X30462697Y-40335557D01*
X30432506Y-40397566D01*
X30390987Y-40450987D01*
X30350724Y-40485685D01*
X30302701Y-40513491D01*
X30245655Y-40534357D01*
X30177950Y-40547707D01*
X30097652Y-40552470D01*
X29859637Y-40552470D01*
X29781379Y-40547772D01*
X29714734Y-40534542D01*
X29657955Y-40513753D01*
X29609569Y-40485902D01*
X29568438Y-40450987D01*
X29525923Y-40397432D01*
X29495085Y-40335375D01*
X29475818Y-40263176D01*
X29469032Y-40178656D01*
X29600678Y-40178656D01*
X29605280Y-40232639D01*
X29618225Y-40277576D01*
X29638814Y-40315183D01*
X29667174Y-40346696D01*
X29701792Y-40371395D01*
X29743088Y-40389699D01*
X29792368Y-40401343D01*
X29851272Y-40405497D01*
X30103269Y-40405497D01*
X30165436Y-40401377D01*
X30216286Y-40389962D01*
X30257799Y-40372276D01*
X30291580Y-40348772D01*
X30319024Y-40318351D01*
X30339198Y-40280942D01*
X30352051Y-40235053D01*
X30356671Y-40178656D01*
X30351914Y-40120801D01*
X30338734Y-40074196D01*
X30318130Y-40036624D01*
X30290176Y-40006465D01*
X30255769Y-39983145D01*
X30214159Y-39965689D01*
X30163913Y-39954491D01*
X30103269Y-39950473D01*
X29851272Y-39950473D01*
X29790871Y-39954771D01*
X29740990Y-39966756D01*
X29699778Y-39985494D01*
X29665769Y-40010678D01*
X29637960Y-40042774D01*
X29617795Y-40080633D01*
X29605155Y-40125402D01*
X29600678Y-40178656D01*
X29469032Y-40178656D01*
X29475840Y-40093372D01*
X29495142Y-40020731D01*
X29525985Y-39958497D01*
X29568438Y-39904982D01*
X29609572Y-39870044D01*
X29657961Y-39842177D01*
X29714740Y-39821375D01*
X29781383Y-39808139D01*
X29859637Y-39803438D01*
X30097652Y-39803438D01*
X30177946Y-39808204D01*
G37*
G36*
X30226527Y-38934093D02*
G01*
X30282814Y-38949592D01*
X30333590Y-38974967D01*
X30378663Y-39009487D01*
X30416538Y-39051886D01*
X30447652Y-39103072D01*
X30469789Y-39158990D01*
X30483497Y-39221356D01*
X30488257Y-39291322D01*
X30483411Y-39361293D01*
X30469473Y-39423438D01*
X30446980Y-39478962D01*
X30415385Y-39529568D01*
X30377032Y-39571275D01*
X30331453Y-39604991D01*
X30280318Y-39629502D01*
X30223340Y-39644543D01*
X30159262Y-39649749D01*
X29820436Y-39649749D01*
X29745037Y-39644254D01*
X29681301Y-39628768D01*
X29627240Y-39604258D01*
X29579199Y-39569759D01*
X29540011Y-39527348D01*
X29508965Y-39476153D01*
X29487264Y-39419774D01*
X29473747Y-39356257D01*
X29469032Y-39284361D01*
X29473481Y-39213226D01*
X29486111Y-39151620D01*
X29506157Y-39098126D01*
X29534859Y-39049166D01*
X29569749Y-39009403D01*
X29611181Y-38977775D01*
X29658061Y-38954791D01*
X29710610Y-38940665D01*
X29770061Y-38935766D01*
X29770061Y-39084143D01*
X29723542Y-39089690D01*
X29683704Y-39105720D01*
X29648978Y-39132442D01*
X29623626Y-39167797D01*
X29606938Y-39216926D01*
X29600678Y-39284361D01*
X29607517Y-39352207D01*
X29626342Y-39404965D01*
X29655999Y-39446050D01*
X29696157Y-39476777D01*
X29746278Y-39495918D01*
X29809262Y-39502775D01*
X29926865Y-39502775D01*
X29926865Y-39480366D01*
X29895730Y-39451111D01*
X29862507Y-39402636D01*
X29846496Y-39365300D01*
X29835709Y-39315324D01*
X29834153Y-39289918D01*
X29950678Y-39289918D01*
X29957213Y-39350260D01*
X29975897Y-39401231D01*
X30006036Y-39444365D01*
X30045200Y-39476153D01*
X30092289Y-39495858D01*
X30149431Y-39502775D01*
X30160666Y-39502775D01*
X30217825Y-39495941D01*
X30264637Y-39476532D01*
X30303487Y-39444646D01*
X30332322Y-39403028D01*
X30350276Y-39352284D01*
X30356671Y-39289918D01*
X30350246Y-39226645D01*
X30332264Y-39175491D01*
X30303487Y-39133847D01*
X30264637Y-39101960D01*
X30217825Y-39082552D01*
X30160666Y-39075717D01*
X30149431Y-39075717D01*
X30092289Y-39082634D01*
X30045200Y-39102339D01*
X30006036Y-39134127D01*
X29975897Y-39177261D01*
X29957248Y-39228403D01*
X29950678Y-39289918D01*
X29834153Y-39289918D01*
X29831671Y-39249374D01*
X29835967Y-39192425D01*
X29848592Y-39139470D01*
X29869468Y-39089761D01*
X29898282Y-39044382D01*
X29934033Y-39005614D01*
X29977301Y-38972891D01*
X30025742Y-38948915D01*
X30081667Y-38933986D01*
X30146683Y-38928744D01*
X30163475Y-38928744D01*
X30226527Y-38934093D01*
G37*
G36*
X30488257Y-38674792D02*
G01*
X30484565Y-38706125D01*
X30473883Y-38733077D01*
X30456078Y-38756675D01*
X30432811Y-38774820D01*
X30405660Y-38785772D01*
X30373463Y-38789586D01*
X30341249Y-38785753D01*
X30314363Y-38774789D01*
X30291580Y-38756675D01*
X30274173Y-38733125D01*
X30263699Y-38706171D01*
X30260073Y-38674792D01*
X30263768Y-38643420D01*
X30274452Y-38616471D01*
X30292252Y-38592910D01*
X30315453Y-38574698D01*
X30342162Y-38563779D01*
X30373463Y-38559998D01*
X30405660Y-38563812D01*
X30432811Y-38574764D01*
X30456078Y-38592910D01*
X30473878Y-38616471D01*
X30484562Y-38643420D01*
X30488257Y-38674792D01*
G37*
G36*
X30468657Y-38414857D02*
G01*
X30358076Y-38414857D01*
X30290576Y-38410514D01*
X30235289Y-38398484D01*
X30190098Y-38379869D01*
X30149060Y-38353291D01*
X30113503Y-38320129D01*
X30082997Y-38279790D01*
X30046000Y-38210165D01*
X30013632Y-38122315D01*
X29987071Y-38036891D01*
X29966178Y-37982232D01*
X29942252Y-37938217D01*
X29912021Y-37901328D01*
X29875757Y-37874469D01*
X29833424Y-37857877D01*
X29782639Y-37852060D01*
X29777083Y-37852060D01*
X29724624Y-37858652D01*
X29682248Y-37877329D01*
X29647573Y-37908114D01*
X29622215Y-37947844D01*
X29606338Y-37996094D01*
X29600678Y-38055087D01*
X29606718Y-38115762D01*
X29623725Y-38165648D01*
X29651054Y-38207006D01*
X29678099Y-38231622D01*
X29710959Y-38249608D01*
X29750846Y-38260999D01*
X29799431Y-38265075D01*
X29821840Y-38265075D01*
X29821840Y-38410705D01*
X29800835Y-38410705D01*
X29731215Y-38405180D01*
X29671858Y-38389515D01*
X29620951Y-38364482D01*
X29575888Y-38329912D01*
X29538482Y-38287743D01*
X29508233Y-38237109D01*
X29486742Y-38181753D01*
X29473565Y-38121384D01*
X29469032Y-38055087D01*
X29473450Y-37988740D01*
X29486217Y-37929112D01*
X29506889Y-37875202D01*
X29535928Y-37825590D01*
X29571268Y-37784346D01*
X29613257Y-37750577D01*
X29660796Y-37725635D01*
X29714027Y-37710372D01*
X29774274Y-37705087D01*
X29786853Y-37705087D01*
X29849373Y-37709690D01*
X29901499Y-37722586D01*
X29945061Y-37742884D01*
X29984304Y-37771034D01*
X30018746Y-37805591D01*
X30048681Y-37847175D01*
X30085437Y-37917217D01*
X30117252Y-38000499D01*
X30142470Y-38083114D01*
X30164062Y-38145172D01*
X30185152Y-38188810D01*
X30211255Y-38224220D01*
X30240473Y-38247611D01*
X30275608Y-38261390D01*
X30323027Y-38266479D01*
X30337071Y-38266479D01*
X30337071Y-37713513D01*
X30468657Y-37713513D01*
X30468657Y-38414857D01*
G37*
G36*
X30488257Y-37223013D02*
G01*
X30483423Y-37295825D01*
X30469646Y-37359280D01*
X30447652Y-37414804D01*
X30416457Y-37465341D01*
X30378357Y-37506790D01*
X30332857Y-37540101D01*
X30281762Y-37564230D01*
X30224780Y-37579053D01*
X30160666Y-37584187D01*
X30145279Y-37584187D01*
X30145279Y-37434405D01*
X30159262Y-37434405D01*
X30216654Y-37427870D01*
X30263711Y-37409359D01*
X30302755Y-37379145D01*
X30331786Y-37339139D01*
X30350072Y-37288575D01*
X30356671Y-37224417D01*
X30349807Y-37158507D01*
X30330816Y-37106844D01*
X30300678Y-37066209D01*
X30260188Y-37035756D01*
X30210636Y-37016917D01*
X30149431Y-37010216D01*
X30136853Y-37010216D01*
X30078505Y-37016777D01*
X30030773Y-37035330D01*
X29991284Y-37065537D01*
X29961180Y-37105270D01*
X29942976Y-37151524D01*
X29936635Y-37206221D01*
X29940619Y-37251373D01*
X29951350Y-37285295D01*
X29968107Y-37314315D01*
X29987071Y-37335731D01*
X30027676Y-37367177D01*
X30027676Y-37553412D01*
X29488632Y-37553412D01*
X29488632Y-36896826D01*
X29621683Y-36896826D01*
X29621683Y-37406378D01*
X29910073Y-37406378D01*
X29910073Y-37383969D01*
X29887375Y-37367516D01*
X29864583Y-37344096D01*
X29845409Y-37315354D01*
X29828862Y-37276197D01*
X29818639Y-37231851D01*
X29814879Y-37175385D01*
X29819135Y-37118472D01*
X29831569Y-37066251D01*
X29852004Y-37017910D01*
X29880463Y-36974142D01*
X29916591Y-36936737D01*
X29961181Y-36905192D01*
X30010841Y-36882447D01*
X30068396Y-36868200D01*
X30135448Y-36863182D01*
X30150835Y-36863182D01*
X30217827Y-36868290D01*
X30276641Y-36882943D01*
X30328644Y-36906596D01*
X30375142Y-36939520D01*
X30414164Y-36980540D01*
X30446247Y-37030549D01*
X30468962Y-37085697D01*
X30483232Y-37149322D01*
X30488257Y-37223013D01*
G37*
D12*
G36*
X22606038Y-32817220D02*
G01*
X22629913Y-32844256D01*
X22647914Y-32871314D01*
X22660673Y-32898590D01*
X22668707Y-32927393D01*
X22671090Y-32955238D01*
X22668082Y-32982629D01*
X22659716Y-33008852D01*
X22645591Y-33033980D01*
X22625027Y-33058378D01*
X22618498Y-33064906D01*
X22590689Y-33088125D01*
X22563762Y-33102296D01*
X22537102Y-33108842D01*
X22509321Y-33109558D01*
X22483350Y-33105391D01*
X22458711Y-33096408D01*
X22449230Y-33105889D01*
X22461351Y-33122659D01*
X22468179Y-33139626D01*
X22470291Y-33157260D01*
X22467490Y-33174707D01*
X22459072Y-33192443D01*
X22443867Y-33211041D01*
X22306074Y-33348834D01*
X22241309Y-33284070D01*
X22370191Y-33155188D01*
X22382778Y-33138182D01*
X22387418Y-33121329D01*
X22384135Y-33104276D01*
X22370217Y-33085113D01*
X22243692Y-32958588D01*
X22079760Y-33122521D01*
X22015617Y-33058378D01*
X22173617Y-32900378D01*
X22301903Y-32900378D01*
X22405241Y-33003716D01*
X22429737Y-33023879D01*
X22453169Y-33035375D01*
X22476223Y-33039674D01*
X22499414Y-33037255D01*
X22521443Y-33027967D01*
X22543061Y-33010866D01*
X22547827Y-33006100D01*
X22564977Y-32984489D01*
X22574343Y-32962557D01*
X22576894Y-32939573D01*
X22572750Y-32916718D01*
X22561217Y-32893200D01*
X22540677Y-32868280D01*
X22437339Y-32764942D01*
X22301903Y-32900378D01*
X22173617Y-32900378D01*
X22431406Y-32642589D01*
X22606038Y-32817220D01*
G37*
G36*
X22971647Y-33182829D02*
G01*
X22994858Y-33209560D01*
X23012300Y-33237200D01*
X23024495Y-33265987D01*
X23031590Y-33296287D01*
X23032930Y-33326016D01*
X23028640Y-33355673D01*
X23018773Y-33383964D01*
X23002623Y-33411565D01*
X22979367Y-33438831D01*
X22971647Y-33446551D01*
X22944336Y-33469733D01*
X22916429Y-33485811D01*
X22887557Y-33495565D01*
X22857336Y-33499686D01*
X22827508Y-33498208D01*
X22797586Y-33491083D01*
X22769188Y-33478944D01*
X22741951Y-33461694D01*
X22715645Y-33438831D01*
X22614664Y-33337850D01*
X22454877Y-33497638D01*
X22390734Y-33433495D01*
X22544589Y-33279640D01*
X22672875Y-33279640D01*
X22767328Y-33374092D01*
X22791386Y-33393838D01*
X22815131Y-33405528D01*
X22839165Y-33410335D01*
X22863319Y-33408323D01*
X22886022Y-33399120D01*
X22908100Y-33381812D01*
X22914033Y-33375880D01*
X22931707Y-33353405D01*
X22941071Y-33330513D01*
X22943125Y-33306375D01*
X22938331Y-33282324D01*
X22926650Y-33258571D01*
X22906908Y-33234512D01*
X22812456Y-33140059D01*
X22672875Y-33279640D01*
X22544589Y-33279640D01*
X22806523Y-33017705D01*
X22971647Y-33182829D01*
G37*
G36*
X22734013Y-33776773D02*
G01*
X22780928Y-33729858D01*
X22811408Y-33703063D01*
X22839968Y-33684710D01*
X22867039Y-33673435D01*
X22895726Y-33667300D01*
X22924881Y-33666284D01*
X22954938Y-33670456D01*
X23000174Y-33684299D01*
X23051178Y-33707838D01*
X23098690Y-33732811D01*
X23130743Y-33747137D01*
X23159568Y-33755660D01*
X23188045Y-33758485D01*
X23214826Y-33754494D01*
X23239825Y-33743573D01*
X23263840Y-33724495D01*
X23266197Y-33722138D01*
X23285657Y-33697085D01*
X23295711Y-33671182D01*
X23297362Y-33643410D01*
X23291264Y-33615795D01*
X23277529Y-33588589D01*
X23254902Y-33561159D01*
X23226597Y-33537979D01*
X23198217Y-33524029D01*
X23169076Y-33518077D01*
X23147158Y-33519108D01*
X23125586Y-33525419D01*
X23103830Y-33537508D01*
X23081488Y-33556392D01*
X23071981Y-33565900D01*
X23010195Y-33504114D01*
X23019107Y-33495202D01*
X23050988Y-33468009D01*
X23082818Y-33449472D01*
X23115036Y-33438494D01*
X23148821Y-33434043D01*
X23182582Y-33436064D01*
X23216898Y-33444712D01*
X23249501Y-33459080D01*
X23280704Y-33479102D01*
X23310755Y-33505306D01*
X23337029Y-33535329D01*
X23356911Y-33566044D01*
X23371012Y-33597686D01*
X23379741Y-33631055D01*
X23382246Y-33663546D01*
X23378758Y-33695688D01*
X23369171Y-33726439D01*
X23353062Y-33755499D01*
X23329744Y-33783302D01*
X23324407Y-33788638D01*
X23295929Y-33813211D01*
X23268343Y-33829854D01*
X23241250Y-33839725D01*
X23212657Y-33844431D01*
X23183383Y-33844382D01*
X23153040Y-33839440D01*
X23107730Y-33825318D01*
X23058898Y-33803482D01*
X23013148Y-33779131D01*
X22977659Y-33761962D01*
X22950197Y-33752396D01*
X22924100Y-33748447D01*
X22901779Y-33750919D01*
X22881027Y-33759980D01*
X22858749Y-33777939D01*
X22852791Y-33783897D01*
X23087395Y-34018501D01*
X23031568Y-34074328D01*
X22734013Y-33776773D01*
G37*
G36*
X23558710Y-33801534D02*
G01*
X23598122Y-33814779D01*
X23636927Y-33837236D01*
X23675665Y-33870216D01*
X23708960Y-33909287D01*
X23731589Y-33948295D01*
X23744908Y-33987785D01*
X23749600Y-34028501D01*
X23746972Y-34060775D01*
X23738266Y-34093128D01*
X23723001Y-34126042D01*
X23700343Y-34159932D01*
X23669137Y-34195127D01*
X23568156Y-34296108D01*
X23532068Y-34328152D01*
X23497677Y-34351209D01*
X23464616Y-34366555D01*
X23432437Y-34375126D01*
X23400622Y-34377479D01*
X23360387Y-34372420D01*
X23321192Y-34358848D01*
X23282320Y-34336041D01*
X23243244Y-34302636D01*
X23210156Y-34263894D01*
X23187521Y-34225225D01*
X23174022Y-34186108D01*
X23169121Y-34147020D01*
X23254513Y-34147020D01*
X23255776Y-34171570D01*
X23263088Y-34196000D01*
X23277104Y-34220922D01*
X23299071Y-34246809D01*
X23325636Y-34269337D01*
X23351000Y-34283518D01*
X23375682Y-34290717D01*
X23400338Y-34291652D01*
X23424829Y-34286949D01*
X23449889Y-34276701D01*
X23475957Y-34260134D01*
X23503391Y-34236110D01*
X23610305Y-34129197D01*
X23634107Y-34101747D01*
X23650184Y-34075500D01*
X23659719Y-34050065D01*
X23663463Y-34024951D01*
X23661645Y-33999536D01*
X23654138Y-33974919D01*
X23640507Y-33950562D01*
X23619812Y-33926069D01*
X23594957Y-33905118D01*
X23570399Y-33891545D01*
X23545709Y-33884325D01*
X23520308Y-33882987D01*
X23495141Y-33887195D01*
X23469855Y-33896950D01*
X23444007Y-33912918D01*
X23417254Y-33936146D01*
X23310341Y-34043060D01*
X23285713Y-34071183D01*
X23268982Y-34097600D01*
X23258874Y-34122716D01*
X23254513Y-34147020D01*
X23169121Y-34147020D01*
X23168972Y-34145828D01*
X23171333Y-34114025D01*
X23179911Y-34081854D01*
X23195261Y-34048798D01*
X23218322Y-34014410D01*
X23250368Y-33978321D01*
X23351350Y-33877340D01*
X23386545Y-33846131D01*
X23420433Y-33823469D01*
X23453342Y-33808200D01*
X23485687Y-33799488D01*
X23517950Y-33796850D01*
X23558710Y-33801534D01*
G37*
G36*
X24148939Y-34360122D02*
G01*
X23873327Y-34635734D01*
X23943402Y-34705809D01*
X23888171Y-34761041D01*
X23818096Y-34690965D01*
X23733150Y-34775911D01*
X23670769Y-34713529D01*
X23755714Y-34628584D01*
X23550825Y-34423695D01*
X23661287Y-34423695D01*
X23810945Y-34573353D01*
X24047337Y-34336962D01*
X24037855Y-34327480D01*
X23669603Y-34415379D01*
X23661287Y-34423695D01*
X23550825Y-34423695D01*
X23545462Y-34418332D01*
X23617921Y-34345873D01*
X24035498Y-34246680D01*
X24148939Y-34360122D01*
G37*
G36*
X24315575Y-34558400D02*
G01*
X24354988Y-34571645D01*
X24393793Y-34594102D01*
X24432531Y-34627082D01*
X24465825Y-34666153D01*
X24488455Y-34705161D01*
X24501773Y-34744651D01*
X24506466Y-34785366D01*
X24503837Y-34817641D01*
X24495131Y-34849994D01*
X24479867Y-34882908D01*
X24457209Y-34916798D01*
X24426003Y-34951993D01*
X24325022Y-35052974D01*
X24288933Y-35085018D01*
X24254543Y-35108075D01*
X24221482Y-35123420D01*
X24189303Y-35131992D01*
X24157488Y-35134344D01*
X24117252Y-35129286D01*
X24078058Y-35115714D01*
X24039186Y-35092907D01*
X24000110Y-35059502D01*
X23967021Y-35020760D01*
X23944387Y-34982091D01*
X23930888Y-34942973D01*
X23925987Y-34903886D01*
X24011379Y-34903886D01*
X24012642Y-34928435D01*
X24019954Y-34952866D01*
X24033970Y-34977788D01*
X24055937Y-35003675D01*
X24082502Y-35026203D01*
X24107866Y-35040384D01*
X24132548Y-35047583D01*
X24157203Y-35048518D01*
X24181695Y-35043814D01*
X24206754Y-35033567D01*
X24232823Y-35017000D01*
X24260257Y-34992976D01*
X24367170Y-34886062D01*
X24390973Y-34858613D01*
X24407050Y-34832365D01*
X24416585Y-34806931D01*
X24420329Y-34781817D01*
X24418510Y-34756402D01*
X24411004Y-34731785D01*
X24397373Y-34707428D01*
X24376678Y-34682935D01*
X24351823Y-34661984D01*
X24327265Y-34648411D01*
X24302575Y-34641191D01*
X24277173Y-34639853D01*
X24252007Y-34644061D01*
X24226721Y-34653816D01*
X24200873Y-34669784D01*
X24174120Y-34693012D01*
X24067206Y-34799925D01*
X24042579Y-34828049D01*
X24025848Y-34854466D01*
X24015739Y-34879581D01*
X24011379Y-34903886D01*
X23925987Y-34903886D01*
X23925838Y-34902694D01*
X23928199Y-34870891D01*
X23936776Y-34838719D01*
X23952127Y-34805664D01*
X23975187Y-34771276D01*
X24007234Y-34735187D01*
X24108215Y-34634206D01*
X24143411Y-34602997D01*
X24177298Y-34580335D01*
X24210208Y-34565066D01*
X24242553Y-34556353D01*
X24274816Y-34553716D01*
X24315575Y-34558400D01*
G37*
G36*
X21761931Y-33398641D02*
G01*
X21785109Y-33424860D01*
X21802403Y-33450827D01*
X21814494Y-33476747D01*
X21822136Y-33504156D01*
X21824522Y-33530635D01*
X21821904Y-33556641D01*
X21814239Y-33581555D01*
X21801174Y-33605199D01*
X21782112Y-33627934D01*
X21776180Y-33633866D01*
X21746425Y-33657862D01*
X21718539Y-33670109D01*
X21689901Y-33674660D01*
X21664215Y-33672777D01*
X21640141Y-33666379D01*
X21621159Y-33658218D01*
X21611652Y-33667725D01*
X21620251Y-33686359D01*
X21627066Y-33711066D01*
X21629244Y-33737581D01*
X21624993Y-33766608D01*
X21618097Y-33785210D01*
X21606078Y-33804800D01*
X21587896Y-33825725D01*
X21581963Y-33831658D01*
X21557577Y-33852255D01*
X21532750Y-33866260D01*
X21507121Y-33874428D01*
X21480309Y-33877361D01*
X21453228Y-33875150D01*
X21425414Y-33867589D01*
X21399097Y-33855471D01*
X21373135Y-33838345D01*
X21347334Y-33815622D01*
X21197650Y-33665938D01*
X21314071Y-33665938D01*
X21397825Y-33749691D01*
X21420594Y-33768643D01*
X21442375Y-33779888D01*
X21463729Y-33784716D01*
X21485253Y-33783406D01*
X21505387Y-33775556D01*
X21524919Y-33760365D01*
X21530255Y-33755028D01*
X21545501Y-33735502D01*
X21553446Y-33715464D01*
X21554918Y-33694149D01*
X21550221Y-33672996D01*
X21538920Y-33651126D01*
X21519582Y-33627934D01*
X21435828Y-33544180D01*
X21314071Y-33665938D01*
X21197650Y-33665938D01*
X21135294Y-33603582D01*
X21192313Y-33546563D01*
X21248140Y-33602391D01*
X21365157Y-33485374D01*
X21494635Y-33485374D01*
X21578388Y-33569127D01*
X21599894Y-33586958D01*
X21621010Y-33597805D01*
X21642220Y-33602701D01*
X21663597Y-33601648D01*
X21683234Y-33594239D01*
X21701933Y-33579827D01*
X21707866Y-33573894D01*
X21722327Y-33555200D01*
X21729823Y-33535650D01*
X21731026Y-33514466D01*
X21726289Y-33493457D01*
X21715400Y-33472250D01*
X21697193Y-33450323D01*
X21613439Y-33366570D01*
X21494635Y-33485374D01*
X21365157Y-33485374D01*
X21549892Y-33300639D01*
X21494065Y-33244812D01*
X21551084Y-33187793D01*
X21761931Y-33398641D01*
G37*
G36*
X22002047Y-33671582D02*
G01*
X22043090Y-33685873D01*
X22083831Y-33709835D01*
X22124821Y-33744899D01*
X22159883Y-33785878D01*
X22183905Y-33826667D01*
X22198296Y-33867811D01*
X22203808Y-33910049D01*
X22201641Y-33943730D01*
X22193241Y-33977099D01*
X22178207Y-34010654D01*
X22155769Y-34044817D01*
X22124821Y-34079913D01*
X22027415Y-34177319D01*
X21992319Y-34208267D01*
X21958154Y-34230708D01*
X21924593Y-34245748D01*
X21891217Y-34254157D01*
X21857524Y-34256332D01*
X21815300Y-34250810D01*
X21774165Y-34236412D01*
X21733379Y-34212385D01*
X21692400Y-34177319D01*
X21657333Y-34136330D01*
X21633366Y-34095593D01*
X21619067Y-34054558D01*
X21614054Y-34015460D01*
X21703384Y-34015460D01*
X21705600Y-34042299D01*
X21713726Y-34068280D01*
X21728212Y-34093948D01*
X21750015Y-34119705D01*
X21776462Y-34142141D01*
X21802435Y-34156848D01*
X21828367Y-34164919D01*
X21854830Y-34166905D01*
X21881238Y-34163138D01*
X21907322Y-34153672D01*
X21933548Y-34137935D01*
X21960267Y-34114938D01*
X22062440Y-34012765D01*
X22085437Y-33986047D01*
X22101174Y-33959821D01*
X22110639Y-33933737D01*
X22114407Y-33907329D01*
X22112420Y-33880865D01*
X22104349Y-33854934D01*
X22089642Y-33828960D01*
X22067206Y-33802513D01*
X22041449Y-33780711D01*
X22015781Y-33766225D01*
X21989801Y-33758099D01*
X21962961Y-33755883D01*
X21936239Y-33759413D01*
X21909961Y-33768711D01*
X21883643Y-33784331D01*
X21856928Y-33807254D01*
X21754756Y-33909427D01*
X21731832Y-33936142D01*
X21716213Y-33962459D01*
X21706914Y-33988738D01*
X21703384Y-34015460D01*
X21614054Y-34015460D01*
X21613672Y-34012480D01*
X21615951Y-33978925D01*
X21624436Y-33945645D01*
X21639533Y-33912143D01*
X21662018Y-33878003D01*
X21692996Y-33842901D01*
X21790402Y-33745495D01*
X21825506Y-33714516D01*
X21859643Y-33692035D01*
X21893139Y-33676943D01*
X21926412Y-33668466D01*
X21959956Y-33666197D01*
X22002047Y-33671582D01*
G37*
G36*
X22401620Y-34071154D02*
G01*
X22442662Y-34085445D01*
X22483403Y-34109407D01*
X22524393Y-34144471D01*
X22559455Y-34185450D01*
X22583477Y-34226239D01*
X22597868Y-34267383D01*
X22603380Y-34309621D01*
X22601213Y-34343302D01*
X22592813Y-34376671D01*
X22577779Y-34410226D01*
X22555341Y-34444389D01*
X22524393Y-34479486D01*
X22426987Y-34576892D01*
X22391891Y-34607839D01*
X22357726Y-34630280D01*
X22324166Y-34645320D01*
X22290789Y-34653729D01*
X22257096Y-34655904D01*
X22214872Y-34650382D01*
X22173737Y-34635984D01*
X22132952Y-34611957D01*
X22091972Y-34576892D01*
X22056905Y-34535902D01*
X22032938Y-34495165D01*
X22018639Y-34454130D01*
X22013626Y-34415032D01*
X22102956Y-34415032D01*
X22105173Y-34441872D01*
X22113298Y-34467852D01*
X22127784Y-34493520D01*
X22149587Y-34519277D01*
X22176034Y-34541713D01*
X22202007Y-34556420D01*
X22227939Y-34564491D01*
X22254402Y-34566477D01*
X22280810Y-34562710D01*
X22306894Y-34553244D01*
X22333120Y-34537507D01*
X22359839Y-34514510D01*
X22462012Y-34412338D01*
X22485009Y-34385619D01*
X22500746Y-34359393D01*
X22510211Y-34333309D01*
X22513979Y-34306901D01*
X22511992Y-34280438D01*
X22503921Y-34254506D01*
X22489214Y-34228532D01*
X22466778Y-34202085D01*
X22441021Y-34180283D01*
X22415353Y-34165797D01*
X22389373Y-34157671D01*
X22362533Y-34155455D01*
X22335811Y-34158985D01*
X22309533Y-34168284D01*
X22283216Y-34183903D01*
X22256500Y-34206826D01*
X22154328Y-34308999D01*
X22131404Y-34335714D01*
X22115785Y-34362031D01*
X22106486Y-34388310D01*
X22102956Y-34415032D01*
X22013626Y-34415032D01*
X22013244Y-34412053D01*
X22015523Y-34378497D01*
X22024008Y-34345217D01*
X22039105Y-34311715D01*
X22061590Y-34277575D01*
X22092568Y-34242473D01*
X22189974Y-34145067D01*
X22225078Y-34114088D01*
X22259215Y-34091607D01*
X22292711Y-34076515D01*
X22325984Y-34068038D01*
X22359528Y-34065769D01*
X22401620Y-34071154D01*
G37*
G36*
X22425432Y-34893720D02*
G01*
X22783011Y-34536142D01*
X22655295Y-34408426D01*
X22713506Y-34350215D01*
X23033055Y-34669764D01*
X22974844Y-34727975D01*
X22847154Y-34600285D01*
X22489575Y-34957863D01*
X22425432Y-34893720D01*
G37*
G36*
X22799591Y-35284510D02*
G01*
X22770608Y-35251615D01*
X22748665Y-35218423D01*
X22733039Y-35184695D01*
X22723419Y-35149125D01*
X22720907Y-35114105D01*
X22725319Y-35078999D01*
X22736626Y-35045456D01*
X22755678Y-35012534D01*
X22783555Y-34979780D01*
X22798399Y-34964936D01*
X22861946Y-35028483D01*
X22847102Y-35043327D01*
X22827183Y-35066965D01*
X22814604Y-35089916D01*
X22808245Y-35112634D01*
X22807570Y-35135707D01*
X22814508Y-35166312D01*
X22830141Y-35196865D01*
X22856014Y-35228087D01*
X22887606Y-35254846D01*
X22915883Y-35270165D01*
X22941814Y-35276479D01*
X22968199Y-35275299D01*
X22991529Y-35266831D01*
X23012822Y-35250651D01*
X23028212Y-35229666D01*
X23034194Y-35207881D01*
X23032642Y-35184512D01*
X23023780Y-35157675D01*
X23010093Y-35130104D01*
X22990828Y-35096796D01*
X22974196Y-35069492D01*
X22946939Y-35020283D01*
X22928473Y-34976826D01*
X22920548Y-34947636D01*
X22917910Y-34920276D01*
X22920157Y-34894264D01*
X22927704Y-34869468D01*
X22941782Y-34844471D01*
X22963523Y-34818826D01*
X22989624Y-34796978D01*
X23016500Y-34782288D01*
X23044583Y-34773983D01*
X23073921Y-34771512D01*
X23103946Y-34774674D01*
X23135176Y-34783802D01*
X23164716Y-34797915D01*
X23194533Y-34818024D01*
X23224862Y-34844940D01*
X23251726Y-34875288D01*
X23272405Y-34906015D01*
X23287502Y-34937320D01*
X23297262Y-34970380D01*
X23300444Y-35002760D01*
X23297294Y-35035037D01*
X23287627Y-35065881D01*
X23270230Y-35096595D01*
X23243877Y-35127676D01*
X23222478Y-35149074D01*
X23158931Y-35085527D01*
X23180329Y-35064129D01*
X23196491Y-35045258D01*
X23206972Y-35027259D01*
X23212686Y-35009804D01*
X23213970Y-34982452D01*
X23206443Y-34954858D01*
X23191507Y-34928557D01*
X23168413Y-34901388D01*
X23141501Y-34878469D01*
X23116771Y-34864600D01*
X23093571Y-34858048D01*
X23070069Y-34858161D01*
X23048833Y-34865473D01*
X23028858Y-34880586D01*
X23013545Y-34900760D01*
X23006864Y-34920973D01*
X23007068Y-34942691D01*
X23014014Y-34967915D01*
X23026088Y-34993929D01*
X23044868Y-35026125D01*
X23061525Y-35053456D01*
X23089988Y-35102865D01*
X23109917Y-35147598D01*
X23118815Y-35177820D01*
X23122350Y-35206477D01*
X23120901Y-35234020D01*
X23113833Y-35260326D01*
X23099773Y-35286484D01*
X23077561Y-35313007D01*
X23051012Y-35335222D01*
X23023133Y-35350563D01*
X22993496Y-35359663D01*
X22962574Y-35362694D01*
X22930500Y-35359666D01*
X22896686Y-35350156D01*
X22864720Y-35335178D01*
X22832443Y-35313598D01*
X22799591Y-35284510D01*
G37*
G36*
X23027977Y-35496265D02*
G01*
X23443766Y-35080476D01*
X23705700Y-35342410D01*
X23647490Y-35400620D01*
X23449699Y-35202829D01*
X23330298Y-35322229D01*
X23511458Y-35503389D01*
X23453248Y-35561599D01*
X23272088Y-35380440D01*
X23150330Y-35502197D01*
X23351101Y-35702968D01*
X23292890Y-35761178D01*
X23027977Y-35496265D01*
G37*
G36*
X23359987Y-35828274D02*
G01*
X23775776Y-35412485D01*
X23839919Y-35476628D01*
X23482340Y-35834207D01*
X23682515Y-36034381D01*
X23624304Y-36092592D01*
X23359987Y-35828274D01*
G37*
D13*
G36*
X18668969Y-22310735D02*
G01*
X18588101Y-22301720D01*
X18522478Y-22276324D01*
X18468690Y-22235141D01*
X18428317Y-22180641D01*
X18403398Y-22114530D01*
X18394562Y-22033519D01*
X18394562Y-21173906D01*
X18013788Y-21173906D01*
X18013788Y-20930274D01*
X18394562Y-20930274D01*
X18394562Y-20473906D01*
X18683013Y-20473906D01*
X18683013Y-20930274D01*
X19094562Y-20930274D01*
X19094562Y-21173906D01*
X18683013Y-21173906D01*
X18683013Y-21983083D01*
X18692479Y-22031327D01*
X18717421Y-22057530D01*
X18761415Y-22067102D01*
X19049744Y-22067102D01*
X19049744Y-22310735D01*
X18668969Y-22310735D01*
G37*
G36*
X19432839Y-22310735D02*
G01*
X19432839Y-20930274D01*
X19721167Y-20930274D01*
X19721167Y-22310735D01*
X19432839Y-22310735D01*
G37*
G36*
X19578407Y-20742695D02*
G01*
X19500509Y-20728841D01*
X19436991Y-20688107D01*
X19405351Y-20648555D01*
X19386255Y-20602109D01*
X19379594Y-20546691D01*
X19386252Y-20491353D01*
X19405345Y-20444946D01*
X19436991Y-20405396D01*
X19500518Y-20364567D01*
X19578407Y-20350686D01*
X19658364Y-20364728D01*
X19721045Y-20405396D01*
X19751893Y-20444847D01*
X19770572Y-20491257D01*
X19777099Y-20546691D01*
X19770569Y-20602206D01*
X19751887Y-20648654D01*
X19721045Y-20688107D01*
X19658374Y-20728680D01*
X19578407Y-20742695D01*
G37*
G36*
X20147982Y-22310735D02*
G01*
X20147982Y-20350686D01*
X20436310Y-20350686D01*
X20436310Y-22310735D01*
X20147982Y-22310735D01*
G37*
G36*
X20863125Y-22310735D02*
G01*
X20863125Y-20930274D01*
X21151453Y-20930274D01*
X21151453Y-22310735D01*
X20863125Y-22310735D01*
G37*
G36*
X21008693Y-20742695D02*
G01*
X20930795Y-20728841D01*
X20867277Y-20688107D01*
X20835638Y-20648555D01*
X20816541Y-20602109D01*
X20809880Y-20546691D01*
X20816538Y-20491353D01*
X20835631Y-20444946D01*
X20867277Y-20405396D01*
X20930804Y-20364567D01*
X21008693Y-20350686D01*
X21088650Y-20364728D01*
X21151331Y-20405396D01*
X21182179Y-20444847D01*
X21200858Y-20491257D01*
X21207385Y-20546691D01*
X21200855Y-20602206D01*
X21182173Y-20648654D01*
X21151331Y-20688107D01*
X21088660Y-20728680D01*
X21008693Y-20742695D01*
G37*
G36*
X22282501Y-20900640D02*
G01*
X22383286Y-20925968D01*
X22458763Y-20963979D01*
X22554965Y-21043727D01*
X22619841Y-21129088D01*
X22664660Y-21129088D01*
X22664660Y-20930274D01*
X22947371Y-20930274D01*
X22947371Y-22870783D01*
X22659042Y-22870783D01*
X22659042Y-22123156D01*
X22614224Y-22123156D01*
X22577599Y-22176664D01*
X22524587Y-22230989D01*
X22459799Y-22277049D01*
X22374744Y-22316352D01*
X22277719Y-22340807D01*
X22149430Y-22349935D01*
X22035922Y-22340453D01*
X21930073Y-22312486D01*
X21830204Y-22265916D01*
X21740440Y-22202317D01*
X21663242Y-22122223D01*
X21597807Y-22023749D01*
X21550891Y-21915006D01*
X21521389Y-21788732D01*
X21510979Y-21641509D01*
X21510979Y-21607926D01*
X21802238Y-21607926D01*
X21802238Y-21633083D01*
X21810833Y-21744840D01*
X21834867Y-21837311D01*
X21872681Y-21914001D01*
X21923994Y-21977587D01*
X22011530Y-22044019D01*
X22112409Y-22084007D01*
X22230640Y-22097877D01*
X22352575Y-22083833D01*
X22454683Y-22043690D01*
X22541439Y-21977587D01*
X22592130Y-21914090D01*
X22629538Y-21837434D01*
X22653336Y-21744933D01*
X22661851Y-21633083D01*
X22661851Y-21607926D01*
X22653293Y-21497787D01*
X22629306Y-21406258D01*
X22591464Y-21329967D01*
X22539974Y-21266352D01*
X22452444Y-21199991D01*
X22350730Y-21159896D01*
X22230640Y-21145940D01*
X22112418Y-21159822D01*
X22011539Y-21199848D01*
X21923994Y-21266352D01*
X21872560Y-21329960D01*
X21834755Y-21406247D01*
X21810790Y-21497779D01*
X21802238Y-21607926D01*
X21510979Y-21607926D01*
X21510979Y-21599499D01*
X21521540Y-21452353D01*
X21551485Y-21326128D01*
X21599151Y-21217381D01*
X21665462Y-21118787D01*
X21743162Y-21038697D01*
X21833013Y-20975215D01*
X21932846Y-20928545D01*
X22037782Y-20900627D01*
X22149430Y-20891195D01*
X22282501Y-20900640D01*
G37*
G36*
X23901139Y-22335892D02*
G01*
X23798478Y-22327816D01*
X23705715Y-22304346D01*
X23621115Y-22265916D01*
X23545073Y-22212899D01*
X23480971Y-22147112D01*
X23427919Y-22067224D01*
X23390029Y-21978776D01*
X23366290Y-21876930D01*
X23357943Y-21759112D01*
X23357943Y-20930274D01*
X23646272Y-20930274D01*
X23646272Y-21739573D01*
X23657711Y-21855617D01*
X23688493Y-21941362D01*
X23735909Y-22004210D01*
X23800547Y-22050155D01*
X23882033Y-22079122D01*
X23985159Y-22089573D01*
X24097442Y-22075746D01*
X24190682Y-22036192D01*
X24269335Y-21970626D01*
X24326678Y-21884982D01*
X24363622Y-21773175D01*
X24377169Y-21627587D01*
X24377169Y-20930274D01*
X24665497Y-20930274D01*
X24665497Y-22310735D01*
X24382786Y-22310735D01*
X24382786Y-22103494D01*
X24337968Y-22103494D01*
X24286045Y-22181996D01*
X24197894Y-22261764D01*
X24126718Y-22300425D01*
X24030254Y-22326229D01*
X23901139Y-22335892D01*
G37*
G36*
X25786628Y-20900825D02*
G01*
X25899585Y-20927886D01*
X25994755Y-20970559D01*
X26075023Y-21028337D01*
X26140774Y-21101778D01*
X26188455Y-21189080D01*
X26218391Y-21293041D01*
X26229018Y-21417538D01*
X26229018Y-21985892D01*
X26238484Y-22034136D01*
X26263426Y-22060339D01*
X26307420Y-22069911D01*
X26425023Y-22069911D01*
X26425023Y-22310735D01*
X26209479Y-22310735D01*
X26118379Y-22297473D01*
X26049744Y-22260420D01*
X26015766Y-22223082D01*
X25995348Y-22178127D01*
X25988195Y-22123156D01*
X25988195Y-22114730D01*
X25946185Y-22114730D01*
X25879018Y-22212793D01*
X25826152Y-22263091D01*
X25747371Y-22309391D01*
X25652657Y-22338703D01*
X25517905Y-22349935D01*
X25374846Y-22336854D01*
X25253146Y-22299621D01*
X25180187Y-22260181D01*
X25119034Y-22210895D01*
X25068376Y-22151244D01*
X25031021Y-22082921D01*
X25007941Y-22004337D01*
X24999866Y-21913107D01*
X25000610Y-21904681D01*
X25288195Y-21904681D01*
X25296515Y-21964613D01*
X25320492Y-22014192D01*
X25360979Y-22055989D01*
X25412448Y-22085795D01*
X25477533Y-22104956D01*
X25559793Y-22111921D01*
X25671668Y-22100075D01*
X25763569Y-22066629D01*
X25839817Y-22012514D01*
X25897760Y-21940003D01*
X25933478Y-21850676D01*
X25946185Y-21739573D01*
X25946185Y-21711485D01*
X25543062Y-21711485D01*
X25435950Y-21724707D01*
X25358170Y-21760577D01*
X25319619Y-21797908D01*
X25296413Y-21844897D01*
X25288195Y-21904681D01*
X25000610Y-21904681D01*
X25008080Y-21820116D01*
X25031274Y-21742236D01*
X25068376Y-21676558D01*
X25118964Y-21619858D01*
X25180954Y-21572823D01*
X25255954Y-21535141D01*
X25380276Y-21499916D01*
X25526209Y-21487514D01*
X25946185Y-21487514D01*
X25946185Y-21397877D01*
X25937560Y-21320691D01*
X25913150Y-21257361D01*
X25873400Y-21204803D01*
X25820206Y-21166332D01*
X25747617Y-21141238D01*
X25649430Y-21131896D01*
X25552872Y-21140736D01*
X25478986Y-21164788D01*
X25422650Y-21201994D01*
X25376751Y-21252686D01*
X25342303Y-21312774D01*
X25319091Y-21383955D01*
X25050302Y-21297127D01*
X25093997Y-21190439D01*
X25158013Y-21094161D01*
X25242770Y-21013240D01*
X25355483Y-20947249D01*
X25439451Y-20917127D01*
X25537545Y-20897984D01*
X25652238Y-20891195D01*
X25786628Y-20900825D01*
G37*
G36*
X31078982Y-20415815D02*
G01*
X31073212Y-20464687D01*
X31056588Y-20506269D01*
X31028974Y-20542247D01*
X30993002Y-20569811D01*
X30951420Y-20586408D01*
X30902541Y-20592170D01*
X29315000Y-20592170D01*
X29266066Y-20586404D01*
X29224488Y-20569803D01*
X29188567Y-20542247D01*
X29160953Y-20506269D01*
X29144329Y-20464687D01*
X29138559Y-20415815D01*
X29138559Y-20096357D01*
X29311067Y-20096357D01*
X29311067Y-20343323D01*
X29317664Y-20372831D01*
X29335910Y-20389753D01*
X29369881Y-20396239D01*
X30847660Y-20396239D01*
X30881631Y-20389753D01*
X30899877Y-20372831D01*
X30906474Y-20343323D01*
X30906474Y-20096357D01*
X31078982Y-20096357D01*
X31078982Y-20415815D01*
G37*
G36*
X30608559Y-19128411D02*
G01*
X30599275Y-19192180D01*
X30573339Y-19240225D01*
X30547201Y-19264009D01*
X30515733Y-19278302D01*
X30477254Y-19283309D01*
X30471355Y-19283309D01*
X30471355Y-19312716D01*
X30540000Y-19359733D01*
X30575208Y-19396739D01*
X30607618Y-19451886D01*
X30628137Y-19518186D01*
X30635999Y-19612512D01*
X30626842Y-19712654D01*
X30600779Y-19797844D01*
X30573171Y-19848914D01*
X30538671Y-19891722D01*
X30496915Y-19927182D01*
X30449089Y-19953331D01*
X30394080Y-19969487D01*
X30330219Y-19975139D01*
X30265126Y-19969390D01*
X30210610Y-19953154D01*
X30164635Y-19927182D01*
X30124945Y-19891771D01*
X30092020Y-19848378D01*
X30065643Y-19795877D01*
X30040985Y-19708852D01*
X30032304Y-19606699D01*
X30032304Y-19594902D01*
X30189084Y-19594902D01*
X30198339Y-19669880D01*
X30223449Y-19724326D01*
X30249580Y-19751312D01*
X30282472Y-19767556D01*
X30324321Y-19773309D01*
X30366274Y-19767485D01*
X30400979Y-19750701D01*
X30430237Y-19722360D01*
X30451101Y-19686332D01*
X30464514Y-19640773D01*
X30469389Y-19583191D01*
X30461097Y-19504878D01*
X30437685Y-19440547D01*
X30399804Y-19387174D01*
X30349046Y-19346614D01*
X30286517Y-19321611D01*
X30208745Y-19312716D01*
X30189084Y-19312716D01*
X30189084Y-19594902D01*
X30032304Y-19594902D01*
X30032304Y-19312716D01*
X29969558Y-19312716D01*
X29915528Y-19318753D01*
X29871197Y-19335840D01*
X29834406Y-19363665D01*
X29807477Y-19400901D01*
X29789911Y-19451713D01*
X29783372Y-19520445D01*
X29789560Y-19588035D01*
X29806396Y-19639755D01*
X29832440Y-19679190D01*
X29867925Y-19711320D01*
X29909986Y-19735433D01*
X29959813Y-19751682D01*
X29899033Y-19939834D01*
X29824352Y-19909248D01*
X29756957Y-19864436D01*
X29700312Y-19805107D01*
X29654119Y-19726207D01*
X29633033Y-19667430D01*
X29619633Y-19598764D01*
X29614881Y-19518479D01*
X29621622Y-19424406D01*
X29640565Y-19345336D01*
X29670435Y-19278717D01*
X29710881Y-19222530D01*
X29762289Y-19176504D01*
X29823400Y-19143127D01*
X29896173Y-19122172D01*
X29983321Y-19114733D01*
X30381168Y-19114733D01*
X30414939Y-19108107D01*
X30433282Y-19090647D01*
X30439982Y-19059852D01*
X30439982Y-18977530D01*
X30608559Y-18977530D01*
X30608559Y-19128411D01*
G37*
G36*
X30243157Y-17784436D02*
G01*
X30331549Y-17805088D01*
X30407669Y-17837929D01*
X30476600Y-17883733D01*
X30532666Y-17937772D01*
X30577186Y-18000607D01*
X30609784Y-18070515D01*
X30629362Y-18144609D01*
X30635999Y-18224065D01*
X30629631Y-18314070D01*
X30612491Y-18382896D01*
X30584827Y-18442851D01*
X30552737Y-18486760D01*
X30514956Y-18522618D01*
X30477254Y-18549421D01*
X30477254Y-18580794D01*
X31000593Y-18580794D01*
X31000593Y-18782624D01*
X29642236Y-18782624D01*
X29642236Y-18584726D01*
X29781406Y-18584726D01*
X29781406Y-18553353D01*
X29721647Y-18507954D01*
X29665830Y-18440684D01*
X29639219Y-18387796D01*
X29621490Y-18317214D01*
X29619054Y-18282878D01*
X29793203Y-18282878D01*
X29802920Y-18365634D01*
X29830938Y-18436249D01*
X29877491Y-18497531D01*
X29922016Y-18533535D01*
X29975417Y-18559998D01*
X30039489Y-18576774D01*
X30116592Y-18582760D01*
X30134202Y-18582760D01*
X30212432Y-18576744D01*
X30277162Y-18559920D01*
X30330845Y-18533450D01*
X30375355Y-18497531D01*
X30421858Y-18436255D01*
X30449849Y-18365640D01*
X30459558Y-18282878D01*
X30449728Y-18197524D01*
X30421627Y-18126049D01*
X30375355Y-18065319D01*
X30330907Y-18029836D01*
X30277248Y-18003650D01*
X30212497Y-17986991D01*
X30134202Y-17981031D01*
X30116592Y-17981031D01*
X30039495Y-17987022D01*
X29975425Y-18003812D01*
X29922022Y-18030302D01*
X29877491Y-18066345D01*
X29831038Y-18127616D01*
X29802972Y-18198816D01*
X29793203Y-18282878D01*
X29619054Y-18282878D01*
X29614881Y-18224065D01*
X29621536Y-18144626D01*
X29641127Y-18070886D01*
X29673695Y-18001633D01*
X29718075Y-17939331D01*
X29774129Y-17885270D01*
X29843211Y-17838955D01*
X29919339Y-17805541D01*
X30007696Y-17784552D01*
X30110694Y-17777149D01*
X30140101Y-17777149D01*
X30243157Y-17784436D01*
G37*
G36*
X30608559Y-17388192D02*
G01*
X29812779Y-17388192D01*
X29812779Y-17658667D01*
X29642236Y-17658667D01*
X29642236Y-17388192D01*
X29430575Y-17388192D01*
X29374002Y-17381906D01*
X29327750Y-17364144D01*
X29289525Y-17335277D01*
X29260612Y-17297044D01*
X29242822Y-17250766D01*
X29236524Y-17194142D01*
X29236524Y-16945209D01*
X29407067Y-16945209D01*
X29407067Y-17129429D01*
X29413868Y-17161518D01*
X29432304Y-17179513D01*
X29465881Y-17186277D01*
X29642236Y-17186277D01*
X29642236Y-16908023D01*
X29812779Y-16908023D01*
X29812779Y-17186277D01*
X30608559Y-17186277D01*
X30608559Y-17388192D01*
G37*
G36*
X30635999Y-16705253D02*
G01*
X30630830Y-16749119D01*
X30615876Y-16786852D01*
X30590949Y-16819888D01*
X30558374Y-16845292D01*
X30520363Y-16860625D01*
X30475287Y-16865965D01*
X30430188Y-16860598D01*
X30392548Y-16845248D01*
X30360652Y-16819888D01*
X30336282Y-16786919D01*
X30321619Y-16749183D01*
X30316542Y-16705253D01*
X30321715Y-16661332D01*
X30336672Y-16623603D01*
X30361592Y-16590617D01*
X30394073Y-16565121D01*
X30431466Y-16549834D01*
X30475287Y-16544541D01*
X30520363Y-16549881D01*
X30558374Y-16565213D01*
X30590949Y-16590617D01*
X30615869Y-16623603D01*
X30630826Y-16661332D01*
X30635999Y-16705253D01*
G37*
G36*
X30608559Y-15502479D02*
G01*
X30599275Y-15566248D01*
X30573339Y-15614293D01*
X30547201Y-15638078D01*
X30515733Y-15652371D01*
X30477254Y-15657378D01*
X30471355Y-15657378D01*
X30471355Y-15686785D01*
X30540000Y-15733801D01*
X30575208Y-15770807D01*
X30607618Y-15825954D01*
X30628137Y-15892254D01*
X30635999Y-15986580D01*
X30626842Y-16086722D01*
X30600779Y-16171912D01*
X30573171Y-16222983D01*
X30538671Y-16265790D01*
X30496915Y-16301251D01*
X30449089Y-16327399D01*
X30394080Y-16343555D01*
X30330219Y-16349208D01*
X30265126Y-16343458D01*
X30210610Y-16327222D01*
X30164635Y-16301251D01*
X30124945Y-16265839D01*
X30092020Y-16222446D01*
X30065643Y-16169946D01*
X30040985Y-16082921D01*
X30032304Y-15980767D01*
X30032304Y-15968971D01*
X30189084Y-15968971D01*
X30198339Y-16043949D01*
X30223449Y-16098395D01*
X30249580Y-16125381D01*
X30282472Y-16141625D01*
X30324321Y-16147378D01*
X30366274Y-16141553D01*
X30400979Y-16124769D01*
X30430237Y-16096429D01*
X30451101Y-16060400D01*
X30464514Y-16014841D01*
X30469389Y-15957259D01*
X30461097Y-15878946D01*
X30437685Y-15814615D01*
X30399804Y-15761242D01*
X30349046Y-15720682D01*
X30286517Y-15695679D01*
X30208745Y-15686785D01*
X30189084Y-15686785D01*
X30189084Y-15968971D01*
X30032304Y-15968971D01*
X30032304Y-15686785D01*
X29969558Y-15686785D01*
X29915528Y-15692822D01*
X29871197Y-15709909D01*
X29834406Y-15737734D01*
X29807477Y-15774970D01*
X29789911Y-15825782D01*
X29783372Y-15894513D01*
X29789560Y-15962104D01*
X29806396Y-16013824D01*
X29832440Y-16053259D01*
X29867925Y-16085388D01*
X29909986Y-16109502D01*
X29959813Y-16125750D01*
X29899033Y-16313903D01*
X29824352Y-16283316D01*
X29756957Y-16238505D01*
X29700312Y-16179175D01*
X29654119Y-16100276D01*
X29633033Y-16041498D01*
X29619633Y-15972833D01*
X29614881Y-15892547D01*
X29621622Y-15798474D01*
X29640565Y-15719404D01*
X29670435Y-15652786D01*
X29710881Y-15596598D01*
X29762289Y-15550572D01*
X29823400Y-15517195D01*
X29896173Y-15496240D01*
X29983321Y-15488801D01*
X30381168Y-15488801D01*
X30414939Y-15482175D01*
X30433282Y-15464715D01*
X30439982Y-15433920D01*
X30439982Y-15351598D01*
X30608559Y-15351598D01*
X30608559Y-15502479D01*
G37*
G36*
X30626168Y-14810905D02*
G01*
X30620515Y-14882768D01*
X30604086Y-14947702D01*
X30577186Y-15006922D01*
X30540074Y-15060152D01*
X30494022Y-15105023D01*
X30438101Y-15142160D01*
X30376187Y-15168683D01*
X30304895Y-15185300D01*
X30222423Y-15191143D01*
X29642236Y-15191143D01*
X29642236Y-14989313D01*
X30208745Y-14989313D01*
X30289976Y-14981305D01*
X30349998Y-14959758D01*
X30393991Y-14926567D01*
X30426153Y-14881320D01*
X30446430Y-14824280D01*
X30453745Y-14752092D01*
X30444066Y-14673493D01*
X30416379Y-14608226D01*
X30370483Y-14553168D01*
X30310532Y-14513028D01*
X30232267Y-14487167D01*
X30130355Y-14477685D01*
X29642236Y-14477685D01*
X29642236Y-14275855D01*
X30608559Y-14275855D01*
X30608559Y-14473752D01*
X30463490Y-14473752D01*
X30463490Y-14505125D01*
X30518441Y-14541472D01*
X30574279Y-14603177D01*
X30601342Y-14653000D01*
X30619405Y-14720525D01*
X30626168Y-14810905D01*
G37*
G36*
X30608559Y-13218576D02*
G01*
X30471355Y-13218576D01*
X30471355Y-13249949D01*
X30529554Y-13295198D01*
X30585050Y-13362704D01*
X30611658Y-13415538D01*
X30629388Y-13486087D01*
X30635999Y-13579237D01*
X30629397Y-13657391D01*
X30609854Y-13730846D01*
X30577186Y-13800729D01*
X30532702Y-13863634D01*
X30476636Y-13918024D01*
X30407669Y-13964433D01*
X30331491Y-13997802D01*
X30243103Y-14018762D01*
X30140101Y-14026153D01*
X30110694Y-14026153D01*
X30008970Y-14018914D01*
X29920854Y-13998306D01*
X29844152Y-13965373D01*
X29774572Y-13919505D01*
X29718218Y-13865459D01*
X29673695Y-13802695D01*
X29641096Y-13732787D01*
X29621519Y-13658693D01*
X29614881Y-13579237D01*
X29618926Y-13522390D01*
X29793203Y-13522390D01*
X29802920Y-13605146D01*
X29830938Y-13675761D01*
X29877491Y-13737043D01*
X29922016Y-13773046D01*
X29975417Y-13799510D01*
X30039489Y-13816285D01*
X30116592Y-13822271D01*
X30134202Y-13822271D01*
X30212432Y-13816255D01*
X30277162Y-13799431D01*
X30330845Y-13772961D01*
X30375355Y-13737043D01*
X30421858Y-13675767D01*
X30449849Y-13605152D01*
X30459558Y-13522390D01*
X30449798Y-13438321D01*
X30421757Y-13367121D01*
X30375355Y-13305856D01*
X30330840Y-13269898D01*
X30277154Y-13243402D01*
X30212426Y-13226564D01*
X30134202Y-13220542D01*
X30116592Y-13220542D01*
X30039425Y-13226473D01*
X29975332Y-13243084D01*
X29921955Y-13269263D01*
X29877491Y-13304831D01*
X29831168Y-13365566D01*
X29803042Y-13437042D01*
X29793203Y-13522390D01*
X29618926Y-13522390D01*
X29621271Y-13489435D01*
X29638389Y-13421518D01*
X29665902Y-13361979D01*
X29698143Y-13316628D01*
X29736114Y-13279531D01*
X29773627Y-13253882D01*
X29773627Y-13222509D01*
X29236524Y-13222509D01*
X29236524Y-13020679D01*
X30608559Y-13020679D01*
X30608559Y-13218576D01*
G37*
G36*
X30608559Y-12723447D02*
G01*
X29642236Y-12723447D01*
X29642236Y-12521617D01*
X30608559Y-12521617D01*
X30608559Y-12723447D01*
G37*
G36*
X29510931Y-12621549D02*
G01*
X29501233Y-12676078D01*
X29472719Y-12720541D01*
X29445033Y-12742688D01*
X29412521Y-12756056D01*
X29373728Y-12760719D01*
X29334992Y-12756058D01*
X29302506Y-12742693D01*
X29274822Y-12720541D01*
X29246242Y-12676072D01*
X29236524Y-12621549D01*
X29246354Y-12565579D01*
X29274822Y-12521703D01*
X29302437Y-12500109D01*
X29334924Y-12487034D01*
X29373728Y-12482465D01*
X29412588Y-12487036D01*
X29445102Y-12500113D01*
X29472719Y-12521703D01*
X29501120Y-12565572D01*
X29510931Y-12621549D01*
G37*
G36*
X30240337Y-11276048D02*
G01*
X30327846Y-11297912D01*
X30404762Y-11333119D01*
X30473656Y-11381846D01*
X30530484Y-11440954D01*
X30576245Y-11511441D01*
X30608961Y-11589185D01*
X30629060Y-11674898D01*
X30635999Y-11770119D01*
X30629044Y-11865331D01*
X30608932Y-11950715D01*
X30576245Y-12027856D01*
X30530549Y-12097700D01*
X30473730Y-12156515D01*
X30404762Y-12205237D01*
X30327846Y-12240444D01*
X30240337Y-12262308D01*
X30140101Y-12269949D01*
X30110694Y-12269949D01*
X30010522Y-12262291D01*
X29923406Y-12240413D01*
X29847144Y-12205237D01*
X29778654Y-12156599D01*
X29721808Y-12097788D01*
X29675661Y-12027856D01*
X29642394Y-11950658D01*
X29621947Y-11865280D01*
X29614881Y-11770119D01*
X29795169Y-11770119D01*
X29805080Y-11854055D01*
X29833490Y-11924580D01*
X29880483Y-11984771D01*
X29925360Y-12020058D01*
X29978501Y-12045915D01*
X30041534Y-12062236D01*
X30116592Y-12068034D01*
X30134202Y-12068034D01*
X30209305Y-12062236D01*
X30272383Y-12045915D01*
X30325565Y-12020057D01*
X30370483Y-11984771D01*
X30417425Y-11924586D01*
X30445809Y-11854061D01*
X30455711Y-11770119D01*
X30445757Y-11684867D01*
X30417324Y-11613761D01*
X30370483Y-11553585D01*
X30325560Y-11518260D01*
X30272375Y-11492376D01*
X30209299Y-11476040D01*
X30134202Y-11470237D01*
X30116592Y-11470237D01*
X30041472Y-11475980D01*
X29978417Y-11492136D01*
X29925299Y-11517709D01*
X29880483Y-11552559D01*
X29833721Y-11612210D01*
X29805202Y-11683585D01*
X29795169Y-11770119D01*
X29614881Y-11770119D01*
X29621932Y-11674949D01*
X29642365Y-11589241D01*
X29675661Y-11511441D01*
X29721873Y-11440866D01*
X29778728Y-11381762D01*
X29847144Y-11333119D01*
X29923406Y-11297943D01*
X30010522Y-11276065D01*
X30110694Y-11268407D01*
X30140101Y-11268407D01*
X30240337Y-11276048D01*
G37*
G36*
X31078982Y-11149925D02*
G01*
X30906474Y-11149925D01*
X30906474Y-10900993D01*
X30899877Y-10871485D01*
X30881631Y-10854563D01*
X30847660Y-10848077D01*
X29369881Y-10848077D01*
X29335910Y-10854563D01*
X29317664Y-10871485D01*
X29311067Y-10900993D01*
X29311067Y-11149925D01*
X29138559Y-11149925D01*
X29138559Y-10830467D01*
X29144381Y-10780287D01*
X29161054Y-10738122D01*
X29188567Y-10702154D01*
X29224495Y-10674547D01*
X29266072Y-10657920D01*
X29315000Y-10652146D01*
X30902541Y-10652146D01*
X30951414Y-10657916D01*
X30992996Y-10674540D01*
X31028974Y-10702154D01*
X31056487Y-10738122D01*
X31073160Y-10780287D01*
X31078982Y-10830467D01*
X31078982Y-11149925D01*
G37*
D14*
%TO.C,G\u002A\u002A\u002A*%
G36*
X28605045Y-30288750D02*
G01*
X28605045Y-30422500D01*
X28137499Y-30422500D01*
X27669953Y-30422500D01*
X27669953Y-30786249D01*
X27669954Y-31150000D01*
X28137499Y-31149999D01*
X28605045Y-31149999D01*
X28605045Y-31283750D01*
X28605045Y-31417501D01*
X27622428Y-31417500D01*
X26639808Y-31417500D01*
X26640455Y-31284375D01*
X26641102Y-31151250D01*
X27044267Y-31150618D01*
X27447432Y-31149985D01*
X27447432Y-30786249D01*
X27447432Y-30422517D01*
X27044267Y-30421883D01*
X26641102Y-30421250D01*
X26640455Y-30288125D01*
X26639808Y-30155000D01*
X27622427Y-30155000D01*
X28605045Y-30155000D01*
X28605045Y-30288750D01*
G37*
G36*
X31062787Y-33908757D02*
G01*
X31062787Y-34272511D01*
X30462103Y-34271881D01*
X29861419Y-34271250D01*
X29860786Y-33915625D01*
X29860152Y-33560000D01*
X29928917Y-33560000D01*
X29997683Y-33560000D01*
X29997683Y-33835000D01*
X29997683Y-34110000D01*
X30176451Y-34110000D01*
X30355218Y-34110000D01*
X30355218Y-33847500D01*
X30355218Y-33585000D01*
X30422725Y-33585000D01*
X30490231Y-33585000D01*
X30490231Y-33847500D01*
X30490231Y-34110000D01*
X30707752Y-34110000D01*
X30925274Y-34110000D01*
X30925275Y-33827500D01*
X30925274Y-33545000D01*
X30994031Y-33545000D01*
X31062787Y-33545000D01*
X31062787Y-33908757D01*
G37*
G36*
X30481770Y-32838258D02*
G01*
X30502330Y-32845013D01*
X30521617Y-32856148D01*
X30535419Y-32867922D01*
X30549370Y-32885312D01*
X30559106Y-32905211D01*
X30564516Y-32927268D01*
X30565487Y-32951132D01*
X30564784Y-32959610D01*
X30560215Y-32979401D01*
X30551497Y-32998065D01*
X30539301Y-33014776D01*
X30524297Y-33028707D01*
X30507156Y-33039032D01*
X30497317Y-33042796D01*
X30473930Y-33047640D01*
X30450771Y-33047935D01*
X30428502Y-33043831D01*
X30407784Y-33035477D01*
X30389279Y-33023022D01*
X30382645Y-33016925D01*
X30368010Y-32998997D01*
X30357888Y-32979470D01*
X30352283Y-32958906D01*
X30351198Y-32937867D01*
X30354635Y-32916914D01*
X30362598Y-32896608D01*
X30375091Y-32877510D01*
X30381804Y-32869865D01*
X30399330Y-32854851D01*
X30418717Y-32844176D01*
X30439337Y-32837847D01*
X30460564Y-32835872D01*
X30481770Y-32838258D01*
G37*
G36*
X30481446Y-31845877D02*
G01*
X30501953Y-31852424D01*
X30521126Y-31863278D01*
X30535116Y-31875120D01*
X30549254Y-31892677D01*
X30559089Y-31912648D01*
X30564530Y-31934748D01*
X30565486Y-31958695D01*
X30564784Y-31967110D01*
X30560238Y-31986817D01*
X30551573Y-32005422D01*
X30539459Y-32022096D01*
X30524573Y-32036009D01*
X30507584Y-32046331D01*
X30497317Y-32050260D01*
X30473477Y-32055192D01*
X30450156Y-32055548D01*
X30427911Y-32051453D01*
X30407302Y-32043033D01*
X30388884Y-32030414D01*
X30382363Y-32024329D01*
X30367787Y-32006250D01*
X30357739Y-31986607D01*
X30352222Y-31965958D01*
X30351239Y-31944863D01*
X30354791Y-31923881D01*
X30362879Y-31903572D01*
X30375508Y-31884496D01*
X30381804Y-31877365D01*
X30399164Y-31862535D01*
X30418464Y-31851962D01*
X30439047Y-31845655D01*
X30460258Y-31843623D01*
X30481446Y-31845877D01*
G37*
G36*
X30476737Y-30852682D02*
G01*
X30497978Y-30858464D01*
X30517748Y-30868553D01*
X30535116Y-30882620D01*
X30549254Y-30900177D01*
X30559089Y-30920148D01*
X30564530Y-30942249D01*
X30565486Y-30966195D01*
X30564784Y-30974610D01*
X30560021Y-30995419D01*
X30550959Y-31014385D01*
X30538121Y-31030989D01*
X30522029Y-31044710D01*
X30503207Y-31055029D01*
X30482177Y-31061426D01*
X30476480Y-31062373D01*
X30453415Y-31063358D01*
X30431812Y-31060049D01*
X30412024Y-31052904D01*
X30394408Y-31042381D01*
X30379316Y-31028938D01*
X30367105Y-31013035D01*
X30358129Y-30995128D01*
X30352742Y-30975676D01*
X30351299Y-30955136D01*
X30354155Y-30933969D01*
X30361251Y-30913523D01*
X30369558Y-30899592D01*
X30381207Y-30885667D01*
X30394759Y-30873219D01*
X30408775Y-30863715D01*
X30411383Y-30862359D01*
X30432719Y-30854512D01*
X30454744Y-30851326D01*
X30476737Y-30852682D01*
G37*
G36*
X31062787Y-29911210D02*
G01*
X31062787Y-30242500D01*
X30994031Y-30242500D01*
X30925275Y-30242500D01*
X30925274Y-30116250D01*
X30925274Y-29990000D01*
X30466479Y-29990000D01*
X30418979Y-29990010D01*
X30372837Y-29990037D01*
X30328300Y-29990081D01*
X30285616Y-29990141D01*
X30245032Y-29990216D01*
X30206795Y-29990306D01*
X30171151Y-29990408D01*
X30138348Y-29990522D01*
X30108633Y-29990649D01*
X30082254Y-29990786D01*
X30059457Y-29990932D01*
X30040489Y-29991087D01*
X30025598Y-29991250D01*
X30015030Y-29991419D01*
X30009033Y-29991594D01*
X30007684Y-29991727D01*
X30008219Y-29994422D01*
X30009754Y-30001546D01*
X30012191Y-30012648D01*
X30015431Y-30027279D01*
X30019373Y-30044989D01*
X30023916Y-30065330D01*
X30028962Y-30087851D01*
X30034410Y-30112104D01*
X30037686Y-30126663D01*
X30043319Y-30151692D01*
X30048606Y-30175237D01*
X30053450Y-30196848D01*
X30057749Y-30216078D01*
X30061405Y-30232480D01*
X30064316Y-30245606D01*
X30066384Y-30255009D01*
X30067509Y-30260240D01*
X30067689Y-30261187D01*
X30065292Y-30261520D01*
X30058513Y-30261821D01*
X30047971Y-30262081D01*
X30034283Y-30262288D01*
X30018069Y-30262430D01*
X29999948Y-30262497D01*
X29994460Y-30262500D01*
X29921231Y-30262500D01*
X29890623Y-30124375D01*
X29860014Y-29986250D01*
X29860717Y-29908750D01*
X29861419Y-29831250D01*
X30393323Y-29830619D01*
X30925227Y-29829989D01*
X30925876Y-29705620D01*
X30926524Y-29581250D01*
X30994657Y-29580585D01*
X31062787Y-29579920D01*
X31062787Y-29911210D01*
G37*
G36*
X30775259Y-28635000D02*
G01*
X30775259Y-28714999D01*
X30919023Y-28715000D01*
X31062787Y-28714999D01*
X31062787Y-28796250D01*
X31062787Y-28877500D01*
X30919023Y-28877500D01*
X30775259Y-28877500D01*
X30775259Y-29131250D01*
X30775259Y-29385000D01*
X30698053Y-29385000D01*
X30643063Y-29385000D01*
X30620848Y-29385000D01*
X30241133Y-29144339D01*
X29861419Y-28903677D01*
X29861419Y-28879879D01*
X30012685Y-28879879D01*
X30015232Y-28881400D01*
X30021832Y-28885339D01*
X30032240Y-28891553D01*
X30046215Y-28899896D01*
X30063515Y-28910226D01*
X30083897Y-28922397D01*
X30107119Y-28936263D01*
X30132941Y-28951681D01*
X30161118Y-28968507D01*
X30191409Y-28986595D01*
X30223573Y-29005801D01*
X30257366Y-29025980D01*
X30292546Y-29046990D01*
X30328658Y-29068553D01*
X30364941Y-29090211D01*
X30400058Y-29111156D01*
X30433769Y-29131245D01*
X30465834Y-29150336D01*
X30496013Y-29168287D01*
X30524064Y-29184954D01*
X30549748Y-29200196D01*
X30572825Y-29213870D01*
X30593054Y-29225834D01*
X30610194Y-29235944D01*
X30624005Y-29244058D01*
X30634247Y-29250034D01*
X30640680Y-29253729D01*
X30643063Y-29255000D01*
X30643064Y-29255000D01*
X30643424Y-29252561D01*
X30643763Y-29245485D01*
X30644077Y-29234134D01*
X30644363Y-29218873D01*
X30644617Y-29200064D01*
X30644833Y-29178069D01*
X30645009Y-29153255D01*
X30645139Y-29125981D01*
X30645219Y-29096611D01*
X30645246Y-29066250D01*
X30645246Y-28877500D01*
X30327090Y-28877577D01*
X30283519Y-28877604D01*
X30242370Y-28877664D01*
X30203868Y-28877756D01*
X30168234Y-28877876D01*
X30135692Y-28878025D01*
X30106463Y-28878199D01*
X30080773Y-28878399D01*
X30058841Y-28878621D01*
X30040893Y-28878864D01*
X30027151Y-28879127D01*
X30017838Y-28879408D01*
X30013177Y-28879705D01*
X30012685Y-28879879D01*
X29861419Y-28879879D01*
X29861419Y-28809965D01*
X29861419Y-28716250D01*
X30253333Y-28715618D01*
X30645246Y-28714985D01*
X30645246Y-28634993D01*
X30645246Y-28554999D01*
X30710253Y-28555000D01*
X30775259Y-28554999D01*
X30775259Y-28635000D01*
G37*
G36*
X29495133Y-31451250D02*
G01*
X29495133Y-35595000D01*
X27583695Y-35595001D01*
X25672257Y-35595000D01*
X25672257Y-32187500D01*
X25672257Y-28780000D01*
X25841023Y-28780000D01*
X26009790Y-28780000D01*
X26009790Y-32018750D01*
X26009790Y-35257500D01*
X27584945Y-35257500D01*
X29160101Y-35257500D01*
X29160101Y-31450000D01*
X29160101Y-27642500D01*
X28990707Y-27642438D01*
X28981827Y-27642432D01*
X28968310Y-27642412D01*
X28950317Y-27642383D01*
X28928007Y-27642345D01*
X28901537Y-27642296D01*
X28871067Y-27642238D01*
X28836755Y-27642171D01*
X28798759Y-27642096D01*
X28757238Y-27642013D01*
X28712353Y-27641921D01*
X28664260Y-27641822D01*
X28613115Y-27641716D01*
X28559082Y-27641603D01*
X28502317Y-27641484D01*
X28442978Y-27641359D01*
X28381224Y-27641227D01*
X28317214Y-27641091D01*
X28251107Y-27640949D01*
X28183061Y-27640803D01*
X28113234Y-27640652D01*
X28041786Y-27640497D01*
X27968875Y-27640339D01*
X27894658Y-27640178D01*
X27819295Y-27640013D01*
X27742945Y-27639846D01*
X27665766Y-27639676D01*
X27587916Y-27639505D01*
X27509555Y-27639332D01*
X27430841Y-27639158D01*
X27351932Y-27638984D01*
X27272987Y-27638808D01*
X27194163Y-27638633D01*
X27115622Y-27638458D01*
X27037520Y-27638283D01*
X26960017Y-27638110D01*
X26883270Y-27637937D01*
X26807438Y-27637767D01*
X26732681Y-27637598D01*
X26659156Y-27637432D01*
X26587022Y-27637268D01*
X26516438Y-27637107D01*
X26447562Y-27636950D01*
X26380554Y-27636797D01*
X26315570Y-27636647D01*
X26252771Y-27636503D01*
X26192314Y-27636362D01*
X26134358Y-27636228D01*
X26079062Y-27636098D01*
X26026585Y-27635975D01*
X25977084Y-27635857D01*
X25930719Y-27635747D01*
X25887648Y-27635643D01*
X25848029Y-27635547D01*
X25812021Y-27635458D01*
X25779785Y-27635377D01*
X25751476Y-27635304D01*
X25727253Y-27635240D01*
X25707277Y-27635186D01*
X25691704Y-27635140D01*
X25680695Y-27635105D01*
X25674406Y-27635079D01*
X25672882Y-27635067D01*
X25672775Y-27632624D01*
X25672673Y-27625595D01*
X25672579Y-27614394D01*
X25672494Y-27599434D01*
X25672419Y-27581129D01*
X25672357Y-27559893D01*
X25672308Y-27536140D01*
X25672275Y-27510282D01*
X25672257Y-27482737D01*
X25672257Y-27471250D01*
X25672257Y-27307500D01*
X27583695Y-27307500D01*
X29495133Y-27307500D01*
X29495133Y-31451250D01*
G37*
G36*
X30775259Y-27642499D02*
G01*
X30775259Y-27722500D01*
X30919023Y-27722499D01*
X31062787Y-27722500D01*
X31062787Y-27803749D01*
X31062787Y-27885000D01*
X30919023Y-27885000D01*
X30775259Y-27885000D01*
X30775259Y-28140000D01*
X30775259Y-28395000D01*
X30699954Y-28395000D01*
X30643034Y-28395000D01*
X30624648Y-28395000D01*
X30253035Y-28159584D01*
X30213568Y-28134580D01*
X30175147Y-28110232D01*
X30137991Y-28086681D01*
X30102322Y-28064067D01*
X30068362Y-28042532D01*
X30036332Y-28022216D01*
X30006454Y-28003258D01*
X29978948Y-27985801D01*
X29954036Y-27969983D01*
X29931942Y-27955947D01*
X29912884Y-27943832D01*
X29897085Y-27933779D01*
X29884765Y-27925929D01*
X29876148Y-27920421D01*
X29871454Y-27917398D01*
X29870765Y-27916943D01*
X29860108Y-27909719D01*
X29860276Y-27885958D01*
X30010392Y-27885958D01*
X30012824Y-27887512D01*
X30019250Y-27891434D01*
X30029378Y-27897554D01*
X30042920Y-27905697D01*
X30059584Y-27915692D01*
X30079081Y-27927366D01*
X30101121Y-27940546D01*
X30125413Y-27955058D01*
X30151669Y-27970731D01*
X30179597Y-27987393D01*
X30208907Y-28004870D01*
X30239310Y-28022990D01*
X30270515Y-28041581D01*
X30302234Y-28060468D01*
X30334173Y-28079480D01*
X30366045Y-28098445D01*
X30397560Y-28117189D01*
X30428427Y-28135541D01*
X30458355Y-28153327D01*
X30487056Y-28170374D01*
X30514239Y-28186511D01*
X30539613Y-28201563D01*
X30562890Y-28215360D01*
X30583778Y-28227729D01*
X30601988Y-28238494D01*
X30617229Y-28247486D01*
X30629213Y-28254531D01*
X30637648Y-28259457D01*
X30642244Y-28262091D01*
X30643034Y-28262500D01*
X30643408Y-28260057D01*
X30643759Y-28252952D01*
X30644082Y-28241529D01*
X30644374Y-28226123D01*
X30644631Y-28207075D01*
X30644848Y-28184727D01*
X30645022Y-28159414D01*
X30645149Y-28131479D01*
X30645226Y-28101261D01*
X30645246Y-28073750D01*
X30645246Y-27885000D01*
X30327298Y-27885000D01*
X30287886Y-27885008D01*
X30249896Y-27885029D01*
X30213625Y-27885064D01*
X30179366Y-27885111D01*
X30147417Y-27885170D01*
X30118071Y-27885239D01*
X30091626Y-27885318D01*
X30068377Y-27885406D01*
X30048619Y-27885501D01*
X30032647Y-27885604D01*
X30020758Y-27885713D01*
X30013245Y-27885827D01*
X30010407Y-27885945D01*
X30010392Y-27885958D01*
X29860276Y-27885958D01*
X29860764Y-27816735D01*
X29861419Y-27723749D01*
X30253334Y-27723118D01*
X30645246Y-27722484D01*
X30645245Y-27642493D01*
X30645246Y-27562500D01*
X30710253Y-27562500D01*
X30775259Y-27562500D01*
X30775259Y-27642499D01*
G37*
G36*
X30529642Y-34535419D02*
G01*
X30580257Y-34539090D01*
X30628922Y-34544921D01*
X30667748Y-34551518D01*
X30720148Y-34563671D01*
X30768594Y-34578870D01*
X30813139Y-34597165D01*
X30853835Y-34618609D01*
X30890734Y-34643253D01*
X30923888Y-34671150D01*
X30953349Y-34702351D01*
X30979170Y-34736907D01*
X31001402Y-34774871D01*
X31020098Y-34816294D01*
X31035309Y-34861228D01*
X31047087Y-34909726D01*
X31051272Y-34932662D01*
X31053660Y-34947974D01*
X31055710Y-34963147D01*
X31057442Y-34978691D01*
X31058883Y-34995118D01*
X31060055Y-35012937D01*
X31060984Y-35032660D01*
X31061691Y-35054796D01*
X31062202Y-35079857D01*
X31062538Y-35108353D01*
X31062726Y-35140794D01*
X31062787Y-35177691D01*
X31062787Y-35180200D01*
X31062787Y-35312499D01*
X30462728Y-35312500D01*
X30461478Y-35312500D01*
X29860169Y-35312500D01*
X29860224Y-35196875D01*
X29860350Y-35153099D01*
X29860708Y-35113885D01*
X29861147Y-35089015D01*
X29995182Y-35089015D01*
X29995182Y-35150000D01*
X30462728Y-35150000D01*
X30930274Y-35150000D01*
X30930274Y-35100500D01*
X30930127Y-35082280D01*
X30929721Y-35062983D01*
X30929106Y-35044223D01*
X30928331Y-35027614D01*
X30927664Y-35017375D01*
X30923508Y-34978472D01*
X30917294Y-34943424D01*
X30908827Y-34911449D01*
X30897913Y-34881762D01*
X30889629Y-34863750D01*
X30875182Y-34838221D01*
X30858424Y-34815396D01*
X30839068Y-34795115D01*
X30816832Y-34777224D01*
X30791429Y-34761566D01*
X30762577Y-34747986D01*
X30729992Y-34736324D01*
X30693388Y-34726426D01*
X30652483Y-34718135D01*
X30614833Y-34712330D01*
X30598722Y-34710566D01*
X30578500Y-34709018D01*
X30555051Y-34707703D01*
X30529259Y-34706639D01*
X30502010Y-34705844D01*
X30474188Y-34705336D01*
X30446678Y-34705131D01*
X30420365Y-34705249D01*
X30396133Y-34705706D01*
X30374868Y-34706521D01*
X30362718Y-34707276D01*
X30311524Y-34712279D01*
X30264837Y-34719279D01*
X30222564Y-34728305D01*
X30184613Y-34739390D01*
X30150895Y-34752566D01*
X30121315Y-34767865D01*
X30095783Y-34785319D01*
X30074205Y-34804958D01*
X30071370Y-34808021D01*
X30051081Y-34833962D01*
X30033986Y-34863453D01*
X30020025Y-34896630D01*
X30009134Y-34933629D01*
X30005365Y-34950824D01*
X30002089Y-34968921D01*
X29999539Y-34986991D01*
X29997644Y-35005968D01*
X29996336Y-35026784D01*
X29995547Y-35050373D01*
X29995208Y-35077667D01*
X29995182Y-35089015D01*
X29861147Y-35089015D01*
X29861327Y-35078798D01*
X29862238Y-35047408D01*
X29863471Y-35019278D01*
X29865059Y-34993977D01*
X29867032Y-34971069D01*
X29869420Y-34950121D01*
X29872256Y-34930701D01*
X29875568Y-34912371D01*
X29879389Y-34894702D01*
X29882703Y-34881250D01*
X29895363Y-34838498D01*
X29910303Y-34799761D01*
X29927845Y-34764454D01*
X29948305Y-34731991D01*
X29972008Y-34701789D01*
X29993630Y-34678750D01*
X30024139Y-34651321D01*
X30056992Y-34627258D01*
X30092692Y-34606280D01*
X30131743Y-34588097D01*
X30174648Y-34572427D01*
X30189574Y-34567807D01*
X30230886Y-34557152D01*
X30275988Y-34548459D01*
X30324061Y-34541758D01*
X30374283Y-34537075D01*
X30425834Y-34534439D01*
X30477894Y-34533877D01*
X30529642Y-34535419D01*
G37*
G36*
X30508553Y-32554525D02*
G01*
X30565827Y-32557032D01*
X30621162Y-32561492D01*
X30673478Y-32567903D01*
X30696501Y-32571553D01*
X30751398Y-32582651D01*
X30802217Y-32596434D01*
X30848924Y-32612887D01*
X30891485Y-32631996D01*
X30929867Y-32653745D01*
X30964036Y-32678120D01*
X30985750Y-32697041D01*
X31012157Y-32724924D01*
X31034176Y-32754471D01*
X31052106Y-32786218D01*
X31066244Y-32820701D01*
X31076886Y-32858458D01*
X31077949Y-32863265D01*
X31080101Y-32876371D01*
X31081869Y-32893182D01*
X31083206Y-32912409D01*
X31084065Y-32932769D01*
X31084394Y-32952978D01*
X31084149Y-32971749D01*
X31083282Y-32987797D01*
X31082771Y-32992985D01*
X31076845Y-33027023D01*
X31067141Y-33061070D01*
X31054117Y-33093970D01*
X31038229Y-33124565D01*
X31020065Y-33151533D01*
X31010585Y-33162682D01*
X30998205Y-33175601D01*
X30984114Y-33189180D01*
X30969495Y-33202307D01*
X30955541Y-33213874D01*
X30945014Y-33221699D01*
X30908165Y-33244341D01*
X30867168Y-33264353D01*
X30822003Y-33281735D01*
X30772651Y-33296497D01*
X30719094Y-33308643D01*
X30661313Y-33318178D01*
X30599287Y-33325106D01*
X30565390Y-33327680D01*
X30546484Y-33328604D01*
X30523899Y-33329222D01*
X30498537Y-33329549D01*
X30477263Y-33329587D01*
X30471299Y-33329598D01*
X30443085Y-33329381D01*
X30414800Y-33328914D01*
X30387343Y-33328206D01*
X30361617Y-33327276D01*
X30338523Y-33326135D01*
X30318963Y-33324794D01*
X30308963Y-33323866D01*
X30248543Y-33316025D01*
X30192475Y-33305790D01*
X30140705Y-33293137D01*
X30093180Y-33278033D01*
X30049846Y-33260451D01*
X30010647Y-33240364D01*
X29975533Y-33217743D01*
X29944447Y-33192559D01*
X29917337Y-33164783D01*
X29894148Y-33134391D01*
X29874826Y-33101349D01*
X29871074Y-33093693D01*
X29858713Y-33062474D01*
X29849525Y-33028247D01*
X29843550Y-32991898D01*
X29840825Y-32954312D01*
X29840971Y-32944471D01*
X29968077Y-32944471D01*
X29970103Y-32968388D01*
X29976463Y-32995883D01*
X29986852Y-33021220D01*
X30001331Y-33044432D01*
X30019961Y-33065555D01*
X30042803Y-33084624D01*
X30069916Y-33101674D01*
X30101362Y-33116740D01*
X30137200Y-33129858D01*
X30177492Y-33141062D01*
X30222297Y-33150387D01*
X30271676Y-33157869D01*
X30302713Y-33161406D01*
X30319652Y-33162803D01*
X30340715Y-33164025D01*
X30365026Y-33165061D01*
X30391712Y-33165897D01*
X30419896Y-33166523D01*
X30448704Y-33166925D01*
X30477263Y-33167091D01*
X30504696Y-33167010D01*
X30530129Y-33166669D01*
X30552689Y-33166055D01*
X30571489Y-33165158D01*
X30626630Y-33160696D01*
X30677190Y-33154501D01*
X30723289Y-33146548D01*
X30765048Y-33136810D01*
X30802585Y-33125262D01*
X30836019Y-33111880D01*
X30848540Y-33105872D01*
X30875196Y-33090146D01*
X30898701Y-33071695D01*
X30918708Y-33050951D01*
X30934864Y-33028350D01*
X30946817Y-33004325D01*
X30954219Y-32979312D01*
X30955197Y-32973750D01*
X30956242Y-32962366D01*
X30956562Y-32947905D01*
X30956214Y-32932120D01*
X30955259Y-32916764D01*
X30953756Y-32903591D01*
X30952624Y-32897501D01*
X30945864Y-32877399D01*
X30935057Y-32856764D01*
X30920917Y-32836588D01*
X30904157Y-32817865D01*
X30885494Y-32801587D01*
X30881454Y-32798611D01*
X30857907Y-32783972D01*
X30830022Y-32770423D01*
X30798379Y-32758170D01*
X30763563Y-32747421D01*
X30726155Y-32738384D01*
X30696501Y-32732812D01*
X30668998Y-32728547D01*
X30642313Y-32725053D01*
X30615581Y-32722273D01*
X30587940Y-32720148D01*
X30558525Y-32718620D01*
X30526472Y-32717630D01*
X30490918Y-32717118D01*
X30462728Y-32717017D01*
X30402561Y-32717779D01*
X30346973Y-32720095D01*
X30295775Y-32724000D01*
X30248783Y-32729531D01*
X30205810Y-32736723D01*
X30166668Y-32745614D01*
X30131171Y-32756239D01*
X30099134Y-32768634D01*
X30070368Y-32782836D01*
X30046255Y-32797789D01*
X30022677Y-32816880D01*
X30003092Y-32838621D01*
X29987670Y-32862631D01*
X29976579Y-32888530D01*
X29969992Y-32915937D01*
X29968077Y-32944471D01*
X29840971Y-32944471D01*
X29841389Y-32916374D01*
X29845281Y-32878970D01*
X29852537Y-32842987D01*
X29859338Y-32820000D01*
X29873868Y-32784775D01*
X29892773Y-32751901D01*
X29915996Y-32721416D01*
X29943480Y-32693360D01*
X29975165Y-32667772D01*
X30010995Y-32644687D01*
X30050911Y-32624149D01*
X30094855Y-32606193D01*
X30142770Y-32590860D01*
X30194598Y-32578187D01*
X30230973Y-32571291D01*
X30281713Y-32564029D01*
X30335922Y-32558722D01*
X30392519Y-32555368D01*
X30450424Y-32553971D01*
X30508553Y-32554525D01*
G37*
G36*
X30512904Y-31562538D02*
G01*
X30521933Y-31562801D01*
X30586483Y-31566107D01*
X30646812Y-31571892D01*
X30703054Y-31580184D01*
X30755344Y-31591011D01*
X30803817Y-31604397D01*
X30848611Y-31620372D01*
X30884162Y-31636139D01*
X30923689Y-31657701D01*
X30958841Y-31681676D01*
X30989638Y-31708089D01*
X31016100Y-31736968D01*
X31038246Y-31768340D01*
X31056098Y-31802230D01*
X31069674Y-31838667D01*
X31078995Y-31877676D01*
X31082630Y-31903027D01*
X31084299Y-31925347D01*
X31084870Y-31950310D01*
X31084344Y-31975681D01*
X31082726Y-31999225D01*
X31082524Y-32001204D01*
X31077048Y-32033915D01*
X31067701Y-32067143D01*
X31054982Y-32099617D01*
X31039396Y-32130068D01*
X31021445Y-32157226D01*
X31020065Y-32159034D01*
X31010586Y-32170182D01*
X30998205Y-32183101D01*
X30984113Y-32196680D01*
X30969495Y-32209807D01*
X30955541Y-32221374D01*
X30945014Y-32229198D01*
X30908237Y-32251796D01*
X30867297Y-32271782D01*
X30822172Y-32289165D01*
X30772843Y-32303946D01*
X30719293Y-32316134D01*
X30661502Y-32325732D01*
X30599452Y-32332747D01*
X30572271Y-32334913D01*
X30554915Y-32335860D01*
X30533609Y-32336582D01*
X30509399Y-32337080D01*
X30483328Y-32337353D01*
X30461027Y-32337394D01*
X30456444Y-32337402D01*
X30429790Y-32337225D01*
X30404413Y-32336823D01*
X30381355Y-32336197D01*
X30361665Y-32335345D01*
X30354791Y-32334930D01*
X30291852Y-32329260D01*
X30232796Y-32320962D01*
X30177693Y-32310055D01*
X30126612Y-32296559D01*
X30079619Y-32280492D01*
X30036783Y-32261875D01*
X29998176Y-32240727D01*
X29980461Y-32229198D01*
X29963441Y-32216263D01*
X29945330Y-32200441D01*
X29927599Y-32183145D01*
X29911715Y-32165783D01*
X29902462Y-32154319D01*
X29883125Y-32124656D01*
X29867215Y-32091795D01*
X29854861Y-32056296D01*
X29846190Y-32018715D01*
X29841330Y-31979614D01*
X29840914Y-31961552D01*
X29968679Y-31961552D01*
X29969739Y-31972227D01*
X29975568Y-31999990D01*
X29985412Y-32025604D01*
X29999327Y-32049098D01*
X30017368Y-32070502D01*
X30039591Y-32089844D01*
X30066054Y-32107156D01*
X30096809Y-32122466D01*
X30131916Y-32135804D01*
X30171430Y-32147199D01*
X30215406Y-32156682D01*
X30263900Y-32164283D01*
X30316970Y-32170027D01*
X30348967Y-32172463D01*
X30365491Y-32173307D01*
X30385924Y-32173967D01*
X30409299Y-32174445D01*
X30434656Y-32174740D01*
X30461026Y-32174853D01*
X30487450Y-32174783D01*
X30512961Y-32174530D01*
X30536595Y-32174095D01*
X30557388Y-32173477D01*
X30574377Y-32172677D01*
X30577740Y-32172460D01*
X30632703Y-32167681D01*
X30683046Y-32161192D01*
X30728865Y-32152950D01*
X30770253Y-32142918D01*
X30807305Y-32131053D01*
X30840113Y-32117318D01*
X30868773Y-32101670D01*
X30893378Y-32084070D01*
X30914023Y-32064476D01*
X30930802Y-32042851D01*
X30943808Y-32019152D01*
X30945596Y-32015043D01*
X30949712Y-32003646D01*
X30953242Y-31991092D01*
X30955029Y-31982365D01*
X30956154Y-31970407D01*
X30956526Y-31955492D01*
X30956200Y-31939372D01*
X30955230Y-31923796D01*
X30953671Y-31910516D01*
X30952624Y-31905000D01*
X30947013Y-31887882D01*
X30938152Y-31869574D01*
X30926934Y-31851682D01*
X30914255Y-31835812D01*
X30913746Y-31835259D01*
X30893107Y-31815861D01*
X30868869Y-31798432D01*
X30840891Y-31782926D01*
X30809032Y-31769296D01*
X30773151Y-31757498D01*
X30733106Y-31747484D01*
X30688757Y-31739210D01*
X30639961Y-31732628D01*
X30586578Y-31727692D01*
X30582740Y-31727414D01*
X30566049Y-31726483D01*
X30545320Y-31725750D01*
X30521511Y-31725217D01*
X30495580Y-31724880D01*
X30468487Y-31724742D01*
X30441188Y-31724801D01*
X30414643Y-31725057D01*
X30389809Y-31725511D01*
X30367646Y-31726163D01*
X30349110Y-31727012D01*
X30342717Y-31727422D01*
X30288367Y-31732318D01*
X30238624Y-31738934D01*
X30193384Y-31747308D01*
X30152540Y-31757480D01*
X30115991Y-31769490D01*
X30083634Y-31783376D01*
X30055361Y-31799177D01*
X30031073Y-31816933D01*
X30010664Y-31836682D01*
X29994029Y-31858465D01*
X29993578Y-31859165D01*
X29981696Y-31882045D01*
X29973428Y-31907487D01*
X29969009Y-31934365D01*
X29968679Y-31961552D01*
X29840914Y-31961552D01*
X29840408Y-31939550D01*
X29843553Y-31899082D01*
X29843767Y-31897445D01*
X29850893Y-31858053D01*
X29861451Y-31822024D01*
X29875688Y-31788865D01*
X29893850Y-31758088D01*
X29916182Y-31729200D01*
X29940861Y-31703646D01*
X29972209Y-31677456D01*
X30007772Y-31653918D01*
X30047522Y-31633039D01*
X30091432Y-31614825D01*
X30139472Y-31599284D01*
X30191617Y-31586422D01*
X30247837Y-31576246D01*
X30308103Y-31568763D01*
X30372388Y-31563980D01*
X30440664Y-31561902D01*
X30512904Y-31562538D01*
G37*
G36*
X30520448Y-30570574D02*
G01*
X30543031Y-30571044D01*
X30562298Y-30571774D01*
X30571872Y-30572337D01*
X30635861Y-30578256D01*
X30695598Y-30586802D01*
X30751081Y-30597975D01*
X30802312Y-30611774D01*
X30849289Y-30628200D01*
X30892012Y-30647253D01*
X30930482Y-30668932D01*
X30964697Y-30693237D01*
X30994658Y-30720168D01*
X31020365Y-30749725D01*
X31041816Y-30781907D01*
X31059012Y-30816715D01*
X31071953Y-30854148D01*
X31074802Y-30865054D01*
X31080463Y-30894763D01*
X31083881Y-30927486D01*
X31084976Y-30961727D01*
X31083666Y-30995993D01*
X31082524Y-31008704D01*
X31077112Y-31041112D01*
X31067882Y-31074074D01*
X31055343Y-31106317D01*
X31039994Y-31136564D01*
X31022341Y-31163541D01*
X31020273Y-31166263D01*
X31008730Y-31179802D01*
X30994141Y-31194761D01*
X30977754Y-31209997D01*
X30960817Y-31224371D01*
X30944580Y-31236742D01*
X30939025Y-31240563D01*
X30906951Y-31260008D01*
X30872345Y-31277308D01*
X30834878Y-31292558D01*
X30794224Y-31305858D01*
X30750052Y-31317306D01*
X30702035Y-31326998D01*
X30649844Y-31335032D01*
X30602742Y-31340550D01*
X30589113Y-31341600D01*
X30571243Y-31342447D01*
X30549890Y-31343095D01*
X30525808Y-31343546D01*
X30499755Y-31343806D01*
X30472487Y-31343877D01*
X30457796Y-31343816D01*
X30444758Y-31343761D01*
X30417326Y-31343466D01*
X30390947Y-31342991D01*
X30366377Y-31342341D01*
X30344371Y-31341520D01*
X30325688Y-31340532D01*
X30311080Y-31339380D01*
X30309172Y-31339180D01*
X30250056Y-31331428D01*
X30195356Y-31321542D01*
X30144947Y-31309473D01*
X30098701Y-31295177D01*
X30056490Y-31278604D01*
X30018189Y-31259710D01*
X29983671Y-31238447D01*
X29952808Y-31214768D01*
X29939707Y-31202960D01*
X29912456Y-31173884D01*
X29889630Y-31142595D01*
X29871296Y-31109206D01*
X29857520Y-31073826D01*
X29852828Y-31057295D01*
X29844605Y-31016097D01*
X29840624Y-30974924D01*
X29840661Y-30966475D01*
X29968457Y-30966475D01*
X29969926Y-30981472D01*
X29975896Y-31008968D01*
X29985852Y-31034332D01*
X29999853Y-31057596D01*
X30017958Y-31078790D01*
X30040227Y-31097945D01*
X30066720Y-31115092D01*
X30097495Y-31130263D01*
X30132612Y-31143487D01*
X30172130Y-31154796D01*
X30216110Y-31164221D01*
X30264609Y-31171792D01*
X30317689Y-31177541D01*
X30352526Y-31180178D01*
X30367576Y-31180911D01*
X30386404Y-31181450D01*
X30408234Y-31181805D01*
X30432289Y-31181982D01*
X30457796Y-31181990D01*
X30483977Y-31181835D01*
X30510058Y-31181526D01*
X30535262Y-31181069D01*
X30558814Y-31180473D01*
X30579937Y-31179747D01*
X30597858Y-31178894D01*
X30611799Y-31177925D01*
X30615243Y-31177597D01*
X30666117Y-31171362D01*
X30712349Y-31163710D01*
X30754110Y-31154575D01*
X30791574Y-31143889D01*
X30824913Y-31131586D01*
X30854299Y-31117599D01*
X30879903Y-31101862D01*
X30901899Y-31084306D01*
X30920460Y-31064867D01*
X30926648Y-31056972D01*
X30936930Y-31040574D01*
X30945789Y-31021659D01*
X30952329Y-31002349D01*
X30955038Y-30989793D01*
X30956158Y-30977873D01*
X30956527Y-30962986D01*
X30956201Y-30946887D01*
X30955232Y-30931324D01*
X30953678Y-30918050D01*
X30952624Y-30912501D01*
X30947183Y-30895847D01*
X30938609Y-30877927D01*
X30927820Y-30860404D01*
X30915738Y-30844937D01*
X30914335Y-30843394D01*
X30893184Y-30823568D01*
X30868270Y-30805770D01*
X30839475Y-30789960D01*
X30806681Y-30776101D01*
X30769774Y-30764155D01*
X30728635Y-30754083D01*
X30683147Y-30745848D01*
X30633193Y-30739411D01*
X30581490Y-30734927D01*
X30565523Y-30734074D01*
X30545596Y-30733398D01*
X30522638Y-30732900D01*
X30497574Y-30732577D01*
X30471332Y-30732431D01*
X30444841Y-30732462D01*
X30419026Y-30732670D01*
X30394814Y-30733054D01*
X30373133Y-30733614D01*
X30354909Y-30734352D01*
X30345217Y-30734935D01*
X30292420Y-30739614D01*
X30244239Y-30745746D01*
X30200488Y-30753390D01*
X30160980Y-30762603D01*
X30125533Y-30773443D01*
X30093957Y-30785968D01*
X30066068Y-30800234D01*
X30041680Y-30816299D01*
X30020608Y-30834222D01*
X30018634Y-30836159D01*
X29999627Y-30858474D01*
X29984968Y-30883075D01*
X29974794Y-30909550D01*
X29969245Y-30937488D01*
X29968457Y-30966475D01*
X29840661Y-30966475D01*
X29840802Y-30934250D01*
X29845064Y-30894547D01*
X29853330Y-30856286D01*
X29865522Y-30819941D01*
X29881561Y-30785985D01*
X29901368Y-30754889D01*
X29903743Y-30751703D01*
X29927305Y-30724379D01*
X29955242Y-30698681D01*
X29987106Y-30674917D01*
X30022446Y-30653396D01*
X30060815Y-30634428D01*
X30093253Y-30621348D01*
X30124070Y-30611211D01*
X30158950Y-30601739D01*
X30196973Y-30593127D01*
X30237224Y-30585572D01*
X30278783Y-30579269D01*
X30305213Y-30576032D01*
X30320218Y-30574701D01*
X30339391Y-30573525D01*
X30361900Y-30572514D01*
X30386912Y-30571680D01*
X30413599Y-30571036D01*
X30441127Y-30570590D01*
X30468665Y-30570358D01*
X30495383Y-30570348D01*
X30520448Y-30570574D01*
G37*
G36*
X27708236Y-33373873D02*
G01*
X27784250Y-33377228D01*
X27858635Y-33382722D01*
X27930620Y-33390358D01*
X27999436Y-33400139D01*
X28042453Y-33407714D01*
X28110848Y-33422496D01*
X28175181Y-33439951D01*
X28235416Y-33460064D01*
X28291518Y-33482821D01*
X28343450Y-33508205D01*
X28391177Y-33536203D01*
X28434663Y-33566800D01*
X28440029Y-33570989D01*
X28452545Y-33581542D01*
X28466944Y-33594768D01*
X28482310Y-33609724D01*
X28497722Y-33625468D01*
X28512264Y-33641055D01*
X28525017Y-33655544D01*
X28535063Y-33667991D01*
X28536915Y-33670496D01*
X28542264Y-33678176D01*
X28548750Y-33687925D01*
X28555851Y-33698906D01*
X28563045Y-33710277D01*
X28569808Y-33721201D01*
X28575618Y-33730837D01*
X28579951Y-33738346D01*
X28582285Y-33742889D01*
X28582543Y-33743731D01*
X28583509Y-33746225D01*
X28586078Y-33752124D01*
X28589750Y-33760295D01*
X28590939Y-33762902D01*
X28608331Y-33806309D01*
X28622374Y-33852958D01*
X28632979Y-33902300D01*
X28640055Y-33953786D01*
X28643511Y-34006866D01*
X28643257Y-34060987D01*
X28642498Y-34076442D01*
X28637090Y-34133097D01*
X28627705Y-34186749D01*
X28614305Y-34237475D01*
X28596854Y-34285353D01*
X28575314Y-34330460D01*
X28549647Y-34372871D01*
X28519815Y-34412666D01*
X28485782Y-34449921D01*
X28447509Y-34484713D01*
X28441459Y-34489677D01*
X28403861Y-34517394D01*
X28361832Y-34543314D01*
X28315653Y-34567318D01*
X28265604Y-34589285D01*
X28211966Y-34609096D01*
X28155018Y-34626630D01*
X28095041Y-34641769D01*
X28076081Y-34645913D01*
X28012863Y-34657785D01*
X27945780Y-34667649D01*
X27875549Y-34675502D01*
X27802885Y-34681335D01*
X27728506Y-34685145D01*
X27653129Y-34686926D01*
X27626095Y-34686836D01*
X27577471Y-34686672D01*
X27502247Y-34684381D01*
X27428175Y-34680044D01*
X27355972Y-34673657D01*
X27286355Y-34665213D01*
X27220039Y-34654710D01*
X27207407Y-34652394D01*
X27138718Y-34637776D01*
X27074260Y-34620501D01*
X27014017Y-34600560D01*
X26957975Y-34577938D01*
X26906121Y-34552623D01*
X26858439Y-34524604D01*
X26814917Y-34493869D01*
X26775539Y-34460405D01*
X26740291Y-34424201D01*
X26709160Y-34385244D01*
X26682130Y-34343522D01*
X26659188Y-34299024D01*
X26640320Y-34251737D01*
X26625511Y-34201650D01*
X26614973Y-34150144D01*
X26608808Y-34101091D01*
X26605981Y-34050797D01*
X26606204Y-34025124D01*
X26821544Y-34025124D01*
X26821782Y-34047804D01*
X26822857Y-34069330D01*
X26824770Y-34088183D01*
X26825835Y-34094999D01*
X26834975Y-34133200D01*
X26848314Y-34168731D01*
X26865865Y-34201606D01*
X26887637Y-34231837D01*
X26913639Y-34259433D01*
X26943884Y-34284405D01*
X26978380Y-34306764D01*
X27017139Y-34326521D01*
X27060170Y-34343687D01*
X27063518Y-34344852D01*
X27107689Y-34358476D01*
X27156556Y-34370514D01*
X27210071Y-34380962D01*
X27268188Y-34389814D01*
X27330856Y-34397065D01*
X27398029Y-34402708D01*
X27469658Y-34406739D01*
X27545697Y-34409152D01*
X27626095Y-34409941D01*
X27626199Y-34409941D01*
X27707536Y-34409086D01*
X27784276Y-34406574D01*
X27856405Y-34402408D01*
X27923911Y-34396592D01*
X27986778Y-34389125D01*
X28044995Y-34380010D01*
X28098544Y-34369249D01*
X28147416Y-34356844D01*
X28191595Y-34342797D01*
X28231067Y-34327110D01*
X28243760Y-34321236D01*
X28280728Y-34301049D01*
X28313870Y-34277982D01*
X28343054Y-34252161D01*
X28368146Y-34223716D01*
X28389011Y-34192776D01*
X28400447Y-34170956D01*
X28408515Y-34150954D01*
X28415732Y-34127750D01*
X28421643Y-34103124D01*
X28425801Y-34078859D01*
X28427282Y-34065000D01*
X28428158Y-34053738D01*
X28428908Y-34044115D01*
X28429434Y-34037369D01*
X28429620Y-34035000D01*
X28429547Y-34031156D01*
X28429133Y-34023440D01*
X28428445Y-34012963D01*
X28427549Y-34000836D01*
X28427527Y-34000547D01*
X28422497Y-33961165D01*
X28413699Y-33924478D01*
X28401060Y-33890422D01*
X28384506Y-33858932D01*
X28363968Y-33829944D01*
X28339372Y-33803394D01*
X28310646Y-33779218D01*
X28277719Y-33757352D01*
X28240517Y-33737732D01*
X28198969Y-33720293D01*
X28153004Y-33704972D01*
X28102546Y-33691705D01*
X28072493Y-33685187D01*
X28035220Y-33678146D01*
X27997439Y-33672020D01*
X27958599Y-33666763D01*
X27918147Y-33662328D01*
X27875530Y-33658669D01*
X27830197Y-33655736D01*
X27781596Y-33653485D01*
X27729173Y-33651868D01*
X27672375Y-33650838D01*
X27667453Y-33650778D01*
X27587762Y-33650530D01*
X27512732Y-33651743D01*
X27442239Y-33654430D01*
X27376159Y-33658603D01*
X27314367Y-33664277D01*
X27256738Y-33671462D01*
X27203149Y-33680173D01*
X27153474Y-33690421D01*
X27107589Y-33702220D01*
X27077595Y-33711430D01*
X27033099Y-33727854D01*
X26993100Y-33746348D01*
X26957503Y-33767011D01*
X26926209Y-33789939D01*
X26899123Y-33815230D01*
X26876147Y-33842984D01*
X26857184Y-33873297D01*
X26842137Y-33906267D01*
X26830909Y-33941991D01*
X26825859Y-33965373D01*
X26823584Y-33982387D01*
X26822145Y-34002812D01*
X26821544Y-34025124D01*
X26606204Y-34025124D01*
X26606421Y-34000106D01*
X26610061Y-33949864D01*
X26616830Y-33900914D01*
X26626660Y-33854101D01*
X26639482Y-33810269D01*
X26643766Y-33798195D01*
X26663635Y-33751514D01*
X26687679Y-33707566D01*
X26715898Y-33666347D01*
X26748296Y-33627856D01*
X26784874Y-33592092D01*
X26825635Y-33559054D01*
X26870582Y-33528738D01*
X26919716Y-33501144D01*
X26973040Y-33476271D01*
X27030557Y-33454115D01*
X27092269Y-33434677D01*
X27158177Y-33417953D01*
X27195155Y-33410122D01*
X27261026Y-33398559D01*
X27330656Y-33389121D01*
X27403274Y-33381809D01*
X27478111Y-33376627D01*
X27554396Y-33373574D01*
X27631361Y-33372657D01*
X27708236Y-33373873D01*
G37*
G36*
X28101095Y-31776613D02*
G01*
X28126912Y-31777296D01*
X28149648Y-31778519D01*
X28170255Y-31780379D01*
X28189687Y-31782972D01*
X28208898Y-31786396D01*
X28228841Y-31790746D01*
X28240210Y-31793504D01*
X28273205Y-31803009D01*
X28306747Y-31815025D01*
X28339523Y-31828985D01*
X28370216Y-31844316D01*
X28397513Y-31860449D01*
X28402914Y-31864038D01*
X28440968Y-31892918D01*
X28475891Y-31925658D01*
X28507632Y-31962177D01*
X28536140Y-32002396D01*
X28561360Y-32046235D01*
X28583245Y-32093614D01*
X28601742Y-32144452D01*
X28615916Y-32195000D01*
X28621942Y-32222205D01*
X28627675Y-32252805D01*
X28632832Y-32285196D01*
X28636391Y-32311605D01*
X28637531Y-32322539D01*
X28638734Y-32336979D01*
X28639947Y-32353967D01*
X28641120Y-32372553D01*
X28642203Y-32391784D01*
X28643144Y-32410709D01*
X28643892Y-32428373D01*
X28644398Y-32443826D01*
X28644610Y-32456114D01*
X28644504Y-32463750D01*
X28644190Y-32471220D01*
X28643795Y-32481571D01*
X28643396Y-32492687D01*
X28643361Y-32493750D01*
X28638979Y-32562703D01*
X28630563Y-32633607D01*
X28618278Y-32705701D01*
X28602286Y-32778220D01*
X28582750Y-32850400D01*
X28559835Y-32921476D01*
X28541076Y-32972197D01*
X28526300Y-33010000D01*
X28385367Y-33010000D01*
X28244435Y-33010000D01*
X28248063Y-33004375D01*
X28269661Y-32969308D01*
X28291468Y-32930939D01*
X28312827Y-32890572D01*
X28333082Y-32849511D01*
X28351576Y-32809060D01*
X28367649Y-32770523D01*
X28373136Y-32756250D01*
X28390584Y-32704494D01*
X28404793Y-32651456D01*
X28415729Y-32597689D01*
X28423361Y-32543751D01*
X28427655Y-32490195D01*
X28428579Y-32437577D01*
X28426105Y-32386452D01*
X28420193Y-32337374D01*
X28410816Y-32290900D01*
X28402103Y-32260000D01*
X28387605Y-32221542D01*
X28369558Y-32185600D01*
X28348261Y-32152602D01*
X28324013Y-32122974D01*
X28297112Y-32097143D01*
X28277513Y-32082004D01*
X28246640Y-32063350D01*
X28212739Y-32048567D01*
X28176005Y-32037708D01*
X28136634Y-32030820D01*
X28094822Y-32027955D01*
X28067493Y-32028231D01*
X28025427Y-32031568D01*
X27986977Y-32038265D01*
X27951921Y-32048478D01*
X27920041Y-32062357D01*
X27891116Y-32080053D01*
X27864926Y-32101720D01*
X27841252Y-32127509D01*
X27819874Y-32157574D01*
X27800572Y-32192066D01*
X27786525Y-32222836D01*
X27781697Y-32234558D01*
X27777255Y-32245823D01*
X27773077Y-32257067D01*
X27769043Y-32268728D01*
X27765030Y-32281243D01*
X27760921Y-32295050D01*
X27756591Y-32310584D01*
X27751920Y-32328285D01*
X27746788Y-32348586D01*
X27741073Y-32371927D01*
X27734654Y-32398745D01*
X27727410Y-32429476D01*
X27719220Y-32464558D01*
X27717372Y-32472500D01*
X27708003Y-32512093D01*
X27699285Y-32547361D01*
X27691046Y-32578909D01*
X27683111Y-32607348D01*
X27675308Y-32633280D01*
X27667463Y-32657313D01*
X27659401Y-32680054D01*
X27653742Y-32695000D01*
X27646919Y-32711761D01*
X27638762Y-32730494D01*
X27629853Y-32749968D01*
X27620773Y-32768951D01*
X27612103Y-32786210D01*
X27604426Y-32800515D01*
X27601842Y-32805000D01*
X27575157Y-32846419D01*
X27546764Y-32883254D01*
X27516422Y-32915703D01*
X27483890Y-32943963D01*
X27448927Y-32968231D01*
X27411292Y-32988705D01*
X27370743Y-33005582D01*
X27346831Y-33013487D01*
X27322624Y-33020230D01*
X27299172Y-33025444D01*
X27275241Y-33029306D01*
X27249597Y-33031992D01*
X27221007Y-33033676D01*
X27201157Y-33034299D01*
X27156657Y-33034269D01*
X27115530Y-33031934D01*
X27076633Y-33027135D01*
X27038823Y-33019712D01*
X27000956Y-33009505D01*
X26983345Y-33003879D01*
X26936651Y-32985716D01*
X26892552Y-32963288D01*
X26850990Y-32936559D01*
X26811910Y-32905494D01*
X26788964Y-32884102D01*
X26752940Y-32845013D01*
X26720834Y-32802896D01*
X26692657Y-32757842D01*
X26668416Y-32709940D01*
X26648121Y-32659279D01*
X26631779Y-32605948D01*
X26619399Y-32550036D01*
X26610990Y-32491633D01*
X26606561Y-32430828D01*
X26606119Y-32367710D01*
X26609674Y-32302368D01*
X26617234Y-32234891D01*
X26628807Y-32165369D01*
X26644403Y-32093891D01*
X26664030Y-32020545D01*
X26687695Y-31945422D01*
X26696402Y-31920232D01*
X26707960Y-31887500D01*
X26841422Y-31887500D01*
X26866732Y-31887524D01*
X26890471Y-31887589D01*
X26912183Y-31887696D01*
X26931410Y-31887836D01*
X26947693Y-31888007D01*
X26960573Y-31888204D01*
X26969594Y-31888422D01*
X26974296Y-31888657D01*
X26974885Y-31888777D01*
X26973663Y-31891313D01*
X26970364Y-31897144D01*
X26965542Y-31905310D01*
X26961556Y-31911902D01*
X26930604Y-31965822D01*
X26903777Y-32019548D01*
X26880437Y-32074414D01*
X26868179Y-32107477D01*
X26852240Y-32156566D01*
X26839863Y-32203539D01*
X26830838Y-32249568D01*
X26824964Y-32295826D01*
X26822033Y-32343488D01*
X26821603Y-32373749D01*
X26822640Y-32417361D01*
X26825649Y-32457051D01*
X26830773Y-32493552D01*
X26838150Y-32527595D01*
X26847921Y-32559914D01*
X26860224Y-32591236D01*
X26865259Y-32602322D01*
X26883853Y-32636839D01*
X26905677Y-32668408D01*
X26930369Y-32696678D01*
X26957571Y-32721292D01*
X26986922Y-32741897D01*
X27018064Y-32758138D01*
X27027390Y-32761986D01*
X27057473Y-32771483D01*
X27090446Y-32778001D01*
X27125167Y-32781514D01*
X27160494Y-32781994D01*
X27195281Y-32779417D01*
X27228385Y-32773754D01*
X27252341Y-32767167D01*
X27280133Y-32756247D01*
X27305223Y-32742518D01*
X27327927Y-32725649D01*
X27348560Y-32705309D01*
X27367436Y-32681168D01*
X27384868Y-32652893D01*
X27401172Y-32620155D01*
X27408796Y-32602500D01*
X27416469Y-32583321D01*
X27423636Y-32563986D01*
X27430474Y-32543893D01*
X27437153Y-32522443D01*
X27443846Y-32499035D01*
X27450725Y-32473068D01*
X27457962Y-32443940D01*
X27465729Y-32411051D01*
X27473650Y-32376250D01*
X27481438Y-32341970D01*
X27488486Y-32311900D01*
X27494981Y-32285337D01*
X27501107Y-32261578D01*
X27507047Y-32239918D01*
X27512984Y-32219656D01*
X27519107Y-32200086D01*
X27522406Y-32190000D01*
X27542635Y-32134071D01*
X27564737Y-32082682D01*
X27588799Y-32035705D01*
X27614911Y-31993009D01*
X27643162Y-31954463D01*
X27673640Y-31919939D01*
X27706437Y-31889306D01*
X27741639Y-31862433D01*
X27750668Y-31856391D01*
X27784975Y-31836437D01*
X27822774Y-31818826D01*
X27862928Y-31804008D01*
X27904301Y-31792438D01*
X27920360Y-31788935D01*
X27938461Y-31785393D01*
X27954233Y-31782574D01*
X27968626Y-31780396D01*
X27982589Y-31778781D01*
X27997074Y-31777651D01*
X28013030Y-31776925D01*
X28031409Y-31776526D01*
X28053158Y-31776373D01*
X28071243Y-31776371D01*
X28101095Y-31776613D01*
G37*
G36*
X25187834Y-27905696D02*
G01*
X25190637Y-27906284D01*
X25198142Y-27907891D01*
X25210162Y-27910477D01*
X25226513Y-27914002D01*
X25247007Y-27918426D01*
X25271462Y-27923708D01*
X25299686Y-27929809D01*
X25331501Y-27936687D01*
X25366717Y-27944304D01*
X25405149Y-27952618D01*
X25446612Y-27961589D01*
X25490920Y-27971177D01*
X25537887Y-27981342D01*
X25587328Y-27992044D01*
X25639056Y-28003243D01*
X25692888Y-28014897D01*
X25748636Y-28026968D01*
X25806116Y-28039414D01*
X25865141Y-28052197D01*
X25925524Y-28065274D01*
X25987083Y-28078607D01*
X26049631Y-28092154D01*
X26112981Y-28105877D01*
X26176949Y-28119734D01*
X26241348Y-28133685D01*
X26305994Y-28147690D01*
X26370700Y-28161709D01*
X26435281Y-28175702D01*
X26499551Y-28189628D01*
X26563325Y-28203447D01*
X26626416Y-28217120D01*
X26688640Y-28230604D01*
X26749811Y-28243863D01*
X26809742Y-28256854D01*
X26868249Y-28269535D01*
X26925146Y-28281870D01*
X26980247Y-28293815D01*
X27033367Y-28305332D01*
X27084318Y-28316380D01*
X27132918Y-28326919D01*
X27178979Y-28336909D01*
X27222315Y-28346311D01*
X27262743Y-28355082D01*
X27300075Y-28363184D01*
X27334125Y-28370575D01*
X27364710Y-28377216D01*
X27391642Y-28383067D01*
X27414735Y-28388087D01*
X27433807Y-28392236D01*
X27448669Y-28395474D01*
X27459136Y-28397762D01*
X27463683Y-28398759D01*
X27468079Y-28399724D01*
X27475050Y-28401246D01*
X27484700Y-28403348D01*
X27497133Y-28406052D01*
X27512455Y-28409382D01*
X27530769Y-28413360D01*
X27552180Y-28418007D01*
X27576793Y-28423350D01*
X27604712Y-28429408D01*
X27636043Y-28436204D01*
X27670888Y-28443762D01*
X27709354Y-28452104D01*
X27751544Y-28461252D01*
X27797563Y-28471230D01*
X27847516Y-28482060D01*
X27901506Y-28493765D01*
X27959640Y-28506367D01*
X28022020Y-28519889D01*
X28088753Y-28534354D01*
X28159941Y-28549784D01*
X28235691Y-28566202D01*
X28316106Y-28583631D01*
X28401291Y-28602094D01*
X28411894Y-28604392D01*
X28605030Y-28646249D01*
X28605038Y-28771671D01*
X28605045Y-28897092D01*
X28588169Y-28900918D01*
X28545297Y-28910646D01*
X28500590Y-28920810D01*
X28454279Y-28931357D01*
X28406593Y-28942233D01*
X28357768Y-28953385D01*
X28308033Y-28964759D01*
X28257619Y-28976302D01*
X28206758Y-28987959D01*
X28155682Y-28999679D01*
X28104622Y-29011407D01*
X28053809Y-29023090D01*
X28003475Y-29034674D01*
X27953851Y-29046106D01*
X27905170Y-29057333D01*
X27857661Y-29068301D01*
X27811557Y-29078956D01*
X27767089Y-29089246D01*
X27724488Y-29099116D01*
X27683988Y-29108513D01*
X27645818Y-29117384D01*
X27610209Y-29125676D01*
X27577394Y-29133334D01*
X27547604Y-29140305D01*
X27521069Y-29146536D01*
X27498024Y-29151974D01*
X27478697Y-29156564D01*
X27463321Y-29160255D01*
X27452127Y-29162991D01*
X27445346Y-29164719D01*
X27443208Y-29165386D01*
X27445953Y-29166125D01*
X27453313Y-29167910D01*
X27465029Y-29170684D01*
X27480840Y-29174383D01*
X27500485Y-29178951D01*
X27523705Y-29184325D01*
X27550239Y-29190445D01*
X27579826Y-29197253D01*
X27612205Y-29204688D01*
X27647117Y-29212690D01*
X27684301Y-29221200D01*
X27723497Y-29230158D01*
X27764444Y-29239502D01*
X27806882Y-29249174D01*
X27837541Y-29256154D01*
X27882230Y-29266326D01*
X27926437Y-29276386D01*
X27969833Y-29286265D01*
X28012090Y-29295885D01*
X28052881Y-29305173D01*
X28091879Y-29314054D01*
X28128753Y-29322453D01*
X28163177Y-29330295D01*
X28194825Y-29337506D01*
X28223366Y-29344011D01*
X28248474Y-29349736D01*
X28269823Y-29354605D01*
X28287083Y-29358544D01*
X28299925Y-29361480D01*
X28303766Y-29362358D01*
X28322969Y-29366751D01*
X28346037Y-29372022D01*
X28371956Y-29377938D01*
X28399716Y-29384270D01*
X28428304Y-29390784D01*
X28456707Y-29397253D01*
X28483914Y-29403443D01*
X28491909Y-29405263D01*
X28605045Y-29430989D01*
X28605045Y-29556406D01*
X28605045Y-29681821D01*
X28594419Y-29683293D01*
X28590571Y-29683853D01*
X28582021Y-29685117D01*
X28568974Y-29687051D01*
X28551637Y-29689628D01*
X28530210Y-29692816D01*
X28504903Y-29696585D01*
X28475918Y-29700903D01*
X28443460Y-29705742D01*
X28407734Y-29711070D01*
X28368945Y-29716855D01*
X28327298Y-29723068D01*
X28282997Y-29729678D01*
X28236246Y-29736655D01*
X28187252Y-29743968D01*
X28136218Y-29751586D01*
X28083349Y-29759478D01*
X28028851Y-29767615D01*
X27972927Y-29775966D01*
X27915784Y-29784499D01*
X27857623Y-29793185D01*
X27798652Y-29801992D01*
X27739075Y-29810891D01*
X27679096Y-29819850D01*
X27618921Y-29828840D01*
X27558754Y-29837829D01*
X27498799Y-29846786D01*
X27439261Y-29855682D01*
X27380348Y-29864486D01*
X27322260Y-29873167D01*
X27265205Y-29881694D01*
X27209386Y-29890037D01*
X27155008Y-29898166D01*
X27102276Y-29906049D01*
X27051396Y-29913656D01*
X27002571Y-29920957D01*
X26956006Y-29927921D01*
X26911906Y-29934517D01*
X26870476Y-29940715D01*
X26831921Y-29946484D01*
X26796445Y-29951794D01*
X26764253Y-29956615D01*
X26735549Y-29960913D01*
X26710541Y-29964661D01*
X26689431Y-29967827D01*
X26672422Y-29970381D01*
X26659722Y-29972293D01*
X26651535Y-29973530D01*
X26648065Y-29974064D01*
X26647979Y-29974078D01*
X26639852Y-29975557D01*
X26639852Y-29846576D01*
X26639852Y-29717596D01*
X26645478Y-29716383D01*
X26648378Y-29715997D01*
X26656057Y-29715052D01*
X26668325Y-29713568D01*
X26684994Y-29711567D01*
X26705874Y-29709072D01*
X26730781Y-29706104D01*
X26759522Y-29702688D01*
X26791910Y-29698844D01*
X26827758Y-29694595D01*
X26866875Y-29689963D01*
X26909074Y-29684971D01*
X26954166Y-29679641D01*
X27001964Y-29673995D01*
X27052277Y-29668055D01*
X27104919Y-29661845D01*
X27159700Y-29655385D01*
X27216432Y-29648699D01*
X27274927Y-29641808D01*
X27334996Y-29634736D01*
X27396451Y-29627504D01*
X27438681Y-29622536D01*
X27500943Y-29615211D01*
X27561936Y-29608034D01*
X27621473Y-29601026D01*
X27679364Y-29594209D01*
X27735424Y-29587606D01*
X27789462Y-29581238D01*
X27841293Y-29575128D01*
X27890727Y-29569299D01*
X27937578Y-29563771D01*
X27981656Y-29558569D01*
X28022775Y-29553711D01*
X28060746Y-29549225D01*
X28095382Y-29545129D01*
X28126495Y-29541446D01*
X28153896Y-29538198D01*
X28177399Y-29535408D01*
X28196814Y-29533096D01*
X28211954Y-29531289D01*
X28222633Y-29530004D01*
X28228661Y-29529266D01*
X28230009Y-29529088D01*
X28232507Y-29528174D01*
X28230273Y-29526808D01*
X28230009Y-29526696D01*
X28227235Y-29526032D01*
X28219795Y-29524385D01*
X28207918Y-29521799D01*
X28191826Y-29518324D01*
X28171750Y-29514009D01*
X28147916Y-29508902D01*
X28120550Y-29503050D01*
X28089879Y-29496504D01*
X28056130Y-29489309D01*
X28019530Y-29481516D01*
X27980304Y-29473173D01*
X27938680Y-29464327D01*
X27894886Y-29455028D01*
X27849148Y-29445323D01*
X27801692Y-29435260D01*
X27752745Y-29424889D01*
X27706207Y-29415034D01*
X27656090Y-29404424D01*
X27607259Y-29394081D01*
X27559940Y-29384054D01*
X27514359Y-29374391D01*
X27470744Y-29365140D01*
X27429320Y-29356350D01*
X27390312Y-29348068D01*
X27353949Y-29340343D01*
X27320457Y-29333221D01*
X27290061Y-29326753D01*
X27262988Y-29320986D01*
X27239466Y-29315968D01*
X27219719Y-29311747D01*
X27203975Y-29308372D01*
X27192460Y-29305890D01*
X27185399Y-29304350D01*
X27183031Y-29303805D01*
X27182325Y-29302534D01*
X27181727Y-29299065D01*
X27181228Y-29293072D01*
X27180821Y-29284234D01*
X27180499Y-29272225D01*
X27180255Y-29256722D01*
X27180081Y-29237401D01*
X27179970Y-29213938D01*
X27179915Y-29186010D01*
X27179905Y-29165346D01*
X27179929Y-29134344D01*
X27180002Y-29108017D01*
X27180135Y-29086042D01*
X27180332Y-29068096D01*
X27180603Y-29053854D01*
X27180954Y-29042992D01*
X27181393Y-29035187D01*
X27181925Y-29030115D01*
X27182562Y-29027452D01*
X27183031Y-29026860D01*
X27185741Y-29026232D01*
X27193117Y-29024607D01*
X27204933Y-29022035D01*
X27220962Y-29018564D01*
X27240980Y-29014241D01*
X27264762Y-29009116D01*
X27292083Y-29003237D01*
X27322716Y-28996652D01*
X27356437Y-28989409D01*
X27393021Y-28981558D01*
X27432242Y-28973146D01*
X27473875Y-28964221D01*
X27517694Y-28954833D01*
X27563475Y-28945029D01*
X27610992Y-28934859D01*
X27660019Y-28924369D01*
X27710332Y-28913609D01*
X27710582Y-28913556D01*
X27760856Y-28902800D01*
X27809819Y-28892312D01*
X27857247Y-28882141D01*
X27902919Y-28872333D01*
X27946609Y-28862940D01*
X27988095Y-28854005D01*
X28027153Y-28845581D01*
X28063559Y-28837716D01*
X28097090Y-28830456D01*
X28127523Y-28823853D01*
X28154633Y-28817951D01*
X28178197Y-28812802D01*
X28197992Y-28808452D01*
X28213795Y-28804951D01*
X28225380Y-28802347D01*
X28232526Y-28800688D01*
X28235008Y-28800022D01*
X28235009Y-28800020D01*
X28232588Y-28799465D01*
X28225432Y-28797923D01*
X28213702Y-28795427D01*
X28197557Y-28792011D01*
X28177157Y-28787708D01*
X28152663Y-28782550D01*
X28124236Y-28776572D01*
X28092034Y-28769808D01*
X28056219Y-28762290D01*
X28016950Y-28754053D01*
X27974388Y-28745129D01*
X27928693Y-28735552D01*
X27880025Y-28725356D01*
X27828544Y-28714575D01*
X27774411Y-28703240D01*
X27717785Y-28691387D01*
X27658827Y-28679048D01*
X27597696Y-28666257D01*
X27534556Y-28653047D01*
X27469563Y-28639452D01*
X27402878Y-28625506D01*
X27334662Y-28611241D01*
X27265075Y-28596690D01*
X27194277Y-28581891D01*
X27122429Y-28566872D01*
X27049690Y-28551669D01*
X26976220Y-28536315D01*
X26902181Y-28520844D01*
X26827732Y-28505288D01*
X26753032Y-28489683D01*
X26678243Y-28474059D01*
X26603525Y-28458453D01*
X26529038Y-28442896D01*
X26454942Y-28427423D01*
X26381397Y-28412066D01*
X26308562Y-28396860D01*
X26236600Y-28381838D01*
X26165669Y-28367032D01*
X26095931Y-28352478D01*
X26027544Y-28338207D01*
X25960670Y-28324254D01*
X25895468Y-28310652D01*
X25832099Y-28297434D01*
X25770723Y-28284635D01*
X25711499Y-28272287D01*
X25654589Y-28260424D01*
X25600152Y-28249079D01*
X25548349Y-28238286D01*
X25499340Y-28228079D01*
X25453284Y-28218489D01*
X25410343Y-28209553D01*
X25370676Y-28201302D01*
X25334443Y-28193771D01*
X25301805Y-28186991D01*
X25272922Y-28180998D01*
X25247954Y-28175825D01*
X25227061Y-28171504D01*
X25210404Y-28168070D01*
X25198142Y-28165556D01*
X25191585Y-28164225D01*
X25179708Y-28161838D01*
X25179708Y-28033092D01*
X25179707Y-27904346D01*
X25187834Y-27905696D01*
G37*
G36*
X14085412Y-21581707D02*
G01*
X14166909Y-21616302D01*
X14166982Y-21616352D01*
X14244922Y-21686356D01*
X14292052Y-21768199D01*
X14306825Y-21857300D01*
X14287689Y-21949075D01*
X14283164Y-21959774D01*
X14229611Y-22040662D01*
X14156413Y-22096516D01*
X14070742Y-22124958D01*
X13979773Y-22123607D01*
X13890682Y-22090082D01*
X13890579Y-22090023D01*
X13818624Y-22029682D01*
X13773422Y-21953924D01*
X13754854Y-21869980D01*
X13762803Y-21785082D01*
X13797151Y-21706462D01*
X13857782Y-21641350D01*
X13898292Y-21615927D01*
X13995538Y-21581581D01*
X14085412Y-21581707D01*
G37*
G36*
X14989272Y-22627841D02*
G01*
X15069254Y-22672848D01*
X15127905Y-22742112D01*
X15160606Y-22830956D01*
X15165865Y-22888607D01*
X15157493Y-22970388D01*
X15129612Y-23035631D01*
X15125319Y-23042259D01*
X15059323Y-23111269D01*
X14976502Y-23152272D01*
X14884653Y-23163149D01*
X14791575Y-23141772D01*
X14779576Y-23136411D01*
X14703407Y-23083787D01*
X14653458Y-23015232D01*
X14628386Y-22936986D01*
X14626843Y-22855289D01*
X14647491Y-22776383D01*
X14688981Y-22706507D01*
X14749971Y-22651900D01*
X14829117Y-22618804D01*
X14892580Y-22611771D01*
X14989272Y-22627841D01*
G37*
G36*
X15997754Y-21756549D02*
G01*
X16086016Y-21795603D01*
X16152362Y-21859596D01*
X16193264Y-21942841D01*
X16205200Y-22039650D01*
X16200598Y-22083737D01*
X16172480Y-22153835D01*
X16118318Y-22218458D01*
X16047556Y-22268069D01*
X15999009Y-22287240D01*
X15911725Y-22294216D01*
X15823180Y-22272124D01*
X15746549Y-22224574D01*
X15736820Y-22215393D01*
X15682027Y-22139314D01*
X15657728Y-22057074D01*
X15660701Y-21974331D01*
X15687729Y-21896748D01*
X15735592Y-21829986D01*
X15801072Y-21779705D01*
X15880948Y-21751563D01*
X15972003Y-21751224D01*
X15997754Y-21756549D01*
G37*
G36*
X15167805Y-20733875D02*
G01*
X15248504Y-20778937D01*
X15307820Y-20851419D01*
X15313199Y-20861607D01*
X15340318Y-20944622D01*
X15336246Y-21029406D01*
X15309867Y-21105463D01*
X15264187Y-21177538D01*
X15199981Y-21226073D01*
X15110085Y-21256699D01*
X15057519Y-21264385D01*
X15012109Y-21257653D01*
X14955814Y-21233723D01*
X14953456Y-21232555D01*
X14868142Y-21173814D01*
X14813848Y-21098297D01*
X14791416Y-21007273D01*
X14790826Y-20988110D01*
X14806656Y-20891087D01*
X14851306Y-20812040D01*
X14920777Y-20754842D01*
X15011068Y-20723367D01*
X15069448Y-20718420D01*
X15167805Y-20733875D01*
G37*
G36*
X14926377Y-17985692D02*
G01*
X15077541Y-17986405D01*
X15214321Y-17987528D01*
X15332856Y-17989008D01*
X15429282Y-17990791D01*
X15499737Y-17992824D01*
X15540359Y-17995053D01*
X15548440Y-17996284D01*
X15563230Y-18009390D01*
X15571987Y-18039354D01*
X15576007Y-18093143D01*
X15576695Y-18148298D01*
X15576695Y-18289467D01*
X14777363Y-18284817D01*
X13978030Y-18280168D01*
X13972712Y-18157990D01*
X13972842Y-18082649D01*
X13979997Y-18029706D01*
X13988296Y-18010628D01*
X13998570Y-18004338D01*
X14019997Y-17999149D01*
X14055591Y-17994964D01*
X14108371Y-17991684D01*
X14181359Y-17989213D01*
X14277567Y-17987451D01*
X14400016Y-17986301D01*
X14551723Y-17985665D01*
X14735706Y-17985445D01*
X14764692Y-17985442D01*
X14926377Y-17985692D01*
G37*
G36*
X15247219Y-20131923D02*
G01*
X15404274Y-20183566D01*
X15554904Y-20267087D01*
X15669308Y-20358317D01*
X15745585Y-20442648D01*
X15815560Y-20545288D01*
X15873141Y-20655200D01*
X15912238Y-20761351D01*
X15924583Y-20820893D01*
X15932306Y-20882302D01*
X15938988Y-20935970D01*
X15940783Y-20950562D01*
X15942088Y-20998912D01*
X15938582Y-21027490D01*
X15913129Y-21061345D01*
X15859186Y-21084135D01*
X15782939Y-21093375D01*
X15774203Y-21093459D01*
X15724454Y-21088989D01*
X15692870Y-21071004D01*
X15674147Y-21032643D01*
X15662975Y-20967046D01*
X15660872Y-20946932D01*
X15630559Y-20806962D01*
X15570542Y-20679260D01*
X15484806Y-20569171D01*
X15377335Y-20482038D01*
X15276639Y-20431787D01*
X15155548Y-20402229D01*
X15025564Y-20398007D01*
X14898910Y-20418412D01*
X14793121Y-20459791D01*
X14674339Y-20543973D01*
X14580079Y-20651801D01*
X14513657Y-20778365D01*
X14478391Y-20918754D01*
X14477353Y-20927383D01*
X14479261Y-21062220D01*
X14513237Y-21191876D01*
X14575626Y-21310933D01*
X14662771Y-21413973D01*
X14771016Y-21495577D01*
X14896705Y-21550329D01*
X14897932Y-21550692D01*
X14956844Y-21569046D01*
X15004136Y-21585590D01*
X15022967Y-21593546D01*
X15040705Y-21620694D01*
X15046513Y-21669147D01*
X15040963Y-21726746D01*
X15024634Y-21781333D01*
X15013052Y-21803024D01*
X14991909Y-21829627D01*
X14966589Y-21841050D01*
X14924693Y-21840876D01*
X14893628Y-21837559D01*
X14759359Y-21804622D01*
X14627900Y-21740393D01*
X14504815Y-21649197D01*
X14395669Y-21535361D01*
X14306026Y-21403211D01*
X14285990Y-21365158D01*
X14210239Y-21212314D01*
X14210239Y-20985581D01*
X14210239Y-20758847D01*
X14287841Y-20605743D01*
X14383232Y-20453332D01*
X14498860Y-20328024D01*
X14630913Y-20230503D01*
X14775584Y-20161450D01*
X14929065Y-20121548D01*
X15087546Y-20111478D01*
X15247219Y-20131923D01*
G37*
G36*
X16161333Y-21180060D02*
G01*
X16312844Y-21237883D01*
X16451793Y-21322876D01*
X16573887Y-21433552D01*
X16674835Y-21568426D01*
X16727705Y-21669781D01*
X16773601Y-21803412D01*
X16799639Y-21945720D01*
X16803842Y-22083041D01*
X16796844Y-22147327D01*
X16750944Y-22315225D01*
X16672531Y-22472316D01*
X16564360Y-22613477D01*
X16524217Y-22654155D01*
X16389270Y-22759522D01*
X16236503Y-22834626D01*
X16064185Y-22880289D01*
X16037495Y-22884511D01*
X15966312Y-22894378D01*
X15921544Y-22897816D01*
X15894294Y-22893787D01*
X15875659Y-22881243D01*
X15860478Y-22863765D01*
X15839907Y-22821011D01*
X15828523Y-22763141D01*
X15826975Y-22703321D01*
X15835922Y-22654719D01*
X15849093Y-22634167D01*
X15878024Y-22623235D01*
X15930071Y-22613043D01*
X15979532Y-22607200D01*
X16120125Y-22578005D01*
X16247199Y-22517831D01*
X16356084Y-22430207D01*
X16442108Y-22318659D01*
X16488152Y-22223181D01*
X16519627Y-22091066D01*
X16519225Y-21953128D01*
X16487571Y-21818375D01*
X16455004Y-21744975D01*
X16385282Y-21643872D01*
X16293935Y-21554698D01*
X16191203Y-21486376D01*
X16125930Y-21458283D01*
X16021424Y-21436425D01*
X15903500Y-21432205D01*
X15789794Y-21445598D01*
X15740380Y-21458777D01*
X15634583Y-21509195D01*
X15536373Y-21583866D01*
X15452439Y-21675346D01*
X15389465Y-21776190D01*
X15354137Y-21878954D01*
X15352059Y-21891156D01*
X15337339Y-21945915D01*
X15314716Y-21988808D01*
X15307973Y-21996211D01*
X15286155Y-22012518D01*
X15262342Y-22016686D01*
X15224907Y-22008645D01*
X15183543Y-21995437D01*
X15116461Y-21965990D01*
X15080641Y-21928478D01*
X15071621Y-21875247D01*
X15080255Y-21818185D01*
X15126226Y-21683967D01*
X15200449Y-21550825D01*
X15296271Y-21427439D01*
X15407038Y-21322494D01*
X15515514Y-21250178D01*
X15674351Y-21184466D01*
X15837795Y-21151866D01*
X16001553Y-21150894D01*
X16161333Y-21180060D01*
G37*
G36*
X14045552Y-20979552D02*
G01*
X14093911Y-21003719D01*
X14123876Y-21055489D01*
X14136381Y-21109204D01*
X14141456Y-21175887D01*
X14127488Y-21218961D01*
X14089300Y-21244466D01*
X14021713Y-21258446D01*
X14007107Y-21260092D01*
X13853673Y-21290870D01*
X13722992Y-21348982D01*
X13614329Y-21434841D01*
X13543845Y-21522152D01*
X13488132Y-21622235D01*
X13456488Y-21724328D01*
X13445036Y-21842069D01*
X13444836Y-21870462D01*
X13460412Y-22004216D01*
X13506845Y-22124157D01*
X13585993Y-22234278D01*
X13639235Y-22287651D01*
X13753647Y-22370405D01*
X13877068Y-22421533D01*
X14004826Y-22442410D01*
X14132248Y-22434410D01*
X14254661Y-22398907D01*
X14367391Y-22337276D01*
X14465766Y-22250892D01*
X14545113Y-22141127D01*
X14600759Y-22009358D01*
X14602201Y-22004429D01*
X14624428Y-21932216D01*
X14643668Y-21888623D01*
X14665391Y-21867562D01*
X14695067Y-21862946D01*
X14725986Y-21866637D01*
X14809020Y-21886458D01*
X14862531Y-21916808D01*
X14888481Y-21961942D01*
X14888831Y-22026118D01*
X14865540Y-22113593D01*
X14854216Y-22145067D01*
X14775576Y-22306012D01*
X14669475Y-22445693D01*
X14538705Y-22561191D01*
X14386059Y-22649584D01*
X14362067Y-22660064D01*
X14307927Y-22681344D01*
X14259801Y-22695393D01*
X14207721Y-22703685D01*
X14141725Y-22707694D01*
X14051846Y-22708893D01*
X14031616Y-22708925D01*
X13936273Y-22708199D01*
X13866773Y-22704938D01*
X13813251Y-22697694D01*
X13765843Y-22685023D01*
X13714686Y-22665479D01*
X13703752Y-22660880D01*
X13553659Y-22579601D01*
X13421555Y-22472780D01*
X13312604Y-22345640D01*
X13231970Y-22203406D01*
X13218132Y-22169530D01*
X13190252Y-22068667D01*
X13173018Y-21948989D01*
X13167440Y-21825191D01*
X13174526Y-21711972D01*
X13183367Y-21662927D01*
X13240905Y-21491614D01*
X13326334Y-21341628D01*
X13437698Y-21214657D01*
X13573042Y-21112395D01*
X13730410Y-21036533D01*
X13907848Y-20988760D01*
X13973866Y-20979043D01*
X14045552Y-20979552D01*
G37*
G36*
X15118807Y-22037543D02*
G01*
X15126041Y-22039317D01*
X15257289Y-22088380D01*
X15386096Y-22166463D01*
X15504961Y-22267226D01*
X15606386Y-22384325D01*
X15681934Y-22509449D01*
X15737052Y-22659845D01*
X15765425Y-22818786D01*
X15765581Y-22975363D01*
X15754618Y-23049366D01*
X15703742Y-23215748D01*
X15625493Y-23363286D01*
X15523702Y-23490173D01*
X15402195Y-23594601D01*
X15264800Y-23674760D01*
X15115346Y-23728842D01*
X14957660Y-23755040D01*
X14795570Y-23751544D01*
X14632905Y-23716547D01*
X14479745Y-23651626D01*
X14382313Y-23586239D01*
X14284360Y-23497926D01*
X14196261Y-23397548D01*
X14128388Y-23295968D01*
X14114786Y-23269556D01*
X14082447Y-23188891D01*
X14055392Y-23097440D01*
X14035795Y-23005689D01*
X14025834Y-22924122D01*
X14027679Y-22863223D01*
X14029116Y-22856490D01*
X14040394Y-22826209D01*
X14061252Y-22806723D01*
X14100238Y-22793446D01*
X14165902Y-22781793D01*
X14169358Y-22781273D01*
X14236501Y-22778984D01*
X14279445Y-22798825D01*
X14302124Y-22844619D01*
X14308481Y-22916484D01*
X14325374Y-23042266D01*
X14372835Y-23159310D01*
X14446038Y-23263718D01*
X14540156Y-23351595D01*
X14650364Y-23419045D01*
X14771833Y-23462171D01*
X14899741Y-23477078D01*
X14992093Y-23468341D01*
X15129229Y-23429161D01*
X15244509Y-23365600D01*
X15342841Y-23274107D01*
X15428163Y-23152784D01*
X15451549Y-23109965D01*
X15466322Y-23071123D01*
X15474428Y-23026027D01*
X15477817Y-22964445D01*
X15478439Y-22888606D01*
X15477399Y-22802450D01*
X15473036Y-22741327D01*
X15463457Y-22694579D01*
X15446771Y-22651544D01*
X15430706Y-22619541D01*
X15387740Y-22552658D01*
X15333467Y-22486656D01*
X15308178Y-22461511D01*
X15244370Y-22412098D01*
X15170056Y-22366859D01*
X15095996Y-22331316D01*
X15032947Y-22310991D01*
X15009571Y-22308261D01*
X14971664Y-22296935D01*
X14931780Y-22270276D01*
X14903572Y-22238840D01*
X14897932Y-22221957D01*
X14903292Y-22197685D01*
X14916933Y-22152358D01*
X14926435Y-22123627D01*
X14953511Y-22065117D01*
X14989848Y-22033273D01*
X15042571Y-22025085D01*
X15118807Y-22037543D01*
G37*
G36*
X15492653Y-14218306D02*
G01*
X15538947Y-14224472D01*
X15548440Y-14227367D01*
X15562219Y-14239095D01*
X15570698Y-14265824D01*
X15574926Y-14314196D01*
X15575950Y-14390849D01*
X15575911Y-14401523D01*
X15572583Y-14488838D01*
X15564369Y-14568240D01*
X15552663Y-14627102D01*
X15550042Y-14635253D01*
X15506573Y-14726883D01*
X15447676Y-14792910D01*
X15388129Y-14831544D01*
X15359493Y-14844797D01*
X15327377Y-14854695D01*
X15285915Y-14861860D01*
X15229244Y-14866912D01*
X15151499Y-14870469D01*
X15046816Y-14873150D01*
X14982778Y-14874351D01*
X14647862Y-14880208D01*
X14647862Y-14973486D01*
X14643975Y-15030776D01*
X14634046Y-15074457D01*
X14626428Y-15088199D01*
X14596546Y-15101182D01*
X14546340Y-15108798D01*
X14522827Y-15109633D01*
X14468651Y-15105225D01*
X14428345Y-15094115D01*
X14419226Y-15088199D01*
X14407036Y-15059093D01*
X14399271Y-15008048D01*
X14397792Y-14972095D01*
X14397792Y-14877425D01*
X14211700Y-14877425D01*
X14131210Y-14876424D01*
X14062307Y-14873723D01*
X14013973Y-14869778D01*
X13997354Y-14866583D01*
X13981348Y-14851721D01*
X13972497Y-14817732D01*
X13969228Y-14757362D01*
X13969100Y-14736189D01*
X13972268Y-14667808D01*
X13980758Y-14616855D01*
X13990534Y-14595203D01*
X14021250Y-14583976D01*
X14086003Y-14576807D01*
X14183319Y-14573844D01*
X14204880Y-14573768D01*
X14397792Y-14573768D01*
X14397792Y-14422568D01*
X14400107Y-14338375D01*
X14409776Y-14283608D01*
X14430884Y-14252120D01*
X14467516Y-14237762D01*
X14522827Y-14234387D01*
X14578618Y-14237832D01*
X14614966Y-14252258D01*
X14635921Y-14283799D01*
X14645536Y-14338591D01*
X14647862Y-14422770D01*
X14647862Y-14423746D01*
X14647862Y-14576121D01*
X14950928Y-14570479D01*
X15073138Y-14567883D01*
X15164344Y-14563617D01*
X15229255Y-14555181D01*
X15272585Y-14540078D01*
X15299039Y-14515809D01*
X15313331Y-14479876D01*
X15320171Y-14429782D01*
X15323724Y-14372762D01*
X15329860Y-14307597D01*
X15339299Y-14256968D01*
X15350096Y-14230997D01*
X15351098Y-14230195D01*
X15383351Y-14221388D01*
X15435663Y-14217351D01*
X15492653Y-14218306D01*
G37*
G36*
X15120055Y-16577824D02*
G01*
X15176130Y-16578439D01*
X15567763Y-16583262D01*
X15572943Y-16730104D01*
X15574915Y-16802422D01*
X15573394Y-16846702D01*
X15566631Y-16870589D01*
X15552877Y-16881728D01*
X15537219Y-16886248D01*
X15507449Y-16889277D01*
X15448010Y-16892352D01*
X15364954Y-16895271D01*
X15264334Y-16897827D01*
X15152205Y-16899816D01*
X15125978Y-16900164D01*
X14755642Y-16904781D01*
X14698858Y-16961605D01*
X14661928Y-17006029D01*
X14642595Y-17054236D01*
X14634445Y-17113434D01*
X14632932Y-17178250D01*
X14643665Y-17225593D01*
X14669265Y-17270955D01*
X14694819Y-17305499D01*
X14721968Y-17332109D01*
X14755661Y-17351934D01*
X14800853Y-17366122D01*
X14862496Y-17375823D01*
X14945540Y-17382186D01*
X15054939Y-17386359D01*
X15178803Y-17389169D01*
X15290029Y-17391773D01*
X15389216Y-17394944D01*
X15470772Y-17398434D01*
X15529103Y-17401994D01*
X15558618Y-17405375D01*
X15560764Y-17406115D01*
X15568287Y-17427443D01*
X15573472Y-17473383D01*
X15576163Y-17532889D01*
X15576199Y-17594919D01*
X15573425Y-17648426D01*
X15567683Y-17682364D01*
X15564786Y-17687739D01*
X15544643Y-17690650D01*
X15493140Y-17693303D01*
X15414645Y-17695609D01*
X15313521Y-17697477D01*
X15194135Y-17698819D01*
X15060851Y-17699544D01*
X14986177Y-17699647D01*
X14825281Y-17699856D01*
X14696543Y-17699844D01*
X14596403Y-17698650D01*
X14521302Y-17695314D01*
X14467681Y-17688879D01*
X14431983Y-17678383D01*
X14410646Y-17662867D01*
X14400111Y-17641371D01*
X14396821Y-17612936D01*
X14397215Y-17576602D01*
X14397792Y-17540999D01*
X14402791Y-17466273D01*
X14419844Y-17420858D01*
X14452031Y-17399485D01*
X14482586Y-17395991D01*
X14524510Y-17395991D01*
X14472290Y-17329007D01*
X14417905Y-17242343D01*
X14388493Y-17148970D01*
X14380028Y-17040547D01*
X14386834Y-16932872D01*
X14409896Y-16847564D01*
X14453555Y-16773311D01*
X14504546Y-16715946D01*
X14549391Y-16673951D01*
X14593470Y-16641057D01*
X14641752Y-16616245D01*
X14699203Y-16598498D01*
X14770791Y-16586800D01*
X14861485Y-16580133D01*
X14976250Y-16577480D01*
X15120055Y-16577824D01*
G37*
G36*
X15030328Y-15221255D02*
G01*
X15051667Y-15237791D01*
X15065228Y-15270214D01*
X15072754Y-15322543D01*
X15075988Y-15398799D01*
X15076675Y-15503002D01*
X15076553Y-15628840D01*
X15076554Y-16020603D01*
X15125675Y-16020212D01*
X15194700Y-16007913D01*
X15265141Y-15976852D01*
X15323624Y-15934250D01*
X15352233Y-15897859D01*
X15379053Y-15809753D01*
X15371213Y-15720130D01*
X15329176Y-15634008D01*
X15327804Y-15632098D01*
X15293622Y-15587659D01*
X15265577Y-15555930D01*
X15256354Y-15547986D01*
X15246652Y-15525018D01*
X15240501Y-15477787D01*
X15238017Y-15417589D01*
X15239316Y-15355717D01*
X15244514Y-15303469D01*
X15253532Y-15272441D01*
X15283419Y-15253270D01*
X15326901Y-15260609D01*
X15378757Y-15290597D01*
X15433767Y-15339378D01*
X15486711Y-15403090D01*
X15532369Y-15477876D01*
X15532934Y-15478988D01*
X15558838Y-15534536D01*
X15575041Y-15584611D01*
X15584059Y-15641425D01*
X15588412Y-15717189D01*
X15589348Y-15752671D01*
X15589501Y-15832199D01*
X15586781Y-15902565D01*
X15581723Y-15953058D01*
X15578646Y-15967017D01*
X15521188Y-16094777D01*
X15439994Y-16195847D01*
X15335094Y-16270210D01*
X15206518Y-16317848D01*
X15054297Y-16338743D01*
X14945104Y-16338106D01*
X14834841Y-16326163D01*
X14809531Y-16323422D01*
X14699809Y-16293303D01*
X14608230Y-16244555D01*
X14527082Y-16173984D01*
X14513546Y-16159340D01*
X14441636Y-16058342D01*
X14398016Y-15944240D01*
X14380498Y-15810788D01*
X14380086Y-15787257D01*
X14594107Y-15787257D01*
X14608774Y-15863270D01*
X14647269Y-15931084D01*
X14706325Y-15983949D01*
X14782671Y-16015121D01*
X14834841Y-16020603D01*
X14880070Y-16020604D01*
X14880070Y-15779465D01*
X14879188Y-15676218D01*
X14876297Y-15604678D01*
X14871028Y-15560864D01*
X14863011Y-15540798D01*
X14857742Y-15538425D01*
X14780716Y-15553153D01*
X14703567Y-15591385D01*
X14649331Y-15637623D01*
X14606537Y-15709793D01*
X14594107Y-15787257D01*
X14380086Y-15787257D01*
X14379929Y-15778274D01*
X14394952Y-15633269D01*
X14439324Y-15508141D01*
X14512005Y-15403989D01*
X14611952Y-15321915D01*
X14738123Y-15263019D01*
X14889475Y-15228401D01*
X14902213Y-15226764D01*
X14957345Y-15219762D01*
X14999469Y-15216586D01*
X15030328Y-15221255D01*
G37*
G36*
X15278082Y-18575723D02*
G01*
X15375161Y-18577060D01*
X15457560Y-18579668D01*
X15518748Y-18583572D01*
X15552197Y-18588794D01*
X15555171Y-18590115D01*
X15567688Y-18611651D01*
X15573581Y-18658973D01*
X15573367Y-18736611D01*
X15573033Y-18746134D01*
X15567763Y-18887481D01*
X15174796Y-18896413D01*
X15026325Y-18900598D01*
X14911138Y-18905734D01*
X14826803Y-18912000D01*
X14770887Y-18919581D01*
X14740960Y-18928655D01*
X14740682Y-18928811D01*
X14682704Y-18980872D01*
X14645200Y-19052995D01*
X14630031Y-19134748D01*
X14639055Y-19215704D01*
X14674130Y-19285432D01*
X14676582Y-19288413D01*
X14704024Y-19319493D01*
X14730765Y-19343364D01*
X14761903Y-19361112D01*
X14802533Y-19373824D01*
X14857751Y-19382587D01*
X14932651Y-19388486D01*
X15032334Y-19392609D01*
X15161892Y-19396043D01*
X15183727Y-19396553D01*
X15567763Y-19405484D01*
X15572953Y-19542414D01*
X15573584Y-19622604D01*
X15567782Y-19671809D01*
X15555091Y-19694243D01*
X15529628Y-19699428D01*
X15473930Y-19703950D01*
X15393484Y-19707778D01*
X15293773Y-19710879D01*
X15180284Y-19713221D01*
X15058500Y-19714771D01*
X14933907Y-19715497D01*
X14811990Y-19715366D01*
X14698234Y-19714347D01*
X14598124Y-19712407D01*
X14517142Y-19709514D01*
X14460777Y-19705636D01*
X14434702Y-19700845D01*
X14414842Y-19685449D01*
X14403625Y-19659949D01*
X14398724Y-19615312D01*
X14397792Y-19557313D01*
X14399357Y-19489307D01*
X14405469Y-19448169D01*
X14418253Y-19425125D01*
X14432222Y-19415108D01*
X14472469Y-19404628D01*
X14494740Y-19407459D01*
X14518460Y-19407345D01*
X14522827Y-19398464D01*
X14511482Y-19379594D01*
X14506662Y-19378691D01*
X14489308Y-19364577D01*
X14461655Y-19328211D01*
X14439679Y-19293846D01*
X14414914Y-19248971D01*
X14399778Y-19208191D01*
X14391955Y-19160251D01*
X14389126Y-19093895D01*
X14388861Y-19046916D01*
X14389858Y-18966899D01*
X14394477Y-18911335D01*
X14405152Y-18868972D01*
X14424321Y-18828563D01*
X14442919Y-18797319D01*
X14520189Y-18705339D01*
X14621779Y-18636787D01*
X14742349Y-18595183D01*
X14753007Y-18593057D01*
X14801036Y-18587269D01*
X14873565Y-18582610D01*
X14964064Y-18579102D01*
X15066004Y-18576768D01*
X15172853Y-18575634D01*
X15278082Y-18575723D01*
G37*
%TD*%
D15*
%TO.C,J5*%
X5565000Y-17145000D03*
X6465000Y-17145000D03*
X7365000Y-17145000D03*
X8265000Y-17145000D03*
X9165000Y-17145000D03*
X10515000Y-17145000D03*
X11415000Y-17145000D03*
X5565000Y-17895000D03*
X6465000Y-17895000D03*
X9615000Y-17895000D03*
X8715000Y-17895000D03*
X7815000Y-17895000D03*
X10515000Y-17895000D03*
X11415000Y-17895000D03*
D16*
X5440000Y-18950000D03*
D17*
X11540000Y-18950000D03*
D16*
X5440000Y-16090000D03*
D17*
X11540000Y-16090000D03*
%TD*%
D18*
%TO.C,J6*%
X20230000Y-105980000D03*
D19*
X17690000Y-105980000D03*
X20230000Y-103440000D03*
X17690000Y-103440000D03*
X20230000Y-100900000D03*
X17690000Y-100900000D03*
X20230000Y-98360000D03*
X17690000Y-98360000D03*
X20230000Y-95820000D03*
X17690000Y-95820000D03*
%TD*%
D20*
%TO.C,D11*%
X1500000Y-108090000D03*
X2470000Y-108090000D03*
%TD*%
D21*
%TO.C,C33*%
X24790000Y-16650000D03*
X19190000Y-16650000D03*
%TD*%
D22*
%TO.C,RN3*%
X3750000Y-109130000D03*
D23*
X4250000Y-109130000D03*
X4750000Y-109130000D03*
D22*
X5250000Y-109130000D03*
X5250000Y-108130000D03*
D23*
X4750000Y-108130000D03*
X4250000Y-108130000D03*
D22*
X3750000Y-108130000D03*
%TD*%
D24*
%TO.C,U12*%
X21421157Y-37294999D03*
X21421157Y-38564999D03*
X21421157Y-39834999D03*
X21421157Y-41104999D03*
X26746157Y-41104999D03*
X26746157Y-39834999D03*
X26746157Y-38564999D03*
X26746157Y-37294999D03*
D25*
X24083657Y-39199999D03*
%TD*%
D26*
%TO.C,C17*%
X30455876Y-77559747D03*
X29495876Y-77559747D03*
%TD*%
D27*
%TO.C,J10*%
X7965000Y-46200000D03*
X7965000Y-45700000D03*
X7965000Y-45200000D03*
X7965000Y-44700000D03*
X7965000Y-44200000D03*
X7965000Y-43700000D03*
X7965000Y-43200000D03*
X7965000Y-42700000D03*
X7965000Y-42200000D03*
X7965000Y-41700000D03*
X7965000Y-41200000D03*
X7965000Y-40700000D03*
X7965000Y-40200000D03*
X7965000Y-39700000D03*
X7965000Y-39200000D03*
X7965000Y-38700000D03*
X7965000Y-38200000D03*
X7965000Y-37700000D03*
X7965000Y-37200000D03*
D28*
X2065000Y-33600000D03*
X6965000Y-34200000D03*
X6965000Y-48700000D03*
X2065000Y-49300000D03*
%TD*%
D29*
%TO.C,H3*%
X23615000Y-47200000D03*
%TD*%
D30*
%TO.C,R24*%
X5420000Y-13798293D03*
X6440000Y-13798293D03*
%TD*%
D31*
%TO.C,F1*%
X22377500Y-92950000D03*
X20502500Y-92950000D03*
%TD*%
D32*
%TO.C,L2*%
X14215000Y-96950000D03*
X15790000Y-96950000D03*
%TD*%
D33*
%TO.C,C21*%
X12640000Y-83450000D03*
X12640000Y-89050000D03*
%TD*%
D34*
%TO.C,RN1*%
X4430000Y-13570000D03*
D35*
X4430000Y-13070000D03*
X4430000Y-12570000D03*
D34*
X4430000Y-12070000D03*
X3430000Y-12070000D03*
D35*
X3430000Y-12570000D03*
X3430000Y-13070000D03*
D34*
X3430000Y-13570000D03*
%TD*%
D36*
%TO.C,RN5*%
X15400434Y-61256116D03*
D37*
X15046880Y-61609669D03*
X14693327Y-61963222D03*
D36*
X14339774Y-62316776D03*
X15046880Y-63023882D03*
D37*
X15400434Y-62670329D03*
X15753987Y-62316776D03*
D36*
X16107540Y-61963222D03*
%TD*%
D38*
%TO.C,C50*%
X17534931Y-42147451D03*
X17082383Y-42599999D03*
%TD*%
D39*
%TO.C,C7*%
X17933657Y-52679999D03*
X17933657Y-51719999D03*
%TD*%
D26*
%TO.C,C28*%
X26027843Y-78345623D03*
X25067843Y-78345623D03*
%TD*%
D40*
%TO.C,C49*%
X17534931Y-44001273D03*
X17082383Y-43548725D03*
%TD*%
D41*
%TO.C,R10*%
X9015000Y-97900000D03*
X7995000Y-97900000D03*
%TD*%
D15*
%TO.C,J7*%
X5498750Y-26005000D03*
X6398750Y-26005000D03*
X7298750Y-26005000D03*
X8198750Y-26005000D03*
X9098750Y-26005000D03*
X10448750Y-26005000D03*
X11348750Y-26005000D03*
X5498750Y-26755000D03*
X6398750Y-26755000D03*
X9548750Y-26755000D03*
X8648750Y-26755000D03*
X7748750Y-26755000D03*
X10448750Y-26755000D03*
X11348750Y-26755000D03*
D16*
X5373750Y-27810000D03*
D17*
X11473750Y-27810000D03*
D16*
X5373750Y-24950000D03*
D17*
X11473750Y-24950000D03*
%TD*%
D41*
%TO.C,R20*%
X11740000Y-23500000D03*
X10720000Y-23500000D03*
%TD*%
D42*
%TO.C,R25*%
X12798673Y-36914319D03*
X12798673Y-37934317D03*
%TD*%
D43*
%TO.C,L1*%
X21404249Y-87165967D03*
X21404249Y-88740967D03*
%TD*%
D44*
%TO.C,U2*%
X18490000Y-60687500D03*
X18890000Y-60687500D03*
X19290000Y-60687500D03*
X19690000Y-60687500D03*
X20090000Y-60687500D03*
X20490000Y-60687500D03*
X20890000Y-60687500D03*
X21290000Y-60687500D03*
X21690000Y-60687500D03*
X22090000Y-60687500D03*
X22490000Y-60687500D03*
X22890000Y-60687500D03*
X23290000Y-60687500D03*
X23690000Y-60687500D03*
D45*
X24527500Y-59850000D03*
X24527500Y-59450000D03*
X24527500Y-59050000D03*
X24527500Y-58650000D03*
X24527500Y-58250000D03*
X24527500Y-57850000D03*
X24527500Y-57450000D03*
X24527500Y-57050000D03*
X24527500Y-56650000D03*
X24527500Y-56250000D03*
X24527500Y-55850000D03*
X24527500Y-55450000D03*
X24527500Y-55050000D03*
X24527500Y-54650000D03*
D44*
X23690000Y-53812500D03*
X23290000Y-53812500D03*
X22890000Y-53812500D03*
X22490000Y-53812500D03*
X22090000Y-53812500D03*
X21690000Y-53812500D03*
X21290000Y-53812500D03*
X20890000Y-53812500D03*
X20490000Y-53812500D03*
X20090000Y-53812500D03*
X19690000Y-53812500D03*
X19290000Y-53812500D03*
X18890000Y-53812500D03*
X18490000Y-53812500D03*
D45*
X17652500Y-54650000D03*
X17652500Y-55050000D03*
X17652500Y-55450000D03*
X17652500Y-55850000D03*
X17652500Y-56250000D03*
X17652500Y-56650000D03*
X17652500Y-57050000D03*
X17652500Y-57450000D03*
X17652500Y-57850000D03*
X17652500Y-58250000D03*
X17652500Y-58650000D03*
X17652500Y-59050000D03*
X17652500Y-59450000D03*
X17652500Y-59850000D03*
D46*
X21090000Y-57250000D03*
%TD*%
D41*
%TO.C,R41*%
X13233657Y-48939999D03*
X12213657Y-48939999D03*
%TD*%
D20*
%TO.C,D17*%
X1495000Y-11485000D03*
X2465000Y-11485000D03*
%TD*%
D34*
%TO.C,RN10*%
X8183657Y-61849424D03*
D35*
X8183657Y-62349424D03*
X8183657Y-62849424D03*
D34*
X8183657Y-63349424D03*
X9183657Y-63349424D03*
D35*
X9183657Y-62849424D03*
X9183657Y-62349424D03*
D34*
X9183657Y-61849424D03*
%TD*%
D42*
%TO.C,R29*%
X14690000Y-1200000D03*
X14690000Y-2220000D03*
%TD*%
D18*
%TO.C,J3*%
X6440000Y-68950000D03*
D19*
X6440000Y-66410000D03*
X6440000Y-63870000D03*
X6440000Y-61330000D03*
X6440000Y-58790000D03*
X6440000Y-56250000D03*
X3900000Y-68950000D03*
X3900000Y-66410000D03*
X3900000Y-63870000D03*
X3900000Y-61330000D03*
X3900000Y-58790000D03*
X3900000Y-56250000D03*
%TD*%
D47*
%TO.C,U5*%
X19505000Y-85550000D03*
X20455000Y-85550000D03*
X21405000Y-85550000D03*
X21405000Y-83275000D03*
X20455000Y-83275000D03*
X19505000Y-83275000D03*
%TD*%
D48*
%TO.C,C2*%
X26959999Y-53267266D03*
X27919999Y-53267266D03*
%TD*%
D49*
%TO.C,C22*%
X2468699Y-74483552D03*
X2468699Y-71533552D03*
%TD*%
D22*
%TO.C,RN8*%
X19174281Y-62902219D03*
D23*
X19674281Y-62902219D03*
X20174281Y-62902219D03*
D22*
X20674281Y-62902219D03*
X20674281Y-61902219D03*
D23*
X20174281Y-61902219D03*
X19674281Y-61902219D03*
D22*
X19174281Y-61902219D03*
%TD*%
D50*
%TO.C,U14*%
X18158657Y-32249999D03*
X17508657Y-32249999D03*
X16858657Y-32249999D03*
X16208657Y-32249999D03*
X16208657Y-35649999D03*
X16858657Y-35649999D03*
X17508657Y-35649999D03*
X18158657Y-35649999D03*
%TD*%
D51*
%TO.C,C38*%
X22960694Y-78532234D03*
X22960694Y-81482234D03*
%TD*%
D52*
%TO.C,H1*%
X27082000Y-23758800D03*
X27565274Y-22592074D03*
X27565274Y-24925526D03*
X28732000Y-22108800D03*
D53*
X28732000Y-23758800D03*
D52*
X28732000Y-25408800D03*
X29898726Y-22592074D03*
X29898726Y-24925526D03*
X30382000Y-23758800D03*
%TD*%
D42*
%TO.C,R26*%
X11858407Y-36914319D03*
X11858407Y-37934317D03*
%TD*%
D41*
%TO.C,R8*%
X20335000Y-37275000D03*
X19315000Y-37275000D03*
%TD*%
D54*
%TO.C,C43*%
X30240000Y-5650000D03*
X30240000Y-7200000D03*
%TD*%
D42*
%TO.C,R17*%
X18281236Y-86101412D03*
X18281236Y-87121412D03*
%TD*%
D55*
%TO.C,D3*%
X15662500Y-101600000D03*
X15662500Y-98800000D03*
%TD*%
D42*
%TO.C,R22*%
X14690000Y-5700000D03*
X14690000Y-6720000D03*
%TD*%
D56*
%TO.C,C19*%
X14440000Y-93450000D03*
X11490000Y-93450000D03*
%TD*%
D57*
%TO.C,C39*%
X14690000Y-8200000D03*
X14690000Y-9160000D03*
%TD*%
%TO.C,C37*%
X14173657Y-47509999D03*
X14173657Y-48469999D03*
%TD*%
D58*
%TO.C,L5*%
X25662906Y-75579751D03*
X24087906Y-75579751D03*
%TD*%
D26*
%TO.C,C11*%
X15670000Y-52700000D03*
X14710000Y-52700000D03*
%TD*%
D20*
%TO.C,D9*%
X1495000Y-13385000D03*
X2465000Y-13385000D03*
%TD*%
D41*
%TO.C,R38*%
X14953657Y-34699999D03*
X13933657Y-34699999D03*
%TD*%
D39*
%TO.C,C30*%
X16770439Y-82701286D03*
X16770439Y-81741286D03*
%TD*%
D26*
%TO.C,C3*%
X18200000Y-62110000D03*
X17240000Y-62110000D03*
%TD*%
D59*
%TO.C,L6*%
X19926156Y-88753655D03*
X19926156Y-87178655D03*
%TD*%
D60*
%TO.C,F3*%
X9443657Y-35437499D03*
X9443657Y-33562499D03*
%TD*%
D61*
%TO.C,R11*%
X8440000Y-14818293D03*
X8440000Y-13798293D03*
%TD*%
D39*
%TO.C,C10*%
X16927314Y-52679999D03*
X16927314Y-51719999D03*
%TD*%
D62*
%TO.C,Y1*%
X27456811Y-60510800D03*
X29656811Y-60510800D03*
X29656811Y-58810800D03*
X27456811Y-58810800D03*
%TD*%
D48*
%TO.C,C5*%
X26943353Y-56400000D03*
X27903353Y-56400000D03*
%TD*%
D58*
%TO.C,L4*%
X25662906Y-77089751D03*
X24087906Y-77089751D03*
%TD*%
D42*
%TO.C,R33*%
X18190000Y-25823593D03*
X18190000Y-26843593D03*
%TD*%
D41*
%TO.C,R32*%
X23969677Y-12012793D03*
X22949677Y-12012793D03*
%TD*%
D42*
%TO.C,R37*%
X17939649Y-37130004D03*
X17939649Y-38150004D03*
%TD*%
D34*
%TO.C,RN9*%
X6188176Y-72694062D03*
D35*
X6188177Y-72194062D03*
X6188177Y-71694062D03*
D34*
X6188176Y-71194062D03*
X5188178Y-71194062D03*
D35*
X5188177Y-71694062D03*
X5188177Y-72194062D03*
D34*
X5188178Y-72694062D03*
%TD*%
D61*
%TO.C,R13*%
X14690000Y-11460000D03*
X14690000Y-10440000D03*
%TD*%
D48*
%TO.C,C1*%
X24695000Y-42705000D03*
X25655000Y-42705000D03*
%TD*%
D41*
%TO.C,R14*%
X6400000Y-11700000D03*
X5380000Y-11700000D03*
%TD*%
D56*
%TO.C,C20*%
X22915000Y-90620474D03*
X19965000Y-90620474D03*
%TD*%
D63*
%TO.C,C26*%
X7305000Y-29870000D03*
X10255000Y-29870000D03*
%TD*%
D26*
%TO.C,C9*%
X15670000Y-56300000D03*
X14710000Y-56300000D03*
%TD*%
D64*
%TO.C,L8*%
X27408855Y-81299916D03*
X27408855Y-83174916D03*
%TD*%
D65*
%TO.C,C27*%
X5465000Y-29950000D03*
X3915000Y-29950000D03*
%TD*%
D28*
%TO.C,SW3*%
X5340000Y-3450000D03*
X5340000Y-8450000D03*
X5340000Y-5950000D03*
X11590000Y-3450000D03*
X11590000Y-8450000D03*
%TD*%
D56*
%TO.C,C24*%
X5158657Y-76449999D03*
X2208657Y-76449999D03*
%TD*%
D60*
%TO.C,F2*%
X15662500Y-106000000D03*
X15662500Y-104125000D03*
%TD*%
D51*
%TO.C,C42*%
X28340000Y-5750000D03*
X28340000Y-8700000D03*
%TD*%
D18*
%TO.C,J2*%
X6440000Y-91810000D03*
D19*
X6440000Y-89270000D03*
X6440000Y-86730000D03*
X6440000Y-84190000D03*
X6440000Y-81650000D03*
X6440000Y-79110000D03*
X3900000Y-91810000D03*
X3900000Y-89270000D03*
X3900000Y-86730000D03*
X3900000Y-84190000D03*
X3900000Y-81650000D03*
X3900000Y-79110000D03*
%TD*%
D66*
%TO.C,U13*%
X14433657Y-45449999D03*
X14433657Y-45049999D03*
X14433657Y-44649999D03*
X14433657Y-44249999D03*
X14433657Y-43849999D03*
X14433657Y-43449999D03*
X14433657Y-43049999D03*
X14433657Y-42649999D03*
X14433657Y-42249999D03*
X14433657Y-41849999D03*
X14433657Y-41449999D03*
D67*
X13733657Y-40449999D03*
X13333657Y-40449999D03*
X12933657Y-40449999D03*
X12533657Y-40449999D03*
X12133657Y-40449999D03*
D66*
X11433657Y-41449999D03*
X11433657Y-41849999D03*
X11433657Y-42249999D03*
X11433657Y-42649999D03*
X11433657Y-43049999D03*
X11433657Y-43449999D03*
X11433657Y-43849999D03*
X11433657Y-44249999D03*
X11433657Y-44649999D03*
X11433657Y-45049999D03*
X11433657Y-45449999D03*
D67*
X12133657Y-46449999D03*
X12533657Y-46449999D03*
X12933657Y-46449999D03*
X13333657Y-46449999D03*
X13733657Y-46449999D03*
D68*
X12933657Y-43449999D03*
%TD*%
D38*
%TO.C,C51*%
X17007383Y-41649999D03*
X16554835Y-42102547D03*
%TD*%
D69*
%TO.C,U10*%
X28433657Y-78449999D03*
X27933657Y-78449999D03*
X27433657Y-78449999D03*
X27433657Y-79949999D03*
X27933657Y-79949999D03*
X28433657Y-79949999D03*
%TD*%
D42*
%TO.C,R39*%
X30460273Y-78471108D03*
X30460273Y-79491108D03*
%TD*%
D49*
%TO.C,C32*%
X25280137Y-82706662D03*
X25280137Y-79756662D03*
%TD*%
D30*
%TO.C,R7*%
X12830000Y-55475000D03*
X13850000Y-55475000D03*
%TD*%
%TO.C,R6*%
X12830000Y-54475000D03*
X13850000Y-54475000D03*
%TD*%
D42*
%TO.C,R18*%
X18280038Y-84205632D03*
X18280038Y-85225632D03*
%TD*%
%TO.C,R36*%
X15195734Y-37546789D03*
X15195734Y-38566789D03*
%TD*%
D61*
%TO.C,R16*%
X29540000Y-63300000D03*
X29540000Y-62280000D03*
%TD*%
%TO.C,R31*%
X9923657Y-37929999D03*
X9923657Y-36909999D03*
%TD*%
D41*
%TO.C,R40*%
X13243657Y-49879999D03*
X12223657Y-49879999D03*
%TD*%
D26*
%TO.C,C12*%
X15670000Y-53700000D03*
X14710000Y-53700000D03*
%TD*%
D70*
%TO.C,J8*%
X28890000Y-72709400D03*
X28640000Y-65159400D03*
X28390000Y-72709400D03*
X28140000Y-65159400D03*
X27890000Y-72709400D03*
X27640000Y-65159400D03*
X27390000Y-72709400D03*
X27140000Y-65159400D03*
X26890000Y-72709400D03*
X26640000Y-65159400D03*
X26390000Y-72709400D03*
X26140000Y-65159400D03*
X25890000Y-72709400D03*
X25640000Y-65159400D03*
X25390000Y-72709400D03*
X25140000Y-65159400D03*
X24890000Y-72709400D03*
X24640000Y-65159400D03*
X24390000Y-72709400D03*
X24140000Y-65159400D03*
X23890000Y-72709400D03*
X23640000Y-65159400D03*
X23390000Y-72709400D03*
X21140000Y-65159400D03*
X20890000Y-72709400D03*
X20640000Y-65159400D03*
X20390000Y-72709400D03*
X20140000Y-65159400D03*
X19890000Y-72709400D03*
X19640000Y-65159400D03*
X19390000Y-72709400D03*
X19140000Y-65159400D03*
X18890000Y-72709400D03*
X18640000Y-65159400D03*
X18390000Y-72709400D03*
X18140000Y-65159400D03*
X17890000Y-72709400D03*
X17640000Y-65159400D03*
X17390000Y-72709400D03*
X17140000Y-65159400D03*
X16890000Y-72709400D03*
X16640000Y-65159400D03*
X16390000Y-72709400D03*
X16140000Y-65159400D03*
X15890000Y-72709400D03*
X15640000Y-65159400D03*
X15390000Y-72709400D03*
X15140000Y-65159400D03*
X14890000Y-72709400D03*
X14640000Y-65159400D03*
X14390000Y-72709400D03*
X14140000Y-65159400D03*
X13890000Y-72709400D03*
X13640000Y-65159400D03*
X13390000Y-72709400D03*
X13140000Y-65159400D03*
X12890000Y-72709400D03*
X12640000Y-65159400D03*
X12390000Y-72709400D03*
X12140000Y-65159400D03*
X11890000Y-72709400D03*
X11640000Y-65159400D03*
X11390000Y-72709400D03*
X11140000Y-65159400D03*
X10890000Y-72709400D03*
X10640000Y-65159400D03*
X10390000Y-72709400D03*
D71*
X29990000Y-71934400D03*
X9290000Y-71934400D03*
%TD*%
D48*
%TO.C,C13*%
X26960000Y-55125000D03*
X27920000Y-55125000D03*
%TD*%
D41*
%TO.C,R19*%
X6650000Y-21450000D03*
X5630000Y-21450000D03*
%TD*%
D42*
%TO.C,R15*%
X30515000Y-62290000D03*
X30515000Y-63310000D03*
%TD*%
D48*
%TO.C,C16*%
X27046309Y-62651682D03*
X28006309Y-62651682D03*
%TD*%
D72*
%TO.C,U9*%
X14415000Y-25433593D03*
X14415000Y-26383593D03*
X14415000Y-27333593D03*
X16690000Y-27333593D03*
X16690000Y-25433593D03*
%TD*%
D41*
%TO.C,R50*%
X13233657Y-47999999D03*
X12213657Y-47999999D03*
%TD*%
D42*
%TO.C,R9*%
X13733657Y-36914319D03*
X13733657Y-37934317D03*
%TD*%
D38*
%TO.C,C53*%
X15983657Y-40648725D03*
X15531109Y-41101273D03*
%TD*%
D42*
%TO.C,R44*%
X16133657Y-37559999D03*
X16133657Y-38579999D03*
%TD*%
D20*
%TO.C,D5*%
X1500000Y-14325000D03*
X2470000Y-14325000D03*
%TD*%
%TO.C,D7*%
X1500000Y-109080000D03*
X2470000Y-109080000D03*
%TD*%
D41*
%TO.C,R27*%
X15440000Y-28833593D03*
X14420000Y-28833593D03*
%TD*%
D63*
%TO.C,C29*%
X27240374Y-75949999D03*
X30190374Y-75949999D03*
%TD*%
D73*
%TO.C,D2*%
X16140000Y-92950000D03*
X18940000Y-92950000D03*
%TD*%
D61*
%TO.C,R28*%
X10883657Y-37933587D03*
X10883657Y-36913587D03*
%TD*%
D41*
%TO.C,R3*%
X28135000Y-42675000D03*
X27115000Y-42675000D03*
%TD*%
D74*
%TO.C,SW2*%
X23790001Y-24650000D03*
X23790001Y-30850000D03*
X20089999Y-24650000D03*
X20089999Y-30850000D03*
%TD*%
D48*
%TO.C,C25*%
X23940000Y-88450000D03*
X24900000Y-88450000D03*
%TD*%
D42*
%TO.C,R1*%
X15165000Y-74215000D03*
X15165000Y-75235000D03*
%TD*%
D75*
%TO.C,D1*%
X6390000Y-97825000D03*
X3590000Y-97825000D03*
%TD*%
D57*
%TO.C,C41*%
X14690000Y-3470000D03*
X14690000Y-4430000D03*
%TD*%
D40*
%TO.C,C46*%
X16034931Y-45476273D03*
X15582383Y-45023725D03*
%TD*%
D20*
%TO.C,D13*%
X1505000Y-12435000D03*
X2475000Y-12435000D03*
%TD*%
D40*
%TO.C,C48*%
X17038951Y-44484081D03*
X16586403Y-44031533D03*
%TD*%
D39*
%TO.C,C15*%
X28960274Y-57385395D03*
X28960274Y-56425395D03*
%TD*%
D61*
%TO.C,R12*%
X9430000Y-14818293D03*
X9430000Y-13798293D03*
%TD*%
D49*
%TO.C,C23*%
X23330380Y-87309233D03*
X23330380Y-84359233D03*
%TD*%
D48*
%TO.C,C40*%
X12230000Y-11700000D03*
X13190000Y-11700000D03*
%TD*%
D57*
%TO.C,C4*%
X22290940Y-62469999D03*
X22290940Y-63429999D03*
%TD*%
D41*
%TO.C,R5*%
X27940000Y-57350000D03*
X26920000Y-57350000D03*
%TD*%
D54*
%TO.C,C34*%
X15447765Y-76442234D03*
X15447765Y-77992234D03*
%TD*%
D42*
%TO.C,R2*%
X16215000Y-74215000D03*
X16215000Y-75235000D03*
%TD*%
D76*
%TO.C,L3*%
X19005905Y-80823882D03*
X19005905Y-75970882D03*
%TD*%
D52*
%TO.C,H2*%
X27082000Y-88842074D03*
X27565274Y-87675348D03*
X27565274Y-90008800D03*
X28732000Y-87192074D03*
D53*
X28732000Y-88842074D03*
D52*
X28732000Y-90492074D03*
X29898726Y-87675348D03*
X29898726Y-90008800D03*
X30382000Y-88842074D03*
%TD*%
D30*
%TO.C,R30*%
X9940000Y-11700000D03*
X10960000Y-11700000D03*
%TD*%
D57*
%TO.C,C31*%
X17327542Y-86140624D03*
X17327542Y-87100624D03*
%TD*%
D77*
%TO.C,U8*%
X8269220Y-23656686D03*
X8669220Y-23656686D03*
D78*
X9294220Y-23531686D03*
X9294220Y-23131686D03*
X9294220Y-22731686D03*
X9294220Y-22331686D03*
D77*
X8669220Y-22206686D03*
X8269220Y-22206686D03*
D78*
X7644220Y-22331686D03*
X7644220Y-22731686D03*
X7644220Y-23131686D03*
X7644220Y-23531686D03*
%TD*%
D26*
%TO.C,C14*%
X15070000Y-58760000D03*
X14110000Y-58760000D03*
%TD*%
D40*
%TO.C,C47*%
X16534931Y-44976273D03*
X16082383Y-44523725D03*
%TD*%
D41*
%TO.C,R4*%
X27945642Y-54200000D03*
X26925642Y-54200000D03*
%TD*%
D79*
%TO.C,U7*%
X26190000Y-4450000D03*
X25540000Y-4450000D03*
X24890000Y-4450000D03*
X24240000Y-4450000D03*
X23590000Y-4450000D03*
X22940000Y-4450000D03*
X22290000Y-4450000D03*
X21640000Y-4450000D03*
X20990000Y-4450000D03*
X20340000Y-4450000D03*
X19690000Y-4450000D03*
X19040000Y-4450000D03*
X18390000Y-4450000D03*
X17740000Y-4450000D03*
X17740000Y-10175000D03*
X18390000Y-10175000D03*
X19040000Y-10175000D03*
X19690000Y-10175000D03*
X20340000Y-10175000D03*
X20990000Y-10175000D03*
X21640000Y-10175000D03*
X22290000Y-10175000D03*
X22940000Y-10175000D03*
X23590000Y-10175000D03*
X24240000Y-10175000D03*
X24890000Y-10175000D03*
X25540000Y-10175000D03*
X26190000Y-10175000D03*
%TD*%
D80*
%TO.C,C45*%
X17383657Y-47849999D03*
X15483657Y-47849999D03*
%TD*%
D26*
%TO.C,C6*%
X22103870Y-52204428D03*
X21143870Y-52204428D03*
%TD*%
D81*
%TO.C,J4*%
X1090000Y-103507736D03*
X9190000Y-101507736D03*
X7290000Y-103507736D03*
X3590000Y-101507736D03*
X12890000Y-103507736D03*
%TD*%
D26*
%TO.C,C8*%
X15670000Y-57300000D03*
X14710000Y-57300000D03*
%TD*%
D61*
%TO.C,R42*%
X29501599Y-79482149D03*
X29501599Y-78462149D03*
%TD*%
D82*
%TO.C,D4*%
X11173657Y-32369999D03*
X14473657Y-32369999D03*
%TD*%
D83*
%TO.C,RN6*%
X10933657Y-77699999D03*
D84*
X10580104Y-77346445D03*
X10226551Y-76992892D03*
D83*
X9872997Y-76639339D03*
X9165891Y-77346445D03*
D84*
X9519444Y-77699999D03*
X9872997Y-78053552D03*
D83*
X10226551Y-78407105D03*
%TD*%
D38*
%TO.C,C52*%
X16484931Y-41147451D03*
X16032383Y-41599999D03*
%TD*%
D42*
%TO.C,R23*%
X7430000Y-13778293D03*
X7430000Y-14798293D03*
%TD*%
D30*
%TO.C,R21*%
X7420000Y-11700000D03*
X8440000Y-11700000D03*
%TD*%
D58*
%TO.C,L7*%
X15790000Y-95450000D03*
X14215000Y-95450000D03*
%TD*%
M02*
