%TF.GenerationSoftware,KiCad,Pcbnew,9.0.0*%
%TF.CreationDate,2025-04-05T19:06:25+02:00*%
%TF.ProjectId,tiliqua-motherboard,74696c69-7175-4612-9d6d-6f7468657262,rev?*%
%TF.SameCoordinates,Original*%
%TF.FileFunction,Soldermask,Bot*%
%TF.FilePolarity,Negative*%
%FSLAX46Y46*%
G04 Gerber Fmt 4.6, Leading zero omitted, Abs format (unit mm)*
G04 Created by KiCad (PCBNEW 9.0.0) date 2025-04-05 19:06:25*
%MOMM*%
%LPD*%
G01*
G04 APERTURE LIST*
G04 Aperture macros list*
%AMRoundRect*
0 Rectangle with rounded corners*
0 $1 Rounding radius*
0 $2 $3 $4 $5 $6 $7 $8 $9 X,Y pos of 4 corners*
0 Add a 4 corners polygon primitive as box body*
4,1,4,$2,$3,$4,$5,$6,$7,$8,$9,$2,$3,0*
0 Add four circle primitives for the rounded corners*
1,1,$1+$1,$2,$3*
1,1,$1+$1,$4,$5*
1,1,$1+$1,$6,$7*
1,1,$1+$1,$8,$9*
0 Add four rect primitives between the rounded corners*
20,1,$1+$1,$2,$3,$4,$5,0*
20,1,$1+$1,$4,$5,$6,$7,0*
20,1,$1+$1,$6,$7,$8,$9,0*
20,1,$1+$1,$8,$9,$2,$3,0*%
G04 Aperture macros list end*
%ADD10C,0.250000*%
%ADD11C,0.010000*%
%ADD12C,0.100000*%
%ADD13C,0.300000*%
%ADD14C,0.000000*%
%ADD15C,0.600000*%
%ADD16O,1.600000X1.000000*%
%ADD17O,2.000000X1.000000*%
%ADD18R,1.700000X1.700000*%
%ADD19O,1.700000X1.700000*%
%ADD20C,1.800000*%
%ADD21C,6.400000*%
%ADD22C,0.700000*%
%ADD23C,4.400000*%
%ADD24C,1.100000*%
%ADD25C,1.600000*%
%ADD26O,1.500000X3.500000*%
%ADD27RoundRect,0.147500X-0.147500X-0.172500X0.147500X-0.172500X0.147500X0.172500X-0.147500X0.172500X0*%
%ADD28RoundRect,0.135000X0.035355X-0.226274X0.226274X-0.035355X-0.035355X0.226274X-0.226274X0.035355X0*%
%ADD29RoundRect,0.135000X-0.035355X0.226274X-0.226274X0.035355X0.035355X-0.226274X0.226274X-0.035355X0*%
%ADD30R,1.400000X1.200000*%
%ADD31RoundRect,0.150000X0.150000X-0.512500X0.150000X0.512500X-0.150000X0.512500X-0.150000X-0.512500X0*%
%ADD32R,1.800000X0.300000*%
%ADD33R,3.200000X2.500000*%
%ADD34R,0.500000X0.400000*%
%ADD35R,0.500000X0.300000*%
%ADD36R,1.600000X3.100000*%
%ADD37RoundRect,0.140000X-0.140000X-0.170000X0.140000X-0.170000X0.140000X0.170000X-0.140000X0.170000X0*%
%ADD38RoundRect,0.250000X0.475000X-0.250000X0.475000X0.250000X-0.475000X0.250000X-0.475000X-0.250000X0*%
%ADD39RoundRect,0.087500X0.087500X-0.725000X0.087500X0.725000X-0.087500X0.725000X-0.087500X-0.725000X0*%
%ADD40RoundRect,0.135000X0.185000X-0.135000X0.185000X0.135000X-0.185000X0.135000X-0.185000X-0.135000X0*%
%ADD41RoundRect,0.135000X-0.135000X-0.185000X0.135000X-0.185000X0.135000X0.185000X-0.135000X0.185000X0*%
%ADD42RoundRect,0.140000X-0.170000X0.140000X-0.170000X-0.140000X0.170000X-0.140000X0.170000X0.140000X0*%
G04 APERTURE END LIST*
D10*
X22333657Y-17499999D02*
X22333657Y-15399999D01*
D11*
X375367Y-77386701D02*
X1971480Y-77386701D01*
X1971480Y-96063239D01*
X375367Y-96063239D01*
X375367Y-77386701D01*
G36*
X375367Y-77386701D02*
G01*
X1971480Y-77386701D01*
X1971480Y-96063239D01*
X375367Y-96063239D01*
X375367Y-77386701D01*
G37*
D12*
X12311430Y-41706277D02*
X13533657Y-41706277D01*
X13533657Y-45149999D01*
X12311430Y-45149999D01*
X12311430Y-41706277D01*
G36*
X12311430Y-41706277D02*
G01*
X13533657Y-41706277D01*
X13533657Y-45149999D01*
X12311430Y-45149999D01*
X12311430Y-41706277D01*
G37*
D11*
X337544Y-18773461D02*
X1683657Y-18773461D01*
X1683657Y-30949999D01*
X337544Y-30949999D01*
X337544Y-18773461D01*
G36*
X337544Y-18773461D02*
G01*
X1683657Y-18773461D01*
X1683657Y-30949999D01*
X337544Y-30949999D01*
X337544Y-18773461D01*
G37*
X26947773Y-80161731D02*
X28940000Y-80161731D01*
X28940000Y-81398957D01*
X26947773Y-81398957D01*
X26947773Y-80161731D01*
G36*
X26947773Y-80161731D02*
G01*
X28940000Y-80161731D01*
X28940000Y-81398957D01*
X26947773Y-81398957D01*
X26947773Y-80161731D01*
G37*
X433657Y-449999D02*
X2771926Y-449999D01*
X2771926Y-2046112D01*
X433657Y-2046112D01*
X433657Y-449999D01*
G36*
X433657Y-449999D02*
G01*
X2771926Y-449999D01*
X2771926Y-2046112D01*
X433657Y-2046112D01*
X433657Y-449999D01*
G37*
X19496544Y-55658743D02*
X22688771Y-55658743D01*
X22688771Y-58835281D01*
X19496544Y-58835281D01*
X19496544Y-55658743D01*
G36*
X19496544Y-55658743D02*
G01*
X22688771Y-55658743D01*
X22688771Y-58835281D01*
X19496544Y-58835281D01*
X19496544Y-55658743D01*
G37*
X337544Y-57023461D02*
X1433657Y-57023461D01*
X1433657Y-69199999D01*
X337544Y-69199999D01*
X337544Y-57023461D01*
G36*
X337544Y-57023461D02*
G01*
X1433657Y-57023461D01*
X1433657Y-69199999D01*
X337544Y-69199999D01*
X337544Y-57023461D01*
G37*
D10*
X22333657Y-28699999D02*
X22333657Y-26599999D01*
D11*
X344782Y-35537990D02*
X2690895Y-35537990D01*
X2690895Y-47714528D01*
X344782Y-47714528D01*
X344782Y-35537990D01*
G36*
X344782Y-35537990D02*
G01*
X2690895Y-35537990D01*
X2690895Y-47714528D01*
X344782Y-47714528D01*
X344782Y-35537990D01*
G37*
D13*
G36*
X30991509Y-10756685D02*
G01*
X30978943Y-10686759D01*
X30941244Y-10630168D01*
X30880769Y-10591214D01*
X30815068Y-10580244D01*
X29227441Y-10580244D01*
X29157514Y-10592725D01*
X29100923Y-10630168D01*
X29061969Y-10690738D01*
X29051000Y-10756685D01*
X29051000Y-11076057D01*
X29223337Y-11076057D01*
X29223337Y-10829177D01*
X29268366Y-10777004D01*
X29282151Y-10776176D01*
X30760016Y-10776176D01*
X30817393Y-10813908D01*
X30818829Y-10829177D01*
X30818829Y-11076057D01*
X30991509Y-11076057D01*
X30991509Y-10756685D01*
G37*
G36*
X30272610Y-11198273D02*
G01*
X30343760Y-11212251D01*
X30409527Y-11244976D01*
X30430089Y-11260852D01*
X30479045Y-11313922D01*
X30513135Y-11374571D01*
X30530160Y-11422133D01*
X30544193Y-11491104D01*
X30548355Y-11559902D01*
X30547911Y-11584250D01*
X30540345Y-11654891D01*
X30519974Y-11720272D01*
X30499209Y-11758642D01*
X30452612Y-11812596D01*
X30442936Y-11820215D01*
X30383882Y-11859784D01*
X30383882Y-11889191D01*
X30389695Y-11889191D01*
X30428509Y-11894282D01*
X30485780Y-11932275D01*
X30509856Y-11974817D01*
X30521000Y-12043747D01*
X30521000Y-12194885D01*
X30352423Y-12194885D01*
X30352423Y-12112477D01*
X30350987Y-12096716D01*
X30293609Y-12057767D01*
X29895591Y-12057767D01*
X29884663Y-12057661D01*
X29812543Y-12051014D01*
X29739496Y-12030754D01*
X29676450Y-11996987D01*
X29623407Y-11949714D01*
X29611772Y-11935936D01*
X29572737Y-11874547D01*
X29545713Y-11803114D01*
X29531920Y-11732370D01*
X29527322Y-11653936D01*
X29530432Y-11588275D01*
X29542682Y-11515664D01*
X29566645Y-11446036D01*
X29579436Y-11419943D01*
X29618397Y-11359916D01*
X29669569Y-11307893D01*
X29685699Y-11295342D01*
X29745772Y-11258401D01*
X29811474Y-11232324D01*
X29872339Y-11420733D01*
X29867453Y-11421859D01*
X29801130Y-11447490D01*
X29744796Y-11492882D01*
X29728178Y-11515246D01*
X29702775Y-11580798D01*
X29695898Y-11651884D01*
X29696694Y-11677524D01*
X29710277Y-11748974D01*
X29746847Y-11808835D01*
X29750064Y-11811969D01*
X29810342Y-11848589D01*
X29881914Y-11859784D01*
X29944831Y-11859784D01*
X29944831Y-11577341D01*
X30101439Y-11577341D01*
X30101439Y-11859784D01*
X30121272Y-11859784D01*
X30192097Y-11852504D01*
X30258358Y-11827681D01*
X30312416Y-11785241D01*
X30351936Y-11728457D01*
X30375051Y-11660602D01*
X30381830Y-11589309D01*
X30381792Y-11583832D01*
X30373265Y-11514792D01*
X30342849Y-11450140D01*
X30306384Y-11417152D01*
X30236847Y-11399191D01*
X30191407Y-11406067D01*
X30135975Y-11448088D01*
X30109028Y-11508920D01*
X30101439Y-11577341D01*
X29944831Y-11577341D01*
X29944831Y-11565715D01*
X29946925Y-11514125D01*
X29957921Y-11442029D01*
X29978341Y-11376281D01*
X29987140Y-11356053D01*
X30025933Y-11293838D01*
X30077161Y-11244976D01*
X30107521Y-11226323D01*
X30172584Y-11203836D01*
X30242660Y-11197104D01*
X30272610Y-11198273D01*
G37*
G36*
X30912863Y-12591535D02*
G01*
X30389695Y-12591535D01*
X30389695Y-12622994D01*
X30413971Y-12639243D01*
X30465263Y-12685569D01*
X30494491Y-12724820D01*
X30524761Y-12789519D01*
X30530291Y-12806135D01*
X30544461Y-12876630D01*
X30548355Y-12948179D01*
X30548125Y-12963318D01*
X30540084Y-13036688D01*
X30520556Y-13106184D01*
X30489541Y-13171807D01*
X30478060Y-13190550D01*
X30433233Y-13247771D01*
X30378323Y-13296912D01*
X30320281Y-13334229D01*
X30269602Y-13357945D01*
X30197952Y-13379878D01*
X30128132Y-13391290D01*
X30052542Y-13395094D01*
X30023135Y-13395094D01*
X29966018Y-13392918D01*
X29894873Y-13383248D01*
X29821681Y-13363121D01*
X29755738Y-13333203D01*
X29742092Y-13325356D01*
X29679955Y-13281511D01*
X29627970Y-13229987D01*
X29586136Y-13170782D01*
X29579014Y-13158091D01*
X29550296Y-13092194D01*
X29533065Y-13022223D01*
X29527322Y-12948179D01*
X29527372Y-12939438D01*
X29530753Y-12889365D01*
X29705473Y-12889365D01*
X29706215Y-12913579D01*
X29717350Y-12981352D01*
X29745393Y-13048091D01*
X29789932Y-13105813D01*
X29823964Y-13134865D01*
X29884344Y-13167172D01*
X29955922Y-13185955D01*
X30028948Y-13191298D01*
X30046729Y-13191298D01*
X30093907Y-13189236D01*
X30162066Y-13177359D01*
X30227964Y-13151378D01*
X30287796Y-13106839D01*
X30302829Y-13090634D01*
X30342259Y-13030367D01*
X30365260Y-12960483D01*
X30371914Y-12889365D01*
X30371585Y-12873379D01*
X30360085Y-12798580D01*
X30332155Y-12732329D01*
X30287796Y-12674627D01*
X30253588Y-12645691D01*
X30192763Y-12613513D01*
X30120524Y-12594805D01*
X30046729Y-12589484D01*
X30028948Y-12589484D01*
X29982270Y-12591562D01*
X29914774Y-12603536D01*
X29849417Y-12629727D01*
X29789932Y-12674627D01*
X29774838Y-12691040D01*
X29735248Y-12751307D01*
X29712153Y-12820122D01*
X29705473Y-12889365D01*
X29530753Y-12889365D01*
X29532297Y-12866507D01*
X29547224Y-12797592D01*
X29578271Y-12731731D01*
X29587944Y-12717898D01*
X29636265Y-12662247D01*
X29693847Y-12618891D01*
X29693847Y-12587774D01*
X29554677Y-12587774D01*
X29554677Y-12389791D01*
X30912863Y-12389791D01*
X30912863Y-12591535D01*
G37*
G36*
X30521000Y-13784222D02*
G01*
X29725305Y-13784222D01*
X29725305Y-13513747D01*
X29554677Y-13513747D01*
X29554677Y-13784222D01*
X29343016Y-13784222D01*
X29272630Y-13794301D01*
X29212323Y-13827470D01*
X29202137Y-13836881D01*
X29164094Y-13894308D01*
X29149602Y-13961870D01*
X29149136Y-13978102D01*
X29149136Y-14227034D01*
X29319422Y-14227034D01*
X29319422Y-14042729D01*
X29361293Y-13987352D01*
X29378236Y-13985967D01*
X29554677Y-13985967D01*
X29554677Y-14264306D01*
X29725305Y-14264306D01*
X29725305Y-13985967D01*
X30521000Y-13985967D01*
X30521000Y-13784222D01*
G37*
G36*
X30548355Y-14467076D02*
G01*
X30534182Y-14396896D01*
X30503561Y-14352184D01*
X30444668Y-14315135D01*
X30387643Y-14306364D01*
X30320232Y-14319296D01*
X30273093Y-14352184D01*
X30237426Y-14411257D01*
X30228983Y-14467076D01*
X30243264Y-14537148D01*
X30274119Y-14581626D01*
X30332254Y-14618952D01*
X30387643Y-14627788D01*
X30455610Y-14614760D01*
X30503561Y-14581626D01*
X30539781Y-14522830D01*
X30548355Y-14467076D01*
G37*
G36*
X30272610Y-14824204D02*
G01*
X30343760Y-14838183D01*
X30409527Y-14870907D01*
X30430089Y-14886784D01*
X30479045Y-14939854D01*
X30513135Y-15000503D01*
X30530160Y-15048065D01*
X30544193Y-15117035D01*
X30548355Y-15185834D01*
X30547911Y-15210181D01*
X30540345Y-15280823D01*
X30519974Y-15346204D01*
X30499209Y-15384574D01*
X30452612Y-15438528D01*
X30442936Y-15446147D01*
X30383882Y-15485715D01*
X30383882Y-15515122D01*
X30389695Y-15515122D01*
X30428509Y-15520213D01*
X30485780Y-15558207D01*
X30509856Y-15600749D01*
X30521000Y-15669679D01*
X30521000Y-15820817D01*
X30352423Y-15820817D01*
X30352423Y-15738409D01*
X30350987Y-15722648D01*
X30293609Y-15683699D01*
X29895591Y-15683699D01*
X29884663Y-15683593D01*
X29812543Y-15676945D01*
X29739496Y-15656685D01*
X29676450Y-15622919D01*
X29623407Y-15575646D01*
X29611772Y-15561868D01*
X29572737Y-15500479D01*
X29545713Y-15429045D01*
X29531920Y-15358302D01*
X29527322Y-15279868D01*
X29530432Y-15214207D01*
X29542682Y-15141596D01*
X29566645Y-15071968D01*
X29579436Y-15045875D01*
X29618397Y-14985847D01*
X29669569Y-14933824D01*
X29685699Y-14921274D01*
X29745772Y-14884332D01*
X29811474Y-14858255D01*
X29872339Y-15046664D01*
X29867453Y-15047791D01*
X29801130Y-15073421D01*
X29744796Y-15118814D01*
X29728178Y-15141177D01*
X29702775Y-15206730D01*
X29695898Y-15277816D01*
X29696694Y-15303456D01*
X29710277Y-15374905D01*
X29746847Y-15434766D01*
X29750064Y-15437901D01*
X29810342Y-15474521D01*
X29881914Y-15485715D01*
X29944831Y-15485715D01*
X29944831Y-15203273D01*
X30101439Y-15203273D01*
X30101439Y-15485715D01*
X30121272Y-15485715D01*
X30192097Y-15478436D01*
X30258358Y-15453612D01*
X30312416Y-15411172D01*
X30351936Y-15354389D01*
X30375051Y-15286534D01*
X30381830Y-15215241D01*
X30381792Y-15209763D01*
X30373265Y-15140724D01*
X30342849Y-15076071D01*
X30306384Y-15043084D01*
X30236847Y-15025122D01*
X30191407Y-15031998D01*
X30135975Y-15074020D01*
X30109028Y-15134852D01*
X30101439Y-15203273D01*
X29944831Y-15203273D01*
X29944831Y-15191647D01*
X29946925Y-15140057D01*
X29957921Y-15067961D01*
X29978341Y-15002212D01*
X29987140Y-14981984D01*
X30025933Y-14919770D01*
X30077161Y-14870907D01*
X30107521Y-14852254D01*
X30172584Y-14829768D01*
X30242660Y-14823036D01*
X30272610Y-14824204D01*
G37*
G36*
X30538780Y-16361424D02*
G01*
X30533002Y-16288750D01*
X30515669Y-16221652D01*
X30489883Y-16165492D01*
X30447231Y-16106059D01*
X30393135Y-16057012D01*
X30350713Y-16030084D01*
X30284490Y-16002245D01*
X30217063Y-15986964D01*
X30142758Y-15981234D01*
X30134949Y-15981186D01*
X29554677Y-15981186D01*
X29554677Y-16182931D01*
X30121272Y-16182931D01*
X30193293Y-16189042D01*
X30262792Y-16212507D01*
X30306603Y-16245506D01*
X30345125Y-16304696D01*
X30363254Y-16373658D01*
X30366101Y-16420237D01*
X30357986Y-16492679D01*
X30330316Y-16561489D01*
X30283009Y-16618904D01*
X30223684Y-16658755D01*
X30158015Y-16682001D01*
X30089878Y-16692628D01*
X30042625Y-16694473D01*
X29554677Y-16694473D01*
X29554677Y-16896560D01*
X30521000Y-16896560D01*
X30521000Y-16698577D01*
X30376017Y-16698577D01*
X30376017Y-16667118D01*
X30433121Y-16628906D01*
X30480282Y-16577659D01*
X30486806Y-16568981D01*
X30518478Y-16506775D01*
X30534669Y-16433278D01*
X30538780Y-16361424D01*
G37*
G36*
X30109775Y-17148340D02*
G01*
X30181038Y-17157957D01*
X30254311Y-17177972D01*
X30320281Y-17207725D01*
X30333885Y-17215618D01*
X30395855Y-17259769D01*
X30447740Y-17311735D01*
X30489541Y-17371514D01*
X30496663Y-17384321D01*
X30525381Y-17450438D01*
X30542611Y-17520029D01*
X30548355Y-17593092D01*
X30548305Y-17601853D01*
X30543379Y-17674910D01*
X30528453Y-17743839D01*
X30497406Y-17809540D01*
X30487751Y-17823372D01*
X30439991Y-17879023D01*
X30383882Y-17922380D01*
X30383882Y-17953838D01*
X30521000Y-17953838D01*
X30521000Y-18151821D01*
X29149136Y-18151821D01*
X29149136Y-17949735D01*
X29685982Y-17949735D01*
X29685982Y-17918276D01*
X29661886Y-17902909D01*
X29610755Y-17855701D01*
X29581294Y-17815413D01*
X29550916Y-17750726D01*
X29545386Y-17734350D01*
X29531216Y-17664471D01*
X29530419Y-17649854D01*
X29705473Y-17649854D01*
X29706215Y-17674425D01*
X29717350Y-17742947D01*
X29745393Y-17809946D01*
X29789932Y-17867327D01*
X29817947Y-17891659D01*
X29884344Y-17927950D01*
X29955922Y-17946508D01*
X30028948Y-17951787D01*
X30046729Y-17951787D01*
X30093907Y-17949700D01*
X30162066Y-17937678D01*
X30227964Y-17911382D01*
X30287796Y-17866302D01*
X30302829Y-17849932D01*
X30342259Y-17789504D01*
X30365260Y-17720061D01*
X30371914Y-17649854D01*
X30371585Y-17633868D01*
X30360085Y-17559068D01*
X30332155Y-17492818D01*
X30287796Y-17435115D01*
X30253588Y-17406180D01*
X30192763Y-17374002D01*
X30120524Y-17355294D01*
X30046729Y-17349972D01*
X30028948Y-17349972D01*
X29982270Y-17352051D01*
X29914774Y-17364024D01*
X29849417Y-17390216D01*
X29789932Y-17435115D01*
X29774838Y-17451528D01*
X29735248Y-17511795D01*
X29712153Y-17580611D01*
X29705473Y-17649854D01*
X29530419Y-17649854D01*
X29527322Y-17593092D01*
X29527552Y-17577993D01*
X29535593Y-17504743D01*
X29555121Y-17435233D01*
X29586136Y-17369463D01*
X29597629Y-17350717D01*
X29642669Y-17293443D01*
X29698060Y-17244182D01*
X29756764Y-17206699D01*
X29807611Y-17183116D01*
X29879093Y-17161307D01*
X29948400Y-17149959D01*
X30023135Y-17146176D01*
X30052542Y-17146176D01*
X30109775Y-17148340D01*
G37*
G36*
X30521000Y-18448967D02*
G01*
X29554677Y-18448967D01*
X29554677Y-18650712D01*
X30521000Y-18650712D01*
X30521000Y-18448967D01*
G37*
G36*
X29423372Y-18550523D02*
G01*
X29407026Y-18481283D01*
X29385417Y-18451361D01*
X29325432Y-18416081D01*
X29286254Y-18411354D01*
X29219122Y-18426982D01*
X29187434Y-18451361D01*
X29153662Y-18512271D01*
X29149136Y-18550523D01*
X29164096Y-18618057D01*
X29187434Y-18650370D01*
X29247116Y-18685046D01*
X29286254Y-18689693D01*
X29353520Y-18674332D01*
X29385417Y-18650370D01*
X29418887Y-18589782D01*
X29423372Y-18550523D01*
G37*
G36*
X30108417Y-18904652D02*
G01*
X30178429Y-18914750D01*
X30251062Y-18935766D01*
X30317203Y-18967006D01*
X30350876Y-18988379D01*
X30405093Y-19032783D01*
X30451086Y-19084814D01*
X30488857Y-19144473D01*
X30509077Y-19187918D01*
X30531563Y-19257323D01*
X30544636Y-19331814D01*
X30548355Y-19402296D01*
X30546902Y-19446835D01*
X30536966Y-19523134D01*
X30517618Y-19594457D01*
X30488857Y-19660803D01*
X30468888Y-19695184D01*
X30426549Y-19751011D01*
X30375988Y-19799048D01*
X30317203Y-19839295D01*
X30266321Y-19864477D01*
X30195131Y-19887765D01*
X30126401Y-19899883D01*
X30052542Y-19903922D01*
X30023135Y-19903922D01*
X29967296Y-19901650D01*
X29897444Y-19891552D01*
X29825145Y-19870536D01*
X29759499Y-19839295D01*
X29726105Y-19817897D01*
X29672180Y-19773322D01*
X29626208Y-19720957D01*
X29588187Y-19660803D01*
X29567503Y-19617125D01*
X29544500Y-19547462D01*
X29531126Y-19472821D01*
X29527322Y-19402296D01*
X29707524Y-19402296D01*
X29708276Y-19427158D01*
X29719546Y-19496191D01*
X29747929Y-19563123D01*
X29793009Y-19619770D01*
X29821219Y-19643510D01*
X29887256Y-19678920D01*
X29957653Y-19697027D01*
X30028948Y-19702177D01*
X30046729Y-19702177D01*
X30083407Y-19700874D01*
X30158471Y-19688408D01*
X30223203Y-19662742D01*
X30283009Y-19618744D01*
X30298225Y-19602664D01*
X30338136Y-19542772D01*
X30361417Y-19473195D01*
X30368152Y-19402296D01*
X30367404Y-19378097D01*
X30356179Y-19310549D01*
X30327909Y-19244378D01*
X30283009Y-19187558D01*
X30254701Y-19163522D01*
X30188517Y-19127671D01*
X30118045Y-19109339D01*
X30046729Y-19104124D01*
X30028948Y-19104124D01*
X29992275Y-19105428D01*
X29917262Y-19117894D01*
X29852635Y-19143560D01*
X29793009Y-19187558D01*
X29777732Y-19203622D01*
X29737661Y-19263248D01*
X29714286Y-19332224D01*
X29707524Y-19402296D01*
X29527322Y-19402296D01*
X29528808Y-19357774D01*
X29538972Y-19281588D01*
X29558765Y-19210488D01*
X29588187Y-19144473D01*
X29608328Y-19110388D01*
X29650766Y-19054966D01*
X29701157Y-19007173D01*
X29759499Y-18967006D01*
X29809982Y-18941825D01*
X29880802Y-18918536D01*
X29949340Y-18906419D01*
X30023135Y-18902380D01*
X30052542Y-18902380D01*
X30108417Y-18904652D01*
G37*
G36*
X30991509Y-20022233D02*
G01*
X30818829Y-20022233D01*
X30818829Y-20271165D01*
X30773800Y-20323338D01*
X30760016Y-20324166D01*
X29282151Y-20324166D01*
X29224773Y-20286434D01*
X29223337Y-20271165D01*
X29223337Y-20022233D01*
X29051000Y-20022233D01*
X29051000Y-20341947D01*
X29063480Y-20413156D01*
X29100923Y-20470175D01*
X29161494Y-20509128D01*
X29227441Y-20520098D01*
X30815068Y-20520098D01*
X30884738Y-20507617D01*
X30941244Y-20470175D01*
X30980464Y-20409121D01*
X30991509Y-20341947D01*
X30991509Y-20022233D01*
G37*
D10*
G36*
X23738657Y-26688230D02*
G01*
X23352264Y-26688230D01*
X23352264Y-26986451D01*
X23358446Y-27025438D01*
X23374674Y-27049405D01*
X23400003Y-27063797D01*
X23434879Y-27069005D01*
X23738657Y-27069005D01*
X23738657Y-27221657D01*
X23413875Y-27221657D01*
X23374038Y-27217658D01*
X23343215Y-27206676D01*
X23319353Y-27189417D01*
X23301059Y-27166146D01*
X23289111Y-27138102D01*
X23283632Y-27104054D01*
X23261284Y-27104054D01*
X23242834Y-27143677D01*
X23217138Y-27179196D01*
X23183554Y-27211093D01*
X23144419Y-27234797D01*
X23095985Y-27249831D01*
X23035848Y-27255240D01*
X23020460Y-27255240D01*
X22967473Y-27250723D01*
X22921212Y-27237755D01*
X22880448Y-27216711D01*
X22844623Y-27187976D01*
X22814616Y-27152351D01*
X22790139Y-27108939D01*
X22773031Y-27061756D01*
X22762357Y-27008655D01*
X22758632Y-26948654D01*
X22758632Y-26931802D01*
X22895835Y-26931802D01*
X22900997Y-26985376D01*
X22915121Y-27026685D01*
X22937174Y-27058503D01*
X22967266Y-27082583D01*
X23004151Y-27097392D01*
X23049831Y-27102650D01*
X23061066Y-27102650D01*
X23106696Y-27097327D01*
X23143603Y-27082310D01*
X23173784Y-27057831D01*
X23195888Y-27025595D01*
X23209954Y-26984432D01*
X23215061Y-26931802D01*
X23215061Y-26688230D01*
X22895835Y-26688230D01*
X22895835Y-26931802D01*
X22758632Y-26931802D01*
X22758632Y-26537044D01*
X23738657Y-26537044D01*
X23738657Y-26688230D01*
G37*
G36*
X23538438Y-27855162D02*
G01*
X23738657Y-27855162D01*
X23738657Y-28002196D01*
X23538438Y-28002196D01*
X23538438Y-28167365D01*
X23408257Y-28167365D01*
X23408257Y-28002196D01*
X22758632Y-28002196D01*
X22758632Y-27832813D01*
X22851078Y-27832813D01*
X22851078Y-27855162D01*
X23408257Y-27855162D01*
X23408257Y-27502414D01*
X23388657Y-27502414D01*
X22851078Y-27832813D01*
X22758632Y-27832813D01*
X22758632Y-27734811D01*
X23367652Y-27359593D01*
X23538438Y-27359593D01*
X23538438Y-27855162D01*
G37*
G36*
X23758257Y-28393412D02*
G01*
X23754565Y-28362079D01*
X23743883Y-28335127D01*
X23726078Y-28311529D01*
X23702811Y-28293384D01*
X23675660Y-28282432D01*
X23643463Y-28278618D01*
X23611249Y-28282451D01*
X23584363Y-28293415D01*
X23561580Y-28311529D01*
X23544173Y-28335079D01*
X23533699Y-28362033D01*
X23530073Y-28393412D01*
X23533768Y-28424784D01*
X23544452Y-28451733D01*
X23562252Y-28475294D01*
X23585453Y-28493506D01*
X23612162Y-28504425D01*
X23643463Y-28508206D01*
X23675660Y-28504392D01*
X23702811Y-28493440D01*
X23726078Y-28475294D01*
X23743878Y-28451733D01*
X23754562Y-28424784D01*
X23758257Y-28393412D01*
G37*
G36*
X23738657Y-28881409D02*
G01*
X22862252Y-28881409D01*
X22862252Y-28859061D01*
X23192652Y-28698044D01*
X23192652Y-28542644D01*
X22758632Y-28759654D01*
X22758632Y-29028443D01*
X23738657Y-29028443D01*
X23738657Y-28881409D01*
G37*
G36*
X24018681Y-29119118D02*
G01*
X22758632Y-29530668D01*
X22758632Y-29674893D01*
X24018681Y-29263283D01*
X24018681Y-29119118D01*
G37*
G36*
X23447950Y-29742549D02*
G01*
X23515655Y-29755899D01*
X23572701Y-29776765D01*
X23620724Y-29804570D01*
X23660987Y-29839268D01*
X23702506Y-29892690D01*
X23732697Y-29954699D01*
X23751594Y-30026946D01*
X23758257Y-30111599D01*
X23751573Y-30197018D01*
X23732641Y-30269708D01*
X23702444Y-30331894D01*
X23660987Y-30385273D01*
X23620721Y-30419995D01*
X23572696Y-30447817D01*
X23515649Y-30468695D01*
X23447946Y-30482051D01*
X23367652Y-30486817D01*
X23129637Y-30486817D01*
X23051383Y-30482117D01*
X22984740Y-30468880D01*
X22927961Y-30448079D01*
X22879572Y-30420211D01*
X22838438Y-30385273D01*
X22795985Y-30331759D01*
X22765142Y-30269525D01*
X22745840Y-30196883D01*
X22739032Y-30111599D01*
X22870678Y-30111599D01*
X22875155Y-30164854D01*
X22887795Y-30209623D01*
X22907960Y-30247481D01*
X22935769Y-30279577D01*
X22969778Y-30304762D01*
X23010990Y-30323499D01*
X23060871Y-30335484D01*
X23121272Y-30339783D01*
X23373269Y-30339783D01*
X23433913Y-30335765D01*
X23484159Y-30324567D01*
X23525769Y-30307110D01*
X23560176Y-30283790D01*
X23588130Y-30253631D01*
X23608734Y-30216060D01*
X23621914Y-30169455D01*
X23626671Y-30111599D01*
X23622051Y-30055202D01*
X23609198Y-30009314D01*
X23589024Y-29971904D01*
X23561580Y-29941484D01*
X23527799Y-29917980D01*
X23486286Y-29900294D01*
X23435436Y-29888878D01*
X23373269Y-29884759D01*
X23121272Y-29884759D01*
X23062368Y-29888913D01*
X23013088Y-29900557D01*
X22971792Y-29918861D01*
X22937174Y-29943560D01*
X22908814Y-29975072D01*
X22888225Y-30012679D01*
X22875280Y-30057617D01*
X22870678Y-30111599D01*
X22739032Y-30111599D01*
X22745818Y-30027079D01*
X22765085Y-29954881D01*
X22795923Y-29892824D01*
X22838438Y-29839268D01*
X22879569Y-29804354D01*
X22927955Y-29776503D01*
X22984734Y-29755713D01*
X23051379Y-29742484D01*
X23129637Y-29737786D01*
X23367652Y-29737786D01*
X23447950Y-29742549D01*
G37*
G36*
X23538438Y-31099684D02*
G01*
X23738657Y-31099684D01*
X23738657Y-31246718D01*
X23538438Y-31246718D01*
X23538438Y-31411887D01*
X23408257Y-31411887D01*
X23408257Y-31246718D01*
X22758632Y-31246718D01*
X22758632Y-31077335D01*
X22851078Y-31077335D01*
X22851078Y-31099684D01*
X23408257Y-31099684D01*
X23408257Y-30746936D01*
X23388657Y-30746936D01*
X22851078Y-31077335D01*
X22758632Y-31077335D01*
X22758632Y-30979333D01*
X23367652Y-30604115D01*
X23538438Y-30604115D01*
X23538438Y-31099684D01*
G37*
G36*
X23758257Y-31637934D02*
G01*
X23754565Y-31606601D01*
X23743883Y-31579649D01*
X23726078Y-31556051D01*
X23702811Y-31537906D01*
X23675660Y-31526954D01*
X23643463Y-31523140D01*
X23611249Y-31526973D01*
X23584363Y-31537937D01*
X23561580Y-31556051D01*
X23544173Y-31579601D01*
X23533699Y-31606555D01*
X23530073Y-31637934D01*
X23533768Y-31669306D01*
X23544452Y-31696255D01*
X23562252Y-31719816D01*
X23585453Y-31738028D01*
X23612162Y-31748947D01*
X23643463Y-31752728D01*
X23675660Y-31748914D01*
X23702811Y-31737962D01*
X23726078Y-31719816D01*
X23743878Y-31696255D01*
X23754562Y-31669306D01*
X23758257Y-31637934D01*
G37*
G36*
X23738657Y-31897869D02*
G01*
X23628076Y-31897869D01*
X23560576Y-31902212D01*
X23505289Y-31914242D01*
X23460098Y-31932857D01*
X23419060Y-31959435D01*
X23383503Y-31992597D01*
X23352997Y-32032936D01*
X23316000Y-32102561D01*
X23283632Y-32190411D01*
X23257071Y-32275835D01*
X23236178Y-32330494D01*
X23212252Y-32374509D01*
X23182021Y-32411398D01*
X23145757Y-32438257D01*
X23103424Y-32454849D01*
X23052639Y-32460666D01*
X23047083Y-32460666D01*
X22994624Y-32454075D01*
X22952248Y-32435397D01*
X22917573Y-32404612D01*
X22892215Y-32364882D01*
X22876338Y-32316632D01*
X22870678Y-32257639D01*
X22876718Y-32196964D01*
X22893725Y-32147078D01*
X22921054Y-32105720D01*
X22948099Y-32081105D01*
X22980959Y-32063118D01*
X23020846Y-32051727D01*
X23069431Y-32047651D01*
X23091840Y-32047651D01*
X23091840Y-31902021D01*
X23070835Y-31902021D01*
X23001215Y-31907546D01*
X22941858Y-31923211D01*
X22890951Y-31948244D01*
X22845888Y-31982814D01*
X22808482Y-32024983D01*
X22778233Y-32075617D01*
X22756742Y-32130973D01*
X22743565Y-32191342D01*
X22739032Y-32257639D01*
X22743450Y-32323986D01*
X22756217Y-32383614D01*
X22776889Y-32437524D01*
X22805928Y-32487136D01*
X22841268Y-32528380D01*
X22883257Y-32562149D01*
X22930796Y-32587091D01*
X22984027Y-32602354D01*
X23044274Y-32607639D01*
X23056853Y-32607639D01*
X23119373Y-32603036D01*
X23171499Y-32590140D01*
X23215061Y-32569842D01*
X23254304Y-32541692D01*
X23288746Y-32507135D01*
X23318681Y-32465551D01*
X23355437Y-32395509D01*
X23387252Y-32312227D01*
X23412470Y-32229612D01*
X23434062Y-32167554D01*
X23455152Y-32123916D01*
X23481255Y-32088506D01*
X23510473Y-32065115D01*
X23545608Y-32051337D01*
X23593027Y-32046247D01*
X23607071Y-32046247D01*
X23607071Y-32599213D01*
X23738657Y-32599213D01*
X23738657Y-31897869D01*
G37*
G36*
X23758257Y-33089713D02*
G01*
X23753423Y-33016901D01*
X23739646Y-32953446D01*
X23717652Y-32897922D01*
X23686457Y-32847385D01*
X23648357Y-32805936D01*
X23602857Y-32772625D01*
X23551762Y-32748496D01*
X23494780Y-32733673D01*
X23430666Y-32728539D01*
X23415279Y-32728539D01*
X23415279Y-32878321D01*
X23429262Y-32878321D01*
X23486654Y-32884856D01*
X23533711Y-32903367D01*
X23572755Y-32933581D01*
X23601786Y-32973587D01*
X23620072Y-33024151D01*
X23626671Y-33088309D01*
X23619807Y-33154219D01*
X23600816Y-33205882D01*
X23570678Y-33246517D01*
X23530188Y-33276970D01*
X23480636Y-33295809D01*
X23419431Y-33302510D01*
X23406853Y-33302510D01*
X23348505Y-33295949D01*
X23300773Y-33277396D01*
X23261284Y-33247189D01*
X23231180Y-33207456D01*
X23212976Y-33161202D01*
X23206635Y-33106505D01*
X23210619Y-33061353D01*
X23221350Y-33027431D01*
X23238107Y-32998411D01*
X23257071Y-32976995D01*
X23297676Y-32945549D01*
X23297676Y-32759314D01*
X22758632Y-32759314D01*
X22758632Y-33415900D01*
X22891683Y-33415900D01*
X22891683Y-32906348D01*
X23180073Y-32906348D01*
X23180073Y-32928757D01*
X23157375Y-32945210D01*
X23134583Y-32968630D01*
X23115409Y-32997372D01*
X23098862Y-33036529D01*
X23088639Y-33080876D01*
X23084879Y-33137341D01*
X23089135Y-33194254D01*
X23101569Y-33246475D01*
X23122004Y-33294816D01*
X23150463Y-33338584D01*
X23186591Y-33375989D01*
X23231181Y-33407534D01*
X23280841Y-33430279D01*
X23338396Y-33444526D01*
X23405448Y-33449544D01*
X23420835Y-33449544D01*
X23487827Y-33444436D01*
X23546641Y-33429783D01*
X23598644Y-33406130D01*
X23645142Y-33373206D01*
X23684164Y-33332186D01*
X23716247Y-33282177D01*
X23738962Y-33227029D01*
X23753232Y-33163404D01*
X23758257Y-33089713D01*
G37*
D13*
G36*
X23063657Y-18454570D02*
G01*
X23049164Y-18354205D01*
X23001472Y-18268668D01*
X22987941Y-18254291D01*
X22906010Y-18200996D01*
X22809786Y-18180694D01*
X22786685Y-18180041D01*
X21926950Y-18180041D01*
X21926950Y-17799511D01*
X21683196Y-17799511D01*
X21683196Y-18180041D01*
X21226950Y-18180041D01*
X21226950Y-18468736D01*
X21683196Y-18468736D01*
X21683196Y-18880041D01*
X21926950Y-18880041D01*
X21926950Y-18468736D01*
X22735883Y-18468736D01*
X22817851Y-18524378D01*
X22819902Y-18546894D01*
X22819902Y-18835589D01*
X23063657Y-18835589D01*
X23063657Y-18454570D01*
G37*
G36*
X23063657Y-19218562D02*
G01*
X21683196Y-19218562D01*
X21683196Y-19506768D01*
X23063657Y-19506768D01*
X23063657Y-19218562D01*
G37*
G36*
X21495617Y-19363642D02*
G01*
X21472266Y-19264726D01*
X21441396Y-19221981D01*
X21355703Y-19171582D01*
X21299735Y-19164828D01*
X21203831Y-19187154D01*
X21158562Y-19221981D01*
X21110317Y-19308996D01*
X21103852Y-19363642D01*
X21125223Y-19460118D01*
X21158562Y-19506280D01*
X21243824Y-19555818D01*
X21299735Y-19562456D01*
X21395829Y-19540512D01*
X21441396Y-19506280D01*
X21489210Y-19419726D01*
X21495617Y-19363642D01*
G37*
G36*
X23063657Y-19933705D02*
G01*
X21103852Y-19933705D01*
X21103852Y-20221911D01*
X23063657Y-20221911D01*
X23063657Y-19933705D01*
G37*
G36*
X23063657Y-20648848D02*
G01*
X21683196Y-20648848D01*
X21683196Y-20937054D01*
X23063657Y-20937054D01*
X23063657Y-20648848D01*
G37*
G36*
X21495617Y-20793928D02*
G01*
X21472266Y-20695013D01*
X21441396Y-20652267D01*
X21355703Y-20601868D01*
X21299735Y-20595114D01*
X21203831Y-20617440D01*
X21158562Y-20652267D01*
X21110317Y-20739282D01*
X21103852Y-20793928D01*
X21125223Y-20890404D01*
X21158562Y-20936566D01*
X21243824Y-20986104D01*
X21299735Y-20992742D01*
X21395829Y-20970798D01*
X21441396Y-20936566D01*
X21489210Y-20850012D01*
X21495617Y-20793928D01*
G37*
G36*
X22476193Y-21299620D02*
G01*
X22577997Y-21313129D01*
X22682672Y-21341246D01*
X22776915Y-21383042D01*
X22796350Y-21394140D01*
X22884878Y-21456498D01*
X22959000Y-21530305D01*
X23018716Y-21615561D01*
X23028890Y-21633925D01*
X23069915Y-21728951D01*
X23094530Y-21829319D01*
X23102735Y-21935031D01*
X23102209Y-21967935D01*
X23093223Y-22065490D01*
X23069030Y-22160223D01*
X23038977Y-22229040D01*
X22984033Y-22310188D01*
X22954560Y-22340958D01*
X22876078Y-22399581D01*
X22876078Y-22444521D01*
X23623461Y-22444521D01*
X23623461Y-22733216D01*
X21683196Y-22733216D01*
X21683196Y-22450383D01*
X21882010Y-22450383D01*
X21882010Y-22405442D01*
X21853635Y-22387468D01*
X21779264Y-22322926D01*
X21716901Y-22244242D01*
X21712423Y-22237433D01*
X21669776Y-22141366D01*
X21649874Y-22041054D01*
X21648520Y-22016119D01*
X21898618Y-22016119D01*
X21899679Y-22050711D01*
X21915585Y-22147530D01*
X21955647Y-22242870D01*
X22019274Y-22325331D01*
X22067892Y-22366833D01*
X22154149Y-22412986D01*
X22256403Y-22439820D01*
X22360726Y-22447452D01*
X22386127Y-22447452D01*
X22453525Y-22444506D01*
X22550894Y-22427539D01*
X22645034Y-22390423D01*
X22730509Y-22326796D01*
X22751984Y-22303647D01*
X22808313Y-22217551D01*
X22841171Y-22117717D01*
X22850677Y-22016119D01*
X22850207Y-21993283D01*
X22833778Y-21886426D01*
X22793879Y-21791782D01*
X22730509Y-21709350D01*
X22681640Y-21668014D01*
X22594747Y-21622045D01*
X22491548Y-21595319D01*
X22386127Y-21587717D01*
X22360726Y-21587717D01*
X22294043Y-21590687D01*
X22197620Y-21607792D01*
X22104253Y-21645208D01*
X22019274Y-21709350D01*
X21997712Y-21732798D01*
X21941154Y-21818893D01*
X21908162Y-21917201D01*
X21898618Y-22016119D01*
X21648520Y-22016119D01*
X21644117Y-21935031D01*
X21644445Y-21913759D01*
X21655932Y-21810375D01*
X21683829Y-21711953D01*
X21728137Y-21618492D01*
X21744543Y-21591700D01*
X21808657Y-21509650D01*
X21887272Y-21438762D01*
X21970426Y-21384507D01*
X22042801Y-21350247D01*
X22145059Y-21318562D01*
X22244649Y-21302075D01*
X22352421Y-21296580D01*
X22394431Y-21296580D01*
X22476193Y-21299620D01*
G37*
G36*
X23089058Y-23686740D02*
G01*
X23080804Y-23582920D01*
X23056041Y-23487066D01*
X23019204Y-23406838D01*
X22958273Y-23321933D01*
X22880993Y-23251866D01*
X22820391Y-23213398D01*
X22725785Y-23173628D01*
X22629462Y-23151798D01*
X22523312Y-23143612D01*
X22512156Y-23143544D01*
X21683196Y-23143544D01*
X21683196Y-23431751D01*
X22492617Y-23431751D01*
X22595504Y-23440481D01*
X22694789Y-23474003D01*
X22757376Y-23521144D01*
X22812408Y-23605701D01*
X22838305Y-23704219D01*
X22842372Y-23770760D01*
X22830780Y-23874248D01*
X22791252Y-23972548D01*
X22723670Y-24054570D01*
X22638920Y-24111500D01*
X22545107Y-24144709D01*
X22447768Y-24159890D01*
X22380265Y-24162525D01*
X21683196Y-24162525D01*
X21683196Y-24451220D01*
X23063657Y-24451220D01*
X23063657Y-24168387D01*
X22856539Y-24168387D01*
X22856539Y-24123447D01*
X22938116Y-24068858D01*
X23005489Y-23995648D01*
X23014808Y-23983251D01*
X23060054Y-23894385D01*
X23083184Y-23789390D01*
X23089058Y-23686740D01*
G37*
G36*
X22708815Y-24787014D02*
G01*
X22810457Y-24806983D01*
X22904410Y-24853733D01*
X22933784Y-24876413D01*
X23003721Y-24952228D01*
X23052421Y-25038869D01*
X23076743Y-25106815D01*
X23096790Y-25205344D01*
X23102735Y-25303628D01*
X23102102Y-25338410D01*
X23091293Y-25439326D01*
X23062191Y-25532728D01*
X23032527Y-25587542D01*
X22965959Y-25664619D01*
X22952137Y-25675503D01*
X22867774Y-25732030D01*
X22867774Y-25774040D01*
X22876078Y-25774040D01*
X22931527Y-25781313D01*
X23013342Y-25835589D01*
X23047737Y-25896363D01*
X23063657Y-25994835D01*
X23063657Y-26210746D01*
X22822833Y-26210746D01*
X22822833Y-26093021D01*
X22820782Y-26070505D01*
X22738814Y-26014863D01*
X22170216Y-26014863D01*
X22154605Y-26014712D01*
X22051575Y-26005216D01*
X21947222Y-25976273D01*
X21857158Y-25928035D01*
X21781382Y-25860502D01*
X21764760Y-25840819D01*
X21708996Y-25753121D01*
X21670390Y-25651073D01*
X21650685Y-25550010D01*
X21644117Y-25437962D01*
X21648561Y-25344161D01*
X21666061Y-25240430D01*
X21700293Y-25140962D01*
X21718566Y-25103687D01*
X21774224Y-25017933D01*
X21847327Y-24943614D01*
X21870370Y-24925685D01*
X21956189Y-24872911D01*
X22050049Y-24835659D01*
X22136999Y-25104814D01*
X22130019Y-25106423D01*
X22035272Y-25143038D01*
X21954794Y-25207885D01*
X21931055Y-25239833D01*
X21894764Y-25333479D01*
X21884941Y-25435031D01*
X21886078Y-25471659D01*
X21905482Y-25573730D01*
X21957725Y-25659246D01*
X21962320Y-25663724D01*
X22048431Y-25716037D01*
X22150677Y-25732030D01*
X22240558Y-25732030D01*
X22240558Y-25328541D01*
X22464285Y-25328541D01*
X22464285Y-25732030D01*
X22492617Y-25732030D01*
X22593796Y-25721631D01*
X22688454Y-25686169D01*
X22765680Y-25625540D01*
X22822137Y-25544420D01*
X22855159Y-25447485D01*
X22864843Y-25345638D01*
X22864788Y-25337813D01*
X22852607Y-25239185D01*
X22809155Y-25146824D01*
X22757063Y-25099699D01*
X22657725Y-25074040D01*
X22592810Y-25083863D01*
X22513622Y-25143893D01*
X22475125Y-25230796D01*
X22464285Y-25328541D01*
X22240558Y-25328541D01*
X22240558Y-25311932D01*
X22243550Y-25238232D01*
X22259258Y-25135238D01*
X22288430Y-25041311D01*
X22301001Y-25012414D01*
X22356419Y-24923537D01*
X22429602Y-24853733D01*
X22472972Y-24827085D01*
X22565920Y-24794962D01*
X22666029Y-24785345D01*
X22708815Y-24787014D01*
G37*
D14*
%TO.C,G\u002A\u002A\u002A*%
G36*
X28156413Y-28053482D02*
G01*
X28229611Y-28109336D01*
X28283164Y-28190224D01*
X28287689Y-28200923D01*
X28306825Y-28292698D01*
X28292052Y-28381799D01*
X28244922Y-28463642D01*
X28166982Y-28533646D01*
X28166909Y-28533696D01*
X28085412Y-28568291D01*
X27995538Y-28568417D01*
X27898292Y-28534071D01*
X27857782Y-28508648D01*
X27797151Y-28443536D01*
X27762803Y-28364916D01*
X27754854Y-28280018D01*
X27773422Y-28196074D01*
X27818624Y-28120316D01*
X27890579Y-28059975D01*
X27890682Y-28059916D01*
X27979773Y-28026391D01*
X28070742Y-28025040D01*
X28156413Y-28053482D01*
G37*
G36*
X28976502Y-26997726D02*
G01*
X29059323Y-27038729D01*
X29125319Y-27107739D01*
X29129612Y-27114367D01*
X29157493Y-27179610D01*
X29165865Y-27261391D01*
X29160606Y-27319042D01*
X29127905Y-27407886D01*
X29069254Y-27477150D01*
X28989272Y-27522157D01*
X28892580Y-27538227D01*
X28829117Y-27531194D01*
X28749971Y-27498098D01*
X28688981Y-27443491D01*
X28647491Y-27373615D01*
X28626843Y-27294709D01*
X28628386Y-27213012D01*
X28653458Y-27134766D01*
X28703407Y-27066211D01*
X28779576Y-27013587D01*
X28791575Y-27008226D01*
X28884653Y-26986849D01*
X28976502Y-26997726D01*
G37*
G36*
X29999009Y-27862758D02*
G01*
X30047556Y-27881929D01*
X30118318Y-27931540D01*
X30172480Y-27996163D01*
X30200598Y-28066261D01*
X30205200Y-28110348D01*
X30193264Y-28207157D01*
X30152362Y-28290402D01*
X30086016Y-28354395D01*
X29997754Y-28393449D01*
X29972003Y-28398774D01*
X29880948Y-28398435D01*
X29801072Y-28370293D01*
X29735592Y-28320012D01*
X29687729Y-28253250D01*
X29660701Y-28175667D01*
X29657728Y-28092924D01*
X29682027Y-28010684D01*
X29736820Y-27934605D01*
X29746549Y-27925424D01*
X29823180Y-27877874D01*
X29911725Y-27855782D01*
X29999009Y-27862758D01*
G37*
G36*
X29110085Y-28893299D02*
G01*
X29199981Y-28923925D01*
X29264187Y-28972460D01*
X29309867Y-29044535D01*
X29336246Y-29120592D01*
X29340318Y-29205376D01*
X29313199Y-29288391D01*
X29307820Y-29298579D01*
X29248504Y-29371061D01*
X29167805Y-29416123D01*
X29069448Y-29431578D01*
X29011068Y-29426631D01*
X28920777Y-29395156D01*
X28851306Y-29337958D01*
X28806656Y-29258911D01*
X28790826Y-29161888D01*
X28791416Y-29142725D01*
X28813848Y-29051701D01*
X28868142Y-28976184D01*
X28953456Y-28917443D01*
X28955814Y-28916275D01*
X29012109Y-28892345D01*
X29057519Y-28885613D01*
X29110085Y-28893299D01*
G37*
G36*
X29576695Y-32001700D02*
G01*
X29576007Y-32056855D01*
X29571987Y-32110644D01*
X29563230Y-32140608D01*
X29548440Y-32153714D01*
X29540359Y-32154945D01*
X29499737Y-32157174D01*
X29429282Y-32159207D01*
X29332856Y-32160990D01*
X29214321Y-32162470D01*
X29077541Y-32163593D01*
X28926377Y-32164306D01*
X28764692Y-32164556D01*
X28735706Y-32164553D01*
X28551723Y-32164333D01*
X28400016Y-32163697D01*
X28277567Y-32162547D01*
X28181359Y-32160785D01*
X28108371Y-32158314D01*
X28055591Y-32155034D01*
X28019997Y-32150849D01*
X27998570Y-32145660D01*
X27988296Y-32139370D01*
X27979997Y-32120292D01*
X27972842Y-32067349D01*
X27972712Y-31992008D01*
X27978030Y-31869830D01*
X28777363Y-31865181D01*
X29576695Y-31860531D01*
X29576695Y-32001700D01*
G37*
G36*
X28991909Y-28320371D02*
G01*
X29013052Y-28346974D01*
X29024634Y-28368665D01*
X29040963Y-28423252D01*
X29046513Y-28480851D01*
X29040705Y-28529304D01*
X29022967Y-28556452D01*
X29004136Y-28564408D01*
X28956844Y-28580952D01*
X28897932Y-28599306D01*
X28896705Y-28599669D01*
X28771016Y-28654421D01*
X28662771Y-28736025D01*
X28575626Y-28839065D01*
X28513237Y-28958122D01*
X28479261Y-29087778D01*
X28477353Y-29222615D01*
X28478391Y-29231244D01*
X28513657Y-29371633D01*
X28580079Y-29498197D01*
X28674339Y-29606025D01*
X28793121Y-29690207D01*
X28898910Y-29731586D01*
X29025564Y-29751991D01*
X29155548Y-29747769D01*
X29276639Y-29718211D01*
X29377335Y-29667960D01*
X29484806Y-29580827D01*
X29570542Y-29470738D01*
X29630559Y-29343036D01*
X29660872Y-29203066D01*
X29662975Y-29182952D01*
X29674147Y-29117355D01*
X29692870Y-29078994D01*
X29724454Y-29061009D01*
X29774203Y-29056539D01*
X29782939Y-29056623D01*
X29859186Y-29065863D01*
X29913129Y-29088653D01*
X29938582Y-29122508D01*
X29942088Y-29151086D01*
X29940783Y-29199436D01*
X29938988Y-29214028D01*
X29932306Y-29267696D01*
X29924583Y-29329105D01*
X29912238Y-29388647D01*
X29873141Y-29494798D01*
X29815560Y-29604710D01*
X29745585Y-29707350D01*
X29669308Y-29791681D01*
X29554904Y-29882911D01*
X29404274Y-29966432D01*
X29247219Y-30018075D01*
X29087546Y-30038520D01*
X28929065Y-30028450D01*
X28775584Y-29988548D01*
X28630913Y-29919495D01*
X28498860Y-29821974D01*
X28383232Y-29696666D01*
X28287841Y-29544255D01*
X28210239Y-29391151D01*
X28210239Y-29164417D01*
X28210239Y-28937684D01*
X28285990Y-28784840D01*
X28306026Y-28746787D01*
X28395669Y-28614637D01*
X28504815Y-28500801D01*
X28627900Y-28409605D01*
X28759359Y-28345376D01*
X28893628Y-28312439D01*
X28924693Y-28309122D01*
X28966589Y-28308948D01*
X28991909Y-28320371D01*
G37*
G36*
X29966312Y-27255620D02*
G01*
X30037495Y-27265487D01*
X30064185Y-27269709D01*
X30236503Y-27315372D01*
X30389270Y-27390476D01*
X30524217Y-27495843D01*
X30564360Y-27536521D01*
X30672531Y-27677682D01*
X30750944Y-27834773D01*
X30796844Y-28002671D01*
X30803842Y-28066957D01*
X30799639Y-28204278D01*
X30773601Y-28346586D01*
X30727705Y-28480217D01*
X30674835Y-28581572D01*
X30573887Y-28716446D01*
X30451793Y-28827122D01*
X30312844Y-28912115D01*
X30161333Y-28969938D01*
X30001553Y-28999104D01*
X29837795Y-28998132D01*
X29674351Y-28965532D01*
X29515514Y-28899820D01*
X29407038Y-28827504D01*
X29296271Y-28722559D01*
X29200449Y-28599173D01*
X29126226Y-28466031D01*
X29080255Y-28331813D01*
X29071621Y-28274751D01*
X29080641Y-28221520D01*
X29116461Y-28184008D01*
X29183543Y-28154561D01*
X29224907Y-28141353D01*
X29262342Y-28133312D01*
X29286155Y-28137480D01*
X29307973Y-28153787D01*
X29314716Y-28161190D01*
X29337339Y-28204083D01*
X29352059Y-28258842D01*
X29354137Y-28271044D01*
X29389465Y-28373808D01*
X29452439Y-28474652D01*
X29536373Y-28566132D01*
X29634583Y-28640803D01*
X29740380Y-28691221D01*
X29789794Y-28704400D01*
X29903500Y-28717793D01*
X30021424Y-28713573D01*
X30125930Y-28691715D01*
X30191203Y-28663622D01*
X30293935Y-28595300D01*
X30385282Y-28506126D01*
X30455004Y-28405023D01*
X30487571Y-28331623D01*
X30519225Y-28196870D01*
X30519627Y-28058932D01*
X30488152Y-27926817D01*
X30442108Y-27831339D01*
X30356084Y-27719791D01*
X30247199Y-27632167D01*
X30120125Y-27571993D01*
X29979532Y-27542798D01*
X29930071Y-27536955D01*
X29878024Y-27526763D01*
X29849093Y-27515831D01*
X29835922Y-27495279D01*
X29826975Y-27446677D01*
X29828523Y-27386857D01*
X29839907Y-27328987D01*
X29860478Y-27286233D01*
X29875659Y-27268755D01*
X29894294Y-27256211D01*
X29921544Y-27252182D01*
X29966312Y-27255620D01*
G37*
G36*
X28051846Y-27441105D02*
G01*
X28141725Y-27442304D01*
X28207721Y-27446313D01*
X28259801Y-27454605D01*
X28307927Y-27468654D01*
X28362067Y-27489934D01*
X28386059Y-27500414D01*
X28538705Y-27588807D01*
X28669475Y-27704305D01*
X28775576Y-27843986D01*
X28854216Y-28004931D01*
X28865540Y-28036405D01*
X28888831Y-28123880D01*
X28888481Y-28188056D01*
X28862531Y-28233190D01*
X28809020Y-28263540D01*
X28725986Y-28283361D01*
X28695067Y-28287052D01*
X28665391Y-28282436D01*
X28643668Y-28261375D01*
X28624428Y-28217782D01*
X28602201Y-28145569D01*
X28600759Y-28140640D01*
X28545113Y-28008871D01*
X28465766Y-27899106D01*
X28367391Y-27812722D01*
X28254661Y-27751091D01*
X28132248Y-27715588D01*
X28004826Y-27707588D01*
X27877068Y-27728465D01*
X27753647Y-27779593D01*
X27639235Y-27862347D01*
X27585993Y-27915720D01*
X27506845Y-28025841D01*
X27460412Y-28145782D01*
X27444836Y-28279536D01*
X27445036Y-28307929D01*
X27456488Y-28425670D01*
X27488132Y-28527763D01*
X27543845Y-28627846D01*
X27614329Y-28715157D01*
X27722992Y-28801016D01*
X27853673Y-28859128D01*
X28007107Y-28889906D01*
X28021713Y-28891552D01*
X28089300Y-28905532D01*
X28127488Y-28931037D01*
X28141456Y-28974111D01*
X28136381Y-29040794D01*
X28123876Y-29094509D01*
X28093911Y-29146279D01*
X28045552Y-29170446D01*
X27973866Y-29170955D01*
X27907848Y-29161238D01*
X27730410Y-29113465D01*
X27573042Y-29037603D01*
X27437698Y-28935341D01*
X27326334Y-28808370D01*
X27240905Y-28658384D01*
X27183367Y-28487071D01*
X27174526Y-28438026D01*
X27167440Y-28324807D01*
X27173018Y-28201009D01*
X27190252Y-28081331D01*
X27218132Y-27980468D01*
X27231970Y-27946592D01*
X27312604Y-27804358D01*
X27421555Y-27677218D01*
X27553659Y-27570397D01*
X27703752Y-27489118D01*
X27714686Y-27484519D01*
X27765843Y-27464975D01*
X27813251Y-27452304D01*
X27866773Y-27445060D01*
X27936273Y-27441799D01*
X28031616Y-27441073D01*
X28051846Y-27441105D01*
G37*
G36*
X29115346Y-26421156D02*
G01*
X29264800Y-26475238D01*
X29402195Y-26555397D01*
X29523702Y-26659825D01*
X29625493Y-26786712D01*
X29703742Y-26934250D01*
X29754618Y-27100632D01*
X29765581Y-27174635D01*
X29765425Y-27331212D01*
X29737052Y-27490153D01*
X29681934Y-27640549D01*
X29606386Y-27765673D01*
X29504961Y-27882772D01*
X29386096Y-27983535D01*
X29257289Y-28061618D01*
X29126041Y-28110681D01*
X29118807Y-28112455D01*
X29042571Y-28124913D01*
X28989848Y-28116725D01*
X28953511Y-28084881D01*
X28926435Y-28026371D01*
X28916933Y-27997640D01*
X28903292Y-27952313D01*
X28897932Y-27928041D01*
X28903572Y-27911158D01*
X28931780Y-27879722D01*
X28971664Y-27853063D01*
X29009571Y-27841737D01*
X29032947Y-27839007D01*
X29095996Y-27818682D01*
X29170056Y-27783139D01*
X29244370Y-27737900D01*
X29308178Y-27688487D01*
X29333467Y-27663342D01*
X29387740Y-27597340D01*
X29430706Y-27530457D01*
X29446771Y-27498454D01*
X29463457Y-27455419D01*
X29473036Y-27408671D01*
X29477399Y-27347548D01*
X29478439Y-27261392D01*
X29477817Y-27185553D01*
X29474428Y-27123971D01*
X29466322Y-27078875D01*
X29451549Y-27040033D01*
X29428163Y-26997214D01*
X29342841Y-26875891D01*
X29244509Y-26784398D01*
X29129229Y-26720837D01*
X28992093Y-26681657D01*
X28899741Y-26672920D01*
X28771833Y-26687827D01*
X28650364Y-26730953D01*
X28540156Y-26798403D01*
X28446038Y-26886280D01*
X28372835Y-26990688D01*
X28325374Y-27107732D01*
X28308481Y-27233514D01*
X28302124Y-27305379D01*
X28279445Y-27351173D01*
X28236501Y-27371014D01*
X28169358Y-27368725D01*
X28165902Y-27368205D01*
X28100238Y-27356552D01*
X28061252Y-27343275D01*
X28040394Y-27323789D01*
X28029116Y-27293508D01*
X28027679Y-27286775D01*
X28025834Y-27225876D01*
X28035795Y-27144309D01*
X28055392Y-27052558D01*
X28082447Y-26961107D01*
X28114786Y-26880442D01*
X28128388Y-26854030D01*
X28196261Y-26752450D01*
X28284360Y-26652072D01*
X28382313Y-26563759D01*
X28479745Y-26498372D01*
X28632905Y-26433451D01*
X28795570Y-26398454D01*
X28957660Y-26394958D01*
X29115346Y-26421156D01*
G37*
G36*
X28546340Y-35041200D02*
G01*
X28596546Y-35048816D01*
X28626428Y-35061799D01*
X28634046Y-35075541D01*
X28643975Y-35119222D01*
X28647862Y-35176512D01*
X28647862Y-35269790D01*
X28982778Y-35275647D01*
X29046816Y-35276848D01*
X29151499Y-35279529D01*
X29229244Y-35283086D01*
X29285915Y-35288138D01*
X29327377Y-35295303D01*
X29359493Y-35305201D01*
X29388129Y-35318454D01*
X29447676Y-35357088D01*
X29506573Y-35423115D01*
X29550042Y-35514745D01*
X29552663Y-35522896D01*
X29564369Y-35581758D01*
X29572583Y-35661160D01*
X29575911Y-35748475D01*
X29575950Y-35759149D01*
X29574926Y-35835802D01*
X29570698Y-35884174D01*
X29562219Y-35910903D01*
X29548440Y-35922631D01*
X29538947Y-35925526D01*
X29492653Y-35931692D01*
X29435663Y-35932647D01*
X29383351Y-35928610D01*
X29351098Y-35919803D01*
X29350096Y-35919001D01*
X29339299Y-35893030D01*
X29329860Y-35842401D01*
X29323724Y-35777236D01*
X29320171Y-35720216D01*
X29313331Y-35670122D01*
X29299039Y-35634189D01*
X29272585Y-35609920D01*
X29229255Y-35594817D01*
X29164344Y-35586381D01*
X29073138Y-35582115D01*
X28950928Y-35579519D01*
X28647862Y-35573877D01*
X28647862Y-35726252D01*
X28647862Y-35727228D01*
X28645536Y-35811407D01*
X28635921Y-35866199D01*
X28614966Y-35897740D01*
X28578618Y-35912166D01*
X28522827Y-35915611D01*
X28467516Y-35912236D01*
X28430884Y-35897878D01*
X28409776Y-35866390D01*
X28400107Y-35811623D01*
X28397792Y-35727430D01*
X28397792Y-35576230D01*
X28204880Y-35576230D01*
X28183319Y-35576154D01*
X28086003Y-35573191D01*
X28021250Y-35566022D01*
X27990534Y-35554795D01*
X27980758Y-35533143D01*
X27972268Y-35482190D01*
X27969100Y-35413809D01*
X27969228Y-35392636D01*
X27972497Y-35332266D01*
X27981348Y-35298277D01*
X27997354Y-35283415D01*
X28013973Y-35280220D01*
X28062307Y-35276275D01*
X28131210Y-35273574D01*
X28211700Y-35272573D01*
X28397792Y-35272573D01*
X28397792Y-35177903D01*
X28399271Y-35141950D01*
X28407036Y-35090905D01*
X28419226Y-35061799D01*
X28428345Y-35055883D01*
X28468651Y-35044773D01*
X28522827Y-35040365D01*
X28546340Y-35041200D01*
G37*
G36*
X28986177Y-32450351D02*
G01*
X29060851Y-32450454D01*
X29194135Y-32451179D01*
X29313521Y-32452521D01*
X29414645Y-32454389D01*
X29493140Y-32456695D01*
X29544643Y-32459348D01*
X29564786Y-32462259D01*
X29567683Y-32467634D01*
X29573425Y-32501572D01*
X29576199Y-32555079D01*
X29576163Y-32617109D01*
X29573472Y-32676615D01*
X29568287Y-32722555D01*
X29560764Y-32743883D01*
X29558618Y-32744623D01*
X29529103Y-32748004D01*
X29470772Y-32751564D01*
X29389216Y-32755054D01*
X29290029Y-32758225D01*
X29178803Y-32760829D01*
X29054939Y-32763639D01*
X28945540Y-32767812D01*
X28862496Y-32774175D01*
X28800853Y-32783876D01*
X28755661Y-32798064D01*
X28721968Y-32817889D01*
X28694819Y-32844499D01*
X28669265Y-32879043D01*
X28643665Y-32924405D01*
X28632932Y-32971748D01*
X28634445Y-33036564D01*
X28642595Y-33095762D01*
X28661928Y-33143969D01*
X28698858Y-33188393D01*
X28755642Y-33245217D01*
X29125978Y-33249834D01*
X29152205Y-33250182D01*
X29264334Y-33252171D01*
X29364954Y-33254727D01*
X29448010Y-33257646D01*
X29507449Y-33260721D01*
X29537219Y-33263750D01*
X29552877Y-33268270D01*
X29566631Y-33279409D01*
X29573394Y-33303296D01*
X29574915Y-33347576D01*
X29572943Y-33419894D01*
X29567763Y-33566736D01*
X29176130Y-33571559D01*
X29120055Y-33572174D01*
X28976250Y-33572518D01*
X28861485Y-33569865D01*
X28770791Y-33563198D01*
X28699203Y-33551500D01*
X28641752Y-33533753D01*
X28593470Y-33508941D01*
X28549391Y-33476047D01*
X28504546Y-33434052D01*
X28453555Y-33376687D01*
X28409896Y-33302434D01*
X28386834Y-33217126D01*
X28380028Y-33109451D01*
X28388493Y-33001028D01*
X28417905Y-32907655D01*
X28472290Y-32820991D01*
X28524510Y-32754007D01*
X28482586Y-32754007D01*
X28452031Y-32750513D01*
X28419844Y-32729140D01*
X28402791Y-32683725D01*
X28397792Y-32608999D01*
X28397215Y-32573396D01*
X28396821Y-32537062D01*
X28400111Y-32508627D01*
X28410646Y-32487131D01*
X28431983Y-32471615D01*
X28467681Y-32461119D01*
X28521302Y-32454684D01*
X28596403Y-32451348D01*
X28696543Y-32450154D01*
X28825281Y-32450142D01*
X28986177Y-32450351D01*
G37*
G36*
X29206518Y-33832150D02*
G01*
X29335094Y-33879788D01*
X29439994Y-33954151D01*
X29521188Y-34055221D01*
X29578646Y-34182981D01*
X29581723Y-34196940D01*
X29586781Y-34247433D01*
X29589501Y-34317799D01*
X29589348Y-34397327D01*
X29588412Y-34432809D01*
X29584059Y-34508573D01*
X29575041Y-34565387D01*
X29558838Y-34615462D01*
X29532934Y-34671010D01*
X29532369Y-34672122D01*
X29486711Y-34746908D01*
X29433767Y-34810620D01*
X29378757Y-34859401D01*
X29326901Y-34889389D01*
X29283419Y-34896728D01*
X29253532Y-34877557D01*
X29244514Y-34846529D01*
X29239316Y-34794281D01*
X29238017Y-34732409D01*
X29240501Y-34672211D01*
X29246652Y-34624980D01*
X29256354Y-34602012D01*
X29265577Y-34594068D01*
X29293622Y-34562339D01*
X29327804Y-34517900D01*
X29329176Y-34515990D01*
X29371213Y-34429868D01*
X29379053Y-34340245D01*
X29352233Y-34252139D01*
X29323624Y-34215748D01*
X29265141Y-34173146D01*
X29194700Y-34142085D01*
X29125675Y-34129786D01*
X29076554Y-34129395D01*
X29076553Y-34521158D01*
X29076675Y-34646996D01*
X29075988Y-34751199D01*
X29072754Y-34827455D01*
X29065228Y-34879784D01*
X29051667Y-34912207D01*
X29030328Y-34928743D01*
X28999469Y-34933412D01*
X28957345Y-34930236D01*
X28902213Y-34923234D01*
X28889475Y-34921597D01*
X28738123Y-34886979D01*
X28611952Y-34828083D01*
X28512005Y-34746009D01*
X28439324Y-34641857D01*
X28394952Y-34516729D01*
X28379929Y-34371724D01*
X28380086Y-34362741D01*
X28594107Y-34362741D01*
X28606537Y-34440205D01*
X28649331Y-34512375D01*
X28703567Y-34558613D01*
X28780716Y-34596845D01*
X28857742Y-34611573D01*
X28863011Y-34609200D01*
X28871028Y-34589134D01*
X28876297Y-34545320D01*
X28879188Y-34473780D01*
X28880070Y-34370533D01*
X28880070Y-34129394D01*
X28834841Y-34129395D01*
X28782671Y-34134877D01*
X28706325Y-34166049D01*
X28647269Y-34218914D01*
X28608774Y-34286728D01*
X28594107Y-34362741D01*
X28380086Y-34362741D01*
X28380498Y-34339210D01*
X28398016Y-34205758D01*
X28441636Y-34091656D01*
X28513546Y-33990658D01*
X28527082Y-33976014D01*
X28608230Y-33905443D01*
X28699809Y-33856695D01*
X28809531Y-33826576D01*
X28834841Y-33823835D01*
X28945104Y-33811892D01*
X29054297Y-33811255D01*
X29206518Y-33832150D01*
G37*
G36*
X29058500Y-30435227D02*
G01*
X29180284Y-30436777D01*
X29293773Y-30439119D01*
X29393484Y-30442220D01*
X29473930Y-30446048D01*
X29529628Y-30450570D01*
X29555091Y-30455755D01*
X29567782Y-30478189D01*
X29573584Y-30527394D01*
X29572953Y-30607584D01*
X29567763Y-30744514D01*
X29183727Y-30753445D01*
X29161892Y-30753955D01*
X29032334Y-30757389D01*
X28932651Y-30761512D01*
X28857751Y-30767411D01*
X28802533Y-30776174D01*
X28761903Y-30788886D01*
X28730765Y-30806634D01*
X28704024Y-30830505D01*
X28676582Y-30861585D01*
X28674130Y-30864566D01*
X28639055Y-30934294D01*
X28630031Y-31015250D01*
X28645200Y-31097003D01*
X28682704Y-31169126D01*
X28740682Y-31221187D01*
X28740960Y-31221343D01*
X28770887Y-31230417D01*
X28826803Y-31237998D01*
X28911138Y-31244264D01*
X29026325Y-31249400D01*
X29174796Y-31253585D01*
X29567763Y-31262517D01*
X29573033Y-31403864D01*
X29573367Y-31413387D01*
X29573581Y-31491025D01*
X29567688Y-31538347D01*
X29555171Y-31559883D01*
X29552197Y-31561204D01*
X29518748Y-31566426D01*
X29457560Y-31570330D01*
X29375161Y-31572938D01*
X29278082Y-31574275D01*
X29172853Y-31574364D01*
X29066004Y-31573230D01*
X28964064Y-31570896D01*
X28873565Y-31567388D01*
X28801036Y-31562729D01*
X28753007Y-31556941D01*
X28742349Y-31554815D01*
X28621779Y-31513211D01*
X28520189Y-31444659D01*
X28442919Y-31352679D01*
X28424321Y-31321435D01*
X28405152Y-31281026D01*
X28394477Y-31238663D01*
X28389858Y-31183099D01*
X28388861Y-31103082D01*
X28389126Y-31056103D01*
X28391955Y-30989747D01*
X28399778Y-30941807D01*
X28414914Y-30901027D01*
X28439679Y-30856152D01*
X28461655Y-30821787D01*
X28489308Y-30785421D01*
X28506662Y-30771307D01*
X28511482Y-30770404D01*
X28522827Y-30751534D01*
X28518460Y-30742653D01*
X28494740Y-30742539D01*
X28472469Y-30745370D01*
X28432222Y-30734890D01*
X28418253Y-30724873D01*
X28405469Y-30701829D01*
X28399357Y-30660691D01*
X28397792Y-30592685D01*
X28398724Y-30534686D01*
X28403625Y-30490049D01*
X28414842Y-30464549D01*
X28434702Y-30449153D01*
X28460777Y-30444362D01*
X28517142Y-30440484D01*
X28598124Y-30437591D01*
X28698234Y-30435651D01*
X28811990Y-30434632D01*
X28933907Y-30434501D01*
X29058500Y-30435227D01*
G37*
%TD*%
D15*
%TO.C,J5*%
X5565000Y-17145000D03*
X6465000Y-17145000D03*
X7365000Y-17145000D03*
X8265000Y-17145000D03*
X9165000Y-17145000D03*
X10515000Y-17145000D03*
X11415000Y-17145000D03*
X5565000Y-17895000D03*
X6465000Y-17895000D03*
X9615000Y-17895000D03*
X8715000Y-17895000D03*
X7815000Y-17895000D03*
X10515000Y-17895000D03*
X11415000Y-17895000D03*
D16*
X5440000Y-18950000D03*
D17*
X11540000Y-18950000D03*
D16*
X5440000Y-16090000D03*
D17*
X11540000Y-16090000D03*
%TD*%
D18*
%TO.C,J6*%
X20230000Y-105980000D03*
D19*
X17690000Y-105980000D03*
X20230000Y-103440000D03*
X17690000Y-103440000D03*
X20230000Y-100900000D03*
X17690000Y-100900000D03*
X20230000Y-98360000D03*
X17690000Y-98360000D03*
X20230000Y-95820000D03*
X17690000Y-95820000D03*
%TD*%
D20*
%TO.C,J10*%
X2065000Y-33600000D03*
X6965000Y-34200000D03*
X6965000Y-48700000D03*
X2065000Y-49300000D03*
%TD*%
D21*
%TO.C,H3*%
X23615000Y-47200000D03*
%TD*%
D15*
%TO.C,J7*%
X5498750Y-26005000D03*
X6398750Y-26005000D03*
X7298750Y-26005000D03*
X8198750Y-26005000D03*
X9098750Y-26005000D03*
X10448750Y-26005000D03*
X11348750Y-26005000D03*
X5498750Y-26755000D03*
X6398750Y-26755000D03*
X9548750Y-26755000D03*
X8648750Y-26755000D03*
X7748750Y-26755000D03*
X10448750Y-26755000D03*
X11348750Y-26755000D03*
D16*
X5373750Y-27810000D03*
D17*
X11473750Y-27810000D03*
D16*
X5373750Y-24950000D03*
D17*
X11473750Y-24950000D03*
%TD*%
D18*
%TO.C,J3*%
X6440000Y-68950000D03*
D19*
X6440000Y-66410000D03*
X6440000Y-63870000D03*
X6440000Y-61330000D03*
X6440000Y-58790000D03*
X6440000Y-56250000D03*
X3900000Y-68950000D03*
X3900000Y-66410000D03*
X3900000Y-63870000D03*
X3900000Y-61330000D03*
X3900000Y-58790000D03*
X3900000Y-56250000D03*
%TD*%
D22*
%TO.C,H1*%
X27082000Y-23758800D03*
X27565274Y-22592074D03*
X27565274Y-24925526D03*
X28732000Y-22108800D03*
D23*
X28732000Y-23758800D03*
D22*
X28732000Y-25408800D03*
X29898726Y-22592074D03*
X29898726Y-24925526D03*
X30382000Y-23758800D03*
%TD*%
D20*
%TO.C,SW3*%
X5340000Y-3450000D03*
X5340000Y-8450000D03*
X5340000Y-5950000D03*
X11590000Y-3450000D03*
X11590000Y-8450000D03*
%TD*%
D18*
%TO.C,J2*%
X6440000Y-91810000D03*
D19*
X6440000Y-89270000D03*
X6440000Y-86730000D03*
X6440000Y-84190000D03*
X6440000Y-81650000D03*
X6440000Y-79110000D03*
X3900000Y-91810000D03*
X3900000Y-89270000D03*
X3900000Y-86730000D03*
X3900000Y-84190000D03*
X3900000Y-81650000D03*
X3900000Y-79110000D03*
%TD*%
D24*
%TO.C,J8*%
X29640000Y-67434400D03*
D25*
X9640000Y-67434400D03*
%TD*%
D22*
%TO.C,H2*%
X27082000Y-88842074D03*
X27565274Y-87675348D03*
X27565274Y-90008800D03*
X28732000Y-87192074D03*
D23*
X28732000Y-88842074D03*
D22*
X28732000Y-90492074D03*
X29898726Y-87675348D03*
X29898726Y-90008800D03*
X30382000Y-88842074D03*
%TD*%
D26*
%TO.C,J4*%
X1090000Y-103507736D03*
X9190000Y-101507736D03*
X7290000Y-103507736D03*
X3590000Y-101507736D03*
X12890000Y-103507736D03*
%TD*%
D27*
%TO.C,D6*%
X1480000Y-2650000D03*
X2450000Y-2650000D03*
%TD*%
D28*
%TO.C,R49*%
X11858960Y-73873543D03*
X12580208Y-73152295D03*
%TD*%
D29*
%TO.C,R37*%
X9454893Y-79649130D03*
X8733645Y-80370378D03*
%TD*%
D30*
%TO.C,Y2*%
X11300798Y-87562359D03*
X13500798Y-87562359D03*
X13500798Y-89262359D03*
X11300798Y-89262359D03*
%TD*%
D27*
%TO.C,D16*%
X1500000Y-8340000D03*
X2470000Y-8340000D03*
%TD*%
%TO.C,D14*%
X1480000Y-4550000D03*
X2450000Y-4550000D03*
%TD*%
D31*
%TO.C,U6*%
X14133656Y-67837499D03*
X13183657Y-67837499D03*
X12233658Y-67837499D03*
X12233658Y-65562499D03*
X14133656Y-65562499D03*
%TD*%
D28*
%TO.C,R48*%
X14510724Y-77794791D03*
X15231972Y-77073543D03*
%TD*%
D27*
%TO.C,D10*%
X1487500Y-3600000D03*
X2457500Y-3600000D03*
%TD*%
%TO.C,D8*%
X1495000Y-6440000D03*
X2465000Y-6440000D03*
%TD*%
D32*
%TO.C,J1*%
X8800000Y-50100000D03*
X8800000Y-50600000D03*
X8800000Y-51100000D03*
X8800000Y-51600000D03*
X8800000Y-52100000D03*
X8800000Y-52600000D03*
X8800000Y-53100000D03*
X8800000Y-53600000D03*
X8800000Y-54100000D03*
X8800000Y-54600000D03*
X8800000Y-55100000D03*
X8800000Y-55600000D03*
X8800000Y-56100000D03*
X8800000Y-56600000D03*
D33*
X10700000Y-48150000D03*
X10700000Y-58550000D03*
%TD*%
D34*
%TO.C,RN4*%
X9110000Y-7690000D03*
D35*
X9110000Y-8190000D03*
X9110000Y-8690000D03*
D34*
X9110000Y-9190000D03*
X8110000Y-9190000D03*
D35*
X8110000Y-8690000D03*
X8110000Y-8190000D03*
D34*
X8110000Y-7690000D03*
%TD*%
D28*
%TO.C,R36*%
X8380646Y-79392067D03*
X9101894Y-78670819D03*
%TD*%
D36*
%TO.C,U4*%
X22195000Y-90290000D03*
X19655000Y-90290000D03*
X17115000Y-90290000D03*
X17115000Y-81400000D03*
X19655000Y-81400000D03*
X22195000Y-81400000D03*
%TD*%
D37*
%TO.C,C35*%
X10873657Y-43449999D03*
X11833657Y-43449999D03*
%TD*%
D38*
%TO.C,C44*%
X10633657Y-42199999D03*
X10633657Y-40299999D03*
%TD*%
D27*
%TO.C,D12*%
X1500000Y-7390000D03*
X2470000Y-7390000D03*
%TD*%
D28*
%TO.C,R47*%
X15213992Y-78478524D03*
X15935240Y-77757276D03*
%TD*%
D34*
%TO.C,RN2*%
X9040000Y-2690000D03*
D35*
X9040000Y-3190000D03*
X9040000Y-3690000D03*
D34*
X9040000Y-4190000D03*
X8040000Y-4190000D03*
D35*
X8040000Y-3690000D03*
X8040000Y-3190000D03*
D34*
X8040000Y-2690000D03*
%TD*%
D39*
%TO.C,U11*%
X13204508Y-85438856D03*
X12704508Y-85438856D03*
X12204508Y-85438856D03*
X11704508Y-85438856D03*
X11204508Y-85438856D03*
X11204508Y-81213856D03*
X11704508Y-81213856D03*
X12204508Y-81213856D03*
X12704508Y-81213856D03*
X13204508Y-81213856D03*
%TD*%
D40*
%TO.C,R34*%
X8872338Y-72953827D03*
X8872338Y-71933827D03*
%TD*%
D27*
%TO.C,D20*%
X1500000Y-9290000D03*
X2470000Y-9290000D03*
%TD*%
D40*
%TO.C,R45*%
X12183657Y-70709998D03*
X12183657Y-69690000D03*
%TD*%
%TO.C,R35*%
X7933657Y-72949999D03*
X7933657Y-71929999D03*
%TD*%
D27*
%TO.C,D18*%
X1487500Y-5500000D03*
X2457500Y-5500000D03*
%TD*%
D41*
%TO.C,R46*%
X13683657Y-63949999D03*
X14703655Y-63949999D03*
%TD*%
D42*
%TO.C,C36*%
X14433657Y-84469999D03*
X14433657Y-85429999D03*
%TD*%
M02*
